<svg width="177" height="210" viewBox="0 0 177 210" fill="none" xmlns="http://www.w3.org/2000/svg">
<rect width="176.435" height="210" fill="#D9A5B5"/>
<g clip-path="url(#clip0_318_12)">
<path d="M94.0891 18.8124C93.5713 16.8396 90.8102 16.7941 88.8149 17.2092C79.4995 19.1449 69.0826 22.5217 60.0118 25.3991C54.633 27.1744 49.401 29.3953 44.3866 32.033C42.8753 32.8278 41.1347 34.4294 41.9831 35.9128C42.5954 36.9844 44.1049 37.008 45.3328 36.8797C58.2121 35.5314 70.9026 32.3857 82.9234 27.5626C86.3102 26.2041 89.7021 24.6751 92.4412 22.2635C93.4481 21.3725 94.4315 20.1136 94.0891 18.8124Z" fill="#D196A8"/>
<path d="M142.481 91.2572C142.631 93.981 142.282 96.8735 140.95 99.523C140.924 99.5736 140.897 99.6243 140.87 99.6749C140.857 99.7036 140.842 99.7306 140.826 99.7593C140.742 99.9213 140.653 100.083 140.558 100.242C140.094 101.038 139.534 101.808 138.865 102.539C138.035 103.445 137.006 104.262 135.832 104.998C135.684 105.092 135.534 105.183 135.38 105.273C135.043 105.473 134.694 105.668 134.334 105.855C127.186 109.598 116.137 110.961 109.952 111.451C108.419 111.478 106.887 111.566 105.363 111.711H105.356H105.354C102.694 111.962 100.051 112.388 97.4489 112.987C88.5079 115.04 80.11 119.089 71.1404 121.018C63.1152 122.744 54.0511 122.462 47.3416 117.99C45.9316 117.05 44.8049 115.739 44.0442 114.224C43.1789 112.499 42.4537 110.963 41.7065 109.512C41.5901 109.286 41.4737 109.063 41.3557 108.84C41.3371 108.806 41.3202 108.773 41.3017 108.739C40.3774 107.009 39.3755 105.372 38.0026 103.639C37.7968 103.379 37.5826 103.116 37.3583 102.851L37.3566 102.849C37.2453 102.716 37.1306 102.581 37.0108 102.444C36.9754 102.402 36.9383 102.36 36.9012 102.318C36.5571 101.926 36.1928 101.528 35.8049 101.121C34.4623 99.7154 33.0151 98.4126 31.6236 97.0541C31.5005 96.9342 31.3774 96.8128 31.2543 96.6912C31.1564 96.5951 31.0603 96.4972 30.9625 96.3993C30.5863 96.0213 30.217 95.6365 29.856 95.2433C23.2055 87.9749 20.1813 77.5354 21.9169 67.8335C23.6525 58.1332 30.1073 49.3915 38.8661 44.8823C40.4752 44.0537 42.1383 43.3685 43.8401 42.7863C44.0644 42.7087 44.2888 42.6344 44.5148 42.5602C50.1516 40.7308 56.1814 39.9731 62.0476 38.8964C73.9588 36.7144 85.6052 33.0911 96.6528 28.1313C98.4912 27.3061 100.32 26.442 102.153 25.5814C102.377 25.475 102.603 25.3704 102.828 25.2658C108.719 22.5083 114.658 19.8537 121.037 18.7635C123.779 18.2961 126.615 18.129 129.325 18.7517C136.536 20.4123 141.612 27.8427 141.614 35.2462C141.617 43.7044 136.083 51.4605 136.245 59.917C136.303 62.9243 137.08 65.8219 138.253 68.5963C139.354 71.207 140.804 73.708 142.333 76.0892C142.43 76.2411 142.528 76.3913 142.628 76.5431C143.662 78.1413 144.738 79.7225 145.78 81.319L142.279 89.2068C142.375 89.8751 142.444 90.5602 142.481 91.2572Z" fill="#D196A8"/>
<path d="M140.95 99.523C140.924 99.5736 140.897 99.6242 140.87 99.6749L63.5319 107.583L63.4712 107.59L37.0109 102.444C36.9755 102.402 36.9384 102.36 36.9013 102.318C36.5572 101.926 36.1929 101.528 35.8049 101.121C34.4623 99.7154 33.0152 98.4126 31.6237 97.0541C31.5006 96.9342 31.3774 96.8127 31.2543 96.6912L100.902 93.3532L133.242 91.804L141.338 91.3247L142.481 91.2572C142.631 93.981 142.282 96.8735 140.95 99.523Z" fill="#B29EEF"/>
<path d="M102.828 25.2657V71.509C102.828 71.6947 102.676 71.8465 102.49 71.8465C102.303 71.8465 102.153 71.6947 102.153 71.509V25.5813C102.377 25.475 102.603 25.3704 102.828 25.2657Z" fill="#D9A5B5"/>
<path d="M140.826 99.7592C140.742 99.9212 140.653 100.083 140.558 100.242C140.094 101.038 139.534 101.808 138.865 102.539C138.035 103.445 137.006 104.262 135.832 104.997C135.684 105.092 135.534 105.183 135.38 105.273L74.0987 112.318L64.4578 113.427L64.2908 110.361L64.166 108.081L64.1812 108.079L69.253 107.529L140.826 99.7592Z" fill="white"/>
<path d="M44.5148 42.5602V91.4664C44.5148 91.6538 44.3647 91.8039 44.1774 91.8039C43.9919 91.8039 43.8401 91.6538 43.8401 91.4664V42.7863C44.0644 42.7087 44.2888 42.6344 44.5148 42.5602Z" fill="#D9A5B5"/>
<path d="M70.4285 66.2978C69.4924 64.4702 67.6742 63.2888 65.0009 62.7623C64.9992 62.7606 64.9975 62.7606 64.9941 62.7606C63.3547 62.4366 61.3948 62.3573 59.1161 62.5261C48.6082 63.3074 40.8783 65.3781 36.1421 68.679C32.9088 70.9336 31.5426 75.1374 32.8228 78.9041L38.6839 96.1529L38.883 96.7402L54.1287 95.6669L57.6774 95.4171L57.7499 95.4121L57.7955 95.3564C57.7972 95.353 57.8106 95.3378 57.8343 95.3091C58.2745 94.7792 62.287 89.892 65.7649 84.1187C70.7119 75.9103 72.2805 69.9143 70.4285 66.2978ZM57.583 95.0847L45.4997 95.9369L39.9472 96.3267H39.9456L39.1191 96.3858L39.0365 96.1411L33.1416 78.7944C31.9103 75.1711 33.2242 71.1243 36.3361 68.9558C39.8326 66.5172 44.9937 64.757 51.7302 63.6989C51.7421 63.6972 51.7555 63.6956 51.7707 63.6922C54.0477 63.3361 56.5069 63.061 59.1414 62.8636C59.9156 62.8062 60.6527 62.7775 61.3526 62.7775C65.9302 62.7775 68.8768 64.0094 70.1283 66.4531C74.3129 74.6261 58.5562 93.9084 57.583 95.0847Z" fill="#FEECD6"/>
<path d="M40.0248 96.563L34.0068 78.8484C32.7503 75.1509 34.0625 71.0484 37.2638 68.8174C40.9846 66.2236 47.7717 63.6146 60.1534 62.6948C87.7016 60.6478 58.6911 95.2484 58.6911 95.2484L40.0248 96.563Z" fill="#FEECD6"/>
<path d="M90.397 33.7223C90.5285 33.2025 90.5589 32.73 90.5488 32.2659C90.537 31.8035 90.4779 31.3411 90.4442 30.8365C90.3987 30.5209 90.3278 30.2071 90.2317 29.8999C89.8522 28.6663 89.0966 27.5204 88.1132 26.6834C86.1466 25.011 83.4749 24.395 80.896 24.3106C77.0302 24.1824 72.8405 25.3316 70.5349 28.4385C68.5665 31.088 68.3304 34.588 67.4382 37.7658C65.9725 42.9922 62.6312 47.5166 58.7991 51.3576C56.5542 53.6088 53.9854 55.9023 53.3951 59.0277C52.8165 62.094 54.4222 65.3004 56.8898 67.2074C57.7888 67.9027 58.8092 68.4596 59.9123 68.733C61.0339 69.0114 62.2146 68.9895 63.3531 68.7954C66.8478 68.1997 69.8484 66.0615 72.8034 64.1039C73.0986 63.9082 73.3971 63.7124 73.694 63.4964C75.8394 61.8814 76.0081 59.0125 77.6947 56.9874C77.9899 56.5857 78.2935 56.3022 78.6005 56.1132C82.5861 55.9748 89.164 53.781 90.1946 59.404C90.3025 59.7145 90.4105 60.0234 90.5302 60.3187C91.0109 61.4983 91.6788 62.4653 93.18 62.5412C93.4397 62.5615 93.7028 62.5699 93.9676 62.5665C95.2883 62.548 96.6258 62.2088 97.5417 61.284C98.5149 60.3018 98.8337 58.8387 98.8438 57.4565C98.859 55.531 98.353 53.6038 97.3949 51.9347C97.0256 51.2901 96.5955 50.691 96.1266 50.1189C95.8921 49.8337 95.6492 49.5536 95.3979 49.2852C91.8627 46.8619 89.5014 42.8116 89.977 38.4492C89.9821 38.0273 90.0006 37.6071 90.0293 37.1835C90.117 35.9179 90.3025 34.6404 90.5016 33.3814L90.397 33.7223Z" fill="#3F4553"/>
<path d="M88.781 34.4142C87.9849 36.7819 89.0205 39.2255 90.5318 41.065C92.4141 43.3567 94.8463 45.0494 96.4621 47.5808C98.0779 50.1138 99.38 53.327 98.7222 56.3799C98.4524 57.6354 97.7625 58.1468 96.5717 58.4708C95.5715 58.7425 94.6405 59.0327 93.7786 59.6318C93.5796 59.7702 93.7685 60.0993 93.9709 59.9592C94.9711 59.2639 96.0505 59.0665 97.1772 58.6902C97.8823 58.4539 98.4608 58.0691 98.7964 57.3857C99.9332 55.0669 99.041 51.8807 98.0442 49.6886C96.791 46.9311 94.8766 44.8621 92.7143 42.7965C90.5031 40.6853 88.0423 37.8046 89.1487 34.5155C89.2263 34.2826 88.8586 34.183 88.781 34.4142Z" fill="#4E5567"/>
<path d="M76.0603 53.9935L78.0168 52.5608L80.5198 51.3795L88.2093 53.9935L91.4932 88.7764L83.006 90.9112L77.1549 73.2759L76.0603 53.9935Z" fill="white"/>
<path d="M91.6855 49.0338C94.8767 49.6717 97.8857 51.4757 99.5741 54.3176C101.33 57.2726 101.36 61.1372 99.4155 64.0061C99.2789 64.2086 99.6061 64.3993 99.7427 64.1984C101.711 61.2924 101.723 57.3874 100.028 54.348C98.331 51.3036 95.1466 49.3409 91.7851 48.6693C91.5472 48.6187 91.446 48.9849 91.6855 49.0338Z" fill="#4E5567"/>
<path d="M65.8376 44.5363C63.343 46.5024 60.9547 48.6 58.4635 50.5711C56.4985 52.1254 54.2957 53.5075 52.9161 55.6592C50.1887 59.9119 52.1689 65.1603 55.9267 68.0225C58.0368 69.6307 60.899 70.9082 63.569 70.0897C63.8018 70.0189 63.7022 69.651 63.4678 69.7235C61.0188 70.4745 58.4028 69.354 56.4243 67.9212C54.456 66.4969 52.8621 64.4752 52.2566 62.0923C51.6679 59.7735 52.1486 57.3097 53.5637 55.3858C54.9367 53.5193 56.9387 52.2587 58.7317 50.8411C61.2229 48.8717 63.6112 46.7724 66.1057 44.8063C66.298 44.6544 66.0281 44.3861 65.8376 44.5363Z" fill="#4E5567"/>
<path d="M98.7662 98.3822L73.2538 97.7696C73.2538 97.0827 73.7699 96.5073 74.453 96.4347L100.802 93.5877L98.7662 98.3822Z" fill="#400F58"/>
<path d="M69.6545 35.2309C69.3542 38.1657 68.742 41.1054 67.477 43.787C66.2221 46.4483 64.2487 48.5241 62.2332 50.6201C60.4318 52.4933 58.6187 54.4711 57.7382 56.9671C57.0028 59.0462 57.158 61.3008 58.1413 63.2719C59.1246 65.2413 60.9243 66.6808 63.1895 66.6336C63.4341 66.6285 63.4341 66.2488 63.1895 66.2539C60.894 66.3011 59.1702 64.7215 58.2965 62.7015C57.2508 60.2832 57.5814 57.7147 58.848 55.4432C60.1366 53.1329 62.1202 51.3238 63.9148 49.4168C65.6335 47.5908 67.1076 45.6383 68.101 43.3196C69.2007 40.7527 69.7523 37.9986 70.034 35.2309C70.0576 34.9879 69.6781 34.9896 69.6545 35.2309Z" fill="#4E5567"/>
<path d="M88.5585 42.2564C88.5433 45.5388 91.2521 47.6989 93.266 49.9231C94.4567 51.2395 95.521 52.7667 95.6357 54.5961C95.7487 56.3984 94.9998 58.1501 93.6724 59.3568C93.492 59.5221 93.7601 59.7888 93.9406 59.6251C96.3171 57.465 96.6038 54.0206 94.8868 51.3711C92.9455 48.3739 88.9194 46.2307 88.938 42.2564C88.9397 42.0117 88.5602 42.0117 88.5585 42.2564Z" fill="#4E5567"/>
<path d="M87.118 53.6577C87.8517 55.2221 87.204 57.0599 87.452 58.7711C88.8958 68.7498 88.5365 78.9665 88.6917 89.0245C88.7153 90.5517 88.7811 92.2056 89.7408 93.3953C89.9229 93.6215 90.1456 93.8324 90.4239 93.9202C90.6431 93.9893 90.8793 93.9758 91.1103 93.9623C94.3707 93.7649 97.631 93.5675 100.891 93.37C99.832 87.1057 98.7728 80.8397 97.7136 74.5754C100.257 77.7328 102.799 80.8903 105.342 84.0478C106.418 81.2295 107.493 78.4112 108.569 75.5913C108.697 75.2538 108.829 74.8994 108.78 74.5416C108.736 74.2243 108.555 73.9459 108.378 73.6792C105.894 69.9379 103.285 66.2809 100.54 62.7251C98.8757 60.5667 97.1334 58.4201 94.9205 56.8304C92.6283 55.1799 89.8099 54.3074 87.118 53.6577Z" fill="#FB7C85"/>
<path d="M99.5859 92.0537C99.5909 92.2714 99.4239 92.4553 99.2435 92.5751C98.9112 92.7928 98.5115 92.8755 98.1185 92.9295C96.339 93.1709 94.4922 92.8874 92.8662 92.1263C93.5274 93.0173 94.1869 93.9067 94.848 94.7977C94.9357 94.9158 95.0285 95.0576 94.9897 95.1994C94.9594 95.3141 94.8531 95.3884 94.7536 95.4508C94.6187 95.5335 94.477 95.6077 94.3336 95.6736C93.5712 96.028 92.7077 96.163 91.8745 96.0516C90.0967 95.8136 88.5939 94.5176 86.8145 94.2813C85.9155 94.1598 85.0047 94.3201 84.0973 94.3724C83.1899 94.4231 82.2234 94.3488 81.4813 93.8257C81.3025 93.7008 81.1355 93.5455 81.0545 93.343C80.8471 92.8334 81.2401 92.2967 81.5589 91.8478C81.6584 91.7077 81.7511 91.5643 81.8388 91.4175C82.2993 90.6581 82.613 89.8126 82.7598 88.9367C83.7397 88.8776 84.9828 88.5469 85.929 88.2921C87.307 87.9225 88.7896 87.3538 90.1001 87.9157C90.4054 88.0474 90.6837 88.2347 90.9603 88.4203C93.2508 89.9611 95.7504 91.5035 98.5115 91.5018C98.9618 91.5018 99.5774 91.6031 99.5859 92.0537Z" fill="#FFB9A3"/>
<path d="M94.3336 95.6737C93.5712 96.0281 92.7077 96.1631 91.8745 96.0517C90.0967 95.8137 88.5939 94.5177 86.8145 94.2814C85.9155 94.1599 85.0047 94.3202 84.0973 94.3725C83.1899 94.4232 82.2234 94.3489 81.4813 93.8258C81.3025 93.7009 81.1355 93.5456 81.0545 93.3431C80.8471 92.8335 81.2401 92.2968 81.5589 91.8479C81.6584 91.7078 81.7511 91.5644 81.8388 91.4176C82.4865 91.8833 83.8409 92.4538 86.4232 92.1348C90.5133 91.6285 89.67 93.9911 92.5795 94.8349C93.5156 95.1066 94.0452 95.4003 94.3336 95.6737Z" fill="#FF9B8D"/>
<path d="M89.6599 29.1388C87.9226 23.5208 81.3801 22.2433 76.2847 23.5427C73.8222 24.1705 71.5013 25.4784 69.8804 27.463C67.9661 29.807 67.2071 32.8278 66.7652 35.7609C66.4768 37.6729 66.3266 39.6102 65.8814 41.4953C65.6216 42.5956 65.0414 43.5659 64.6484 44.6207C64.5624 44.8502 64.9301 44.9498 65.0144 44.7219C65.3096 43.9288 65.7447 43.193 66.0247 42.3981C66.4481 41.1999 66.5948 39.8752 66.7635 38.6213C67.1632 35.6478 67.4685 32.5882 68.8077 29.856C71.1674 25.043 76.6389 22.9487 81.7714 23.5714C85.2172 23.9882 88.2262 25.7923 89.2922 29.24C89.3664 29.4729 89.7324 29.3733 89.6599 29.1388Z" fill="#4E5567"/>
<path d="M77.1887 37.894C75.4312 37.3641 74.5525 38.0763 74.3416 39.3167C74.1291 40.5554 75.2541 41.8413 76.509 41.7974C76.6304 43.3264 76.848 44.8705 77.4653 46.2746C78.0809 47.6787 79.1402 48.9427 80.557 49.5266C82.1357 50.1797 84.0652 49.8776 85.3707 48.7756C85.8935 48.3334 86.3135 47.7833 86.7099 47.2247C87.9209 45.5169 88.9717 43.6521 89.4321 41.6084C89.8926 39.5647 89.7104 37.3169 88.6023 35.5398C88.4826 35.3475 88.3426 35.1534 88.1402 35.0504C87.8517 34.9036 87.506 34.9745 87.1939 35.0555C83.824 35.9432 80.6716 37.9041 77.1887 37.894Z" fill="#FFB9A3"/>
<path d="M90.257 30.4568C90.5083 31.3496 90.7613 32.2592 90.7259 33.1856C90.6905 34.1121 90.316 35.0741 89.5469 35.5921C88.933 36.0056 88.1605 36.0849 87.4605 36.3229C86.042 36.8038 84.9457 37.9143 83.8393 38.9251C82.7919 39.882 81.4763 40.8355 80.0865 40.557C78.808 40.3005 77.9629 39.0838 77.4418 37.8873C77.1618 37.246 76.9324 36.5338 77.096 35.8537C77.1905 35.4622 77.4097 35.1112 77.6526 34.7905C79.0508 32.9544 81.3194 31.9436 83.5981 31.5926C85.8784 31.2415 88.2026 31.4778 90.4965 31.7158L90.257 30.4568Z" fill="#3F4553"/>
<path d="M77.4737 37.9564C77.9662 40.8507 81.2721 42.2885 83.7008 40.5857C84.8545 39.7773 85.5983 38.5471 86.6053 37.5835C87.6746 36.5608 89.54 36.1187 89.8369 34.48C89.8808 34.2404 89.5147 34.1391 89.4709 34.3788C89.2044 35.8419 87.4992 36.2638 86.5091 37.1531C85.7113 37.8704 85.0957 38.7614 84.3451 39.5259C83.3433 40.5469 82.0513 41.1915 80.594 40.8743C79.1098 40.5503 78.0876 39.3183 77.838 37.8552C77.7992 37.6155 77.4332 37.7185 77.4737 37.9564Z" fill="#4E5567"/>
<path d="M140.949 99.523C140.924 99.5737 140.897 99.6243 140.87 99.6749C140.857 99.7036 140.841 99.7306 140.826 99.7593C140.742 99.9213 140.653 100.083 140.558 100.242L69.253 107.529L64.1795 108.047L64.1812 108.079L64.2908 110.361L64.4392 113.464L74.0987 112.318L135.832 104.998C135.684 105.092 135.534 105.183 135.38 105.273C135.043 105.473 134.694 105.668 134.334 105.855L64.1593 114.176C64.1474 114.178 64.134 114.18 64.1205 114.18C64.0412 114.18 63.9636 114.151 63.9029 114.099C63.8304 114.04 63.7882 113.952 63.7831 113.857L63.4913 107.76C63.488 107.696 63.5031 107.635 63.5318 107.583C63.5824 107.488 63.6786 107.419 63.7932 107.407L140.949 99.523Z" fill="#6737C3"/>
<path d="M64.1592 107.809C64.1272 107.969 63.9855 108.081 63.8286 108.081C63.8067 108.081 63.7848 108.079 63.7629 108.076L63.5385 108.032L37.682 102.915V102.913L37.3582 102.851L37.3565 102.849C37.2098 102.674 37.058 102.497 36.9011 102.318C36.9669 102.189 37.112 102.113 37.2638 102.144L63.8927 107.412C64.0766 107.45 64.1947 107.627 64.1592 107.809Z" fill="#6737C3"/>
<path d="M64.4511 113.911C64.4174 114.07 64.2774 114.18 64.1205 114.18C64.0986 114.18 64.075 114.176 64.0514 114.173L41.7065 109.512C41.5901 109.286 41.4738 109.063 41.3557 108.84C41.3371 108.806 41.3203 108.773 41.3017 108.739L63.7512 113.42L64.1897 113.511C64.3718 113.55 64.4882 113.729 64.4511 113.911Z" fill="#6737C3"/>
<path d="M54.4189 95.9908C54.4239 96.1765 54.2789 96.3334 54.0917 96.3385L31.6237 97.054C31.401 96.838 31.1818 96.6203 30.9625 96.3992L38.684 96.1529L39.0365 96.141L39.8748 96.1157L45.4998 95.9368L51.7472 95.7377L54.0714 95.6635C54.0917 95.6635 54.1102 95.6635 54.1288 95.6668C54.2873 95.6888 54.4121 95.8238 54.4189 95.9908Z" fill="#6737C3"/>
<path d="M123.062 54.252C123.292 53.2816 122.692 52.3084 121.722 52.0782C120.753 51.8481 119.78 52.4481 119.55 53.4184C119.32 54.3888 119.919 55.362 120.889 55.5922C121.859 55.8223 122.832 55.2223 123.062 54.252Z" fill="#D9A5B5"/>
<path d="M121.307 57.6995C119.178 57.6995 117.446 55.9664 117.446 53.8366C117.446 51.7069 119.178 49.9738 121.307 49.9738C123.435 49.9738 125.167 51.7069 125.167 53.8366C125.169 55.9664 123.437 57.6995 121.307 57.6995ZM121.307 50.1408C119.271 50.1408 117.615 51.798 117.615 53.835C117.615 55.8719 119.271 57.5291 121.307 57.5291C123.342 57.5291 124.999 55.8719 124.999 53.835C125 51.798 123.344 50.1408 121.307 50.1408Z" fill="#D9A5B5"/>
<path d="M97.147 34.1509C97.5196 34.1509 97.8216 33.8487 97.8216 33.4759C97.8216 33.1031 97.5196 32.8009 97.147 32.8009C96.7743 32.8009 96.4723 33.1031 96.4723 33.4759C96.4723 33.8487 96.7743 34.1509 97.147 34.1509Z" fill="#D9A5B5"/>
<path d="M32.7503 61.9877C31.374 61.9877 30.2541 60.8672 30.2541 59.4901C30.2541 58.113 31.374 56.9925 32.7503 56.9925C34.1267 56.9925 35.2466 58.113 35.2466 59.4901C35.2466 60.8672 34.1267 61.9877 32.7503 61.9877ZM32.7503 57.33C31.5596 57.33 30.5914 58.2987 30.5914 59.4901C30.5914 60.6815 31.5596 61.6502 32.7503 61.6502C33.9411 61.6502 34.9093 60.6815 34.9093 59.4901C34.9093 58.2987 33.9411 57.33 32.7503 57.33Z" fill="#D9A5B5"/>
<path d="M53.8015 32.8009C53.8015 33.3645 53.3445 33.8219 52.7811 33.8219C52.2178 33.8219 51.7607 33.3645 51.7607 32.8009C51.7607 32.2372 52.2178 31.7799 52.7811 31.7799C53.3461 31.7816 53.8015 32.2372 53.8015 32.8009Z" fill="#D9A5B5"/>
<path d="M149.078 73.8953L145.78 81.319L142.279 89.2068L141.337 91.3247L138.678 97.314L98.7679 98.3822L100.901 93.3532L110.166 71.5192C110.671 70.3328 111.797 69.5296 113.083 69.4384C117.692 69.1178 129.021 68.4191 138.253 68.5963C141.305 68.6537 144.131 68.809 146.404 69.1043C147.207 69.2089 147.894 69.5785 148.403 70.1067C149.334 71.0653 149.678 72.5453 149.078 73.8953Z" fill="#FEECD6"/>
<path d="M97.5248 98.443L97.211 98.3198L99.3447 92.901L108.611 70.8476C109.142 69.5853 110.315 68.7398 111.671 68.6436C116.162 68.328 127.608 67.6142 136.856 67.7931C140.153 67.8555 142.901 68.0293 145.026 68.3078C145.837 68.4141 146.563 68.782 147.124 69.3709C148.155 70.4426 148.433 72.0171 147.831 73.3823L140.091 90.9839L139.782 90.8472L147.522 73.2457C148.069 72.007 147.816 70.5776 146.88 69.6038C146.37 69.0706 145.714 68.7381 144.981 68.6419C142.869 68.3651 140.132 68.193 136.848 68.1306C127.613 67.9517 116.179 68.6655 111.693 68.9811C110.465 69.0689 109.402 69.835 108.92 70.9792L99.655 93.0292L97.5248 98.443Z" fill="#FEECD6"/>
<path d="M128.115 84.8498C129.776 83.3196 130.294 81.1787 129.272 80.0679C128.25 78.957 126.075 79.297 124.414 80.8272C122.752 82.3573 122.234 84.4983 123.256 85.6091C124.278 86.7199 126.454 86.38 128.115 84.8498Z" fill="#B29EEF"/>
<path d="M98.213 75.156C97.4202 73.5865 96.3694 72.1504 95.7403 70.4999C95.6256 70.1978 95.1365 70.3295 95.2529 70.6349C95.9006 72.3293 96.9632 73.8009 97.7778 75.4125C97.9229 75.7028 98.3597 75.4463 98.213 75.156Z" fill="white"/>
<path d="M91.2757 90.6784C92.335 93.036 95.9208 93.4359 98.1168 93.1811C98.4373 93.144 98.4407 92.6377 98.1168 92.6748C96.0945 92.9094 92.6976 92.6174 91.7126 90.4236C91.5793 90.1266 91.1425 90.3848 91.2757 90.6784Z" fill="white"/>
<path d="M83.0061 88.6786C82.7311 84.0731 82.2977 79.4778 81.7057 74.9028C81.2266 71.1968 80.7746 67.474 79.8723 63.8407C79.4219 62.0282 78.8586 60.2427 78.1401 58.5163C77.4603 56.881 76.3505 55.0973 77.0404 53.273C75.2323 54.5724 74.0415 55.104 71.9686 55.9141C70.2988 56.5671 68.5649 57.0498 66.9103 57.7417C65.9489 58.1434 65.006 58.6209 64.2217 59.3061C63.3346 60.0807 62.6835 61.0865 62.0746 62.094C61.3865 63.2331 60.7337 64.3959 60.1738 65.6042C59.2748 67.5432 58.6204 69.5835 57.8732 71.585C56.5373 75.1593 54.8996 78.6172 53.1084 81.9873C51.9783 84.1136 50.7639 86.2721 50.4468 88.66C50.1297 91.0479 50.941 93.765 53.0325 94.9564C53.9871 95.4998 55.1054 95.6753 56.2017 95.758C64.2083 96.3571 71.7982 95.2568 80.8471 94.0805C81.0951 94.0485 80.6161 94.175 80.8471 94.0805C81.1136 93.9725 81.2671 93.7008 81.3936 93.4426C82.1239 91.9508 82.8998 90.3391 83.0061 88.6786Z" fill="#FB7C85"/>
<path d="M69.9395 75.0951C68.7015 78.1952 67.6811 81.373 66.8782 84.6131C66.8445 84.7498 66.9221 84.8832 67.0554 84.9253C71.3159 86.2619 75.7956 86.4492 80.1506 87.3319C80.7426 87.4517 82.581 87.612 82.7143 88.2718C82.8071 88.7342 82.6063 89.3721 82.5119 89.821C82.1813 91.3989 81.6146 93.0393 80.5098 94.2459C80.2906 94.4855 80.6464 94.845 80.8674 94.6037C82.0109 93.3532 82.6266 91.6808 82.9791 90.0472C83.1697 89.1663 83.6183 87.8904 82.5878 87.423C81.4915 86.9251 80.0915 86.7918 78.9126 86.5893C77.6374 86.3699 76.3556 86.1944 75.0737 86.0155C72.4139 85.6443 69.7574 85.2443 67.1886 84.4376C67.2476 84.5406 67.3067 84.6452 67.3657 84.7498C68.1669 81.508 69.189 78.3319 70.427 75.2318C70.5467 74.9281 70.0576 74.7964 69.9395 75.0951Z" fill="white"/>
<path d="M67.0874 84.4361C65.6875 84.647 64.35 85.047 63.0597 85.6241C62.7628 85.7574 63.0192 86.1928 63.3143 86.0612C64.5658 85.5009 65.8663 85.128 67.2223 84.9238C67.5428 84.8765 67.4062 84.3871 67.0874 84.4361Z" fill="white"/>
<path d="M84.5678 58.4185C83.3804 58.8488 82.0648 58.7172 80.8251 58.4691C79.5955 58.2227 78.2664 57.7806 77.6356 56.6955C76.8395 55.3302 77.4821 53.6257 77.8616 52.0917C78.3491 50.1324 78.3676 48.0584 77.919 46.0906L82.5809 46.9901L84.163 47.2956C84.1208 49.3291 84.6403 51.3711 85.6506 53.1363C85.7468 53.3034 85.8463 53.4688 85.9441 53.6359C86.3118 54.2552 86.666 54.888 86.7031 55.5968C86.7706 56.8592 85.7569 57.9881 84.5678 58.4185Z" fill="#FFB9A3"/>
<path d="M85.9442 53.6358C81.5808 53.3151 79.9178 50.2792 79.368 48.8211C79.7289 49.1097 80.1269 49.3493 80.557 49.5265C81.7546 50.021 83.1528 49.967 84.3267 49.4337C84.5477 50.7331 84.9963 51.9921 85.6507 53.1363C85.7469 53.3033 85.8464 53.4687 85.9442 53.6358Z" fill="#FF9B8D"/>
<mask id="path-44-inside-1_318_12" fill="white">
<path d="M121.307 41.578C115.967 41.578 111.622 37.2308 111.622 31.8879C111.622 26.545 115.967 22.1978 121.307 22.1978C126.647 22.1978 130.992 26.545 130.992 31.8879C130.992 37.2308 126.648 41.578 121.307 41.578ZM121.307 22.3665C116.06 22.3665 111.791 26.6378 111.791 31.8879C111.791 37.138 116.06 41.4092 121.307 41.4092C126.554 41.4092 130.823 37.138 130.823 31.8879C130.823 26.6378 126.554 22.3665 121.307 22.3665Z"/>
</mask>
<path d="M121.307 41.578C115.967 41.578 111.622 37.2308 111.622 31.8879C111.622 26.545 115.967 22.1978 121.307 22.1978C126.647 22.1978 130.992 26.545 130.992 31.8879C130.992 37.2308 126.648 41.578 121.307 41.578ZM121.307 22.3665C116.06 22.3665 111.791 26.6378 111.791 31.8879C111.791 37.138 116.06 41.4092 121.307 41.4092C126.554 41.4092 130.823 37.138 130.823 31.8879C130.823 26.6378 126.554 22.3665 121.307 22.3665Z" fill="#F9F7F1"/>
<path d="M121.307 36.578C118.731 36.578 116.622 34.472 116.622 31.8879H106.622C106.622 39.9896 113.203 46.578 121.307 46.578V36.578ZM116.622 31.8879C116.622 29.3038 118.731 27.1978 121.307 27.1978V17.1978C113.203 17.1978 106.622 23.7862 106.622 31.8879H116.622ZM121.307 27.1978C123.883 27.1978 125.992 29.3038 125.992 31.8879H135.992C135.992 23.7862 129.411 17.1978 121.307 17.1978V27.1978ZM125.992 31.8879C125.992 34.4725 123.884 36.578 121.307 36.578V46.578C129.413 46.578 135.992 39.989 135.992 31.8879H125.992ZM121.307 17.3665C113.295 17.3665 106.791 23.879 106.791 31.8879H116.791C116.791 29.3966 118.824 27.3665 121.307 27.3665V17.3665ZM106.791 31.8879C106.791 39.8968 113.295 46.4092 121.307 46.4092V36.4092C118.824 36.4092 116.791 34.3791 116.791 31.8879H106.791ZM121.307 46.4092C129.318 46.4092 135.823 39.8968 135.823 31.8879H125.823C125.823 34.3791 123.79 36.4092 121.307 36.4092V46.4092ZM135.823 31.8879C135.823 23.879 129.318 17.3665 121.307 17.3665V27.3665C123.79 27.3665 125.823 29.3966 125.823 31.8879H135.823Z" fill="#F9F7F1" mask="url(#path-44-inside-1_318_12)"/>
<mask id="path-46-inside-2_318_12" fill="white">
<path d="M121.205 31.9858L122.477 24.5098L122.644 24.5385L121.411 31.79C123.027 31.5858 125.387 31.2686 125.55 31.1892L125.581 31.2534L125.594 31.2551L125.657 31.1926L125.678 31.2837C125.658 31.3445 125.63 31.4289 121.32 31.9706L121.205 31.9858Z"/>
</mask>
<path d="M121.205 31.9858L122.477 24.5098L122.644 24.5385L121.411 31.79C123.027 31.5858 125.387 31.2686 125.55 31.1892L125.581 31.2534L125.594 31.2551L125.657 31.1926L125.678 31.2837C125.658 31.3445 125.63 31.4289 121.32 31.9706L121.205 31.9858Z" fill="#F9F7F1"/>
<path d="M121.205 31.9858L116.276 31.1473L115.139 37.8328L121.862 36.9425L121.205 31.9858ZM122.477 24.5098L123.324 19.582L118.388 18.7339L117.548 23.6713L122.477 24.5098ZM122.644 24.5385L127.573 25.3766L128.41 20.4558L123.491 19.6107L122.644 24.5385ZM121.411 31.79L116.482 30.9519L115.352 37.5955L122.038 36.7506L121.411 31.79ZM125.55 31.1892L130.069 29.0498L127.91 24.4886L123.369 26.6901L125.55 31.1892ZM125.581 31.2534L121.061 33.3928L122.236 35.874L124.96 36.2147L125.581 31.2534ZM125.594 31.2551L124.974 36.2164L127.401 36.52L129.131 34.7896L125.594 31.2551ZM125.657 31.1926L130.518 30.0229L128.43 21.3448L122.12 27.6581L125.657 31.1926ZM125.678 31.2837L130.422 32.8641L130.875 31.5059L130.54 30.114L125.678 31.2837ZM121.32 31.9706L120.697 27.0096L120.68 27.0117L120.664 27.0139L121.32 31.9706ZM126.135 32.8243L127.406 25.3483L117.548 23.6713L116.276 31.1473L126.135 32.8243ZM121.631 29.4376L121.798 29.4663L123.491 19.6107L123.324 19.582L121.631 29.4376ZM117.715 23.7004L116.482 30.9519L126.341 32.6281L127.573 25.3766L117.715 23.7004ZM122.038 36.7506C122.86 36.6467 123.88 36.513 124.725 36.3936C125.143 36.3346 125.546 36.2751 125.869 36.2222C126.026 36.1966 126.204 36.166 126.372 36.1324C126.453 36.1163 126.578 36.0903 126.718 36.0548C126.726 36.0529 127.206 35.9433 127.731 35.6884L123.369 26.6901C123.688 26.5357 123.949 26.4528 124.027 26.4283C124.139 26.3928 124.227 26.3699 124.271 26.3589C124.32 26.3466 124.356 26.3383 124.375 26.3342C124.395 26.3298 124.408 26.3272 124.411 26.3265C124.413 26.3262 124.367 26.335 124.254 26.3535C124.039 26.3887 123.72 26.4363 123.326 26.492C122.546 26.6021 121.578 26.7291 120.784 26.8295L122.038 36.7506ZM121.031 33.3286L121.061 33.3928L130.1 29.114L130.069 29.0498L121.031 33.3286ZM124.96 36.2147L124.974 36.2164L126.215 26.2937L126.201 26.292L124.96 36.2147ZM129.131 34.7896L129.193 34.7271L122.12 27.6581L122.058 27.7205L129.131 34.7896ZM120.795 32.3623L120.817 32.4534L130.54 30.114L130.518 30.0229L120.795 32.3623ZM120.935 29.7034C120.925 29.7326 121.063 29.2792 121.35 28.7845C121.668 28.2364 122.065 27.7936 122.482 27.4501C122.864 27.1357 123.216 26.9417 123.442 26.8312C123.673 26.7186 123.864 26.6482 123.977 26.6095C124.096 26.5688 124.189 26.5428 124.24 26.5292C124.294 26.5148 124.33 26.5066 124.342 26.5041C124.361 26.4998 124.336 26.5057 124.242 26.5223C123.829 26.5949 122.857 26.738 120.697 27.0096L121.944 36.9315C124.092 36.6615 125.289 36.4915 125.973 36.3713C126.24 36.3245 126.73 36.2366 127.213 36.0715C127.415 36.0025 128.124 35.7588 128.842 35.1669C129.27 34.8142 129.674 34.3628 129.997 33.8066C130.148 33.5466 130.252 33.3141 130.322 33.1386C130.356 33.0538 130.381 32.9834 130.397 32.9375C130.405 32.9145 130.412 32.8956 130.416 32.8837C130.418 32.8776 130.419 32.8727 130.42 32.8695C130.421 32.8683 130.421 32.8664 130.422 32.8657C130.422 32.865 130.422 32.8643 130.422 32.8641L120.935 29.7034ZM120.664 27.0139L120.549 27.0291L121.862 36.9425L121.977 36.9273L120.664 27.0139Z" fill="#F9F7F1" mask="url(#path-46-inside-2_318_12)"/>
<path d="M154.068 45.2418C153.679 44.0841 153.193 42.9095 152.294 42.0826C150.587 40.5115 147.755 40.6853 145.858 42.0219C143.96 43.3584 142.876 45.5894 142.309 47.839C141.789 51.4217 141.921 53.9599 143 57.7299C143.527 59.566 144.336 61.3886 145.75 62.6746C147.163 63.9605 149.28 64.6001 151.044 63.8694C152.727 63.1724 153.739 61.4359 154.353 59.7213C156.013 55.0905 155.635 49.9029 154.068 45.2418Z" fill="#D196A8"/>
<path d="M68.3523 73.9595C68.6441 74.1924 68.8566 74.5012 69.1349 74.7476C69.3997 74.9821 69.7067 75.1593 70.0137 75.3332C70.2987 75.4935 70.5534 75.0564 70.2683 74.8961C69.9681 74.7273 69.6645 74.5586 69.4149 74.3189C69.172 74.0843 68.9747 73.8126 68.7099 73.6017C68.4569 73.4009 68.0976 73.757 68.3523 73.9595Z" fill="white"/>
<path d="M95.7234 70.7361C96.0725 70.24 96.4098 69.7354 96.7354 69.2241C96.9108 68.949 96.4739 68.6941 96.2985 68.9692C95.973 69.4806 95.6357 69.9852 95.2865 70.4813C95.0993 70.748 95.5378 71.0011 95.7234 70.7361Z" fill="white"/>
<path d="M76.4736 41.9678C76.676 44.4452 77.2748 47.9318 79.6074 49.3207C80.67 49.9535 82.0935 50.4058 83.3349 50.1999C84.5949 49.9906 85.5124 49.0574 86.2781 48.1056C86.4299 47.9166 86.1635 47.6466 86.01 47.8373C85.2881 48.7351 84.4464 49.6261 83.2573 49.8185C82.0379 50.0159 80.5688 49.5299 79.5619 48.8448C77.5682 47.4879 77.0369 44.1921 76.8548 41.9695C76.8329 41.7248 76.4534 41.7231 76.4736 41.9678Z" fill="#FF9B8D"/>
<path d="M67.7434 101.592H60.3221L58.7737 91.5322H69.4554L67.7434 101.592Z" fill="white"/>
<path d="M64.0226 102.839C66.0775 102.839 67.7434 102.281 67.7434 101.592C67.7434 100.903 66.0775 100.345 64.0226 100.345C61.9677 100.345 60.3018 100.903 60.3018 101.592C60.3018 102.281 61.9677 102.839 64.0226 102.839Z" fill="white"/>
<path d="M64.1154 92.7794C67.0655 92.7794 69.457 92.2211 69.457 91.5323C69.457 90.8435 67.0655 90.2852 64.1154 90.2852C61.1653 90.2852 58.7737 90.8435 58.7737 91.5323C58.7737 92.2211 61.1653 92.7794 64.1154 92.7794Z" fill="white"/>
<path d="M64.1154 92.5702C66.569 92.5702 68.558 92.1055 68.558 91.5323C68.558 90.9591 66.569 90.4944 64.1154 90.4944C61.6618 90.4944 59.6727 90.9591 59.6727 91.5323C59.6727 92.1055 61.6618 92.5702 64.1154 92.5702Z" fill="#400F58"/>
<path d="M59.4737 92.5988C57.7196 92.8452 55.9638 93.0916 54.2096 93.3397C53.8116 93.3953 53.7509 93.9404 53.987 94.1851C55.1913 95.4491 56.3922 96.7165 57.6015 97.9755C58.6439 99.0623 59.7166 100.105 61.0271 100.863C61.5921 101.19 62.1015 100.316 61.5382 99.9888C60.2158 99.2226 59.1634 98.1442 58.1159 97.0473C56.9774 95.8558 55.8406 94.661 54.7038 93.4679C54.6296 93.7497 54.5554 94.0316 54.4812 94.3134C56.2353 94.067 57.9911 93.8206 59.7453 93.5725C60.3845 93.4848 60.1113 92.5094 59.4737 92.5988Z" fill="white"/>
<path d="M62.7424 91.5069C62.5839 91.3112 62.4355 91.1019 62.309 90.8825C62.1167 90.5535 62.0762 90.5045 62.2044 90.1316C62.3326 89.7569 62.6311 89.6388 62.8453 89.3316C63.0764 89.0026 63.1573 88.606 62.9043 88.2651C62.6126 87.8736 62.0155 87.774 61.5651 87.8314C61.4572 87.8449 61.3543 87.8786 61.2514 87.9073C60.9225 87.9968 60.3221 87.9309 60.0978 87.6069C59.7621 87.1226 60.6156 86.4087 60.9377 86.1202C61.1199 85.9565 60.8517 85.6881 60.6695 85.8518C60.1669 86.3024 59.5884 86.7682 59.693 87.5141C59.7773 88.1166 60.1686 88.5047 60.7808 88.4338C61.2379 88.3798 63.1843 87.7892 62.5451 89.0515C62.3477 89.4413 61.8721 89.5797 61.7203 90.0016C61.4977 90.621 62.1184 91.3348 62.4742 91.7753C62.6277 91.966 62.8942 91.6959 62.7424 91.5069Z" fill="white"/>
<path d="M64.4208 90.8472C64.2167 90.616 63.8928 90.297 63.8507 89.9679C63.7646 89.2929 64.2335 89.2743 64.5422 88.9841C64.7008 88.8356 64.8121 88.6938 64.834 88.4744C64.9032 87.7505 64.0733 87.6762 63.6128 87.4146C62.2483 86.6383 62.9247 85.1819 63.5656 84.2065C64.0092 83.5332 64.3988 82.8834 64.3482 82.0498C64.3331 81.8068 63.9536 81.8051 63.9687 82.0498C64.0834 83.8943 61.4016 85.317 62.8302 87.2206C63.0697 87.5395 63.3514 87.7083 63.709 87.8635C64.188 88.0728 64.4528 88.3884 64.0311 88.8811C63.9384 88.9891 63.7781 89.0364 63.6786 89.1545C63.122 89.8178 63.6904 90.5957 64.1509 91.1155C64.3145 91.2978 64.5827 91.0294 64.4208 90.8472Z" fill="white"/>
<path d="M65.9825 91.1408C65.8409 90.837 65.6418 90.4945 65.9606 90.2076C66.0466 90.1316 66.1748 90.108 66.2743 90.0574C66.4734 89.9544 66.6235 89.8312 66.6943 89.6119C66.8394 89.163 66.5442 88.7546 66.1208 88.6297C65.8864 88.5605 65.7852 88.9267 66.0196 88.9959C66.3165 89.0836 66.4801 89.4515 66.1832 89.681C66.1141 89.7351 65.9488 89.7772 65.8645 89.8262C65.7228 89.9055 65.598 89.9949 65.5136 90.1367C65.2775 90.5248 65.4816 90.9653 65.6536 91.3349C65.7582 91.5526 66.0854 91.3602 65.9825 91.1408Z" fill="white"/>
</g>
<defs>
<clipPath id="clip0_318_12">
<rect width="134" height="105" fill="white" transform="translate(21.4346 17)"/>
</clipPath>
</defs>
</svg>
