<svg width="177" height="210" viewBox="0 0 177 210" fill="none" xmlns="http://www.w3.org/2000/svg">
<rect x="0.5" width="176.435" height="210" fill="#8E97FD"/>
<mask id="mask0_316_8" style="mask-type:alpha" maskUnits="userSpaceOnUse" x="0" y="0" width="177" height="210">
<rect x="0.5" width="176.435" height="210" rx="10" fill="#FA6E5A"/>
</mask>
<g mask="url(#mask0_316_8)">
<path d="M13.2731 35.4473C-12.2269 39.8272 -18.7269 24.8626 -23.2269 16.2853V-37.3683H64.7731V60.6317H49.2731C40.9398 50.047 38.7731 31.0674 13.2731 35.4473Z" fill="#808AFF"/>
<path d="M116.273 35.4473C141.773 39.8272 148.273 24.8626 152.773 16.2853V-37.3683H64.7731V60.6317H80.2731C88.6064 50.0469 90.7731 31.0674 116.273 35.4473Z" fill="#808AFF"/>
<g clip-path="url(#clip0_316_8)">
<path d="M156.886 24.3394H153.5V41.3394H156.886V24.3394Z" fill="#9BA3FF"/>
<path d="M162.193 30.0536H158.807V41.3391H162.193V30.0536Z" fill="#9BA3FF"/>
<path d="M167.507 35.4393H164.121V41.3394H167.507V35.4393Z" fill="#9BA3FF"/>
</g>
<g clip-path="url(#clip1_316_8)">
<path d="M92 129.339C111.054 129.339 126.5 126.653 126.5 123.339C126.5 120.026 111.054 117.339 92 117.339C72.9462 117.339 57.5 120.026 57.5 123.339C57.5 126.653 72.9462 129.339 92 129.339Z" fill="#808AFF"/>
</g>
<path d="M86.1817 45.4955C86.1817 45.4955 84.8302 60.436 90.4285 60.2109C96.4339 59.9663 94.8185 45.4955 94.8185 45.4955C94.0337 43.163 93.721 41.7799 94.0727 39.3333H86.7809C87.1327 41.7799 86.9633 43.163 86.1817 45.4955Z" fill="#FDBCA0"/>
<path d="M86.9274 42.2234C87.7546 42.4713 88.5883 42.6996 89.4514 42.7714C90.2688 42.8399 91.109 42.7877 91.9232 42.6996C92.6006 42.6246 93.3236 42.5039 94.001 42.2788C93.8935 41.3915 93.9098 40.4781 94.0759 39.3298H86.7841C86.9437 40.4553 86.9925 41.3556 86.9274 42.2234Z" fill="#F0A38B"/>
<path d="M90.4283 41.3721C92.5094 41.3721 94.5122 40.5501 95.9778 39.069C97.7234 37.3075 99.0912 35.3437 99.4918 33.0374C100.006 30.0754 99.0065 27.1166 96.8245 24.7353H84.0288C81.8468 27.1133 80.847 30.0754 81.3616 33.0374C81.7621 35.3437 83.1332 37.3075 84.8756 39.069C86.3444 40.5468 88.3473 41.3721 90.4283 41.3721Z" fill="#FDBCA0"/>
<path d="M91.0635 47.2375C90.7997 47.5279 90.5522 47.8443 90.3177 48.1607C90.0344 47.965 89.8097 47.7268 89.5622 47.4822C89.5394 47.4593 89.4938 47.4822 89.5035 47.5148C89.6436 47.8997 89.9367 48.2129 90.2363 48.4804C90.3014 48.5359 90.3926 48.5424 90.4578 48.4804C90.7737 48.1705 91.0831 47.8084 91.3273 47.4365C91.4315 47.2832 91.1905 47.0972 91.0635 47.2375Z" fill="#DF8370"/>
<path d="M98.1046 46.6666C96.1603 46.833 94.2421 47.1494 92.35 47.6322C92.236 47.6616 92.2848 47.8345 92.3988 47.8084C94.2812 47.3908 96.1831 47.107 98.1046 46.9765C98.3065 46.9635 98.3033 46.6503 98.1046 46.6666Z" fill="#DF8370"/>
<path d="M82.7491 46.6666C84.6934 46.833 86.6116 47.1494 88.5037 47.6322C88.6177 47.6616 88.5689 47.8345 88.4549 47.8084C86.5725 47.3908 84.6706 47.107 82.7491 46.9765C82.5504 46.9635 82.5504 46.6503 82.7491 46.6666Z" fill="#DF8370"/>
<path d="M83.0844 19.8095C80.365 21.3688 78.4501 23.8252 78.4175 27.1265C78.3849 30.8486 82.9118 36.7758 82.8499 36.629C81.3453 33.0081 80.9512 28.0235 84.7062 25.528C85.0808 25.2801 85.5497 25.1366 85.8852 24.8462C85.8754 22.8792 84.7909 20.9741 83.0844 19.8095Z" fill="#3F4553"/>
<path d="M97.5049 19.8095C100.224 21.3688 102.139 23.8252 102.172 27.1265C102.204 30.8486 99.98 34.1596 97.7654 36.9716C98.3289 35.745 99.6348 28.0203 95.8798 25.528C95.5053 25.2801 95.0363 25.1366 94.7009 24.8462C94.7139 22.8792 95.8016 20.9741 97.5049 19.8095Z" fill="#424495"/>
<path d="M136.55 17.8392C134.473 16.8051 132.046 16.5833 129.786 17.0433C128.692 17.2651 127.656 17.6533 126.669 18.1785C126.015 18.5243 125.35 19.0201 124.588 19.0789C123.663 19.1474 122.853 18.5439 122.165 18.0089C120.029 16.3452 117.857 14.887 115.108 14.4858C113.779 14.29 112.294 14.4336 111.265 15.2491C110.21 13.8529 108.637 12.858 106.904 12.4926C104.612 12.0098 102.433 12.6981 100.632 14.0813C99.6158 13.5822 97.8376 12.8645 97.6129 12.8025C90.8389 10.9366 81.5898 15.6699 82.7882 23.6524C83.8174 30.5126 92.49 33.6834 98.4987 32.2742C99.7949 34.7305 102.902 35.3014 105.296 34.0227C105.478 34.1629 105.66 34.3032 105.846 34.4402C109.666 37.2456 114.111 39.0692 118.912 38.2406C120.736 37.9242 122.442 37.2652 124.012 36.3192C125.504 37.4414 127.467 37.7969 129.275 36.9292C130.62 36.2866 131.522 35.0992 131.844 33.7552C131.867 33.7552 131.89 33.7552 131.913 33.7552C135.905 33.7062 140.139 31.7196 141.159 27.5278C142.087 23.7176 140.022 19.5649 136.55 17.8392Z" fill="#4E5567"/>
<path d="M118.397 16.5964C119.71 17.6697 120.488 19.1409 119.671 20.7622C119.006 22.0833 117.811 23.0457 116.941 24.2168C115.922 25.5869 115.746 27.3451 117.417 28.3466C119.062 29.3318 121.123 28.1052 122.494 27.1755C124.188 26.024 126.005 22.6933 127.464 21.2645C133.945 14.9197 140.38 21.7017 140.406 21.7245C139.566 20.0739 138.224 18.6744 136.55 17.8393C134.472 16.8052 132.046 16.5834 129.786 17.0433C128.692 17.2652 127.656 17.6534 126.669 18.1786C126.015 18.5243 125.35 19.0202 124.588 19.0789C123.663 19.1474 122.852 18.5439 122.165 18.0089C120.029 16.3452 117.857 14.8871 115.108 14.4858C113.808 14.2966 112.359 14.4336 111.333 15.2035C113.571 14.3325 116.603 15.1252 118.397 16.5964Z" fill="#3F4553"/>
<path d="M135.658 32.6788C134.072 32.8647 132.587 32.7766 131.128 32.1275C130.499 33.7618 129.213 35.4124 127.395 35.6701C126.174 35.843 124.731 35.4614 124.481 34.1663C115.896 41.1668 106.272 33.3573 105.344 31.8926C102.667 33.6411 99.2931 31.5077 98.2932 28.7773C96.2545 29.57 93.9032 29.3253 91.9231 28.4739C88.2332 26.8918 86.188 22.5303 87.4777 18.681C88.5524 15.4808 91.415 13.2919 94.5871 12.4014C88.4026 12.3655 81.7621 16.815 82.788 23.6525C83.8171 30.5127 92.4865 33.6835 98.4984 32.2743C99.7946 34.7307 102.902 35.3015 105.295 34.0228C105.478 34.163 105.66 34.3033 105.846 34.4403C109.666 37.2458 114.111 39.0693 118.912 38.2407C120.735 37.9243 122.442 37.2653 124.012 36.3193C125.503 37.4415 127.467 37.797 129.274 36.9293C130.62 36.2867 131.522 35.0993 131.844 33.7553C131.867 33.7553 131.89 33.7553 131.912 33.7553C133.818 33.7324 135.775 33.266 137.416 32.333C136.84 32.5059 136.241 32.6103 135.658 32.6788Z" fill="#3F4553"/>
<path d="M88.142 34.786C87.0022 34.9752 85.1491 35.0372 84.0972 33.9085C83.8887 33.6834 83.6054 33.9379 83.8659 34.163C83.9083 34.1989 83.9506 34.2315 83.9929 34.2641C83.8692 34.3 83.7389 34.3163 83.6021 34.3065C83.5989 34.3065 83.5989 34.3098 83.6021 34.313C83.7682 34.3685 83.9376 34.3848 84.1037 34.3522C84.1069 34.3554 84.1102 34.3587 84.1135 34.3587C83.9702 34.4533 83.7975 34.4925 83.6282 34.5479C83.6249 34.5479 83.6249 34.5512 83.6282 34.5544C83.8366 34.574 84.0548 34.5479 84.2274 34.437C84.247 34.45 84.2665 34.4566 84.2861 34.4696C84.1558 34.5707 84.0092 34.6458 83.8431 34.6849C83.8269 34.6882 83.8301 34.7143 83.8464 34.7143C84.0581 34.7241 84.26 34.6719 84.4294 34.5544C84.4652 34.574 84.5043 34.5903 84.5401 34.6099C84.4196 34.698 84.2958 34.7763 84.1558 34.8415C84.1428 34.848 84.1493 34.8709 84.1623 34.8709C84.3479 34.8774 84.5108 34.7828 84.6573 34.6719C84.7029 34.6947 84.7485 34.711 84.7974 34.7306C84.7355 34.7926 84.6638 34.8513 84.5954 34.91C84.5857 34.9198 84.5954 34.9328 84.6085 34.9328C84.7257 34.9035 84.8332 34.8545 84.9244 34.786C85.9698 35.2166 87.1943 35.2297 88.243 34.8513C88.3537 34.8056 88.269 34.7665 88.142 34.786Z" fill="#3F4553"/>
<path d="M92.8219 34.786C93.9618 34.9752 95.8149 35.0372 96.8668 33.9085C97.0752 33.6834 97.3585 33.9379 97.098 34.163C97.0557 34.1989 97.0133 34.2315 96.971 34.2641C97.098 34.3 97.225 34.3163 97.3618 34.3065C97.3651 34.3065 97.3651 34.3098 97.3618 34.313C97.1957 34.3685 97.0264 34.3848 96.8603 34.3522C96.857 34.3554 96.8538 34.3587 96.8505 34.3587C96.9938 34.4533 97.1664 34.4925 97.3357 34.5479C97.339 34.5479 97.339 34.5512 97.3357 34.5544C97.1273 34.574 96.9091 34.5479 96.7365 34.437C96.717 34.45 96.6974 34.4566 96.6779 34.4696C96.8082 34.5707 96.9547 34.6458 97.1208 34.6849C97.1371 34.6882 97.1338 34.7143 97.1175 34.7143C96.9059 34.7241 96.7039 34.6719 96.5346 34.5544C96.4988 34.574 96.4597 34.5903 96.4239 34.6099C96.5444 34.698 96.6681 34.7763 96.8082 34.8415C96.8212 34.848 96.8147 34.8709 96.8016 34.8709C96.616 34.8774 96.4532 34.7828 96.3066 34.6719C96.261 34.6947 96.2154 34.711 96.1698 34.7306C96.2317 34.7926 96.3034 34.8513 96.3718 34.91C96.3815 34.9198 96.3718 34.9328 96.3587 34.9328C96.2415 34.9035 96.134 34.8545 96.0428 34.786C94.9974 35.2166 93.7729 35.2297 92.721 34.8513C92.6135 34.8056 92.6949 34.7665 92.8219 34.786Z" fill="#3F4553"/>
<path d="M91.2001 37.1642C90.666 37.4415 90.1352 37.5524 89.5848 37.2197C89.5457 37.1968 89.5001 37.2523 89.5359 37.2849C90.0082 37.7057 90.8484 37.8134 91.3206 37.3208C91.3988 37.236 91.3011 37.112 91.2001 37.1642Z" fill="#3F4553"/>
<path d="M92.4213 39.0887C91.7536 39.2877 91.0958 39.3627 90.4444 39.3333C89.7931 39.3627 89.1352 39.2877 88.4676 39.0887C88.4513 39.0821 88.4383 39.1115 88.4546 39.118C89.0961 39.392 89.7703 39.5388 90.4444 39.5552C91.1186 39.5388 91.7927 39.392 92.4343 39.118C92.4506 39.1115 92.4375 39.0854 92.4213 39.0887Z" fill="#3F4553"/>
<path d="M87.383 36.3845C87.3277 36.3584 87.2691 36.3356 87.2104 36.3193C86.4647 36.1268 85.5821 35.7614 84.8037 35.8952C84.2533 35.9898 84.1263 36.6585 84.439 37.0532C84.7744 37.4773 85.4323 37.598 85.9403 37.6372C86.4516 37.6763 87.2528 37.7318 87.6338 37.3305C87.979 36.9684 87.7445 36.5607 87.383 36.3845Z" fill="#FBAD8B"/>
<path d="M93.4794 36.3845C93.5348 36.3584 93.5934 36.3356 93.6521 36.3193C94.3978 36.1268 95.2804 35.7614 96.0588 35.8952C96.6092 35.9898 96.7362 36.6585 96.4235 37.0532C96.0881 37.4773 95.4302 37.598 94.9222 37.6372C94.4109 37.6763 93.6097 37.7318 93.2287 37.3305C92.8835 36.9684 93.1212 36.5607 93.4794 36.3845Z" fill="#FBAD8B"/>
<path d="M80.5931 31.501C79.8213 31.3868 78.994 31.7065 79.1341 32.6232C79.2448 33.3539 80.0297 34.0813 81.2282 33.8628C80.9025 33.1059 80.6778 32.31 80.5931 31.501Z" fill="#F9CDB9"/>
<path d="M79.8472 32.2188C80.0589 32.0426 80.3879 31.9643 80.6712 32.01C80.6549 31.9219 80.6451 31.8306 80.6321 31.7425C80.2446 31.7066 79.7886 31.8665 79.5672 32.147C79.2219 32.5874 79.4825 33.0767 79.8635 33.3768C79.9189 33.4225 79.997 33.3507 79.9449 33.2953C79.6681 33.0017 79.476 32.5287 79.8472 32.2188Z" fill="#F8C4AB"/>
<path d="M80.8244 32.708C80.6225 32.5253 80.3587 32.4242 80.0558 32.4372C79.9874 32.4405 79.9614 32.5546 80.0395 32.5644C80.3163 32.6036 80.5541 32.7471 80.7006 32.9689C80.5313 33.0603 80.4075 33.2593 80.5801 33.4224C80.7169 33.5529 80.9188 33.5822 81.111 33.5626C81.0035 33.2821 80.9025 32.9983 80.8244 32.708Z" fill="#F8C4AB"/>
<path d="M80.5248 33.6507C80.5216 33.6475 80.5151 33.6507 80.5183 33.654C80.6421 33.9606 80.818 34.6783 80.3946 34.8251C80.1112 34.923 80.0852 34.5576 80.1275 34.3651C80.1666 34.189 80.2643 34.0063 80.3457 33.8497C80.3457 33.8497 80.1503 33.8073 79.9712 33.716C79.7269 33.9248 79.639 34.2347 79.6814 34.5609C79.7204 34.8577 79.9093 35.1839 80.2448 35.1937C80.5444 35.2035 80.7593 34.9458 80.8049 34.6718C80.857 34.3162 80.7137 33.9411 80.5248 33.6507Z" fill="#FDCA27"/>
<path d="M142.845 89.8311C141.015 87.6487 137.055 87.4726 134.456 87.2018C126.643 86.3863 118.632 86.5885 110.815 87.2214C106.924 87.5378 103.051 88.0108 99.1955 88.6339C96.4044 89.0873 93.2878 89.4037 90.5 90.2976C87.7122 89.4037 84.5955 89.0841 81.8045 88.6339C77.9518 88.0076 74.0763 87.5346 70.1845 87.2214C62.3684 86.5885 54.3536 86.3863 46.5439 87.2018C43.9483 87.4726 39.9849 87.6487 38.1546 89.8311C36.3862 91.9384 38.5682 94.4927 40.2487 95.8334C42.5707 97.6863 45.5181 98.5997 48.3319 99.3989C51.8654 100.397 55.4804 101.076 59.1149 101.591C75.3823 103.888 84.2145 102.195 92.7178 102.09C93.0435 102.504 93.3496 102.935 93.6297 103.382C102.25 103.437 113.323 102.749 121.882 101.591C125.52 101.098 129.131 100.4 132.665 99.3989C135.482 98.6029 138.426 97.6896 140.748 95.8334C142.429 94.4927 144.611 91.9384 142.845 89.8311Z" fill="#93BFA8"/>
<path d="M131.303 91.3416C131.574 90.9958 133.212 90.5684 133.857 90.2814C130.818 90.526 127.767 90.8914 124.735 91.2046C118.967 91.7983 113.193 93.3282 107.728 95.2431C105.113 96.1597 102.504 97.1221 99.9054 98.0876C97.8471 98.851 95.8117 99.6861 93.8804 100.727C94.1768 100.635 94.4732 100.544 94.7695 100.456C97.8504 99.5491 110.405 92.7475 133.652 91.9092C133.114 91.7917 131.199 91.4753 131.303 91.3416Z" fill="#66A986"/>
<path d="M50.0384 90.8619C49.7681 90.5161 48.1299 90.0888 47.4851 89.8017C50.5236 90.0464 53.5752 90.4117 56.6072 90.7249C62.3749 91.3186 68.149 92.8485 73.6138 94.7634C76.229 95.68 78.8376 96.6424 81.4365 97.608C83.4948 98.3713 85.5302 99.2064 87.4614 100.247C87.1651 100.156 86.8687 100.064 86.5724 99.9763C83.4915 99.0694 70.9368 92.2679 47.6903 91.4295C48.2244 91.3121 50.1393 90.9956 50.0384 90.8619Z" fill="#66A986"/>
<path d="M98.3585 98.0746C97.0493 97.5494 95.6652 97.5364 94.3918 98.0811C92.2163 99.0174 89.5491 97.582 87.2889 97.8398C85.2079 98.0779 83.941 100.449 85.5335 101.963C85.9178 102.328 89.7803 103.731 95.8997 100.874C96.5706 100.56 97.2252 100.381 97.984 100.391C98.1599 100.394 98.326 100.56 98.5116 100.541C98.9089 100.492 99.2346 100.42 99.4561 100.035C99.9771 99.1283 99.1076 98.3747 98.3585 98.0746Z" fill="#FDB597"/>
<path d="M83.0844 102.886C84.1884 102.009 85.5139 101.598 86.885 101.758C89.2363 102.032 91.3825 99.8916 93.6231 99.4904C95.6846 99.1218 97.5768 101.03 96.4825 102.942C96.2187 103.402 92.9164 105.852 86.2369 104.866C85.5041 104.759 84.8267 104.775 84.1037 105C83.9376 105.052 83.8236 105.261 83.638 105.294C83.2439 105.362 82.9117 105.385 82.5893 105.082C81.8338 104.361 82.4526 103.389 83.0844 102.886Z" fill="#FDBCA0"/>
<path d="M127.467 49.2959C126.714 49.684 125.923 50.1212 125.184 50.5289C125.575 50.2092 127.744 47.9975 128.587 47.4528C128.678 47.394 128.463 46.497 126.245 48.2715C125.584 48.8 124.803 49.335 124.181 49.9124C124.972 48.4086 125.633 46.8851 126.669 45.5085C126.711 45.4531 126.698 45.3911 126.662 45.3487C126.451 45.1823 125.92 45.3715 125.682 45.626C125.259 46.0761 123.65 47.8181 122.868 49.6547C122.881 49.0251 122.826 48.0041 122.38 47.7953C122.1 47.6615 121.634 47.8377 121.334 47.8605C120.745 47.9029 119.973 47.9877 119.423 47.7529C119.341 47.7202 119.136 47.6941 119.211 47.9649C119.462 48.8522 120.699 48.9631 121.468 49.1588C121.728 49.7917 120.996 50.8291 120.533 51.1422C119.781 51.6544 118.683 51.152 118.872 50.1473C119.038 49.2632 119.566 48.862 119.1 47.9943C118.947 47.7072 118.289 47.4462 118.436 47.9095C118.814 49.0936 117.729 50.0886 117.589 51.2336C117.478 52.1404 117.957 52.9462 118.439 53.6736C118.41 53.7487 118.387 53.8237 118.361 53.8955C117.706 55.0307 117.198 56.2279 116.83 57.4805C117.67 57.7578 120.139 57.5817 120.129 57.5621C120.139 57.5817 120.426 55.8266 121.084 55.0861C121.803 54.2739 122.709 53.6475 123.575 53.0082C125.395 51.6609 127.245 50.3528 129.121 49.0806C129.229 49.012 129.141 48.4314 127.467 49.2959Z" fill="#FDBCA0"/>
<path d="M53.7314 49.2959C54.4837 49.684 55.2751 50.1212 56.0144 50.5289C55.6236 50.2092 53.4546 47.9975 52.6111 47.4528C52.5199 47.394 52.7349 46.497 54.9527 48.2715C55.6138 48.8 56.3954 49.335 57.0175 49.9124C56.2261 48.4086 55.565 46.8851 54.5293 45.5085C54.487 45.4531 54.5 45.3911 54.5358 45.3487C54.7475 45.1823 55.2784 45.3715 55.5161 45.626C55.9395 46.0761 57.5483 47.8181 58.3299 49.6547C58.3169 49.0251 58.3723 48.0041 58.8184 47.7953C59.0985 47.6615 59.5642 47.8377 59.8638 47.8605C60.4533 47.9029 61.2251 47.9877 61.7755 47.7529C61.857 47.7202 62.0621 47.6941 61.9872 47.9649C61.7365 48.8522 60.4989 48.9631 59.7303 49.1588C59.4698 49.7917 60.2025 50.8291 60.665 51.1422C61.4173 51.6544 62.5148 51.152 62.3259 50.1473C62.1598 49.2632 61.6322 48.862 62.098 47.9943C62.251 47.7072 62.9089 47.4462 62.7623 47.9095C62.3845 49.0936 63.469 50.0886 63.6091 51.2336C63.7198 52.1404 63.2411 52.9462 62.7591 53.6736C62.7884 53.7487 62.8112 53.8237 62.8372 53.8955C63.4918 55.0307 63.9999 56.2279 64.3679 57.4805C63.5277 57.7578 61.0591 57.5817 61.0688 57.5621C61.0591 57.5817 60.7725 55.8266 60.1146 55.0861C59.3949 54.2739 58.4895 53.6475 57.6232 53.0082C55.8027 51.6609 53.9529 50.3528 52.077 49.0806C51.9695 49.012 52.0575 48.4314 53.7314 49.2959Z" fill="#FDBCA0"/>
<path d="M115.951 56.3258C114.73 59.4803 110.588 71.1261 108.858 76.0649C107.829 73.4226 105.048 61.9497 102.706 48.6304C101.977 44.4908 97.3164 45.0812 94.8218 45.4955C94.6426 48.2749 91.9493 55.98 90.5033 55.9963C89.0574 55.98 86.1914 48.8196 86.1849 45.4955C83.6935 45.0812 79.0299 44.4908 78.3004 48.6304C75.9555 61.9497 73.1776 73.4259 72.1484 76.0649C70.4158 71.1261 66.2765 59.4803 65.0553 56.3258C63.4888 57.0663 61.7562 57.4741 60.0269 57.5752C61.3654 61.1407 65.7848 86.3896 72.2982 86.3896C75.1218 86.3896 76.9098 83.3852 79.7887 72.2548C79.932 74.1142 79.9809 77.6862 79.9092 81.4409C79.8571 84.1452 77.991 87.2703 75.4931 86.6669C74.9883 86.5462 74.3304 86.9278 74.9557 87.6063C75.1251 87.7923 75.3433 87.9293 75.568 88.0337C79.5575 89.9257 79.7138 92.754 82.0684 94.4014C83.4916 95.3963 85.2437 95.7095 86.9144 96.0487C88.7252 96.4141 90.5913 96.6881 92.4346 96.4108C95.4992 95.9509 97.8798 93.899 100.417 92.294C101.834 91.3969 103.273 90.6793 104.937 90.4346C109.22 89.805 108.936 86.7778 108.041 86.8397C105.041 87.0453 101.091 83.2155 101.068 79.0009C101.052 76.1954 101.107 73.7064 101.218 72.2548C104.097 83.3852 105.885 86.3896 108.708 86.3896C115.222 86.3896 119.641 61.1407 120.98 57.5752C119.25 57.4741 117.518 57.063 115.951 56.3258Z" fill="#F2EDE4"/>
<path d="M98.7203 67.3517C98.6877 67.3746 98.6616 67.3974 98.6356 67.4202C98.1047 67.9389 97.6911 68.562 97.17 69.0905C96.649 69.6157 95.9748 70.056 95.2355 70.0528C93.4606 70.043 92.5715 67.9096 91.5033 66.8233C89.8619 65.1596 88.2694 68.9502 87.0481 69.6939C85.7943 70.4573 84.9443 69.9973 84.0194 69.0937C83.4527 68.5392 82.9707 67.9161 82.4464 67.3224C82.3096 67.1658 81.9969 67.3322 82.0816 67.5344C82.6939 69.0089 84.078 71.4555 85.905 71.4946C87.0253 71.5175 87.9437 70.8748 88.6797 70.0854C89.0412 69.6972 90.0378 67.6127 90.6859 67.8867C90.8064 67.9389 90.8911 68.0466 90.9725 68.151C91.2949 68.575 91.5945 69.0219 91.9397 69.4265C92.1189 69.6352 92.6367 69.981 92.6367 70.2681C93.3694 71.0151 94.3758 71.6023 95.4147 71.4751C96.4764 71.3446 97.3166 70.5127 97.9321 69.6352C98.3685 69.0122 98.7365 68.3402 99.0264 67.6355C99.0687 67.5344 99.1045 67.4072 99.0296 67.3256C98.9482 67.2408 98.8245 67.28 98.7203 67.3517Z" fill="#D9C9AC"/>
<g clip-path="url(#clip2_316_8)">
<path d="M158.49 84.2946L169.635 80.5589L164.048 64.1592L152.903 67.8949C152.466 68.0406 152.229 68.5101 152.38 68.9431L157.433 83.7725C157.58 84.2056 158.053 84.4403 158.49 84.2946Z" fill="#3F4553"/>
<path d="M158.498 83.9708L169.921 80.1421L164.538 64.3454L153.115 68.1741C152.833 68.2672 152.682 68.5708 152.776 68.8541L157.812 83.6349C157.91 83.9142 158.216 84.0639 158.498 83.9708Z" fill="#DDDDE3"/>
<path d="M158.739 83.89L170.162 80.0613L164.779 64.2646L153.356 68.0933C153.074 68.1864 152.923 68.49 153.017 68.7733L158.053 83.5541C158.151 83.8334 158.457 83.9872 158.739 83.89Z" fill="#E2E5FF"/>
<path d="M159.355 84.0032L170.5 80.2675L164.913 63.8718L153.768 67.6075C153.331 67.7532 153.094 68.2227 153.245 68.6557L158.298 83.4851C158.445 83.9182 158.918 84.1489 159.355 84.0032Z" fill="#4E5567"/>
<path d="M164.289 64.0813L164.049 64.1616L169.636 80.5615L169.876 80.4812L164.289 64.0813Z" fill="#3F4553"/>
<path d="M165.881 76.892L166.13 76.3659L166.652 76.633L162.571 64.657C162.497 64.4465 162.314 64.4627 162.102 64.5356C161.889 64.6084 161.73 64.7056 161.804 64.916L165.881 76.892Z" fill="#93BFA8"/>
<path d="M140.838 68.4296L148.34 59.6092L146.823 58.3411L139.322 67.1614L140.838 68.4296Z" fill="#3F4553"/>
<path d="M139.321 67.1584L140.835 68.4253L138.647 69.6192C138.574 69.6597 138.476 69.5747 138.5 69.4978L139.321 67.1584Z" fill="#F2EDE4"/>
<path d="M138.651 69.6231L139.243 69.2994L138.729 68.8663L138.509 69.4977C138.48 69.5746 138.578 69.6596 138.651 69.6231Z" fill="#3F4553"/>
<path d="M140.336 68.0094L147.837 59.1891L147.322 58.7586L139.821 67.5789L140.336 68.0094Z" fill="#4E5567"/>
</g>
<g clip-path="url(#clip3_316_8)">
<path d="M58.0028 -16.6606C48.3335 -16.6606 40.5 -8.82713 40.5 0.842112C40.5 10.5058 48.3335 18.3449 58.0028 18.3449C67.6665 18.3449 75.5055 10.5114 75.5055 0.842112C75.5 -8.82713 67.6665 -16.6606 58.0028 -16.6606ZM58.0028 15.3846C49.9708 15.3846 43.4603 8.87409 43.4603 0.842112C43.4603 -7.18986 49.9708 -13.7003 58.0028 -13.7003C66.0347 -13.7003 72.5452 -7.18986 72.5452 0.842112C72.5452 8.87409 66.0347 15.3846 58.0028 15.3846Z" fill="#808AFF"/>
<path d="M71.4209 6.44907C74.5195 -0.960863 71.0244 -9.47969 63.6145 -12.5783C56.2046 -15.6769 47.6857 -12.1818 44.5872 -4.77189C41.4886 2.63804 44.9836 11.1569 52.3936 14.2555C59.8035 17.354 68.3223 13.859 71.4209 6.44907Z" fill="#AEB4FC"/>
<path d="M71.2383 0.868959C71.2383 -0.150888 69.6506 -0.156401 69.6506 0.868959C69.6506 1.89432 71.2383 1.89432 71.2383 0.868959Z" fill="#808AFF"/>
<path d="M57.969 14.0777C58.9888 14.0777 58.9943 12.49 57.969 12.49C56.9491 12.49 56.9436 14.0777 57.969 14.0777Z" fill="#808AFF"/>
<path d="M44.7618 0.809143C44.7618 1.82899 46.3495 1.8345 46.3495 0.809143C46.3495 -0.210702 44.7618 -0.216215 44.7618 0.809143Z" fill="#808AFF"/>
<path d="M64.2544 5.09236C64.1607 5.09236 64.067 5.07031 63.9843 5.01518L57.7274 1.29413C57.5675 1.20041 57.4683 1.024 57.4683 0.836573V-9.16343C57.4683 -9.4556 57.7053 -9.69264 57.9975 -9.69264C58.2897 -9.69264 58.5267 -9.4556 58.5267 -9.16343V0.53889L64.5245 4.10559C64.7781 4.25443 64.8608 4.57968 64.7064 4.83327C64.6127 4.99865 64.4363 5.09236 64.2544 5.09236Z" fill="#808AFF"/>
</g>
<path d="M23.1207 36.7459L22.7715 34.7649L20.7463 35.11C20.425 34.1851 19.9013 33.3706 19.2239 32.7079L20.4111 31.0444L18.749 29.8917L17.5688 31.5483C16.7168 31.1342 15.7671 30.9064 14.7754 30.9133L14.4193 28.9046L12.415 29.2498L12.7642 31.2515C11.8284 31.569 11.0043 32.0867 10.3339 32.7562L8.65091 31.5828L7.48467 33.2256L9.1607 34.3921C8.74169 35.2343 8.51124 36.173 8.51822 37.1531L6.5 37.4983L6.84917 39.4793L8.87438 39.1342C9.19562 40.0591 9.71938 40.8736 10.3968 41.5362L9.20959 43.1997L10.8717 44.3525L12.0519 42.6959C12.9038 43.11 13.8536 43.3378 14.8452 43.3309L15.2014 45.3395L17.2057 44.9944L16.8565 42.9927C17.7923 42.6752 18.6163 42.1575 19.2867 41.4879L20.9697 42.6614L22.136 41.0186L20.46 39.852C20.879 39.0099 21.1094 38.0712 21.1024 37.091L23.1207 36.7459ZM15.1316 38.9616C14.105 39.1411 13.1273 38.4577 12.9457 37.4431C12.7642 36.4284 13.4555 35.462 14.4821 35.2826C15.5087 35.1031 16.4864 35.7865 16.6679 36.8011C16.8495 37.8158 16.1651 38.7821 15.1316 38.9616Z" fill="#9BA3FF"/>
<path d="M42.2278 32.7492V30.2574H39.6788C39.4903 29.0564 39.0224 27.952 38.338 26.9994L40.1467 25.2117L38.3659 23.4515L36.5642 25.2324C35.6074 24.549 34.4971 24.0727 33.282 23.8726V21.3394H30.7609V23.8588C29.5458 24.0451 28.4215 24.5076 27.4647 25.1841L25.656 23.3963L23.8752 25.1564L25.677 26.9373C24.9856 27.8829 24.5037 28.9804 24.3012 30.1815H21.7383V32.6733H24.2872C24.4758 33.8743 24.9437 34.9787 25.6281 35.9313L23.8194 37.719L25.6001 39.4792L27.4019 37.6983C28.3586 38.3817 29.469 38.8579 30.6841 39.0581V41.5913H33.2051V39.0719C34.4203 38.8855 35.5376 38.4231 36.5013 37.7466L38.31 39.5344L40.0908 37.7742L38.2891 35.9934C38.9805 35.0477 39.4623 33.9502 39.6648 32.7492H42.2278V32.7492ZM31.983 33.7846C30.6911 33.7846 29.6366 32.7492 29.6366 31.4653C29.6366 30.1884 30.6841 29.1461 31.983 29.1461C33.275 29.1461 34.3295 30.1815 34.3295 31.4653C34.3225 32.7423 33.275 33.7846 31.983 33.7846Z" fill="#AEB4FC"/>
<g opacity="0.3">
<path d="M160.495 14.2365L141.766 10.027C141.582 9.987 141.466 9.80355 141.509 9.6201L143.867 -0.880136C143.907 -1.06359 144.091 -1.18033 144.274 -1.13697L163.003 3.0758C163.187 3.11582 163.303 3.29928 163.26 3.48273L160.898 13.983C160.858 14.1631 160.678 14.2798 160.495 14.2365Z" fill="#ECECEC"/>
<path d="M141.819 9.78018C141.769 9.77018 141.739 9.72014 141.753 9.67345L144.114 -0.826787C144.124 -0.87682 144.174 -0.90684 144.221 -0.893498L162.95 3.31927C163 3.32928 163.03 3.37931 163.017 3.42601L160.655 13.9262C160.645 13.9763 160.595 14.0063 160.548 13.993L141.819 9.78018Z" fill="#F5F4F5"/>
<path d="M160.367 2.47996L146.914 -0.545364L146.859 -0.301304L160.312 2.72402L160.367 2.47996Z" fill="#706F6E"/>
<path d="M145.605 0.96433L144.985 0.824239C144.908 0.807561 144.858 0.730844 144.875 0.650791L144.971 0.213837C144.988 0.13712 145.065 0.0870878 145.145 0.103765L145.765 0.243857C145.842 0.260534 145.892 0.337252 145.875 0.417304L145.779 0.854259C145.759 0.930976 145.682 0.981008 145.605 0.96433Z" fill="#585857"/>
<path d="M145.011 0.700877C145.001 0.697541 144.994 0.687535 144.998 0.677528L145.094 0.240574C145.098 0.230568 145.108 0.223896 145.118 0.227232L145.738 0.367324C145.748 0.37066 145.755 0.380666 145.752 0.390673L145.655 0.827626C145.652 0.837633 145.642 0.844304 145.632 0.840968L145.011 0.700877Z" fill="#5E5E5D"/>
<path d="M146.742 1.21793L146.122 1.07784C146.045 1.06116 145.995 0.984445 146.012 0.904392L146.109 0.467439C146.125 0.390722 146.202 0.340689 146.282 0.357366L146.902 0.497459C146.979 0.514137 147.029 0.590854 147.012 0.670907L146.916 1.10786C146.896 1.18791 146.819 1.23461 146.742 1.21793Z" fill="#585857"/>
<path d="M146.149 0.957591C146.139 0.954255 146.132 0.944248 146.135 0.934241L146.232 0.497288C146.235 0.487281 146.245 0.48061 146.255 0.483946L146.876 0.624038C146.886 0.627374 146.892 0.63738 146.889 0.647387L146.792 1.08434C146.789 1.09435 146.779 1.10102 146.769 1.09768L146.149 0.957591Z" fill="#5E5E5D"/>
<path d="M147.88 1.47466L147.259 1.33457C147.183 1.31789 147.133 1.24117 147.149 1.16112L147.246 0.724169C147.263 0.647451 147.339 0.597418 147.42 0.614096L148.04 0.754188C148.117 0.770866 148.167 0.847583 148.15 0.927636L148.053 1.36459C148.033 1.44131 147.957 1.49134 147.88 1.47466Z" fill="#585857"/>
<path d="M147.286 1.21119C147.276 1.20786 147.269 1.19785 147.273 1.18784L147.37 0.750889C147.373 0.740883 147.383 0.734211 147.393 0.737547L148.013 0.877639C148.023 0.880975 148.03 0.890981 148.027 0.900988L147.93 1.33794C147.927 1.34795 147.917 1.35462 147.907 1.35128L147.286 1.21119Z" fill="#5E5E5D"/>
<path d="M149.017 1.72803L148.397 1.58794C148.32 1.57126 148.27 1.49455 148.287 1.41449L148.384 0.977539C148.4 0.900822 148.477 0.85079 148.557 0.867468L149.177 1.00756C149.254 1.02424 149.304 1.10095 149.287 1.18101L149.191 1.61796C149.171 1.69801 149.094 1.74805 149.017 1.72803Z" fill="#585857"/>
<path d="M148.424 1.46792C148.414 1.46459 148.407 1.45458 148.41 1.44457L148.507 1.00762C148.51 0.997612 148.52 0.99094 148.53 0.994276L149.151 1.13437C149.161 1.1377 149.167 1.14771 149.164 1.15772L149.067 1.59467C149.064 1.60468 149.054 1.61135 149.044 1.60801L148.424 1.46792Z" fill="#5E5E5D"/>
<path d="M150.151 1.98499L149.531 1.8449C149.454 1.82822 149.404 1.7515 149.421 1.67145L149.518 1.2345C149.534 1.15778 149.611 1.10775 149.691 1.12443L150.311 1.26452C150.388 1.28119 150.438 1.35791 150.421 1.43796L150.325 1.87492C150.308 1.95497 150.231 2.00167 150.151 1.98499Z" fill="#585857"/>
<path d="M149.561 1.72486C149.551 1.72153 149.544 1.71152 149.548 1.70152L149.645 1.26456C149.648 1.25455 149.658 1.24788 149.668 1.25122L150.288 1.39131C150.298 1.39465 150.305 1.40465 150.302 1.41466L150.205 1.85161C150.202 1.86162 150.192 1.86829 150.182 1.86496L149.561 1.72486Z" fill="#5E5E5D"/>
<path d="M151.289 2.24171L150.668 2.10161C150.592 2.08494 150.542 2.00822 150.558 1.92817L150.655 1.49121C150.672 1.4145 150.748 1.36446 150.829 1.38114L151.449 1.52123C151.526 1.53791 151.576 1.61463 151.559 1.69468L151.462 2.13163C151.446 2.20835 151.369 2.25838 151.289 2.24171Z" fill="#585857"/>
<path d="M150.698 1.97823C150.688 1.9749 150.682 1.96489 150.685 1.95489L150.782 1.51793C150.785 1.50793 150.795 1.50126 150.805 1.50459L151.425 1.64468C151.435 1.64802 151.442 1.65802 151.439 1.66803L151.342 2.10499C151.339 2.11499 151.329 2.12166 151.319 2.11833L150.698 1.97823Z" fill="#5E5E5D"/>
<path d="M152.426 2.49531L151.806 2.35521C151.729 2.33854 151.679 2.26182 151.696 2.18177L151.793 1.74481C151.809 1.6681 151.886 1.61806 151.966 1.63474L152.586 1.77483C152.663 1.79151 152.713 1.86823 152.696 1.94828L152.6 2.38523C152.583 2.46529 152.503 2.51532 152.426 2.49531Z" fill="#585857"/>
<path d="M151.836 2.23519C151.826 2.23186 151.819 2.22185 151.822 2.21184L151.919 1.77489C151.922 1.76488 151.933 1.75821 151.943 1.76155L152.563 1.90164C152.573 1.90498 152.58 1.91498 152.576 1.92499L152.48 2.36194C152.476 2.37195 152.466 2.37862 152.456 2.37529L151.836 2.23519Z" fill="#5E5E5D"/>
<path d="M153.564 2.75225L152.943 2.61216C152.867 2.59548 152.817 2.51876 152.833 2.43871L152.93 2.00176C152.947 1.92504 153.024 1.87501 153.104 1.89168L153.724 2.03177C153.801 2.04845 153.851 2.12517 153.834 2.20522L153.737 2.64218C153.717 2.72223 153.641 2.76893 153.564 2.75225Z" fill="#585857"/>
<path d="M152.973 2.49191C152.963 2.48857 152.957 2.47857 152.96 2.46856L153.057 2.03161C153.06 2.0216 153.07 2.01493 153.08 2.01826L153.7 2.15836C153.71 2.16169 153.717 2.1717 153.714 2.1817L153.617 2.61866C153.614 2.62866 153.604 2.63533 153.594 2.632L152.973 2.49191Z" fill="#5E5E5D"/>
<path d="M154.701 3.00898L154.081 2.86889C154.004 2.85221 153.954 2.77549 153.971 2.69544L154.068 2.25848C154.084 2.18177 154.161 2.13174 154.241 2.14841L154.861 2.2885C154.938 2.30518 154.988 2.3819 154.972 2.46195L154.875 2.89891C154.855 2.97562 154.778 3.02566 154.701 3.00898Z" fill="#585857"/>
<path d="M154.107 2.74551C154.097 2.74217 154.091 2.73217 154.094 2.72216L154.191 2.28521C154.194 2.2752 154.204 2.26853 154.214 2.27186L154.834 2.41196C154.844 2.41529 154.851 2.4253 154.848 2.4353L154.751 2.87226C154.748 2.88226 154.738 2.88894 154.728 2.8856L154.107 2.74551Z" fill="#5E5E5D"/>
<path d="M155.838 3.26258L155.218 3.12249C155.141 3.10581 155.091 3.02909 155.108 2.94904L155.205 2.51209C155.221 2.43537 155.298 2.38534 155.378 2.40201L155.999 2.54211C156.075 2.55878 156.125 2.6355 156.109 2.71555L156.012 3.15251C155.992 3.23256 155.915 3.28259 155.838 3.26258Z" fill="#585857"/>
<path d="M155.245 3.00245C155.235 2.99911 155.228 2.98911 155.231 2.9791L155.328 2.54215C155.331 2.53214 155.342 2.52547 155.352 2.52881L155.972 2.6689C155.982 2.67223 155.989 2.68224 155.985 2.69225L155.889 3.1292C155.885 3.13921 155.875 3.14588 155.865 3.14254L155.245 3.00245Z" fill="#5E5E5D"/>
<path d="M156.976 3.51931L156.356 3.37922C156.279 3.36254 156.229 3.28582 156.245 3.20577L156.342 2.76881C156.359 2.6921 156.436 2.64207 156.516 2.65874L157.136 2.79883C157.213 2.81551 157.263 2.89223 157.246 2.97228L157.149 3.40924C157.129 3.48929 157.053 3.53599 156.976 3.51931Z" fill="#585857"/>
<path d="M156.382 3.25918C156.372 3.25584 156.365 3.24584 156.368 3.23583L156.465 2.79888C156.469 2.78887 156.479 2.7822 156.489 2.78554L157.109 2.92563C157.119 2.92896 157.126 2.93897 157.122 2.94898L157.026 3.38593C157.022 3.39594 157.012 3.40261 157.002 3.39927L156.382 3.25918Z" fill="#5E5E5D"/>
<path d="M158.113 3.77625L157.493 3.63616C157.416 3.61948 157.366 3.54276 157.383 3.46271L157.479 3.02576C157.496 2.94904 157.573 2.89901 157.653 2.91569L158.273 3.05578C158.35 3.07245 158.4 3.14917 158.383 3.22922L158.287 3.66618C158.266 3.7429 158.19 3.79293 158.113 3.77625Z" fill="#585857"/>
<path d="M157.519 3.51255C157.509 3.50922 157.503 3.49921 157.506 3.4892L157.603 3.05225C157.606 3.04224 157.616 3.03557 157.626 3.03891L158.247 3.179C158.257 3.18234 158.263 3.19234 158.26 3.20235L158.163 3.6393C158.16 3.64931 158.15 3.65598 158.14 3.65264L157.519 3.51255Z" fill="#5E5E5D"/>
<path d="M159.251 4.02962L158.63 3.88953C158.553 3.87285 158.503 3.79614 158.52 3.71608L158.617 3.27913C158.633 3.20241 158.71 3.15238 158.79 3.16906L159.411 3.30915C159.487 3.32583 159.537 3.40255 159.521 3.4826L159.424 3.91955C159.404 3.9996 159.327 4.04964 159.251 4.02962Z" fill="#585857"/>
<path d="M158.657 3.76951C158.647 3.76617 158.64 3.75617 158.644 3.74616L158.74 3.30921C158.744 3.2992 158.754 3.29253 158.764 3.29587L159.384 3.43596C159.394 3.43929 159.401 3.4493 159.397 3.45931L159.301 3.89626C159.297 3.90627 159.287 3.91294 159.277 3.9096L158.657 3.76951Z" fill="#5E5E5D"/>
<path d="M160.388 4.28635L159.768 4.14626C159.691 4.12958 159.641 4.05287 159.658 3.97281L159.754 3.53586C159.771 3.45914 159.848 3.40911 159.928 3.42579L160.548 3.56588C160.625 3.58256 160.675 3.65927 160.658 3.73933L160.562 4.17628C160.542 4.25633 160.465 4.30303 160.388 4.28635Z" fill="#585857"/>
<path d="M159.794 4.02645C159.784 4.02312 159.778 4.01311 159.781 4.0031L159.878 3.56615C159.881 3.55614 159.891 3.54947 159.901 3.55281L160.522 3.6929C160.532 3.69624 160.538 3.70624 160.535 3.71625L160.438 4.1532C160.435 4.16321 160.425 4.16988 160.415 4.16655L159.794 4.02645Z" fill="#5E5E5D"/>
<path d="M161.522 4.5433L160.902 4.4032C160.825 4.38653 160.775 4.30981 160.792 4.22976L160.888 3.7928C160.905 3.71609 160.982 3.66605 161.062 3.68273L161.682 3.82282C161.759 3.8395 161.809 3.91622 161.792 3.99627L161.695 4.43322C161.679 4.50994 161.602 4.55997 161.522 4.5433Z" fill="#585857"/>
<path d="M160.932 4.27983C160.922 4.27649 160.915 4.26648 160.919 4.25648L161.015 3.81952C161.019 3.80952 161.029 3.80285 161.039 3.80618L161.659 3.94627C161.669 3.94961 161.676 3.95962 161.672 3.96962L161.576 4.40657C161.572 4.41658 161.562 4.42325 161.552 4.41992L160.932 4.27983Z" fill="#5E5E5D"/>
<path d="M144.971 0.974454L145.738 1.1479C145.825 1.16792 145.882 1.25464 145.862 1.3447L145.692 2.09853C145.672 2.18525 145.585 2.24195 145.495 2.22194L144.728 2.04849C144.641 2.02848 144.584 1.94176 144.604 1.8517L144.774 1.09787C144.794 1.01114 144.881 0.954441 144.971 0.974454Z" fill="#585857"/>
<path d="M144.758 1.92484C144.738 1.9215 144.725 1.89815 144.728 1.87814L144.898 1.12431C144.901 1.1043 144.925 1.09096 144.945 1.09429L145.712 1.26774C145.732 1.27107 145.745 1.29442 145.742 1.31444L145.572 2.06826C145.569 2.08828 145.545 2.10162 145.525 2.09828L144.758 1.92484Z" fill="#5E5E5D"/>
<path d="M146.282 1.27105L147.049 1.4445C147.136 1.46451 147.192 1.55124 147.172 1.6413L147.002 2.39512C146.982 2.48185 146.896 2.53855 146.806 2.51854L146.038 2.34509C145.952 2.32508 145.895 2.23836 145.915 2.1483L146.085 1.39447C146.105 1.30441 146.192 1.25104 146.282 1.27105Z" fill="#585857"/>
<path d="M146.069 2.2217C146.049 2.21836 146.035 2.19501 146.039 2.175L146.209 1.42117C146.212 1.40116 146.235 1.38782 146.255 1.39115L147.023 1.5646C147.043 1.56793 147.056 1.59128 147.053 1.6113L146.882 2.36512C146.879 2.38514 146.856 2.39848 146.836 2.39514L146.069 2.2217Z" fill="#5E5E5D"/>
<path d="M147.593 1.56485L148.361 1.73829C148.447 1.75831 148.504 1.84503 148.484 1.93509L148.314 2.68892C148.294 2.77564 148.207 2.83235 148.117 2.81233L147.35 2.63889C147.263 2.61887 147.206 2.53215 147.226 2.44209L147.397 1.68826C147.417 1.60154 147.507 1.54483 147.593 1.56485Z" fill="#585857"/>
<path d="M147.38 2.51523C147.36 2.5119 147.346 2.48855 147.35 2.46853L147.52 1.7147C147.523 1.69469 147.546 1.68135 147.566 1.68468L148.334 1.85813C148.354 1.86147 148.367 1.88482 148.364 1.90483L148.193 2.65866C148.19 2.67867 148.167 2.69201 148.147 2.68868L147.38 2.51523Z" fill="#5E5E5D"/>
<path d="M148.904 1.85838L149.671 2.03183C149.758 2.05184 149.815 2.13857 149.795 2.22862L149.624 2.98245C149.604 3.06918 149.518 3.12588 149.428 3.10587L148.66 2.93242C148.574 2.91241 148.517 2.82568 148.537 2.73562L148.707 1.9818C148.727 1.89507 148.817 1.83837 148.904 1.85838Z" fill="#585857"/>
<path d="M148.691 2.8121C148.671 2.80877 148.657 2.78542 148.661 2.76541L148.831 2.01158C148.834 1.99157 148.857 1.97822 148.877 1.98156L149.645 2.15501C149.665 2.15834 149.678 2.18169 149.675 2.2017L149.505 2.95553C149.501 2.97555 149.478 2.98889 149.458 2.98555L148.691 2.8121Z" fill="#5E5E5D"/>
<path d="M150.215 2.15519L150.982 2.32864C151.068 2.34865 151.125 2.43538 151.105 2.52544L150.935 3.27927C150.915 3.36599 150.828 3.42269 150.738 3.40268L149.971 3.22923C149.884 3.20922 149.828 3.1225 149.848 3.03244L150.018 2.27861C150.041 2.18855 150.128 2.13518 150.215 2.15519Z" fill="#585857"/>
<path d="M150.001 3.10562C149.981 3.10229 149.968 3.07894 149.971 3.05893L150.141 2.3051C150.145 2.28508 150.168 2.27174 150.188 2.27508L150.955 2.44852C150.975 2.45186 150.989 2.47521 150.985 2.49522L150.815 3.24905C150.812 3.26906 150.788 3.28241 150.768 3.27907L150.001 3.10562Z" fill="#5E5E5D"/>
<path d="M151.526 2.44877L152.293 2.62222C152.379 2.64223 152.436 2.72896 152.416 2.81902L152.246 3.57285C152.226 3.65957 152.139 3.71627 152.049 3.69626L151.282 3.52281C151.195 3.5028 151.139 3.41608 151.159 3.32602L151.329 2.57219C151.352 2.48546 151.439 2.42876 151.526 2.44877Z" fill="#585857"/>
<path d="M151.312 3.39937C151.292 3.39604 151.279 3.37269 151.282 3.35267L151.452 2.59884C151.455 2.57883 151.479 2.56549 151.499 2.56882L152.266 2.74227C152.286 2.74561 152.299 2.76896 152.296 2.78897L152.126 3.5428C152.122 3.56281 152.099 3.57615 152.079 3.57282L151.312 3.39937Z" fill="#5E5E5D"/>
<path d="M152.837 2.74537L153.604 2.91882C153.691 2.93883 153.747 3.02556 153.727 3.11562L153.557 3.86944C153.537 3.95617 153.45 4.01287 153.36 3.99286L152.593 3.81941C152.506 3.7994 152.45 3.71267 152.47 3.62262L152.64 2.86879C152.663 2.77873 152.75 2.72536 152.837 2.74537Z" fill="#585857"/>
<path d="M152.623 3.69602C152.603 3.69268 152.59 3.66933 152.593 3.64932L152.763 2.89549C152.766 2.87548 152.79 2.86214 152.81 2.86547L153.577 3.03892C153.597 3.04225 153.61 3.0656 153.607 3.08562L153.437 3.83944C153.433 3.85946 153.41 3.8728 153.39 3.86946L152.623 3.69602Z" fill="#5E5E5D"/>
<path d="M154.151 3.03917L154.918 3.21261C155.005 3.23263 155.061 3.31935 155.041 3.40941L154.871 4.16324C154.851 4.24996 154.765 4.30667 154.674 4.28665L153.907 4.11321C153.821 4.09319 153.764 4.00647 153.784 3.91641L153.954 3.16258C153.974 3.07586 154.061 3.01915 154.151 3.03917Z" fill="#585857"/>
<path d="M153.934 3.98976C153.914 3.98643 153.901 3.96308 153.904 3.94307L154.074 3.18924C154.077 3.16922 154.101 3.15588 154.121 3.15922L154.888 3.33266C154.908 3.336 154.921 3.35935 154.918 3.37936L154.748 4.13319C154.745 4.1532 154.721 4.16655 154.701 4.16321L153.934 3.98976Z" fill="#5E5E5D"/>
<path d="M155.461 3.33247L156.229 3.50592C156.315 3.52593 156.372 3.61266 156.352 3.70271L156.182 4.45654C156.162 4.54327 156.075 4.59997 155.985 4.57996L155.218 4.40651C155.131 4.3865 155.074 4.29977 155.095 4.20971L155.265 3.45589C155.285 3.36916 155.371 3.31246 155.461 3.33247Z" fill="#585857"/>
<path d="M155.248 4.28641C155.228 4.28307 155.215 4.25972 155.218 4.23971L155.388 3.48588C155.392 3.46587 155.415 3.45253 155.435 3.45586L156.202 3.62931C156.222 3.63265 156.235 3.656 156.232 3.67601L156.062 4.42984C156.059 4.44985 156.035 4.46319 156.015 4.45986L155.248 4.28641Z" fill="#5E5E5D"/>
<path d="M156.772 3.62951L157.54 3.80296C157.626 3.82297 157.683 3.9097 157.663 3.99976L157.493 4.75358C157.473 4.84031 157.386 4.89701 157.296 4.877L156.529 4.70355C156.442 4.68354 156.386 4.59681 156.406 4.50676L156.576 3.75293C156.596 3.66287 156.682 3.6095 156.772 3.62951Z" fill="#585857"/>
<path d="M156.559 4.58017C156.539 4.57684 156.525 4.55349 156.529 4.53347L156.699 3.77965C156.702 3.75963 156.726 3.74629 156.746 3.74963L157.513 3.92307C157.533 3.92641 157.546 3.94976 157.543 3.96977L157.373 4.7236C157.369 4.74361 157.346 4.75695 157.326 4.75362L156.559 4.58017Z" fill="#5E5E5D"/>
<path d="M158.083 3.92286L158.85 4.09631C158.937 4.11633 158.994 4.20305 158.974 4.29311L158.804 5.04694C158.784 5.13366 158.697 5.19036 158.607 5.17035L157.843 4.9969C157.756 4.97689 157.7 4.89017 157.72 4.80011L157.89 4.04628C157.907 3.95955 157.993 3.90285 158.083 3.92286Z" fill="#585857"/>
<path d="M157.87 4.87369C157.85 4.87035 157.836 4.847 157.84 4.82699L158.01 4.07316C158.013 4.05315 158.037 4.03981 158.057 4.04314L158.824 4.21659C158.844 4.21993 158.857 4.24328 158.854 4.26329L158.68 5.01712C158.677 5.03713 158.654 5.05047 158.634 5.04714L157.87 4.87369Z" fill="#5E5E5D"/>
<path d="M159.394 4.21991L160.161 4.39335C160.248 4.41337 160.305 4.50009 160.285 4.59015L160.115 5.34398C160.095 5.4307 160.008 5.4874 159.918 5.46739L159.151 5.29394C159.064 5.27393 159.007 5.18721 159.027 5.09715L159.197 4.34332C159.217 4.25326 159.307 4.19989 159.394 4.21991Z" fill="#585857"/>
<path d="M159.181 5.17056C159.161 5.16723 159.148 5.14388 159.151 5.12387L159.321 4.37004C159.324 4.35003 159.348 4.33668 159.368 4.34002L160.135 4.51347C160.155 4.5168 160.168 4.54015 160.165 4.56016L159.995 5.31399C159.991 5.334 159.968 5.34735 159.948 5.34401L159.181 5.17056Z" fill="#5E5E5D"/>
<path d="M160.705 4.51327L161.472 4.68672C161.559 4.70673 161.615 4.79346 161.595 4.88351L161.425 5.63734C161.405 5.72407 161.318 5.78077 161.228 5.76076L160.461 5.58731C160.375 5.5673 160.318 5.48057 160.338 5.39051L160.511 4.63669C160.528 4.54996 160.618 4.49326 160.705 4.51327Z" fill="#585857"/>
<path d="M160.491 5.46408C160.471 5.46075 160.458 5.4374 160.461 5.41739L160.632 4.66356C160.635 4.64354 160.658 4.6302 160.678 4.63354L161.445 4.80698C161.465 4.81032 161.479 4.83367 161.475 4.85368L161.305 5.60751C161.302 5.62752 161.279 5.64087 161.259 5.63753L160.491 5.46408Z" fill="#5E5E5D"/>
<path d="M144.694 2.19517L145.461 2.36862C145.548 2.38863 145.605 2.47536 145.585 2.56542L145.415 3.31924C145.395 3.40597 145.308 3.46267 145.218 3.44266L144.451 3.26921C144.364 3.2492 144.307 3.16247 144.327 3.07241L144.501 2.31859C144.521 2.23186 144.607 2.17516 144.694 2.19517Z" fill="#585857"/>
<path d="M144.481 3.14577C144.461 3.14243 144.448 3.11908 144.451 3.09907L144.621 2.34524C144.624 2.32523 144.648 2.31189 144.668 2.31522L145.435 2.48867C145.455 2.49201 145.468 2.51535 145.465 2.53537L145.295 3.2892C145.291 3.30921 145.268 3.32255 145.248 3.31922L144.481 3.14577Z" fill="#5E5E5D"/>
<path d="M146.009 2.49198L146.776 2.66543C146.863 2.68545 146.919 2.77217 146.899 2.86223L146.729 3.61606C146.709 3.70278 146.623 3.75948 146.533 3.73947L145.765 3.56602C145.679 3.54601 145.622 3.45929 145.642 3.36923L145.812 2.6154C145.832 2.52534 145.919 2.47197 146.009 2.49198Z" fill="#585857"/>
<path d="M145.792 3.44264C145.772 3.43931 145.759 3.41596 145.762 3.39595L145.932 2.64212C145.935 2.6221 145.959 2.60876 145.979 2.6121L146.746 2.78555C146.766 2.78888 146.779 2.81223 146.776 2.83224L146.606 3.58607C146.603 3.60608 146.579 3.61943 146.559 3.61609L145.792 3.44264Z" fill="#5E5E5D"/>
<path d="M147.319 2.78557L148.087 2.95901C148.173 2.97903 148.23 3.06575 148.21 3.15581L148.04 3.90964C148.02 3.99636 147.933 4.05306 147.843 4.03305L147.076 3.8596C146.989 3.83959 146.933 3.75287 146.953 3.66281L147.123 2.90898C147.143 2.82226 147.229 2.76555 147.319 2.78557Z" fill="#585857"/>
<path d="M147.106 3.73616C147.086 3.73283 147.073 3.70948 147.076 3.68947L147.246 2.93564C147.25 2.91562 147.273 2.90228 147.293 2.90562L148.06 3.07906C148.08 3.0824 148.093 3.10575 148.09 3.12576L147.92 3.87959C147.917 3.8996 147.893 3.91295 147.873 3.90961L147.106 3.73616Z" fill="#5E5E5D"/>
<path d="M148.63 3.0791L149.397 3.25255C149.484 3.27256 149.541 3.35928 149.521 3.44934L149.351 4.20317C149.33 4.2899 149.244 4.3466 149.154 4.32659L148.387 4.15314C148.3 4.13313 148.243 4.0464 148.263 3.95634L148.433 3.20251C148.453 3.11579 148.54 3.05909 148.63 3.0791Z" fill="#585857"/>
<path d="M148.417 4.0297C148.397 4.02636 148.383 4.00301 148.387 3.983L148.557 3.22917C148.56 3.20916 148.584 3.19581 148.604 3.19915L149.371 3.3726C149.391 3.37593 149.404 3.39928 149.401 3.41929L149.231 4.17312C149.227 4.19314 149.204 4.20648 149.184 4.20314L148.417 4.0297Z" fill="#5E5E5D"/>
<path d="M149.942 3.37591L150.709 3.54936C150.795 3.56937 150.852 3.65609 150.832 3.74615L150.662 4.49998C150.642 4.58671 150.555 4.64341 150.465 4.6234L149.698 4.44995C149.611 4.42994 149.555 4.34321 149.575 4.25315L149.745 3.49933C149.765 3.40927 149.855 3.3559 149.942 3.37591Z" fill="#585857"/>
<path d="M149.728 4.32657C149.708 4.32324 149.694 4.29989 149.698 4.27987L149.868 3.52604C149.871 3.50603 149.895 3.49269 149.915 3.49602L150.682 3.66947C150.702 3.67281 150.715 3.69616 150.712 3.71617L150.542 4.47C150.538 4.49001 150.515 4.50335 150.495 4.50002L149.728 4.32657Z" fill="#5E5E5D"/>
<path d="M151.252 3.66926L152.019 3.84271C152.106 3.86272 152.163 3.94945 152.143 4.03951L151.973 4.79334C151.953 4.88006 151.866 4.93676 151.776 4.91675L151.009 4.7433C150.922 4.72329 150.865 4.63657 150.885 4.54651L151.055 3.79268C151.075 3.70596 151.165 3.64925 151.252 3.66926Z" fill="#585857"/>
<path d="M151.039 4.62009C151.019 4.61675 151.006 4.5934 151.009 4.57339L151.179 3.81956C151.182 3.79955 151.206 3.78621 151.226 3.78954L151.993 3.96299C152.013 3.96633 152.026 3.98967 152.023 4.00969L151.853 4.76352C151.849 4.78353 151.826 4.79687 151.806 4.79354L151.039 4.62009Z" fill="#5E5E5D"/>
<path d="M152.563 3.9663L153.33 4.13975C153.417 4.15976 153.473 4.24649 153.453 4.33655L153.283 5.09038C153.263 5.1771 153.176 5.2338 153.086 5.21379L152.319 5.04034C152.233 5.02033 152.176 4.93361 152.196 4.84355L152.366 4.08972C152.389 3.99966 152.476 3.94629 152.563 3.9663Z" fill="#585857"/>
<path d="M152.349 4.91696C152.329 4.91363 152.316 4.89028 152.319 4.87027L152.49 4.11644C152.493 4.09642 152.516 4.08308 152.536 4.08642L153.303 4.25987C153.323 4.2632 153.337 4.28655 153.333 4.30656L153.163 5.06039C153.16 5.0804 153.137 5.09375 153.117 5.09041L152.349 4.91696Z" fill="#5E5E5D"/>
<path d="M153.874 4.25967L154.641 4.43312C154.728 4.45313 154.784 4.53986 154.764 4.62992L154.594 5.38374C154.574 5.47047 154.488 5.52717 154.397 5.50716L153.63 5.33371C153.544 5.3137 153.487 5.22697 153.507 5.13692L153.677 4.38309C153.7 4.29636 153.787 4.23966 153.874 4.25967Z" fill="#585857"/>
<path d="M153.66 5.21048C153.64 5.20715 153.627 5.1838 153.63 5.16378L153.8 4.40996C153.804 4.38994 153.827 4.3766 153.847 4.37994L154.614 4.55338C154.634 4.55672 154.647 4.58007 154.644 4.60008L154.474 5.35391C154.471 5.37392 154.447 5.38726 154.427 5.38393L153.66 5.21048Z" fill="#5E5E5D"/>
<path d="M155.185 4.55342L155.952 4.72687C156.039 4.74688 156.095 4.8336 156.075 4.92366L155.905 5.67749C155.885 5.76421 155.799 5.82092 155.709 5.8009L154.941 5.62746C154.855 5.60744 154.798 5.52072 154.818 5.43066L154.988 4.67683C155.011 4.59011 155.098 4.53341 155.185 4.55342Z" fill="#585857"/>
<path d="M154.971 5.50401C154.951 5.50068 154.938 5.47733 154.941 5.45732L155.111 4.70349C155.115 4.68348 155.138 4.67013 155.158 4.67347L155.925 4.84692C155.945 4.85025 155.958 4.8736 155.955 4.89361L155.785 5.64744C155.782 5.66745 155.758 5.6808 155.738 5.67746L154.971 5.50401Z" fill="#5E5E5D"/>
<path d="M156.495 4.85023L157.263 5.02368C157.349 5.04369 157.406 5.13041 157.386 5.22047L157.216 5.9743C157.196 6.06103 157.109 6.11773 157.019 6.09772L156.252 5.92427C156.165 5.90426 156.109 5.81753 156.129 5.72747L156.299 4.97364C156.322 4.88359 156.409 4.83022 156.495 4.85023Z" fill="#585857"/>
<path d="M156.282 5.80087C156.262 5.79754 156.249 5.77419 156.252 5.75418L156.422 5.00035C156.426 4.98034 156.449 4.96699 156.469 4.97033L157.236 5.14378C157.256 5.14711 157.269 5.17046 157.266 5.19047L157.096 5.9443C157.093 5.96431 157.069 5.97766 157.049 5.97432L156.282 5.80087Z" fill="#5E5E5D"/>
<path d="M157.81 5.14381L158.577 5.31726C158.664 5.33727 158.72 5.424 158.7 5.51406L158.53 6.26788C158.51 6.35461 158.423 6.41131 158.333 6.3913L157.566 6.21785C157.479 6.19784 157.423 6.11111 157.443 6.02105L157.613 5.26723C157.633 5.1805 157.72 5.1238 157.81 5.14381Z" fill="#585857"/>
<path d="M157.593 6.09441C157.573 6.09107 157.559 6.06772 157.563 6.04771L157.733 5.29388C157.736 5.27387 157.76 5.26053 157.78 5.26386L158.547 5.43731C158.567 5.44064 158.58 5.46399 158.577 5.48401L158.407 6.23783C158.403 6.25785 158.38 6.27119 158.36 6.26785L157.593 6.09441Z" fill="#5E5E5D"/>
<path d="M159.121 5.44062L159.888 5.61407C159.975 5.63408 160.031 5.72081 160.011 5.81087L159.841 6.5647C159.821 6.65142 159.734 6.70812 159.644 6.68811L158.877 6.51466C158.79 6.49465 158.734 6.40793 158.754 6.31787L158.924 5.56404C158.944 5.47398 159.031 5.42061 159.121 5.44062Z" fill="#585857"/>
<path d="M158.907 6.39128C158.887 6.38795 158.874 6.3646 158.877 6.34459L159.047 5.59076C159.051 5.57074 159.074 5.5574 159.094 5.56074L159.861 5.73418C159.881 5.73752 159.895 5.76087 159.891 5.78088L159.721 6.53471C159.718 6.55472 159.695 6.56807 159.675 6.56473L158.907 6.39128Z" fill="#5E5E5D"/>
<path d="M160.432 5.7342L161.199 5.90765C161.286 5.92766 161.342 6.01439 161.322 6.10445L161.152 6.85828C161.132 6.945 161.045 7.0017 160.955 6.98169L160.188 6.80824C160.102 6.78823 160.045 6.70151 160.065 6.61145L160.235 5.85762C160.255 5.7709 160.342 5.71419 160.432 5.7342Z" fill="#585857"/>
<path d="M160.218 6.6848C160.198 6.68147 160.185 6.65812 160.188 6.6381L160.358 5.88428C160.361 5.86426 160.385 5.85092 160.405 5.85426L161.172 6.0277C161.192 6.03104 161.205 6.05439 161.202 6.0744L161.032 6.82823C161.029 6.84824 161.005 6.86158 160.985 6.85825L160.218 6.6848Z" fill="#5E5E5D"/>
<path d="M144.421 3.41589L145.188 3.58934C145.275 3.60935 145.332 3.69608 145.312 3.78613L145.142 4.53996C145.122 4.62669 145.035 4.68339 144.945 4.66338L144.178 4.48993C144.091 4.46992 144.034 4.38319 144.054 4.29313L144.224 3.53931C144.248 3.45258 144.335 3.39588 144.421 3.41589Z" fill="#585857"/>
<path d="M144.208 4.36649C144.187 4.36315 144.174 4.3398 144.177 4.31979L144.348 3.56596C144.351 3.54595 144.374 3.53261 144.394 3.53594L145.161 3.70939C145.181 3.71272 145.195 3.73607 145.191 3.75609L145.021 4.50991C145.018 4.52993 144.995 4.54327 144.975 4.53993L144.208 4.36649Z" fill="#5E5E5D"/>
<path d="M145.732 3.70933L146.499 3.88277C146.586 3.90279 146.642 3.98951 146.622 4.07957L146.452 4.8334C146.432 4.92012 146.346 4.97683 146.255 4.95681L145.488 4.78336C145.402 4.76335 145.345 4.67663 145.365 4.58657L145.535 3.83274C145.558 3.74602 145.645 3.69265 145.732 3.70933Z" fill="#585857"/>
<path d="M145.519 4.66358C145.499 4.66024 145.485 4.63689 145.489 4.61688L145.659 3.86305C145.662 3.84304 145.685 3.82969 145.705 3.83303L146.472 4.00648C146.493 4.00981 146.506 4.03316 146.503 4.05317L146.332 4.807C146.329 4.82702 146.306 4.84036 146.286 4.83702L145.519 4.66358Z" fill="#5E5E5D"/>
<path d="M147.042 4.00628L147.81 4.17973C147.896 4.19974 147.953 4.28647 147.933 4.37653L147.763 5.13036C147.743 5.21708 147.656 5.27378 147.566 5.25377L146.799 5.08032C146.712 5.06031 146.655 4.97359 146.676 4.88353L146.846 4.1297C146.869 4.04297 146.956 3.98627 147.042 4.00628Z" fill="#585857"/>
<path d="M146.829 4.95688C146.809 4.95354 146.796 4.9302 146.799 4.91018L146.969 4.15635C146.973 4.13634 146.996 4.123 147.016 4.12633L147.783 4.29978C147.803 4.30312 147.816 4.32647 147.813 4.34648L147.643 5.10031C147.64 5.12032 147.616 5.13366 147.596 5.13033L146.829 4.95688Z" fill="#5E5E5D"/>
<path d="M148.357 4.29982L149.124 4.47326C149.211 4.49328 149.268 4.58 149.248 4.67006L149.078 5.42389C149.058 5.51061 148.971 5.56732 148.881 5.5473L148.114 5.37386C148.027 5.35384 147.97 5.26712 147.99 5.17706L148.16 4.42323C148.18 4.33651 148.267 4.2798 148.357 4.29982Z" fill="#585857"/>
<path d="M148.14 5.25041C148.12 5.24708 148.107 5.22373 148.11 5.20372L148.28 4.44989C148.284 4.42987 148.307 4.41653 148.327 4.41987L149.094 4.59332C149.114 4.59665 149.128 4.62 149.124 4.64001L148.954 5.39384C148.951 5.41386 148.927 5.4272 148.907 5.42386L148.14 5.25041Z" fill="#5E5E5D"/>
<path d="M149.668 4.59684L150.435 4.77029C150.522 4.7903 150.578 4.87703 150.558 4.96709L150.388 5.72091C150.368 5.80764 150.281 5.86434 150.191 5.84433L149.424 5.67088C149.337 5.65087 149.281 5.56414 149.301 5.47409L149.471 4.72026C149.491 4.6302 149.578 4.57683 149.668 4.59684Z" fill="#585857"/>
<path d="M149.454 5.54727C149.434 5.54394 149.421 5.52059 149.424 5.50058L149.594 4.74675C149.598 4.72673 149.621 4.71339 149.641 4.71673L150.408 4.89018C150.428 4.89351 150.442 4.91686 150.438 4.93687L150.268 5.6907C150.265 5.71071 150.242 5.72406 150.222 5.72072L149.454 5.54727Z" fill="#5E5E5D"/>
<path d="M150.979 4.89021L151.746 5.06366C151.833 5.08367 151.889 5.17039 151.869 5.26045L151.699 6.01428C151.679 6.10101 151.592 6.15771 151.502 6.1377L150.735 5.96425C150.648 5.94424 150.592 5.85751 150.612 5.76745L150.782 5.01363C150.802 4.9269 150.889 4.8702 150.979 4.89021Z" fill="#585857"/>
<path d="M150.765 5.84081C150.745 5.83747 150.732 5.81412 150.735 5.79411L150.905 5.04028C150.908 5.02027 150.932 5.00693 150.952 5.01026L151.719 5.18371C151.739 5.18704 151.752 5.21039 151.749 5.23041L151.579 5.98424C151.575 6.00425 151.552 6.01759 151.532 6.01425L150.765 5.84081Z" fill="#5E5E5D"/>
<path d="M152.29 5.18365L153.057 5.35709C153.144 5.37711 153.2 5.46383 153.18 5.55389L153.01 6.30772C152.99 6.39444 152.903 6.45115 152.813 6.43113L152.046 6.25769C151.96 6.23767 151.903 6.15095 151.923 6.06089L152.093 5.30706C152.113 5.22034 152.2 5.16697 152.29 5.18365Z" fill="#585857"/>
<path d="M152.076 6.13768C152.056 6.13435 152.043 6.111 152.046 6.09099L152.216 5.33716C152.219 5.31714 152.243 5.3038 152.263 5.30714L153.03 5.48058C153.05 5.48392 153.063 5.50727 153.06 5.52728L152.89 6.28111C152.887 6.30112 152.863 6.31447 152.843 6.31113L152.076 6.13768Z" fill="#5E5E5D"/>
<path d="M153.6 5.48054L154.368 5.65399C154.454 5.674 154.511 5.76072 154.491 5.85078L154.321 6.60461C154.301 6.69134 154.214 6.74804 154.124 6.72803L153.357 6.55458C153.27 6.53457 153.213 6.44784 153.233 6.35778L153.404 5.60395C153.424 5.5139 153.514 5.46053 153.6 5.48054Z" fill="#585857"/>
<path d="M153.387 6.4312C153.367 6.42786 153.354 6.40452 153.357 6.3845L153.527 5.63067C153.53 5.61066 153.554 5.59732 153.574 5.60065L154.341 5.7741C154.361 5.77744 154.374 5.80079 154.371 5.8208L154.201 6.57463C154.198 6.59464 154.174 6.60798 154.154 6.60465L153.387 6.4312Z" fill="#5E5E5D"/>
<path d="M154.911 5.77414L155.678 5.94758C155.765 5.9676 155.822 6.05432 155.802 6.14438L155.631 6.89821C155.611 6.98493 155.525 7.04164 155.435 7.02162L154.667 6.84818C154.581 6.82816 154.524 6.74144 154.544 6.65138L154.714 5.89755C154.734 5.81083 154.824 5.75412 154.911 5.77414Z" fill="#585857"/>
<path d="M154.698 6.72473C154.678 6.7214 154.664 6.69805 154.668 6.67804L154.838 5.92421C154.841 5.90419 154.864 5.89085 154.884 5.89419L155.652 6.06764C155.672 6.07097 155.685 6.09432 155.682 6.11433L155.508 6.86816C155.505 6.88817 155.482 6.90152 155.462 6.89818L154.698 6.72473Z" fill="#5E5E5D"/>
<path d="M156.222 6.07095L156.989 6.2444C157.076 6.26441 157.133 6.35113 157.113 6.44119L156.942 7.19502C156.922 7.28174 156.836 7.33845 156.746 7.31844L155.979 7.14499C155.892 7.12498 155.835 7.03825 155.855 6.94819L156.025 6.19436C156.049 6.1043 156.135 6.05094 156.222 6.07095Z" fill="#585857"/>
<path d="M156.008 7.02159C155.988 7.01826 155.975 6.99824 155.978 6.9749L156.148 6.22107C156.152 6.20105 156.175 6.18771 156.195 6.19105L156.962 6.36449C156.982 6.36783 156.996 6.39118 156.992 6.41119L156.822 7.16502C156.819 7.18503 156.795 7.19838 156.775 7.19504L156.008 7.02159Z" fill="#5E5E5D"/>
<path d="M157.533 6.36453L158.3 6.53798C158.387 6.55799 158.444 6.64471 158.424 6.73477L158.254 7.4886C158.234 7.57533 158.147 7.63203 158.057 7.61202L157.29 7.43857C157.203 7.41856 157.146 7.33183 157.166 7.24177L157.336 6.48794C157.36 6.40122 157.446 6.34452 157.533 6.36453Z" fill="#585857"/>
<path d="M157.319 7.31513C157.299 7.31179 157.286 7.28844 157.289 7.26843L157.459 6.5146C157.463 6.49459 157.486 6.48125 157.506 6.48458L158.273 6.65803C158.293 6.66136 158.307 6.68471 158.303 6.70473L158.133 7.45855C158.13 7.47857 158.107 7.49191 158.086 7.48857L157.319 7.31513Z" fill="#5E5E5D"/>
<path d="M158.844 6.65805L159.611 6.8315C159.698 6.85151 159.754 6.93823 159.734 7.02829L159.564 7.78212C159.544 7.86884 159.457 7.92555 159.367 7.90554L158.6 7.73209C158.513 7.71207 158.457 7.62535 158.477 7.53529L158.647 6.78146C158.67 6.69474 158.757 6.63803 158.844 6.65805Z" fill="#585857"/>
<path d="M158.63 7.612C158.61 7.60867 158.597 7.58532 158.6 7.5653L158.77 6.81148C158.774 6.79146 158.797 6.77812 158.817 6.78146L159.584 6.9549C159.604 6.95824 159.618 6.98159 159.614 7.0016L159.444 7.75209C159.441 7.77211 159.418 7.78545 159.398 7.78211L158.63 7.612Z" fill="#5E5E5D"/>
<path d="M160.158 6.95486L160.925 7.12831C161.012 7.14832 161.068 7.23504 161.048 7.3251L160.878 8.07893C160.858 8.16566 160.772 8.22236 160.682 8.20235L159.914 8.0289C159.828 8.00888 159.771 7.92216 159.791 7.8321L159.961 7.07827C159.981 6.98821 160.068 6.93485 160.158 6.95486Z" fill="#585857"/>
<path d="M159.941 7.90552C159.921 7.90218 159.908 7.87884 159.911 7.85882L160.081 7.10499C160.084 7.08498 160.108 7.07164 160.128 7.07497L160.895 7.24842C160.915 7.25176 160.928 7.27511 160.925 7.29512L160.755 8.04895C160.752 8.06896 160.728 8.0823 160.708 8.07897L159.941 7.90552Z" fill="#5E5E5D"/>
<path d="M144.147 4.63684L144.914 4.81029C145.001 4.8303 145.058 4.91702 145.038 5.00708L144.868 5.76091C144.848 5.84763 144.761 5.90434 144.671 5.88432L143.904 5.71088C143.817 5.69086 143.76 5.60414 143.78 5.51408L143.951 4.76025C143.971 4.67353 144.061 4.61683 144.147 4.63684Z" fill="#585857"/>
<path d="M143.934 5.58743C143.914 5.5841 143.901 5.56075 143.904 5.54074L144.074 4.78691C144.077 4.7669 144.101 4.75355 144.121 4.75689L144.888 4.93034C144.908 4.93367 144.921 4.95702 144.918 4.97703L144.748 5.73086C144.745 5.75087 144.721 5.76422 144.701 5.76088L143.934 5.58743Z" fill="#5E5E5D"/>
<path d="M145.458 4.93036L146.226 5.1038C146.312 5.12382 146.369 5.21054 146.349 5.3006L146.179 6.05443C146.159 6.14115 146.072 6.19786 145.982 6.17784L145.215 6.00439C145.128 5.98438 145.071 5.89766 145.091 5.8076L145.262 5.05377C145.282 4.96705 145.372 4.91034 145.458 4.93036Z" fill="#585857"/>
<path d="M145.245 5.88095C145.225 5.87762 145.212 5.85427 145.215 5.83426L145.385 5.08043C145.389 5.06041 145.412 5.04707 145.432 5.05041L146.199 5.22385C146.219 5.22719 146.232 5.25054 146.229 5.27055L146.059 6.02438C146.056 6.04439 146.032 6.05774 146.012 6.0544L145.245 5.88095Z" fill="#5E5E5D"/>
<path d="M146.769 5.22717L147.537 5.40062C147.623 5.42063 147.68 5.50735 147.66 5.59741L147.49 6.35124C147.47 6.43796 147.383 6.49467 147.293 6.47465L146.526 6.30121C146.439 6.28119 146.382 6.19447 146.402 6.10441L146.576 5.35058C146.596 5.26052 146.683 5.20716 146.769 5.22717Z" fill="#585857"/>
<path d="M146.556 6.1776C146.536 6.17426 146.522 6.15091 146.526 6.1309L146.696 5.37707C146.699 5.35706 146.722 5.34372 146.742 5.34705L147.51 5.5205C147.53 5.52383 147.543 5.54718 147.54 5.5672L147.37 6.32103C147.366 6.34104 147.343 6.35438 147.323 6.35105L146.556 6.1776Z" fill="#5E5E5D"/>
<path d="M148.08 5.52075L148.847 5.6942C148.934 5.71421 148.991 5.80093 148.971 5.89099L148.8 6.64482C148.78 6.73155 148.694 6.78825 148.604 6.76824L147.837 6.59479C147.75 6.57478 147.693 6.48805 147.713 6.39799L147.883 5.64416C147.907 5.55744 147.993 5.50074 148.08 5.52075Z" fill="#585857"/>
<path d="M147.867 6.47135C147.847 6.46801 147.833 6.44466 147.837 6.42465L148.007 5.67082C148.01 5.65081 148.034 5.63746 148.054 5.6408L148.821 5.81425C148.841 5.81758 148.854 5.84093 148.851 5.86094L148.681 6.61477C148.677 6.63479 148.654 6.64813 148.634 6.64479L147.867 6.47135Z" fill="#5E5E5D"/>
<path d="M154.09 6.87159L149.384 5.81423C149.297 5.79422 149.214 5.84758 149.194 5.93431L149.01 6.74484C148.997 6.80488 149.034 6.86492 149.094 6.87826L153.844 7.94563C153.93 7.96564 154.02 7.90894 154.04 7.82222L154.21 7.06839C154.234 6.98166 154.18 6.8916 154.09 6.87159Z" fill="#585857"/>
<path d="M149.141 6.75812L149.321 5.96093C149.324 5.94425 149.344 5.9309 149.361 5.93758L154.067 6.99494C154.087 6.99827 154.1 7.02162 154.097 7.04164L153.927 7.79546C153.924 7.81548 153.9 7.82882 153.88 7.82548L149.141 6.75812Z" fill="#5E5E5D"/>
<path d="M154.638 6.99507L155.405 7.16852C155.492 7.18853 155.549 7.27525 155.529 7.36531L155.358 8.11914C155.338 8.20586 155.252 8.26257 155.162 8.24255L154.394 8.06911C154.308 8.0491 154.251 7.96237 154.271 7.87231L154.441 7.11848C154.461 7.03176 154.548 6.97506 154.638 6.99507Z" fill="#585857"/>
<path d="M154.424 7.94566C154.404 7.94233 154.391 7.91898 154.394 7.89897L154.564 7.14514C154.568 7.12513 154.591 7.11178 154.611 7.11512L155.378 7.28857C155.398 7.2919 155.412 7.31525 155.408 7.33526L155.238 8.08909C155.235 8.10911 155.211 8.12245 155.191 8.11911L154.424 7.94566Z" fill="#5E5E5D"/>
<path d="M155.949 7.29188L156.716 7.46533C156.802 7.48534 156.859 7.57207 156.839 7.66212L156.669 8.41595C156.649 8.50268 156.562 8.55938 156.472 8.53937L155.705 8.36592C155.618 8.34591 155.562 8.25918 155.582 8.16912L155.752 7.4153C155.772 7.32524 155.862 7.27187 155.949 7.29188Z" fill="#585857"/>
<path d="M155.735 8.24254C155.715 8.2392 155.702 8.21586 155.705 8.19584L155.875 7.44201C155.879 7.422 155.902 7.40866 155.922 7.41199L156.689 7.58544C156.709 7.58878 156.723 7.61213 156.719 7.63214L156.549 8.38597C156.546 8.40598 156.522 8.41932 156.502 8.41599L155.735 8.24254Z" fill="#5E5E5D"/>
<path d="M157.259 7.58546L158.026 7.75891C158.113 7.77892 158.17 7.86565 158.15 7.95571L157.98 8.70953C157.96 8.79626 157.873 8.85296 157.783 8.83295L157.016 8.6595C156.929 8.63949 156.872 8.55276 156.892 8.46271L157.062 7.70888C157.082 7.62215 157.172 7.56545 157.259 7.58546Z" fill="#585857"/>
<path d="M157.046 8.53606C157.026 8.53272 157.013 8.50937 157.016 8.48936L157.186 7.73553C157.189 7.71552 157.213 7.70218 157.233 7.70551L158 7.87896C158.02 7.8823 158.033 7.90564 158.03 7.92566L157.86 8.67949C157.856 8.6995 157.836 8.71284 157.813 8.70951L157.046 8.53606Z" fill="#5E5E5D"/>
<path d="M158.57 7.87877L159.337 8.05221C159.424 8.07223 159.481 8.15895 159.461 8.24901L159.291 9.00284C159.271 9.08956 159.184 9.14627 159.094 9.12625L158.327 8.95281C158.24 8.93279 158.183 8.84607 158.203 8.75601L158.373 8.00218C158.397 7.91546 158.483 7.85875 158.57 7.87877Z" fill="#585857"/>
<path d="M158.356 8.82959C158.336 8.82626 158.323 8.80291 158.326 8.7829L158.497 8.02907C158.5 8.00905 158.523 7.99571 158.543 7.99905L159.31 8.17249C159.33 8.17583 159.344 8.19918 159.34 8.21919L159.17 8.97302C159.167 8.99303 159.144 9.00637 159.124 9.00304L158.356 8.82959Z" fill="#5E5E5D"/>
<path d="M159.881 8.17581L160.648 8.34925C160.735 8.36927 160.792 8.45599 160.772 8.54605L160.602 9.29988C160.582 9.3866 160.495 9.44331 160.405 9.42329L159.638 9.24985C159.551 9.22983 159.494 9.14311 159.514 9.05305L159.684 8.29922C159.708 8.20916 159.795 8.15579 159.881 8.17581Z" fill="#585857"/>
<path d="M159.668 9.12647C159.648 9.12313 159.635 9.09978 159.638 9.07977L159.808 8.32594C159.811 8.30593 159.835 8.29259 159.855 8.29592L160.622 8.46937C160.642 8.4727 160.655 8.49605 160.652 8.51607L160.482 9.26989C160.479 9.28991 160.455 9.30325 160.435 9.29991L159.668 9.12647Z" fill="#5E5E5D"/>
<path d="M153.854 8.99958L150.004 8.13568C149.831 8.09565 149.658 8.20573 149.621 8.37917L149.157 10.4372C149.117 10.6106 149.227 10.7841 149.401 10.8208L153.25 11.6847C153.423 11.7247 153.597 11.6146 153.634 11.4412L154.097 9.38317C154.137 9.20972 154.027 9.03961 153.854 8.99958Z" fill="#EDEDED"/>
<path d="M153.884 8.8761L150.034 8.0122C149.794 7.95884 149.554 8.10893 149.501 8.34909L149.037 10.4071C148.984 10.6473 149.134 10.8874 149.374 10.9408L153.223 11.8047C153.463 11.8581 153.704 11.708 153.757 11.4678L154.221 9.40979C154.274 9.16963 154.124 8.93281 153.884 8.8761ZM153.637 11.4411C153.597 11.6146 153.427 11.7246 153.253 11.6846L149.404 10.8207C149.231 10.7807 149.121 10.6106 149.161 10.4371L149.624 8.37911C149.664 8.20567 149.834 8.09559 150.008 8.13562L153.857 8.99952C154.03 9.03955 154.14 9.20966 154.1 9.3831L153.637 11.4411Z" fill="#9D9B9B"/>
<path d="M149.388 9.42311L149.161 10.4371C149.121 10.6106 149.231 10.784 149.404 10.8207L153.254 11.6846C153.427 11.7246 153.6 11.6146 153.637 11.4411L153.864 10.4271L149.388 9.42311Z" fill="#DFDFDE"/>
<path d="M151.609 9.92031L149.388 9.41998L149.161 10.434C149.121 10.6074 149.231 10.7809 149.404 10.8176L151.312 11.2479L151.609 9.92031Z" fill="#D9D9DA"/>
<path d="M163.09 3.0924L144.191 -1.15705C144.081 -1.18374 144.004 -1.28714 144.014 -1.40055L145.992 -12.2143C146.019 -12.5112 146.299 -12.7146 146.589 -12.6479L165.838 -8.31843C166.129 -8.25171 166.295 -7.94818 166.192 -7.668L163.353 2.94898C163.313 3.05571 163.203 3.11909 163.09 3.0924Z" fill="#E3E1E1"/>
<path d="M144.838 -2.1945L146.663 -11.3238C146.689 -11.604 146.953 -11.7975 147.226 -11.7341L164.868 -7.76816C165.141 -7.70812 165.298 -7.41793 165.201 -7.15442L162.947 1.87484C162.867 2.09499 162.636 2.2184 162.406 2.16837L145.202 -1.70084C144.971 -1.75087 144.818 -1.96435 144.838 -2.1945Z" fill="#C7C7C6"/>
<path d="M144.965 -2.18117L146.789 -11.3172C146.809 -11.5206 146.999 -11.6607 147.199 -11.614L164.848 -7.64476C165.044 -7.6014 165.161 -7.39126 165.091 -7.20113L162.83 1.8348C162.773 1.99491 162.606 2.08497 162.439 2.04827L145.225 -1.82427C145.061 -1.86096 144.948 -2.01439 144.965 -2.18117Z" fill="#C6E6F2"/>
<path d="M160.351 2.47859L146.903 -0.546729L146.909 -0.773544L160.468 2.27513L160.351 2.47859Z" fill="#585857"/>
</g>
<path d="M36.3077 64.9767C35.4108 61.1851 31.6193 58.8467 27.8483 59.7473C24.0721 60.6479 21.7432 64.4548 22.6401 68.2412C23.272 70.9019 25.3308 72.8463 27.8075 73.4552C27.9502 73.8338 28.2152 76.1313 28.6891 76.8681C28.9031 77.2007 29.1732 77.257 29.586 77.17C29.9173 78.352 31.3034 79.4367 32.4449 79.3293C33.245 79.2525 33.8259 78.6999 34.0858 77.958C34.2896 77.3798 34.4527 76.7146 34.5546 76.0699C35.105 76.0545 35.37 75.9982 35.3445 75.4815C35.2987 74.586 34.3304 72.1197 34.2947 71.7411C36.0529 70.0679 36.909 67.5197 36.3077 64.9767Z" fill="#FDFFFC"/>
<path d="M32.6538 64.721C32.5468 64.3372 32.1697 64.0814 31.7722 64.1786C31.4002 64.2656 31.1199 64.68 31.232 65.0638C31.2983 65.2992 31.4715 65.4885 31.6805 65.5755C31.5276 66.5681 31.3339 67.5454 31.2524 68.5483C31.176 69.4796 31.0995 70.3904 30.8957 71.296C29.7898 69.6331 28.6891 67.9752 27.4712 66.3941C27.8075 66.0718 27.5527 65.3503 26.987 65.4834C26.3195 65.642 26.5641 66.6858 27.2367 66.5272C27.2418 66.5272 27.2469 66.5221 27.252 66.517C28.5158 68.3129 29.7542 70.1345 30.7836 72.0789C30.8957 72.2887 31.2014 72.2426 31.2728 72.0277C31.6091 71.0249 31.7059 70.0015 31.7773 68.9525C31.8588 67.8217 32.078 66.7114 32.1697 65.5857C32.5111 65.4731 32.7557 65.0842 32.6538 64.721Z" fill="#AEB4FC"/>
<path d="M24.1685 58.5399C22.7467 57.8338 21.3198 57.1226 19.898 56.4113C19.6024 56.2681 19.3323 56.6927 19.6279 56.8514C21.014 57.6189 22.4052 58.3813 23.7914 59.1488C24.199 59.3739 24.5761 58.7446 24.1685 58.5399Z" fill="#808AFF"/>
<path d="M26.8441 53.116C26.7269 52.8551 26.3906 53.0444 26.416 53.2798C26.5893 54.7534 27.1346 56.2578 27.5626 57.6802C27.6697 58.0282 28.2047 57.9105 28.1181 57.5472C27.7665 56.0838 27.4607 54.4925 26.8441 53.116Z" fill="#808AFF"/>
<path d="M33.4691 52.6863C33.1022 53.0087 32.878 53.5204 32.6487 53.9502C32.4092 54.4004 32.1951 54.861 31.9913 55.3266C31.8282 55.7052 32.455 55.9048 32.613 55.5159C32.8016 55.04 33.0054 54.5795 33.2398 54.1241C33.4386 53.7301 33.729 53.3464 33.8462 52.9217C33.9125 52.6914 33.6373 52.5328 33.4691 52.6863Z" fill="#808AFF"/>
</g>
<defs>
<clipPath id="clip0_316_8">
<rect width="14" height="17" fill="white" transform="translate(153.5 24.3394)"/>
</clipPath>
<clipPath id="clip1_316_8">
<rect width="69" height="12" fill="white" transform="translate(57.5 117.339)"/>
</clipPath>
<clipPath id="clip2_316_8">
<rect width="32" height="26" fill="white" transform="translate(138.5 58.3394)"/>
</clipPath>
<clipPath id="clip3_316_8">
<rect width="35" height="35" fill="white" transform="translate(40.5 -16.6606)"/>
</clipPath>
</defs>
</svg>
