<svg width="177" height="210" viewBox="0 0 177 210" fill="none" xmlns="http://www.w3.org/2000/svg">
<rect x="0.0654297" width="176.435" height="210" fill="#FFCF86"/>
<path fill-rule="evenodd" clip-rule="evenodd" d="M63.3188 45.8275C65.3525 50.567 69.4914 52.2273 73.0609 51.4149C75.8657 50.7765 79.5169 44.8895 79.3879 42.1707C79.0024 34.0154 70.0365 18.4793 65.1571 17.4473C61.2149 20.4873 60.0978 38.3183 63.3188 45.8275Z" fill="#FEDEA6"/>
<path d="M71.3094 51.8186C69.9995 51.8186 68.6961 51.5025 67.5165 50.8869C65.6155 49.8943 64.0976 48.1732 63.1261 45.9087C61.6209 42.3991 60.9366 36.2837 61.3426 29.9474C61.6618 24.9527 62.798 19.0022 65.0283 17.2811L65.1049 17.2214L65.1993 17.2417C70.191 18.2978 79.2055 33.8999 79.5961 42.1592C79.7314 45.0177 76.0023 50.9567 73.1069 51.6168C72.5158 51.7526 71.912 51.8186 71.3094 51.8186ZM65.2096 17.672C63.4733 19.1152 62.1558 23.8065 61.7613 29.974C61.3605 36.2494 62.0307 42.2925 63.5116 45.745C65.2325 49.756 68.4459 51.3959 71.349 51.3959C71.9209 51.3959 72.4801 51.3324 73.015 51.2106C75.7023 50.5988 79.3063 44.8438 79.1799 42.1783C79.0037 38.4402 76.933 32.717 73.7771 27.24C70.6825 21.8696 67.4131 18.2229 65.2096 17.672Z" fill="#F5C371"/>
<path d="M65.2927 17.3778L64.8847 17.4716L72.7909 51.4401L73.1989 51.3462L65.2927 17.3778Z" fill="#F9CF88"/>
<path d="M68.2659 30.4817L67.9276 30.2355C67.9531 30.2012 70.4834 26.7614 72.1852 24.4907L72.5209 24.7394C70.8204 27.0089 68.2914 30.4474 68.2659 30.4817Z" fill="#F9CF88"/>
<path d="M73.3212 26.2817L68.3677 32.0675L68.6865 32.3374L73.6401 26.5515L73.3212 26.2817Z" fill="#F9CF88"/>
<path d="M61.4857 34.513L61.2807 34.8761L70.1576 39.8289L70.3625 39.4658L61.4857 34.513Z" fill="#F9CF88"/>
<path d="M78.533 38.1929L71.4681 45.3485L71.7669 45.6401L78.8318 38.4845L78.533 38.1929Z" fill="#F9CF88"/>
<path d="M61.924 40.2342L61.7771 40.6241L71.1827 44.126L71.3296 43.7361L61.924 40.2342Z" fill="#F9CF88"/>
<path d="M67.1539 27.0609C66.4263 26.4009 64.5087 24.6518 62.4291 22.6527L62.7202 22.3531C64.796 24.3472 66.7109 26.0937 67.4374 26.7525L67.1539 27.0609Z" fill="#F9CF88"/>
<path fill-rule="evenodd" clip-rule="evenodd" d="M63.8053 41.3279C63.0381 40.5549 62.2031 39.7793 61.3159 39.0102C53.0815 31.8716 40.3801 25.298 35.7038 26.7805C33.2488 32.67 43.2641 53.423 51.667 59.7682C56.9714 63.7728 62.6551 63.0062 66.1199 59.8406C66.7008 59.31 67.2191 58.7109 67.6633 58.0572C69.8681 54.8078 70.2345 50.1711 67.265 45.5166C66.4071 44.1686 65.2211 42.7533 63.8053 41.3279Z" fill="#FEDEA6"/>
<path d="M59.2196 62.7079C56.5973 62.7079 53.9508 61.7534 51.5405 59.9345C47.6327 56.9833 42.9896 50.5696 39.4252 43.1937C36.6242 37.3994 34.1245 30.0248 35.5097 26.7005L35.5467 26.6117L35.6399 26.5825C37.8855 25.8704 42.0155 26.8985 47.2676 29.4765C52.2006 31.8983 57.371 35.3165 61.4524 38.854C62.3537 39.6359 63.195 40.419 63.9534 41.1819C65.4292 42.667 66.6024 44.0873 67.4425 45.4036C70.1911 49.7128 70.3379 54.4854 67.8369 58.1727C67.3863 58.8378 66.8552 59.4509 66.2616 59.9928C64.4436 61.6531 62.0754 62.6152 59.5898 62.7015C59.4672 62.7053 59.3434 62.7079 59.2196 62.7079ZM35.8608 26.9506C34.8152 29.6719 36.3178 35.8052 39.8018 43.0135C43.3394 50.3322 47.9353 56.6889 51.7933 59.6019C57.1935 63.6789 62.8082 62.5822 65.9781 59.6869C66.5488 59.1653 67.0569 58.5776 67.4897 57.9404C69.8949 54.3953 69.7443 49.7928 67.0888 45.627C66.2654 44.3361 65.11 42.9386 63.6559 41.4751C62.9052 40.7199 62.0716 39.9431 61.1779 39.1688C53.3227 32.3578 40.6175 25.5848 35.8608 26.9506Z" fill="#F5C371"/>
<path d="M35.8584 26.6397L35.5495 26.9207L65.9679 59.9822L66.2769 59.7012L35.8584 26.6397Z" fill="#F5C371"/>
<path d="M38.077 39.8745L38.0616 39.4582C41.718 39.3199 47.2241 39.1612 47.279 39.1599L47.2905 39.5763C47.2356 39.5788 41.732 39.7375 38.077 39.8745Z" fill="#F5C371"/>
<path d="M48.9157 40.9587L39.1465 41.9605L39.1895 42.3746L48.9587 41.3728L48.9157 40.9587Z" fill="#F5C371"/>
<path d="M56.5888 35.44L55.3985 48.3919L55.8155 48.4297L57.0059 35.4779L56.5888 35.44Z" fill="#F5C371"/>
<path d="M60.8033 53.8982L48.0371 56.1249L48.1095 56.535L60.8756 54.3083L60.8033 53.8982Z" fill="#F5C371"/>
<path d="M62.3549 40.0729L59.2366 52.5256L59.643 52.6262L62.7613 40.1735L62.3549 40.0729Z" fill="#F5C371"/>
<path d="M43.988 36.0387C43.8156 34.7923 43.3484 31.4997 42.7381 27.8683L43.1517 27.7997C43.7633 31.4363 44.2318 34.7339 44.4041 35.9829L43.988 36.0387Z" fill="#F5C371"/>
<path fill-rule="evenodd" clip-rule="evenodd" d="M131.072 108.887C125.988 107.879 122.275 110.34 120.934 113.728C119.881 116.389 122.707 122.709 125.037 124.139C132.024 128.426 149.984 129.839 153.596 126.416C153.297 121.465 139.125 110.482 131.072 108.887Z" fill="#FEDEA6"/>
<path d="M144.487 128.54C137.736 128.54 129.268 126.981 124.927 124.316C122.479 122.813 119.652 116.4 120.74 113.652C121.447 111.864 122.784 110.381 124.502 109.476C126.399 108.475 128.685 108.203 131.114 108.684C134.878 109.429 140.34 112.321 145.372 116.231C149.338 119.313 153.637 123.604 153.806 126.407L153.813 126.503L153.743 126.571C152.312 127.921 148.739 128.54 144.487 128.54ZM128.844 108.869C124.883 108.869 122.166 111.182 121.128 113.804C120.12 116.355 122.862 122.561 125.146 123.962C128.349 125.927 134.269 127.459 140.598 127.962C146.805 128.454 151.678 127.83 153.379 126.332C153.16 124.092 150.01 120.362 145.113 116.557C140.13 112.686 134.733 109.825 131.031 109.091C130.266 108.939 129.536 108.869 128.844 108.869Z" fill="#F5C371"/>
<path d="M121.071 113.495L120.918 113.883L153.58 126.574L153.732 126.186L121.071 113.495Z" fill="#F5C371"/>
<path d="M143.384 128.342C142.461 125.665 141.034 121.649 141.02 121.609L141.414 121.47C141.428 121.511 142.855 125.528 143.78 128.208L143.384 128.342Z" fill="#F5C371"/>
<path d="M139.642 120.792L139.238 120.902L141.245 128.233L141.649 128.124L139.642 120.792Z" fill="#F5C371"/>
<path d="M141.314 113.4L132.191 117.889L132.376 118.262L141.499 113.774L141.314 113.4Z" fill="#F5C371"/>
<path d="M126.87 115.845L126.46 115.925L128.412 125.763L128.822 125.682L126.87 115.845Z" fill="#F5C371"/>
<path d="M136.266 110.554L128.049 116.296L128.29 116.637L136.507 110.894L136.266 110.554Z" fill="#F5C371"/>
<path d="M144.583 123.032L144.487 122.627C145.448 122.401 147.989 121.814 150.814 121.237L150.898 121.644C148.079 122.221 145.543 122.807 144.583 123.032Z" fill="#F5C371"/>
<path fill-rule="evenodd" clip-rule="evenodd" d="M130.18 102.755C125.805 105.518 124.829 109.847 126.214 113.219C127.303 115.866 133.738 118.495 136.415 117.928C144.446 116.228 158.411 104.912 158.645 99.9571C154.989 96.5821 137.111 98.3769 130.18 102.755Z" fill="#FEDEA6"/>
<path d="M135.566 118.215C132.458 118.215 127.039 115.771 126.022 113.297C125.291 111.519 125.226 109.529 125.839 107.694C126.516 105.668 127.977 103.9 130.069 102.58C133.307 100.533 139.267 98.8719 145.621 98.2424C150.63 97.7461 156.72 97.8958 158.789 99.8049L158.861 99.8709L158.856 99.9673C158.616 105.036 144.593 116.41 136.459 118.131C136.191 118.188 135.891 118.215 135.566 118.215ZM150.418 98.4061C148.957 98.4061 147.358 98.4886 145.662 98.6562C139.369 99.2794 133.48 100.918 130.293 102.931C125.862 105.73 125.15 110.076 126.41 113.14C127.453 115.677 133.748 118.279 136.373 117.724C140.053 116.944 145.399 113.985 150.324 110.001C155.153 106.094 158.243 102.295 158.432 100.045C157.186 98.9786 154.281 98.4061 150.418 98.4061Z" fill="#F5C371"/>
<path d="M158.573 99.691L126.143 112.954L126.303 113.339L158.733 100.076L158.573 99.691Z" fill="#F5C371"/>
<path d="M152.601 108.364C150.074 107.063 146.251 105.14 146.213 105.119L146.402 104.747C146.44 104.767 150.264 106.691 152.793 107.993L152.601 108.364Z" fill="#F5C371"/>
<path d="M144.654 105.481L144.438 105.838L150.982 109.76L151.198 109.404L144.654 105.481Z" fill="#F5C371"/>
<path d="M140.714 98.9752L137.236 108.486L137.629 108.628L141.107 99.1175L140.714 98.9752Z" fill="#F5C371"/>
<path d="M131.973 110.671L131.732 111.012L139.979 116.784L140.22 116.443L131.973 110.671Z" fill="#F5C371"/>
<path d="M135.091 100.4L133.14 110.195L133.551 110.276L135.502 100.481L135.091 100.4Z" fill="#F5C371"/>
<path d="M149.777 103.7L149.426 103.473C149.964 102.651 151.392 100.481 153.035 98.1218L153.38 98.3592C151.741 100.715 150.315 102.879 149.777 103.7Z" fill="#F5C371"/>
<path fill-rule="evenodd" clip-rule="evenodd" d="M78.4999 58.0001C42.4999 45.0001 24.4612 53.0286 20.2667 79.4616C16.0722 105.895 41.3462 131.323 78.5001 136.5C108.261 140.647 138.5 122 143.5 78.0002C148.5 34.0002 114.5 71 78.4999 58.0001Z" fill="#F5C371"/>
<path fill-rule="evenodd" clip-rule="evenodd" d="M73.9718 57.7314C73.6424 57.7886 73.3143 57.852 72.9862 57.918C72.1449 58.0856 71.3061 58.2684 70.4712 58.4638C69.3005 58.738 68.1362 59.0375 66.9808 59.3676C65.6633 59.7433 64.3561 60.1583 63.0692 60.6292C61.693 61.1332 60.3231 61.7043 59.0248 62.3847C58.998 62.3986 58.9661 62.3885 58.952 62.3618C58.938 62.3352 58.9482 62.3034 58.975 62.2895C60.2772 61.6053 61.6508 61.0329 63.0322 60.5277C64.3203 60.0568 65.6314 59.6405 66.9502 59.2635C68.1068 58.9335 69.2737 58.6326 70.4457 58.3585C71.2819 58.163 72.1219 57.979 72.9645 57.8127C73.2926 57.7479 73.6219 57.6832 73.9526 57.6261C73.982 57.621 74.0101 57.6401 74.0152 57.6692C74.0215 57.6984 74.0011 57.7264 73.9718 57.7314Z" fill="white"/>
<path d="M59.0001 62.4185C58.9707 62.4185 58.9426 62.4033 58.9273 62.3753C58.9171 62.3563 58.9146 62.3347 58.9209 62.3131C58.9273 62.2928 58.9414 62.2751 58.9605 62.2649C60.135 61.648 61.4627 61.0718 63.0215 60.5018C64.2395 60.0563 65.5225 59.6425 66.9421 59.2376C68.063 58.9178 69.2401 58.6131 70.4388 58.3326C71.298 58.1321 72.1457 57.948 72.9589 57.7868C73.2564 57.7272 73.6037 57.6599 73.9471 57.6002C73.9688 57.5964 73.9905 57.6015 74.0083 57.6142C74.0262 57.6269 74.0377 57.6459 74.0415 57.6662C74.0454 57.6878 74.0403 57.7094 74.0275 57.7272C74.0147 57.7449 73.9956 57.7564 73.9752 57.7602C73.6368 57.8186 73.2896 57.8871 72.9909 57.9455C72.1789 58.1067 71.3338 58.2895 70.4771 58.4913C69.2822 58.7705 68.1077 59.0752 66.9881 59.395C65.571 59.7999 64.2931 60.2124 63.079 60.6554C61.5279 61.2228 60.2065 61.7965 59.0384 62.4096C59.0269 62.4147 59.0129 62.4185 59.0001 62.4185ZM73.9624 57.6523C73.9611 57.6523 73.9598 57.6523 73.9573 57.6523C73.6139 57.7119 73.2679 57.7792 72.9704 57.8389C72.1585 58.0001 71.3121 58.1841 70.4529 58.3847C69.2554 58.6652 68.0796 58.9698 66.9587 59.2897C65.5404 59.6946 64.2586 60.1084 63.042 60.5526C61.4857 61.1225 60.1593 61.6975 58.9873 62.3131C58.9809 62.3157 58.9771 62.322 58.9746 62.3284C58.972 62.3347 58.9733 62.3423 58.9758 62.3487C58.9822 62.3614 58.9988 62.3664 59.0116 62.3588C60.1823 61.7445 61.5062 61.1695 63.0598 60.6009C64.2752 60.1566 65.5544 59.7441 66.9728 59.3392C68.0936 59.0193 69.2682 58.7147 70.4644 58.4354C71.3223 58.2349 72.1687 58.0508 72.9807 57.8896C73.2794 57.83 73.6266 57.7627 73.9662 57.703C73.9726 57.7018 73.979 57.698 73.9828 57.6929C73.9866 57.6878 73.9879 57.6802 73.9866 57.6739C73.9854 57.6675 73.9815 57.6612 73.9764 57.6574C73.9726 57.6535 73.9675 57.6523 73.9624 57.6523Z" fill="white"/>
<path fill-rule="evenodd" clip-rule="evenodd" d="M106.377 45.9709C109.199 41.093 111.101 35.979 111.687 34.315C111.876 32.4123 108.676 26.3425 108.676 26.3425C105.875 26.4898 96.1442 26.9277 91.9312 26.1864C91.9312 26.1864 89.3039 24.6722 87.2485 26.3756C85.1931 28.0789 88.7332 30.4259 88.7332 30.4259L73.9624 57.6776C82.3372 67.3674 89.4941 62.0681 89.4941 62.0681L91.6261 55.709C96.5067 57.7792 100.914 54.0716 104.362 49.1454C104.971 48.1846 105.671 47.0663 106.377 45.9709Z" fill="#FDBCA0"/>
<path fill-rule="evenodd" clip-rule="evenodd" d="M96.2514 126.155L92.235 131.599L110.356 131.675C106.322 128.42 96.2514 126.155 96.2514 126.155Z" fill="#FDBCA0"/>
<path fill-rule="evenodd" clip-rule="evenodd" d="M106.376 45.9709C105.75 47.0549 105.077 48.1262 104.363 49.1467C102.303 52.4037 101.677 54.6123 101.677 55.5211C101.677 56.4299 102.138 59.3683 102.138 59.3683L107.539 59.2541C107.539 59.2541 107.539 56.3537 107.995 54.9156C108.452 53.4775 111.345 41.1387 110.431 40.9864C110.219 40.9508 109.89 41.1971 109.483 41.635C109.497 41.6439 109.153 42.0132 108.95 42.2595C108.197 43.2051 107.28 44.5696 106.376 45.9709Z" fill="#FDBCA0"/>
<path fill-rule="evenodd" clip-rule="evenodd" d="M88.1242 17.0653C78.2264 22.6667 59.0001 62.3359 59.0001 62.3359C64.8854 59.2465 73.9624 57.6776 73.9624 57.6776L88.7332 30.4259C88.7332 30.4259 85.1931 28.0789 87.2485 26.3756C89.3039 24.6722 91.9312 26.1864 91.9312 26.1864C96.1441 26.9277 105.875 26.4885 108.676 26.3426C108.676 26.3426 111.876 32.4123 111.687 34.315C111.1 35.979 109.199 41.0943 106.376 45.9709C108.062 43.3575 109.789 40.8798 110.432 40.9864C111.346 41.1375 108.452 53.4775 107.997 54.9156C107.54 56.3538 107.541 59.2541 107.541 59.2541L108.682 59.23C108.682 59.23 109.244 64.4163 109.917 71.8328C110.232 75.3005 110.57 79.2569 110.888 83.3974C111.973 82.0024 114.352 78.706 114.469 76.4899C114.621 73.6136 117.362 49.9946 116.144 33.9469C114.925 17.8979 107.997 19.034 107.997 19.034C107.997 19.034 98.0221 11.4639 88.1242 17.0653Z" fill="#3F4553"/>
<path fill-rule="evenodd" clip-rule="evenodd" d="M104.363 49.1467C100.915 54.0728 96.5079 57.7804 91.6273 55.7102L89.4953 62.0694C89.4953 62.0694 98.262 65.2883 100.237 69.5265C100.92 63.4047 101.525 59.3823 101.525 59.3823L102.139 59.3696C102.139 59.3696 101.678 56.4299 101.678 55.5224C101.677 54.6123 102.301 52.4037 104.363 49.1467Z" fill="#3F4553"/>
<path fill-rule="evenodd" clip-rule="evenodd" d="M55.345 112.099C53.8258 111.964 52.267 111.855 50.6712 111.772C51.6887 110.677 53.1288 107.885 54.6582 104.473C54.8612 106.79 55.1765 110.256 55.345 112.099ZM56.2987 64.0749C51.1206 68.3143 27.6699 104.65 35.8928 122.516C35.8928 122.516 42.2888 128.875 92.235 131.6L96.2514 126.156L97.2612 124.788C97.2612 124.788 93.8896 122.441 87.4131 119.728C87.4131 119.728 89.0638 116.124 90.9865 111.803C90.9865 111.803 97.8714 124.486 104.114 127.967C95.8211 119.945 98.3323 86.5871 100.237 69.5278C98.2634 65.2896 89.4953 62.0707 89.4953 62.0707C89.4953 62.0707 82.3385 67.37 73.9637 57.6802C73.9637 57.6802 64.8867 59.249 59.0014 62.3385C57.9826 62.8703 57.0609 63.4504 56.2987 64.0749Z" fill="#63A6DC"/>
<path fill-rule="evenodd" clip-rule="evenodd" d="M100.236 69.5265C98.331 86.5858 95.8199 119.944 104.113 127.966C104.113 127.966 110.356 133.113 111.879 117.974C112.631 110.497 111.86 96.0789 110.887 83.3986C110.569 79.2582 110.231 75.3018 109.915 71.8341C109.243 64.4176 108.681 59.2313 108.681 59.2313L107.539 59.2554L102.138 59.3696L101.524 59.3823C101.524 59.3823 100.919 63.4047 100.236 69.5265Z" fill="#63A6DC"/>
<path fill-rule="evenodd" clip-rule="evenodd" d="M92.4393 80.1087C92.6997 81.0149 92.9576 81.9212 93.2142 82.8288C93.7721 84.8025 94.3236 86.7788 94.8611 88.7589C95.3564 90.5778 95.8441 92.4018 96.2948 94.2321C96.4582 94.8985 96.619 95.5699 96.7582 96.2426C96.8054 96.4737 96.8514 96.7059 96.8871 96.9382C96.9089 97.0804 96.9331 97.239 96.9331 97.3837C96.9331 97.5373 96.8731 97.7506 96.8323 97.8991C96.7505 98.191 96.651 98.4804 96.5501 98.766C96.2399 99.6431 95.8914 100.513 95.5415 101.374C95.0743 102.523 94.593 103.665 94.1053 104.805C93.5576 106.087 93.001 107.365 92.4418 108.641C91.9758 109.704 91.506 110.765 91.0337 111.825C91.0222 111.851 90.9903 111.864 90.9622 111.852C90.9354 111.841 90.9226 111.809 90.9341 111.781C91.4052 110.721 91.875 109.66 92.341 108.598C92.9014 107.322 93.4568 106.044 94.0044 104.762C94.4909 103.622 94.9734 102.481 95.4394 101.333C95.7892 100.472 96.1365 99.6037 96.4467 98.7292C96.5476 98.4461 96.6459 98.158 96.7263 97.8699C96.7646 97.7341 96.8233 97.5259 96.8233 97.3837C96.8233 97.2454 96.8003 97.0918 96.7786 96.9547C96.7429 96.7237 96.6969 96.4927 96.6497 96.2642C96.5118 95.5928 96.351 94.9239 96.1875 94.2575C95.7382 92.4284 95.2492 90.6044 94.7551 88.7868C94.2164 86.808 93.6661 84.8317 93.1082 82.8579C92.8516 81.9504 92.595 81.0441 92.3333 80.1378C92.3256 80.1099 92.3422 80.0795 92.3703 80.0718C92.4022 80.0642 92.4316 80.0807 92.4393 80.1087Z" fill="#A7D1F3"/>
<path d="M90.9852 111.883C90.9737 111.883 90.9635 111.88 90.952 111.875C90.9112 111.858 90.892 111.809 90.9099 111.767C91.4103 110.644 91.8699 109.603 92.3168 108.584C92.9372 107.169 93.4823 105.915 93.9802 104.749C94.5534 103.408 95.0105 102.317 95.4152 101.321C95.7343 100.535 96.102 99.6215 96.4212 98.719C96.5169 98.4474 96.6178 98.1555 96.7007 97.861C96.739 97.7239 96.7965 97.5195 96.7965 97.3825C96.7965 97.2441 96.7722 97.0855 96.7518 96.9573C96.7135 96.7123 96.6663 96.4711 96.6242 96.268C96.4837 95.5902 96.319 94.9035 96.162 94.2625C95.7075 92.4132 95.2045 90.5397 94.7296 88.7919C94.2368 86.978 93.6981 85.0386 93.0827 82.863C92.8402 82.0049 92.5785 81.0809 92.3078 80.1441C92.3014 80.1238 92.304 80.101 92.3155 80.082C92.3257 80.0629 92.3436 80.049 92.364 80.0426C92.3844 80.0363 92.4074 80.0388 92.4266 80.0502C92.4457 80.0604 92.4597 80.0781 92.4661 80.0985C92.7419 81.0542 93.0125 82.01 93.2411 82.8186C93.8551 84.9916 94.3939 86.9311 94.8879 88.7487C95.3641 90.4978 95.8671 92.3726 96.3216 94.2232C96.4799 94.8655 96.6446 95.5547 96.785 96.2338C96.8271 96.4394 96.8756 96.6831 96.9139 96.9306C96.9331 97.0563 96.9599 97.2289 96.9599 97.3799C96.9599 97.5386 96.8986 97.7569 96.8578 97.9016C96.7735 98.2012 96.6727 98.4956 96.5756 98.7698C96.2552 99.6761 95.8863 100.593 95.5671 101.379C95.1624 102.377 94.7054 103.467 94.1309 104.81C93.6304 105.979 93.0866 107.235 92.4661 108.647C92.0193 109.664 91.5597 110.706 91.058 111.831C91.0465 111.865 91.0171 111.883 90.9852 111.883ZM92.3883 80.0972C92.3857 80.0972 92.3831 80.0972 92.3806 80.0985C92.3742 80.101 92.3678 80.1048 92.3653 80.1111C92.3614 80.1175 92.3614 80.1238 92.3627 80.1302C92.6334 81.0682 92.8951 81.991 93.1376 82.8503C93.753 85.0259 94.2917 86.9654 94.7845 88.7792C95.2594 90.527 95.7624 92.4005 96.2169 94.2511C96.3739 94.8921 96.5399 95.5788 96.679 96.2579C96.7212 96.4622 96.7697 96.7034 96.808 96.9496C96.8284 97.0791 96.8527 97.239 96.8527 97.3825C96.8527 97.5272 96.7939 97.7353 96.7556 97.8737C96.6714 98.172 96.5705 98.4652 96.4748 98.7381C96.1543 99.6418 95.7867 100.557 95.4675 101.343C95.0628 102.34 94.6058 103.429 94.0326 104.772C93.5334 105.939 92.9896 107.193 92.3691 108.608C91.9223 109.627 91.4614 110.668 90.9622 111.792C90.9559 111.804 90.9622 111.819 90.975 111.826C90.9878 111.831 91.0031 111.826 91.0095 111.813C91.5099 110.688 91.9708 109.646 92.4163 108.63C93.0355 107.218 93.5806 105.963 94.0798 104.794C94.6543 103.451 95.1101 102.361 95.516 101.363C95.8352 100.576 96.2041 99.6609 96.5246 98.7558C96.6216 98.4829 96.7225 98.1885 96.8067 97.8915C96.8463 97.7493 96.9063 97.536 96.9063 97.3837C96.9063 97.2365 96.8795 97.0664 96.8603 96.9433C96.822 96.697 96.7735 96.4533 96.7314 96.249C96.591 95.5699 96.4263 94.882 96.268 94.2397C95.8135 92.3891 95.3105 90.5156 94.8343 88.7665C94.3402 86.9501 93.8015 85.0106 93.1874 82.8376C92.9589 82.0291 92.6883 81.0733 92.4125 80.1175C92.4112 80.1112 92.4061 80.1061 92.3997 80.1023C92.3972 80.0985 92.3921 80.0972 92.3883 80.0972Z" fill="#A7D1F3"/>
<path fill-rule="evenodd" clip-rule="evenodd" d="M50.7887 111.724C56.5068 112.02 62.207 112.695 67.8242 113.794C73.2934 114.864 78.7038 116.339 83.9279 118.275C85.8697 118.995 87.7897 119.779 89.6741 120.636C91.0835 121.277 92.475 121.96 93.8385 122.694C94.7015 123.158 95.5556 123.643 96.3892 124.158C96.6918 124.346 96.9995 124.539 97.2918 124.742C97.3046 124.751 97.3123 124.762 97.3135 124.778C97.3161 124.793 97.3123 124.806 97.3033 124.818L92.2784 131.632C92.2606 131.656 92.2274 131.661 92.2031 131.643C92.1789 131.626 92.1737 131.593 92.1916 131.568L97.1846 124.799C96.9076 124.609 96.6178 124.426 96.3318 124.25C95.5007 123.736 94.6479 123.251 93.7874 122.787C92.4265 122.055 91.0363 121.373 89.6294 120.734C87.7476 119.877 85.8301 119.094 83.8909 118.375C78.6719 116.442 73.2666 114.97 67.8038 113.9C62.1572 112.794 56.4276 112.118 50.6789 111.826C50.6725 111.827 50.6661 111.826 50.6597 111.825C49.0371 111.742 47.4145 111.69 45.7906 111.668C45.7612 111.668 45.737 111.643 45.737 111.614C45.737 111.585 45.7625 111.561 45.7919 111.561C47.4119 111.582 49.0307 111.634 50.6495 111.717C50.8729 111.473 51.0746 111.198 51.261 110.926C51.5138 110.555 51.7487 110.169 51.9734 109.781C52.5543 108.774 53.0802 107.725 53.582 106.678C54.1948 105.398 54.7756 104.102 55.3386 102.8C55.9527 101.381 56.5476 99.9528 57.1298 98.5198C58.4613 95.2437 59.7329 91.9398 60.9674 88.6256C61.5342 87.1012 62.0985 85.5743 62.6436 84.0422C62.6538 84.0143 62.6845 83.9991 62.7126 84.0092C62.7406 84.0194 62.756 84.0498 62.7457 84.0778C62.2006 85.6098 61.6376 87.138 61.0695 88.6625C59.835 91.9779 58.5634 95.2818 57.2319 98.5604C56.6498 99.9934 56.0548 101.423 55.4395 102.842C54.8752 104.144 54.2943 105.441 53.6815 106.722C53.1785 107.772 52.6513 108.824 52.0691 109.833C51.8432 110.224 51.6083 110.612 51.3529 110.986C51.178 111.238 50.9917 111.493 50.7887 111.724Z" fill="#A7D1F3"/>
<path fill-rule="evenodd" clip-rule="evenodd" d="M91.9196 26.2397C91.9145 26.2385 91.9094 26.2372 91.9043 26.2334C91.7664 26.1534 91.6068 26.0836 91.4613 26.0227C91.1038 25.8742 90.7259 25.7612 90.3455 25.6927C89.2348 25.4921 88.1663 25.6876 87.2841 26.4187C86.9126 26.7271 86.6534 27.1168 86.6598 27.6118C86.6662 28.1094 86.9394 28.593 87.2369 28.9776C87.5215 29.347 87.8701 29.6833 88.2301 29.9791C88.3986 30.1187 88.5812 30.2609 88.7637 30.3814C88.788 30.3979 88.7956 30.4309 88.779 30.4563C88.7624 30.4805 88.7293 30.4881 88.7037 30.4716C88.5173 30.3484 88.3322 30.2037 88.1611 30.0616C87.7948 29.7595 87.4411 29.4181 87.1513 29.0423C86.4517 28.1373 86.2347 27.1486 87.2152 26.3349C88.1216 25.5835 89.2233 25.3804 90.3646 25.586C90.7527 25.6559 91.1383 25.7714 91.5034 25.9224C91.6515 25.9833 91.8111 26.0544 91.9515 26.1344C92.4724 26.2258 92.9996 26.288 93.5256 26.3375C94.1537 26.3971 94.7844 26.4377 95.4138 26.4682C96.8398 26.5368 98.2709 26.5558 99.6982 26.552C101.922 26.5469 104.15 26.4872 106.373 26.3959C107.136 26.3641 107.901 26.3311 108.664 26.2905C108.672 26.2892 108.678 26.288 108.686 26.2892C108.939 26.2753 109.19 26.2613 109.442 26.2461C109.471 26.2448 109.496 26.2664 109.499 26.2969C109.5 26.326 109.479 26.3514 109.448 26.354C109.221 26.3679 108.992 26.3806 108.765 26.3933C108.969 26.783 109.166 27.1777 109.36 27.5725C109.808 28.4851 110.237 29.4092 110.63 30.3459C110.938 31.0796 111.233 31.8348 111.46 32.5964C111.577 32.9911 111.722 33.523 111.748 33.985C111.777 33.9037 111.805 33.8212 111.831 33.74C111.84 33.7121 111.871 33.6968 111.899 33.7057C111.927 33.7146 111.943 33.7451 111.934 33.773C111.872 33.9596 111.807 34.1462 111.741 34.3315C111.741 34.3328 111.741 34.3328 111.74 34.334C111.736 34.3442 111.728 34.3531 111.719 34.3594C111.709 34.3658 111.697 34.3696 111.685 34.3683C111.68 34.3683 111.674 34.367 111.671 34.3645C111.66 34.3607 111.651 34.3531 111.645 34.3442C111.639 34.334 111.635 34.3226 111.636 34.3099C111.659 34.0738 111.628 33.8123 111.589 33.5788C111.534 33.2589 111.45 32.9391 111.357 32.6281C111.129 31.8703 110.837 31.1176 110.531 30.3878C110.139 29.4523 109.71 28.5295 109.263 27.6195C109.062 27.2107 108.858 26.802 108.647 26.3997C107.892 26.4403 107.133 26.4733 106.378 26.5037C104.154 26.5951 101.925 26.6548 99.6995 26.6599C98.2709 26.6637 96.8372 26.6446 95.4099 26.5761C94.778 26.5456 94.1461 26.505 93.5167 26.4454C92.9843 26.3946 92.4507 26.3324 91.9247 26.2397C91.9209 26.2397 91.9209 26.2397 91.9196 26.2397Z" fill="white"/>
<path d="M111.687 34.3963C111.685 34.3963 111.682 34.3963 111.678 34.3963C111.671 34.395 111.663 34.3937 111.657 34.3912C111.641 34.3848 111.627 34.3747 111.618 34.3594C111.608 34.3442 111.603 34.3252 111.606 34.3074C111.625 34.1132 111.609 33.8822 111.558 33.5839C111.51 33.3047 111.437 33.0038 111.327 32.637C111.133 31.9871 110.879 31.2979 110.503 30.4005C110.143 29.5437 109.729 28.6387 109.236 27.6335C109.073 27.3009 108.857 26.8655 108.628 26.4302C107.977 26.4644 107.282 26.4962 106.376 26.5342C103.925 26.6345 101.74 26.6853 99.697 26.6904C98.0361 26.6942 96.6726 26.6675 95.4062 26.6066C94.704 26.5723 94.0849 26.5304 93.5116 26.4759C92.8899 26.4175 92.3831 26.3515 91.9171 26.2702H91.9133C91.9056 26.269 91.8967 26.2652 91.8903 26.2613C91.7409 26.175 91.5673 26.1001 91.4499 26.0519C91.086 25.9009 90.7119 25.7904 90.3392 25.7232C89.1736 25.5125 88.1229 25.7612 87.3008 26.4429C86.8871 26.7856 86.6803 27.179 86.6867 27.6144C86.6918 28.0269 86.8846 28.4801 87.2573 28.9637C87.5139 29.2962 87.8472 29.6313 88.2467 29.9613C88.4523 30.1302 88.6208 30.2584 88.7778 30.3624C88.7957 30.3739 88.8085 30.3929 88.8123 30.4145C88.8161 30.4361 88.8123 30.4576 88.8008 30.4754C88.7753 30.5122 88.7242 30.5224 88.6872 30.4982C88.5251 30.3904 88.3514 30.2596 88.1421 30.087C87.7323 29.7494 87.3914 29.4054 87.1271 29.0627C86.2986 27.9901 86.3216 27.0407 87.1948 26.3172C88.0552 25.6038 89.1519 25.3436 90.3673 25.562C90.7515 25.6318 91.1371 25.7447 91.5111 25.9009C91.6975 25.9783 91.8405 26.0456 91.958 26.1128C92.415 26.1928 92.9142 26.2575 93.5257 26.3147C94.0938 26.368 94.7117 26.4111 95.4126 26.4441C96.6752 26.505 98.0361 26.5304 99.6944 26.5279C101.735 26.5228 103.918 26.472 106.367 26.3718C107.287 26.3337 107.993 26.302 108.659 26.2664C108.664 26.2639 108.676 26.2639 108.686 26.2652C108.932 26.2512 109.184 26.2372 109.437 26.222C109.458 26.2207 109.48 26.2283 109.495 26.2423C109.512 26.2563 109.522 26.2766 109.523 26.2982C109.526 26.3426 109.491 26.3819 109.447 26.3845C109.234 26.3972 109.02 26.4099 108.806 26.4213C108.976 26.7462 109.154 27.1016 109.38 27.5636C109.874 28.5702 110.289 29.4777 110.651 30.3396C111.03 31.2433 111.286 31.9389 111.482 32.5926C111.583 32.9289 111.715 33.4113 111.76 33.853C111.773 33.8136 111.787 33.7743 111.8 33.735C111.806 33.7146 111.821 33.6981 111.84 33.688C111.86 33.6778 111.883 33.6766 111.903 33.6829C111.923 33.6893 111.94 33.7045 111.95 33.7235C111.96 33.7426 111.962 33.7654 111.955 33.7857C111.893 33.9748 111.826 34.1652 111.763 34.3442C111.755 34.3633 111.745 34.3759 111.729 34.3861C111.719 34.3912 111.704 34.3963 111.687 34.3963ZM108.662 26.3705L108.671 26.387C108.903 26.8287 109.121 27.2717 109.287 27.6081C109.78 28.6133 110.195 29.5196 110.555 30.3777C110.933 31.2776 111.187 31.9694 111.382 32.6205C111.492 32.9899 111.566 33.2932 111.614 33.575C111.667 33.8797 111.682 34.1132 111.663 34.3138C111.663 34.3201 111.664 34.3252 111.667 34.3302C111.669 34.3353 111.674 34.3379 111.68 34.3404L111.687 34.3417C111.695 34.3417 111.7 34.3404 111.704 34.3379C111.709 34.3353 111.712 34.3303 111.714 34.3252C111.778 34.1449 111.844 33.9558 111.907 33.7654C111.909 33.7591 111.908 33.7515 111.906 33.7451C111.903 33.7388 111.897 33.7337 111.89 33.7324C111.884 33.7299 111.876 33.7311 111.87 33.7337C111.863 33.7362 111.858 33.7426 111.857 33.7489C111.83 33.8314 111.802 33.9127 111.774 33.9952L111.728 34.1284L111.72 33.9875C111.694 33.5179 111.543 32.9734 111.433 32.6053C111.238 31.9529 110.983 31.2598 110.605 30.3574C110.243 29.4968 109.828 28.5905 109.336 27.5852C109.101 27.1054 108.917 26.7411 108.742 26.406L108.722 26.368L108.765 26.3654C108.992 26.3527 109.221 26.34 109.448 26.3261C109.462 26.3248 109.474 26.3134 109.472 26.2982C109.472 26.2918 109.468 26.2855 109.463 26.2804C109.458 26.2753 109.452 26.2728 109.444 26.274C109.193 26.2893 108.94 26.3032 108.688 26.3172C108.679 26.3159 108.676 26.3159 108.673 26.3172C108.002 26.354 107.296 26.3857 106.375 26.4238C103.924 26.5241 101.741 26.5749 99.6995 26.5799C98.0399 26.5837 96.6777 26.5571 95.4138 26.4962C94.7117 26.4619 94.0938 26.42 93.5244 26.3654C92.9091 26.307 92.4086 26.2423 91.9477 26.1623L91.9388 26.1585C91.8226 26.0925 91.6809 26.0253 91.4945 25.9478C91.123 25.7942 90.7426 25.6813 90.3621 25.6127C89.1634 25.3957 88.0821 25.6534 87.2356 26.3553C86.1671 27.2412 86.6139 28.2948 87.1756 29.0233C87.4374 29.3622 87.7757 29.7037 88.1816 30.0388C88.3897 30.2101 88.5621 30.3409 88.7217 30.4462C88.7331 30.4538 88.7497 30.4513 88.7574 30.4386C88.7612 30.4322 88.7625 30.4259 88.7612 30.4196C88.76 30.4132 88.7561 30.4069 88.7497 30.4031C88.5914 30.2977 88.4204 30.1695 88.2136 29.9981C87.8101 29.6656 87.4744 29.3267 87.2152 28.9916C86.8335 28.4978 86.6382 28.0333 86.6331 27.6093C86.6267 27.1575 86.8412 26.7488 87.2676 26.3946C88.1025 25.7029 89.1685 25.4503 90.3519 25.6635C90.7285 25.7308 91.1064 25.8437 91.4741 25.9961C91.5928 26.0456 91.769 26.1205 91.9209 26.2093C91.9235 26.2106 91.926 26.2118 91.9286 26.2118C92.3946 26.2943 92.8988 26.3591 93.5193 26.4175C94.0912 26.4708 94.7104 26.5139 95.4113 26.5482C96.6764 26.6091 98.0399 26.6358 99.6995 26.632C101.742 26.6269 103.927 26.5761 106.376 26.4759C107.289 26.439 107.989 26.406 108.645 26.3718L108.662 26.3705Z" fill="#F0A38B"/>
<path fill-rule="evenodd" clip-rule="evenodd" d="M100.199 69.329C100.457 67.0341 100.737 64.7418 101.042 62.4533C101.178 61.4264 101.317 60.3983 101.472 59.374C101.476 59.3473 101.497 59.3283 101.524 59.3283L102.076 59.3168C101.972 58.6568 101.878 57.993 101.792 57.3304C101.749 56.9877 101.707 56.6437 101.674 56.301C101.648 56.0459 101.623 55.778 101.623 55.5216C101.623 55.2157 101.684 54.8845 101.754 54.5887C101.865 54.1165 102.022 53.6494 102.196 53.1963C102.437 52.5718 102.719 51.9613 103.024 51.366C103.419 50.5981 103.854 49.8492 104.316 49.1193C104.332 49.0939 104.366 49.0863 104.39 49.1028C104.416 49.1181 104.424 49.1523 104.407 49.1764C103.947 49.9037 103.513 50.6488 103.12 51.4142C102.816 52.007 102.535 52.6137 102.295 53.2344C102.123 53.6824 101.967 54.1457 101.857 54.6128C101.79 54.901 101.729 55.2246 101.729 55.5216C101.729 55.7742 101.754 56.0382 101.778 56.2896C101.811 56.6323 101.854 56.975 101.897 57.3164C101.983 57.9828 102.077 58.6505 102.182 59.3143L108.677 59.1772C108.705 59.1772 108.73 59.1975 108.732 59.2254C108.86 60.4046 108.98 61.5851 109.099 62.7655C109.404 65.7852 109.692 68.8074 109.967 71.8295C110.317 75.6819 110.642 79.538 110.938 83.3941C110.941 83.4233 110.918 83.4499 110.888 83.4512C110.859 83.4538 110.832 83.4309 110.831 83.4017C110.535 79.5456 110.209 75.6907 109.859 71.8384C109.585 68.8162 109.296 65.7941 108.991 62.7744C108.874 61.6105 108.755 60.4465 108.63 59.2838L101.568 59.4336C101.416 60.4427 101.279 61.4556 101.145 62.466C100.834 64.8103 100.548 67.1585 100.285 69.5093C100.29 69.5245 100.287 69.5397 100.28 69.5524C100.248 69.8342 100.217 70.1173 100.186 70.3991C99.7791 74.1181 99.4267 77.8447 99.1395 81.5752C98.8114 85.8375 98.5688 90.1099 98.4488 94.3836C98.3505 97.9123 98.3365 101.449 98.459 104.977C98.5177 106.653 98.6084 108.329 98.7424 110.001C98.8688 111.57 99.0322 113.136 99.2518 114.694C99.4522 116.119 99.6999 117.541 100.018 118.945C100.3 120.192 100.64 121.435 101.07 122.642C101.735 124.51 102.701 126.529 104.148 127.929C104.169 127.949 104.169 127.983 104.149 128.005C104.129 128.026 104.094 128.026 104.072 128.006C102.613 126.595 101.639 124.564 100.968 122.679C100.536 121.468 100.195 120.221 99.9118 118.969C99.594 117.561 99.3463 116.137 99.1446 114.709C98.925 113.149 98.7603 111.58 98.6352 110.01C98.5011 108.337 98.4105 106.659 98.3518 104.982C98.2279 101.452 98.2433 97.9136 98.3416 94.3824C98.4603 90.1074 98.7041 85.8337 99.0322 81.5688C99.3195 77.8371 99.6706 74.1092 100.079 70.3889C100.111 70.102 100.143 69.8152 100.175 69.5283C99.405 67.8947 97.6675 66.496 96.1904 65.5123C94.7733 64.5679 93.2337 63.7556 91.6851 63.0473C91.163 62.8087 90.6344 62.5802 90.1021 62.3644C89.894 62.2806 89.6846 62.1969 89.474 62.1194C89.4459 62.1093 89.4318 62.0788 89.4421 62.0509L91.5638 55.7222C91.3762 55.4988 91.1974 55.2538 91.0289 55.0177C90.5681 54.3717 90.1455 53.6926 89.7587 52.9983C88.5024 50.7427 87.6024 48.2676 87.1556 45.7265C87.1505 45.6973 87.1696 45.6694 87.199 45.6643C87.2283 45.6592 87.2564 45.6783 87.2615 45.7075C87.7071 48.2359 88.6033 50.7009 89.8531 52.945C90.2374 53.6342 90.6574 54.3107 91.117 54.9543C91.2894 55.1954 91.4732 55.448 91.666 55.674C91.6724 55.6816 91.6762 55.6892 91.6775 55.6981C91.6787 55.707 91.6787 55.7158 91.6762 55.726L89.5608 62.0357C89.7561 62.108 89.9502 62.1854 90.1429 62.2641C90.6766 62.4799 91.2064 62.7097 91.7311 62.9483C93.286 63.6591 94.8308 64.474 96.2517 65.4209C97.702 66.3881 99.3871 67.7411 100.199 69.329Z" fill="#F0A38B"/>
<path d="M104.113 128.047C104.091 128.047 104.071 128.04 104.055 128.025C102.813 126.823 101.796 125.077 100.944 122.687C100.546 121.568 100.2 120.353 99.8885 118.974C99.591 117.658 99.3395 116.263 99.1212 114.712C98.9131 113.235 98.7459 111.698 98.6106 110.011C98.4816 108.41 98.3897 106.765 98.3272 104.982C98.2123 101.708 98.2084 98.2405 98.3169 94.3806C98.4293 90.3404 98.6553 86.1492 99.0076 81.5658C99.2859 77.9458 99.6383 74.1836 100.054 70.3859C100.085 70.1015 100.117 69.8172 100.149 69.5329C99.5285 68.223 98.1931 66.8788 96.1786 65.5346C94.8789 64.6677 93.4057 63.8629 91.6771 63.0722C91.1422 62.8272 90.6098 62.5975 90.0953 62.3906C89.9064 62.3144 89.6855 62.2256 89.4685 62.1456C89.4264 62.1304 89.4047 62.0834 89.42 62.0415L91.5367 55.7268C91.3516 55.5059 91.1741 55.2622 91.0094 55.0325C90.569 54.4156 90.1413 53.7352 89.7379 53.0105C88.4523 50.7029 87.5765 48.2532 87.1322 45.7298C87.1284 45.7082 87.1335 45.6866 87.1463 45.6689C87.159 45.6511 87.1782 45.6397 87.1986 45.6359C87.2433 45.6283 87.2854 45.6575 87.2931 45.7019C87.7335 48.2062 88.6042 50.6394 89.8809 52.9305C90.2817 53.6502 90.7056 54.3242 91.1435 54.9373C91.3145 55.1772 91.4996 55.4297 91.6911 55.6557C91.7001 55.6658 91.7065 55.6785 91.709 55.6925C91.7116 55.7065 91.7116 55.7217 91.7065 55.7344L89.6 62.0187C89.7762 62.0847 89.9511 62.1545 90.1579 62.237C90.6737 62.4451 91.2086 62.6762 91.746 62.9224C93.4823 63.7157 94.9632 64.5255 96.2705 65.3975C98.1944 66.6795 99.5106 67.9691 100.183 69.2333C100.444 66.9181 100.725 64.6359 101.016 62.449C101.14 61.5173 101.285 60.4358 101.446 59.3696C101.452 59.3303 101.486 59.3011 101.525 59.2998L102.045 59.2884C101.944 58.6436 101.851 57.9861 101.766 57.3324C101.713 56.9199 101.677 56.6026 101.648 56.3018C101.625 56.072 101.597 55.7852 101.597 55.5199C101.597 55.2609 101.639 54.9626 101.728 54.5806C101.828 54.1554 101.973 53.6997 102.171 53.1844C102.396 52.6018 102.668 52.0014 103.001 51.3515C103.375 50.6204 103.799 49.8855 104.294 49.1023C104.306 49.0845 104.324 49.0719 104.345 49.0668C104.367 49.0617 104.389 49.0655 104.407 49.0769C104.426 49.0884 104.438 49.1061 104.442 49.1277C104.447 49.1493 104.444 49.1709 104.432 49.1886C103.939 49.9667 103.519 50.6978 103.146 51.4251C102.816 52.0712 102.546 52.6652 102.323 53.2428C102.128 53.7505 101.985 54.1998 101.886 54.6174C101.8 54.988 101.759 55.2749 101.759 55.5199C101.759 55.7775 101.786 56.0479 101.809 56.2853C101.838 56.5823 101.875 56.8983 101.927 57.3108C102.012 57.9696 102.106 58.6335 102.208 59.2846L108.679 59.1475C108.722 59.1462 108.759 59.178 108.762 59.2199C108.895 60.4511 109.022 61.6924 109.129 62.7599C109.425 65.6971 109.717 68.7472 109.997 71.8252C110.358 75.8095 110.685 79.6999 110.969 83.391C110.97 83.4126 110.963 83.4342 110.949 83.4507C110.935 83.4672 110.915 83.4774 110.893 83.4786C110.871 83.4799 110.85 83.4735 110.833 83.4596C110.817 83.4456 110.806 83.4253 110.805 83.4037C110.522 79.7114 110.195 75.821 109.834 71.8405C109.554 68.7599 109.262 65.711 108.965 62.7777C108.861 61.7343 108.737 60.5209 108.607 59.3138L101.594 59.4623C101.438 60.5031 101.295 61.5604 101.175 62.4718C100.874 64.7362 100.584 67.1035 100.315 69.5088C100.319 69.5265 100.317 69.5456 100.309 69.5621C100.277 69.8426 100.246 70.1231 100.215 70.4036C99.7991 74.2014 99.4468 77.961 99.1685 81.5785C98.8161 86.1594 98.5914 90.348 98.4791 94.3857C98.3718 98.2418 98.3757 101.707 98.4893 104.977C98.5518 106.757 98.6438 108.401 98.7727 109.999C98.908 111.682 99.074 113.217 99.2821 114.691C99.5004 116.237 99.7506 117.626 100.047 118.939C100.357 120.311 100.702 121.519 101.097 122.633C101.929 124.966 102.961 126.74 104.169 127.908C104.184 127.923 104.193 127.943 104.193 127.965C104.193 127.986 104.186 128.007 104.17 128.023C104.156 128.038 104.136 128.047 104.113 128.047C104.114 128.047 104.114 128.047 104.113 128.047ZM87.2101 45.6917C87.2088 45.6917 87.2076 45.6917 87.205 45.6917C87.1986 45.693 87.1922 45.6968 87.1884 45.7019C87.1846 45.7082 87.1833 45.7146 87.1846 45.7209C87.6276 48.2379 88.5021 50.6813 89.7851 52.9838C90.1873 53.706 90.6149 54.3851 91.0541 55.0007C91.2201 55.2343 91.4001 55.4805 91.5877 55.7039L91.5979 55.7153L91.5928 55.7306L89.4711 62.0593C89.466 62.0732 89.4736 62.0872 89.4864 62.0923C89.7047 62.1722 89.9255 62.2611 90.1145 62.3373C90.629 62.5454 91.1626 62.7752 91.6988 63.0201C93.4312 63.8109 94.9057 64.6182 96.2092 65.4864C98.2365 66.8382 99.5795 68.1925 100.203 69.5138L100.206 69.5215L100.205 69.5291C100.173 69.8159 100.141 70.1028 100.109 70.3897C99.6932 74.1874 99.3408 77.9483 99.0625 81.5683C98.7101 86.1505 98.4842 90.3417 98.3718 94.3806C98.2646 98.2393 98.2684 101.706 98.382 104.978C98.4446 106.761 98.5378 108.405 98.6655 110.006C98.8008 111.69 98.9668 113.227 99.1748 114.703C99.3932 116.253 99.6434 117.646 99.9421 118.96C100.254 120.336 100.598 121.55 100.997 122.667C101.844 125.048 102.858 126.787 104.094 127.983C104.099 127.988 104.104 127.993 104.113 127.99C104.119 127.99 104.127 127.988 104.131 127.983C104.136 127.978 104.138 127.971 104.138 127.964C104.138 127.957 104.136 127.95 104.131 127.946C102.9 126.755 101.892 125.023 101.046 122.649C100.649 121.533 100.305 120.322 99.9932 118.949C99.6957 117.635 99.4455 116.244 99.2272 114.696C99.0191 113.221 98.8531 111.685 98.7178 110.001C98.5901 108.401 98.4969 106.757 98.4344 104.975C98.3195 101.704 98.3157 98.238 98.4242 94.3806C98.5365 90.343 98.7625 86.153 99.1148 81.5709C99.3932 77.9521 99.7455 74.1925 100.162 70.3935C100.192 70.1117 100.224 69.8286 100.255 69.5468L100.259 69.5354C100.263 69.5291 100.264 69.5215 100.261 69.5151L100.26 69.51L100.261 69.5037C100.531 67.0958 100.82 64.7261 101.122 62.4604C101.244 61.5427 101.387 60.4752 101.544 59.4268L101.548 59.4039H101.571L108.659 59.2541L108.662 59.2795C108.793 60.4968 108.917 61.7191 109.023 62.7701C109.319 65.7034 109.611 68.7535 109.891 71.8341C110.252 75.8146 110.579 79.7063 110.863 83.3987C110.863 83.405 110.866 83.4114 110.871 83.4164C110.877 83.4215 110.883 83.4228 110.891 83.4228C110.897 83.4228 110.903 83.419 110.909 83.4139C110.914 83.4088 110.915 83.4025 110.915 83.3949C110.631 79.705 110.305 75.8134 109.943 71.8303C109.664 68.7523 109.371 65.7034 109.075 62.7663C108.968 61.6988 108.842 60.4574 108.709 59.2262C108.708 59.2122 108.696 59.2046 108.682 59.2034L102.161 59.3417L102.157 59.3176C102.054 58.6588 101.958 57.9861 101.872 57.3185C101.819 56.9059 101.783 56.5886 101.754 56.2916C101.731 56.0517 101.704 55.7801 101.704 55.5199C101.704 55.2698 101.745 54.9792 101.833 54.6047C101.931 54.1846 102.075 53.7327 102.272 53.2224C102.495 52.6437 102.766 52.0471 103.098 51.3997C103.471 50.6724 103.892 49.9388 104.386 49.1594C104.39 49.1531 104.391 49.1467 104.39 49.1404C104.389 49.134 104.385 49.1277 104.378 49.1239C104.372 49.1201 104.366 49.1188 104.359 49.1201C104.353 49.1214 104.347 49.1252 104.343 49.1315C103.849 49.9134 103.426 50.647 103.052 51.3756C102.719 52.0242 102.448 52.6221 102.225 53.2034C102.027 53.7149 101.883 54.1693 101.783 54.592C101.694 54.9703 101.653 55.2647 101.653 55.5186C101.653 55.7813 101.681 56.0657 101.704 56.2954C101.733 56.595 101.77 56.9123 101.823 57.3248C101.908 57.9887 102.003 58.6563 102.105 59.3113L102.11 59.343L101.526 59.3557C101.514 59.3557 101.503 59.3646 101.501 59.3773C101.34 60.4435 101.195 61.5249 101.071 62.4566C100.776 64.6715 100.492 66.9841 100.228 69.3311L100.218 69.4237L100.176 69.3412C99.5195 68.0605 98.1957 66.7493 96.2386 65.4458C94.9338 64.575 93.4555 63.7677 91.7218 62.9757C91.1843 62.7307 90.6507 62.4997 90.1349 62.2916C89.9192 62.204 89.7379 62.1316 89.554 62.0644L89.5285 62.0555L89.5374 62.0301L91.6516 55.7179C91.6528 55.7141 91.6528 55.709 91.6528 55.7052C91.6516 55.7014 91.6503 55.6976 91.6477 55.6938C91.455 55.4666 91.2686 55.2127 91.0975 54.9715C90.6596 54.3572 90.2332 53.6807 89.8323 52.9597C88.5531 50.6623 87.6799 48.224 87.2382 45.7133C87.2344 45.7006 87.2229 45.6917 87.2101 45.6917Z" fill="#A7D1F3"/>
<path fill-rule="evenodd" clip-rule="evenodd" d="M106.715 33.6626C106.79 33.8606 106.881 34.0599 106.97 34.2516C107.164 34.6653 107.385 35.0779 107.64 35.4587C107.792 35.6859 107.96 35.908 108.15 36.1047C108.17 36.1263 108.169 36.1606 108.148 36.1809C108.127 36.2012 108.092 36.2012 108.072 36.1796C107.878 35.9778 107.705 35.7506 107.551 35.5183C107.293 35.1324 107.07 34.7161 106.873 34.2972C106.782 34.103 106.692 33.9012 106.614 33.7007C106.604 33.6728 106.618 33.6423 106.645 33.6309C106.673 33.6207 106.703 33.6347 106.715 33.6626Z" fill="#3F4553"/>
<path d="M108.11 36.2989C108.109 36.2989 108.108 36.2989 108.106 36.2989C108.064 36.2977 108.025 36.2812 107.995 36.2507C107.817 36.0641 107.642 35.8445 107.463 35.5754C107.223 35.2162 106.998 34.8126 106.777 34.3404C106.662 34.0967 106.582 33.9101 106.516 33.7362C106.5 33.6969 106.502 33.6537 106.519 33.6156C106.537 33.5776 106.568 33.5484 106.608 33.5331C106.647 33.5179 106.69 33.5192 106.729 33.537C106.767 33.5547 106.796 33.5852 106.812 33.6245C106.876 33.7908 106.953 33.9711 107.065 34.2071C107.279 34.6654 107.496 35.055 107.727 35.4003C107.897 35.6529 108.059 35.8598 108.225 36.0324C108.285 36.0959 108.284 36.1961 108.22 36.2558C108.191 36.2837 108.152 36.2989 108.11 36.2989Z" fill="#3F4553"/>
<path fill-rule="evenodd" clip-rule="evenodd" d="M99.9741 31.4338C100.166 31.4731 100.358 31.5087 100.551 31.5429C100.969 31.6178 101.39 31.6851 101.81 31.7384C102.084 31.7727 102.361 31.8019 102.638 31.8184C102.855 31.8311 103.09 31.8374 103.306 31.812C103.336 31.8082 103.362 31.8298 103.366 31.859C103.37 31.8882 103.348 31.9148 103.319 31.9186C103.097 31.9453 102.855 31.9377 102.632 31.925C102.352 31.9098 102.073 31.8793 101.796 31.845C101.373 31.7917 100.951 31.7244 100.531 31.6495C100.338 31.6153 100.144 31.5797 99.9511 31.5404C99.9218 31.534 99.9026 31.5061 99.909 31.4769C99.9166 31.4465 99.946 31.4274 99.9741 31.4338Z" fill="#3F4553"/>
<path d="M102.978 32.0405C102.857 32.0405 102.737 32.0354 102.628 32.029C102.378 32.0151 102.11 31.9884 101.784 31.9478C101.395 31.8983 100.98 31.8348 100.514 31.7511C100.353 31.7219 100.143 31.6838 99.932 31.6406C99.8464 31.6229 99.7915 31.5391 99.8081 31.454C99.8171 31.4122 99.8413 31.3766 99.8771 31.3538C99.9128 31.3309 99.9549 31.3233 99.9958 31.3309C100.195 31.3715 100.398 31.4084 100.57 31.4401C101.03 31.5226 101.44 31.5861 101.824 31.6343C102.143 31.6749 102.404 31.7003 102.646 31.713C102.848 31.7244 103.083 31.7333 103.296 31.7079C103.338 31.7028 103.379 31.7143 103.413 31.7409C103.447 31.7676 103.468 31.8044 103.473 31.8463C103.484 31.9326 103.421 32.0113 103.334 32.0214C103.215 32.0354 103.095 32.0405 102.978 32.0405Z" fill="#3F4553"/>
<path fill-rule="evenodd" clip-rule="evenodd" d="M105.956 39.0926C105.96 39.2449 105.977 39.4049 105.996 39.5546C106.037 39.877 106.106 40.2058 106.217 40.5117C106.314 40.777 106.454 41.0549 106.662 41.2504C106.684 41.2707 106.685 41.305 106.665 41.3266C106.644 41.3481 106.61 41.3494 106.588 41.3291C106.366 41.1209 106.218 40.8315 106.115 40.5485C106.001 40.2362 105.931 39.8986 105.889 39.5686C105.868 39.415 105.852 39.2513 105.848 39.0951C105.846 39.066 105.871 39.0406 105.9 39.0406C105.931 39.0393 105.955 39.0634 105.956 39.0926Z" fill="#3F4553"/>
<path d="M106.625 41.4472C106.586 41.4472 106.547 41.4332 106.517 41.404C106.314 41.2136 106.145 40.9369 106.016 40.584C105.91 40.2934 105.833 39.9557 105.784 39.5826C105.76 39.3909 105.746 39.2373 105.743 39.099C105.742 39.0571 105.757 39.0165 105.787 38.986C105.816 38.9555 105.855 38.9378 105.898 38.9378C105.94 38.9352 105.981 38.9517 106.011 38.9809C106.042 39.0101 106.06 39.0495 106.061 39.0913C106.064 39.2183 106.076 39.3617 106.099 39.5432C106.144 39.8948 106.217 40.2083 106.315 40.4774C106.426 40.7846 106.568 41.0194 106.734 41.1755C106.798 41.2352 106.8 41.3355 106.74 41.3989C106.71 41.4307 106.667 41.4472 106.625 41.4472Z" fill="#3F4553"/>
<path fill-rule="evenodd" clip-rule="evenodd" d="M97.1794 35.418C97.284 35.4967 97.4028 35.5716 97.5151 35.6401C97.8036 35.8153 98.1088 35.9702 98.4203 36.1009C99.3573 36.4969 100.386 36.6949 101.405 36.5807C101.434 36.5769 101.461 36.5984 101.465 36.6276C101.469 36.6568 101.447 36.6835 101.418 36.6873C100.381 36.8041 99.3344 36.6035 98.3794 36.1999C98.0628 36.0666 97.7539 35.9092 97.4602 35.7315C97.3453 35.6617 97.2228 35.5843 97.1155 35.5031C97.0913 35.4853 97.0874 35.451 97.1053 35.4282C97.1219 35.404 97.1551 35.4002 97.1794 35.418Z" fill="#3F4553"/>
<path d="M100.829 36.8231C100.012 36.8231 99.1621 36.6442 98.3373 36.2951C98.0105 36.1568 97.6977 35.9968 97.4054 35.8191C97.2956 35.7519 97.1667 35.6719 97.0518 35.5856C96.9815 35.5323 96.9688 35.4333 97.0211 35.3647C97.0467 35.3317 97.0837 35.3102 97.1258 35.3038C97.1679 35.2975 97.2101 35.3089 97.2433 35.3343C97.3467 35.413 97.4667 35.4879 97.5701 35.55C97.8484 35.7189 98.1484 35.8724 98.4612 36.0045C99.4404 36.4182 100.454 36.582 101.392 36.4766C101.434 36.4716 101.475 36.4842 101.509 36.5096C101.542 36.5363 101.562 36.5731 101.567 36.615C101.577 36.7013 101.515 36.78 101.428 36.7901C101.231 36.813 101.031 36.8231 100.829 36.8231Z" fill="#3F4553"/>
<path fill-rule="evenodd" clip-rule="evenodd" d="M95.7995 47.6375C96.0229 47.7416 96.2833 47.9878 96.4403 48.1693C96.9344 48.7393 97.214 49.4818 97.3518 50.2129C97.3569 50.2421 97.3378 50.27 97.3084 50.2751C97.2791 50.2802 97.251 50.2611 97.2459 50.232C97.1106 49.5199 96.8399 48.7938 96.3586 48.2392C96.2335 48.0945 96.0905 47.9586 95.9348 47.8469C95.8812 47.8089 95.8148 47.7632 95.7548 47.7352C95.728 47.7225 95.7165 47.6908 95.7292 47.6642C95.7395 47.6362 95.7726 47.6248 95.7995 47.6375Z" fill="#3F4553"/>
<path d="M97.2994 50.3792C97.2241 50.3792 97.1577 50.3258 97.1437 50.251C96.993 49.4576 96.6943 48.7849 96.2794 48.3064C96.1492 48.1566 96.0126 48.0297 95.8734 47.9294C95.83 47.8977 95.7649 47.8532 95.71 47.8279C95.6717 47.8101 95.6424 47.7784 95.6283 47.739C95.6143 47.6997 95.6155 47.6565 95.6334 47.6184C95.6513 47.5803 95.6832 47.5512 95.7228 47.5372C95.7624 47.5232 95.8058 47.5245 95.8441 47.5423C96.0815 47.6527 96.3483 47.9027 96.5194 48.0995C96.9764 48.6275 97.2918 49.3307 97.4552 50.1913C97.4628 50.2332 97.4539 50.2751 97.4309 50.3093C97.4067 50.3436 97.3709 50.3677 97.3288 50.3753C97.3186 50.3792 97.3084 50.3792 97.2994 50.3792ZM95.7968 47.64C95.7968 47.64 95.7981 47.64 95.7968 47.64C95.7981 47.64 95.7968 47.64 95.7968 47.64Z" fill="#3F4553"/>
<path fill-rule="evenodd" clip-rule="evenodd" d="M103.593 41.2288C103.338 42.0462 103.07 42.8637 102.789 43.6735C102.601 44.2155 102.406 44.7638 102.186 45.2931C102.111 45.4746 102.031 45.6625 101.936 45.8338C101.898 45.9036 101.811 46.0623 101.72 46.0725C101.463 46.1004 101.198 45.9976 100.983 45.8656C100.566 45.6117 100.203 45.189 99.9204 44.8006C99.9025 44.7765 99.9089 44.7435 99.9319 44.7257C99.9562 44.708 99.9893 44.7143 100.007 44.7372C100.28 45.1129 100.637 45.5279 101.039 45.7729C101.234 45.8909 101.475 45.9899 101.708 45.9646C101.746 45.9519 101.834 45.7945 101.853 45.7589C101.945 45.5889 102.023 45.4048 102.097 45.2258C102.313 44.7054 102.503 44.1672 102.688 43.6354C102.969 42.8269 103.236 42.0107 103.491 41.1945C103.5 41.1666 103.531 41.1501 103.559 41.159C103.587 41.1704 103.602 41.2009 103.593 41.2288Z" fill="#3F4553"/>
<path d="M101.635 46.1829C101.415 46.1829 101.173 46.1055 100.928 45.957C100.569 45.7386 100.212 45.3807 99.8349 44.8641C99.8106 44.8298 99.8004 44.7879 99.8068 44.7473C99.8132 44.7054 99.8362 44.6686 99.8707 44.6445C99.9421 44.5937 100.04 44.609 100.093 44.68C100.439 45.1548 100.776 45.4937 101.094 45.6879C101.24 45.7767 101.456 45.8783 101.664 45.8668C101.687 45.8376 101.728 45.7742 101.76 45.7132C101.852 45.5432 101.931 45.354 102 45.1903C102.222 44.6521 102.42 44.0898 102.589 43.6062C102.862 42.818 103.132 41.998 103.39 41.1679C103.403 41.1273 103.43 41.0943 103.468 41.0752C103.505 41.0549 103.549 41.0511 103.59 41.0638C103.629 41.0765 103.662 41.1032 103.683 41.1412C103.703 41.178 103.707 41.2212 103.694 41.2618C103.435 42.0945 103.163 42.9183 102.889 43.709C102.716 44.2079 102.512 44.7854 102.284 45.335C102.208 45.5152 102.126 45.7069 102.028 45.8859C101.948 46.0306 101.858 46.1638 101.733 46.1778C101.7 46.1804 101.668 46.1829 101.635 46.1829Z" fill="#3F4553"/>
</svg>
