<svg width="177" height="167" viewBox="0 0 177 167" fill="none" xmlns="http://www.w3.org/2000/svg">
<rect x="0.0654297" width="176.435" height="167" fill="#3F414E"/>
<rect x="0.5" y="1" width="176" height="76" fill="#4E5567"/>
<path d="M119.824 43.5822C120.697 48.9182 74.1508 47.5303 65.9991 45.4814C61.3607 44.5109 66.7917 21.9317 63.8772 14.5676C62.1984 7.67316 114.522 9.48896 118.384 14.0563C121.358 17.5696 118.596 36.0685 119.824 43.5822Z" fill="#FBF5EB"/>
<path d="M72.3717 30.6002C72.5552 29.6784 72.3198 28.6175 72.4514 28.1061C72.749 26.9582 72.8979 26.3842 72.7213 26.2207C72.0048 25.5529 71.5064 28.5931 70.8314 28.5688C70.5614 28.4192 70.3329 27.5009 70.2429 26.8399C70.1356 26.0503 70.4368 23.7127 69.966 23.7545C69.568 23.7892 69.3014 25.4903 69.3118 26.0607C69.298 25.4659 69.5368 22.857 68.9068 23.0761C68.4465 23.2362 68.4395 26.2173 68.4499 26.6138C68.4361 26.4225 68.5434 23.5631 68.0865 23.7614C67.5603 23.9875 67.6676 26.5616 67.678 26.9547C67.6573 26.7147 67.8234 24.2623 67.2661 24.5302C66.92 24.6971 66.778 27.073 66.7884 27.4695C66.83 29.2158 68.4603 33.4283 68.7545 33.9153L71.4614 33.9709C71.4614 33.9709 71.8421 32.8474 71.9529 32.2978C72.0948 31.6055 72.3025 30.9446 72.3717 30.6002Z" fill="#FDBCA0"/>
<path d="M86.8337 51.4298C87.1625 53.9552 83.6423 62.7211 84.3934 67.0728C91.6728 68.6103 108.842 65.8518 110.178 60.067C110.285 56.1502 110.146 51.7672 110.223 49.1583C110.416 42.3404 109.163 30.6559 97.8688 34.2736C97.2907 34.1519 97.3115 33.2961 91.6174 33.6857C86.1103 34.0545 85.8437 43.8814 86.8337 51.4298Z" fill="#8E97FD"/>
<path d="M67.6952 34.0962C65.4072 45.8154 72.4927 54.5952 82.382 54.1256C96.432 53.4612 104.892 42.3682 101.05 34.6702L97.2662 34.7258C86.0546 32.757 83.372 41.1855 79.9971 40.8793C77.5707 40.6602 73.5658 38.5244 72.7419 33.5814C72.5619 32.503 67.8786 33.1605 67.6952 34.0962Z" fill="#8E97FD"/>
<path d="M94.1925 34.837C92.3164 39.3452 84.9539 41.4776 86.1342 34.8196C86.4977 32.7638 83.8116 31.1359 83.5693 29.6749C83.0189 26.3494 86.3246 25.2815 87.0515 22.2517C88.1453 17.6878 89.9557 10.1116 102.226 17.2634C105.958 19.4341 94.1925 34.837 94.1925 34.837Z" fill="#3F414E"/>
<path d="M100.219 26.5825L100.24 35.0215C99.8068 37.4495 93.8808 37.8078 94.1924 35.0423L94.1751 31.4177L100.219 26.5825Z" fill="#F0A38B"/>
<path d="M90.3054 26.4573C90.2674 26.9721 90.2016 27.4417 90.2293 27.9461C90.2674 28.6035 90.4093 29.2714 90.6585 29.8976C91.3231 31.5603 92.7077 33.9222 94.4419 33.964C97.5018 34.0336 101.469 30.562 100.977 26.0781C100.548 22.1648 97.256 16.1643 96.0653 18.474C94.2169 22.0604 92.1435 20.6794 90.8212 22.8953C90.5443 23.3579 90.2881 23.9423 90.3089 25.2885C90.3158 25.7268 90.3297 26.1025 90.3054 26.4573Z" fill="#FDBCA0"/>
<path d="M96.6053 28.6662C96.5707 29.6228 97.3114 30.4263 98.2633 30.4646C99.2152 30.4994 100.015 29.7549 100.053 28.7983C100.088 27.8417 99.3468 27.0382 98.3949 26.9999C97.443 26.9617 96.6434 27.7096 96.6053 28.6662Z" fill="#F4A07B"/>
<path d="M90.2293 27.9461C90.2674 28.6035 90.4162 29.2679 90.6585 29.8976C91.4443 29.7584 92.0569 29.0871 92.0881 28.2522C92.1227 27.2956 91.382 26.4921 90.4301 26.4538C90.3885 26.4538 90.347 26.4538 90.3054 26.4538C90.2674 26.9721 90.2016 27.4417 90.2293 27.9461Z" fill="#F4A07B"/>
<path d="M95.4248 26.4503C95.4248 26.4503 96.1171 27.6052 98.2459 26.2973C98.5125 26.1338 97.3321 26.499 96.6017 26.5581C95.8541 26.6138 95.2379 26.1999 95.4248 26.4503Z" fill="#002869"/>
<path d="M90.6723 25.706C90.8453 25.9912 92.3788 27.1774 92.943 26.1269C93.0918 25.852 92.4999 26.4295 91.8111 26.1756C91.105 25.9181 90.5615 25.5251 90.6723 25.706Z" fill="#002869"/>
<path d="M94.4593 29.2331C94.0059 29.254 93.3067 29.1426 93.189 28.6069C93.1371 28.3704 93.2582 28.1687 93.3655 27.9669C93.6424 27.4486 93.8882 26.9755 93.8709 26.3668C93.8674 26.2868 93.992 26.2694 93.9955 26.3494C94.0128 26.9303 93.812 27.4034 93.542 27.9078C93.3828 28.2034 93.1924 28.4643 93.4347 28.7878C93.6563 29.08 94.0993 29.1287 94.442 29.1113C94.5216 29.1079 94.5389 29.2296 94.4593 29.2331Z" fill="#F27979"/>
<path d="M95.7608 30.4645C95.8958 30.1932 94.4662 31.1498 92.9086 30.301C92.2405 29.9357 93.8432 31.9046 95.7608 30.4645Z" fill="#F27979"/>
<path fill-rule="evenodd" clip-rule="evenodd" d="M0.5 84.7718V63.287C1.32898 58.8905 2.66844 55.1851 4.49518 53.4875C4.66441 53.3291 4.84133 53.1809 5.02594 53.0604C12.7102 45.0496 20.4507 41 38.4064 47.4981C51.9356 44.5646 60.5379 45.911 69.4732 47.3096C77.2848 48.5322 85.3508 49.7947 97.1859 48.2721L97.2076 48.2728C97.3071 48.276 97.4003 48.279 97.4936 48.279C101.697 48.3642 104.524 47.7104 107.109 47.1124C111.737 46.0418 115.591 45.1503 125.192 49.0001C125.38 49.0086 125.785 48.8688 126.388 48.6609C128.95 47.7777 135.072 45.6668 143.148 48.5001C161.426 45.019 167.587 49.0001 172.076 52.0001C173.927 53.4434 175.391 55.9289 176.5 58.9843V91.7475C176.151 92.2038 175.771 92.5226 175.361 92.6824C167.568 95.729 135.884 95.5078 106.201 95.3006C91.1447 95.1956 76.603 95.0941 65.9557 95.4245C65.2249 95.4486 64.4942 95.4692 63.7634 95.4899C50.4944 95.8861 37.71 96.1031 27.2948 95.9515C26.0564 95.9343 24.8487 95.9102 23.6795 95.8792C12.2412 95.5967 4.31057 94.7837 2.83367 93.1406C2.2538 92.4948 1.23915 88.7138 0.5 84.7718Z" fill="#3F414E"/>
<path d="M83.1582 50.0335C84.5186 49.9848 85.8789 49.9396 87.2393 49.8909C87.807 49.87 87.8104 48.9795 87.2393 49.0004C85.8789 49.0491 84.5186 49.0943 83.1582 49.143C82.5906 49.1638 82.5871 50.0543 83.1582 50.0335Z" fill="#656B7B"/>
<path d="M77.9004 84.6172C76.7858 85.3999 75.6678 86.1825 74.5532 86.9652C74.0859 87.2922 74.567 88.0401 75.0343 87.7131C76.1489 86.9304 77.267 86.1478 78.3815 85.3651C78.8488 85.0381 78.3677 84.2902 77.9004 84.6172Z" fill="#656B7B"/>
<path d="M85.5086 55.3765C84.5221 57.0601 83.5321 58.7402 82.5456 60.4238C82.2583 60.9143 82.9748 61.4396 83.2621 60.9456C84.2486 59.262 85.2386 57.5819 86.2251 55.8983C86.5158 55.4113 85.7993 54.8825 85.5086 55.3765Z" fill="#656B7B"/>
<path d="M86.9693 79.9524C87.8935 81.2395 88.9215 82.4396 90.0569 83.5457C90.4653 83.9458 91.0919 83.3162 90.6834 82.9161C89.6034 81.8621 88.6169 80.7281 87.7343 79.5037C87.402 79.041 86.6335 79.4863 86.9693 79.9524Z" fill="#656B7B"/>
<path d="M89.8803 65.1895C89.8803 65.1895 89.8803 68.108 89.8803 69.6385C89.8803 70.2125 90.7664 70.2125 90.7664 69.6385C90.7664 68.1045 90.7664 66.6713 90.7664 65.1895C90.7664 64.5981 89.8803 64.5981 89.8803 65.1895C89.8803 65.1895 89.8803 64.5981 89.8803 65.1895Z" fill="#656B7B"/>
<path d="M68.7033 73.7188C67.5645 73.3953 66.4291 73.0718 65.2903 72.7483C64.7434 72.5918 64.4526 73.4336 65.003 73.5901C66.1418 73.9136 67.2772 74.2371 68.416 74.5606C68.9629 74.7137 69.2537 73.8754 68.7033 73.7188Z" fill="#656B7B"/>
<path d="M72.2306 53.4355C73.5771 54.253 74.8475 55.1783 76.0417 56.2079C76.4743 56.5801 76.9624 55.8357 76.5332 55.467C75.339 54.4374 74.0686 53.5155 72.7221 52.6946C72.2341 52.3989 71.7391 53.1399 72.2306 53.4355Z" fill="#656B7B"/>
<path d="M14.9784 73.9519C14.1615 73.9032 13.3446 73.858 12.5277 73.8128C12.5138 73.5206 12.5069 73.2249 12.5 72.9223C13.3169 72.971 14.1303 73.0162 14.9472 73.0614C15.5115 73.0962 15.5495 73.9867 14.9784 73.9519Z" fill="#656B7B"/>
<path d="M53.5803 83.4275C54.9406 83.4762 56.301 83.5214 57.6613 83.5701C58.229 83.591 58.2324 84.4815 57.6613 84.4606C56.301 84.4119 54.9406 84.3667 53.5803 84.318C53.0091 84.2971 53.0091 83.4066 53.5803 83.4275Z" fill="#656B7B"/>
<path d="M54.6083 61.7144C53.6218 60.0308 52.6319 58.3507 51.6453 56.6671C51.358 56.1766 52.0746 55.6513 52.3619 56.1453C53.3484 57.8289 54.3383 59.509 55.3249 61.1926C55.6156 61.6831 54.8991 62.2084 54.6083 61.7144Z" fill="#656B7B"/>
<path d="M42.348 90.2767C42.0192 90.3011 41.6904 90.3219 41.3615 90.3428C40.78 89.3514 40.1985 88.3635 39.617 87.3721C39.3297 86.8817 40.0462 86.3564 40.3335 86.8504C41.005 87.9948 41.6765 89.1357 42.348 90.2767Z" fill="#656B7B"/>
<path d="M64.2658 62.1284C64.2658 62.1284 64.2658 59.2099 64.2658 57.6794C64.2658 57.1054 65.1519 57.1054 65.1519 57.6794C65.1519 59.2134 65.1519 60.6466 65.1519 62.1284C65.1519 62.7232 64.2658 62.7232 64.2658 62.1284C64.2658 62.1284 64.2658 62.7232 64.2658 62.1284Z" fill="#656B7B"/>
<path d="M48.9109 65.8575C47.7721 66.181 46.6367 66.5045 45.4979 66.828C44.951 66.9845 44.6602 66.1427 45.2106 65.9862C46.3494 65.6627 47.4848 65.3392 48.6236 65.0156C49.167 64.8591 49.4578 65.7009 48.9109 65.8575Z" fill="#656B7B"/>
<path d="M45.5254 78.0879C46.8719 77.2704 48.1422 76.3451 49.3364 75.3155C49.7691 74.9433 50.2572 75.6877 49.8279 76.0564C48.6337 77.086 47.3634 78.0078 46.0169 78.8288C45.5288 79.1245 45.0338 78.387 45.5254 78.0879Z" fill="#656B7B"/>
<path d="M24.9507 90.809C24.3934 90.7916 23.85 90.7672 23.3239 90.7359C22.7181 90.2802 22.1331 89.8002 21.5654 89.2958C21.1397 88.9166 21.6935 88.2244 22.1193 88.6036C23.0192 89.3967 23.9608 90.1341 24.9507 90.809Z" fill="#656B7B"/>
<path d="M34.8331 75.9068C34.1512 77.7365 33.4693 79.5663 32.7874 81.3925C32.5901 81.9247 31.7316 81.6951 31.9324 81.1594C32.6143 79.3297 33.2962 77.5 33.9781 75.6738C34.1789 75.1415 35.0338 75.3711 34.8331 75.9068Z" fill="#656B7B"/>
<path d="M20.849 53.6616C19.551 53.2581 18.2495 52.8511 16.9514 52.4476C16.408 52.2772 16.6399 51.418 17.1833 51.5884C18.4814 51.9919 19.7829 52.3989 21.0809 52.8024C21.6244 52.9729 21.3925 53.8321 20.849 53.6616Z" fill="#656B7B"/>
<path d="M30.0874 57.7558C30.5997 59.6412 31.1155 61.5231 31.6278 63.4084C31.7766 63.9546 30.9493 64.2746 30.8005 63.7215C30.2882 61.8361 29.7724 59.9542 29.2601 58.0689C29.1078 57.5227 29.9351 57.2027 30.0874 57.7558Z" fill="#656B7B"/>
<path d="M23.5939 77.7296C22.365 78.728 21.0601 79.615 19.6755 80.3837C19.1771 80.662 18.734 79.8898 19.2359 79.6115C20.5547 78.881 21.8008 78.0462 22.9743 77.0965C23.4104 76.7382 24.0369 77.3679 23.5939 77.7296Z" fill="#656B7B"/>
<path d="M21.2192 62.9737C21.2192 62.9737 20.4577 65.7878 20.0561 67.2697C19.9073 67.8228 19.0523 67.5897 19.2012 67.0366C19.6027 65.5583 19.9765 64.1738 20.3642 62.7406C20.52 62.1667 21.3715 62.3998 21.2192 62.9737C21.2192 62.9737 21.3715 62.3998 21.2192 62.9737Z" fill="#656B7B"/>
<path d="M36.2108 71.2214C37.3911 71.2109 38.575 71.197 39.7553 71.1866C40.323 71.1796 40.3853 72.0701 39.8142 72.0736C38.6338 72.084 37.45 72.0979 36.2696 72.1084C35.702 72.1153 35.6397 71.2283 36.2108 71.2214Z" fill="#656B7B"/>
<path d="M45.1656 59.0255C43.653 59.4604 42.1853 60.0169 40.7662 60.6952C40.2504 60.9422 39.9769 60.0935 40.4858 59.85C41.905 59.1716 43.3726 58.6151 44.8853 58.1803C45.4322 58.0237 45.716 58.869 45.1656 59.0255Z" fill="#656B7B"/>
<path d="M161.158 50.0335C162.519 49.9848 163.879 49.9396 165.239 49.8909C165.807 49.87 165.81 48.9795 165.239 49.0004C163.879 49.0491 162.519 49.0943 161.158 49.143C160.591 49.1638 160.587 50.0543 161.158 50.0335Z" fill="#656B7B"/>
<path d="M155.9 84.6172C154.786 85.3999 153.668 86.1825 152.553 86.9652C152.086 87.2922 152.567 88.0401 153.034 87.7131C154.149 86.9304 155.267 86.1478 156.382 85.3651C156.849 85.0381 156.368 84.2902 155.9 84.6172Z" fill="#656B7B"/>
<path d="M163.509 55.3765C162.522 57.0601 161.532 58.7402 160.546 60.4238C160.258 60.9143 160.975 61.4396 161.262 60.9456C162.249 59.262 163.239 57.5819 164.225 55.8983C164.516 55.4113 163.799 54.8825 163.509 55.3765Z" fill="#656B7B"/>
<path d="M164.969 79.9524C165.893 81.2395 166.922 82.4396 168.057 83.5457C168.465 83.9458 169.092 83.3162 168.683 82.9161C167.603 81.8621 166.617 80.7281 165.734 79.5037C165.402 79.041 164.634 79.4863 164.969 79.9524Z" fill="#656B7B"/>
<path d="M167.88 65.1895C167.88 65.1895 167.88 68.108 167.88 69.6385C167.88 70.2125 168.766 70.2125 168.766 69.6385C168.766 68.1045 168.766 66.6713 168.766 65.1895C168.766 64.5981 167.88 64.5981 167.88 65.1895C167.88 65.1895 167.88 64.5981 167.88 65.1895Z" fill="#656B7B"/>
<path d="M146.703 73.7188C145.564 73.3953 144.429 73.0718 143.29 72.7483C142.743 72.5918 142.453 73.4336 143.003 73.5901C144.142 73.9136 145.277 74.2371 146.416 74.5606C146.963 74.7137 147.254 73.8754 146.703 73.7188Z" fill="#656B7B"/>
<path d="M150.231 53.4355C151.577 54.253 152.847 55.1783 154.042 56.2079C154.474 56.5801 154.962 55.8357 154.533 55.467C153.339 54.4374 152.069 53.5155 150.722 52.6946C150.234 52.3989 149.739 53.1399 150.231 53.4355Z" fill="#656B7B"/>
<path d="M92.9784 73.9519C92.1615 73.9032 91.3446 73.858 90.5277 73.8128C90.5138 73.5206 90.5069 73.2249 90.5 72.9223C91.3169 72.971 92.1303 73.0162 92.9472 73.0614C93.5115 73.0962 93.5495 73.9867 92.9784 73.9519Z" fill="#656B7B"/>
<path d="M131.58 83.4275C132.941 83.4762 134.301 83.5214 135.661 83.5701C136.229 83.591 136.232 84.4815 135.661 84.4606C134.301 84.4119 132.941 84.3667 131.58 84.318C131.009 84.2971 131.009 83.4066 131.58 83.4275Z" fill="#656B7B"/>
<path d="M132.608 61.7144C131.622 60.0308 130.632 58.3507 129.645 56.6671C129.358 56.1766 130.075 55.6513 130.362 56.1453C131.348 57.8289 132.338 59.509 133.325 61.1926C133.616 61.6831 132.899 62.2084 132.608 61.7144Z" fill="#656B7B"/>
<path d="M120.348 90.2767C120.019 90.3011 119.69 90.3219 119.362 90.3428C118.78 89.3514 118.198 88.3635 117.617 87.3721C117.33 86.8817 118.046 86.3564 118.333 86.8504C119.005 87.9948 119.677 89.1357 120.348 90.2767Z" fill="#656B7B"/>
<path d="M142.266 62.1284C142.266 62.1284 142.266 59.2099 142.266 57.6794C142.266 57.1054 143.152 57.1054 143.152 57.6794C143.152 59.2134 143.152 60.6466 143.152 62.1284C143.152 62.7232 142.266 62.7232 142.266 62.1284C142.266 62.1284 142.266 62.7232 142.266 62.1284Z" fill="#656B7B"/>
<path d="M126.911 65.8575C125.772 66.181 124.637 66.5045 123.498 66.828C122.951 66.9845 122.66 66.1427 123.211 65.9862C124.349 65.6627 125.485 65.3392 126.624 65.0156C127.167 64.8591 127.458 65.7009 126.911 65.8575Z" fill="#656B7B"/>
<path d="M123.525 78.0879C124.872 77.2704 126.142 76.3451 127.336 75.3155C127.769 74.9433 128.257 75.6877 127.828 76.0564C126.634 77.086 125.363 78.0078 124.017 78.8288C123.529 79.1245 123.034 78.387 123.525 78.0879Z" fill="#656B7B"/>
<path d="M102.951 90.809C102.393 90.7916 101.85 90.7672 101.324 90.7359C100.718 90.2802 100.133 89.8002 99.5654 89.2958C99.1397 88.9166 99.6935 88.2244 100.119 88.6036C101.019 89.3967 101.961 90.1341 102.951 90.809Z" fill="#656B7B"/>
<path d="M112.833 75.9068C112.151 77.7365 111.469 79.5663 110.787 81.3925C110.59 81.9247 109.732 81.6951 109.932 81.1594C110.614 79.3297 111.296 77.5 111.978 75.6738C112.179 75.1415 113.034 75.3711 112.833 75.9068Z" fill="#656B7B"/>
<path d="M98.849 53.6616C97.551 53.2581 96.2495 52.8511 94.9514 52.4476C94.408 52.2772 94.6399 51.418 95.1833 51.5884C96.4814 51.9919 97.7829 52.3989 99.0809 52.8024C99.6244 52.9729 99.3925 53.8321 98.849 53.6616Z" fill="#656B7B"/>
<path d="M108.087 57.7558C108.6 59.6412 109.115 61.5231 109.628 63.4084C109.777 63.9546 108.949 64.2746 108.8 63.7215C108.288 61.8361 107.772 59.9542 107.26 58.0689C107.108 57.5227 107.935 57.2027 108.087 57.7558Z" fill="#656B7B"/>
<path d="M101.594 77.7296C100.365 78.728 99.0601 79.615 97.6755 80.3837C97.1771 80.662 96.734 79.8898 97.2359 79.6115C98.5547 78.881 99.8008 78.0462 100.974 77.0965C101.41 76.7382 102.037 77.3679 101.594 77.7296Z" fill="#656B7B"/>
<path d="M99.2192 62.9737C99.2192 62.9737 98.4577 65.7878 98.0561 67.2697C97.9073 67.8228 97.0523 67.5897 97.2012 67.0366C97.6027 65.5583 97.9765 64.1738 98.3642 62.7406C98.52 62.1667 99.3715 62.3998 99.2192 62.9737C99.2192 62.9737 99.3715 62.3998 99.2192 62.9737Z" fill="#656B7B"/>
<path d="M114.211 71.2214C115.391 71.2109 116.575 71.197 117.755 71.1866C118.323 71.1796 118.385 72.0701 117.814 72.0736C116.634 72.084 115.45 72.0979 114.27 72.1084C113.702 72.1153 113.64 71.2283 114.211 71.2214Z" fill="#656B7B"/>
<path d="M123.166 59.0255C121.653 59.4604 120.185 60.0169 118.766 60.6952C118.25 60.9422 117.977 60.0935 118.486 59.85C119.905 59.1716 121.373 58.6151 122.885 58.1803C123.432 58.0237 123.716 58.869 123.166 59.0255Z" fill="#656B7B"/>
<path d="M114.411 83.4392C113.307 86.0898 106.418 90.2293 105.283 89.6205C103.424 88.6187 96.543 78.7466 97.1141 76.3951C97.6576 74.1584 104.2 70.1164 104.2 70.1164C104.2 70.1164 110.908 67.4031 114.66 67.337C116.723 67.2987 124.982 79.8632 123.978 82.4652C123.487 83.7279 117.533 84.521 114.411 83.4392Z" fill="white"/>
<path d="M114.241 82.6879C113.916 85.5577 105.923 90.1181 104.355 89.4954C103.435 89.1302 95.6809 78.1936 96.2486 75.8456C96.792 73.6089 107 68.652 107 68.652C107 68.652 112.552 67.598 116.308 67.5284C118.371 67.4901 124.709 79.4981 123.705 82.1035C123.217 83.3662 115.993 84.7855 114.241 82.6879Z" fill="white"/>
<path d="M114.082 82.2461C112.954 85.8847 104.535 89.6693 103.559 89.0119C101.977 87.9405 95.9925 78.4789 96.5602 76.1274C97.1036 73.8907 107.204 69.0555 107.204 69.0555C110.299 68.8676 112.805 67.838 116.817 67.7267C118.886 67.6675 125.411 78.7571 124.626 81.366C124.162 82.9105 115.37 83.7697 114.082 82.2461Z" fill="white"/>
<path d="M112.424 83.1644C112.424 83.1644 113.109 84.6149 114.729 83.9853C116.484 83.3035 116.294 81.526 116.294 81.526C114.715 81.6756 113.362 82.1347 112.424 83.1644Z" fill="#E8E2E3"/>
<path d="M113.732 81.3939C113.137 81.8391 112.853 82.5313 112.895 83.4879C113.113 84.3993 104.871 88.264 102.767 88.4518C101.354 88.577 95.1964 76.4787 95.4456 75.042C95.6395 73.9324 105.387 69.6051 105.844 68.725C105.844 68.725 107.301 67.6223 108.298 67.8693C109.281 68.1128 117.63 66.0883 118.613 66.0639C120.153 66.0291 126.017 77.7066 125.996 80.0616C125.986 81.0356 116.297 83.1436 115.965 82.3435C115.609 81.4773 113.732 81.3939 113.732 81.3939Z" fill="#8E97FD"/>
<path d="M105.432 68.7842L112.895 83.4845C113.646 82.5453 114.968 81.6826 115.965 82.3436L108.776 67.6989C108.409 66.9684 105.186 68.2972 105.432 68.7842Z" fill="#4E5567"/>
<path d="M103.622 85.175C105.598 84.4028 107.467 83.4322 109.143 82.1208C109.381 81.9365 109.648 82.3191 109.413 82.5069C107.703 83.8427 105.795 84.8306 103.784 85.6168C103.504 85.7281 103.341 85.2863 103.622 85.175Z" fill="#4E5567"/>
<path d="M103.026 83.2966C104.283 82.7087 105.657 82.1661 106.768 81.3173C107.007 81.133 107.277 81.5191 107.038 81.7034C105.899 82.5731 104.477 83.1366 103.189 83.7384C102.915 83.8636 102.756 83.4218 103.026 83.2966Z" fill="#4E5567"/>
<path d="M91.6658 56.4214C90.7763 56.1396 89.6963 56.2614 89.2048 56.0735C88.104 55.6526 87.5502 55.4405 87.3667 55.6005C86.6295 56.244 89.5855 57.0684 89.4851 57.7398C89.3086 57.9937 88.374 58.1259 87.7129 58.1433C86.9202 58.1641 84.6426 57.6145 84.6322 58.0911C84.6253 58.4911 86.2764 58.9399 86.8441 58.992C86.2522 58.9399 83.7011 58.425 83.8499 59.0755C83.9607 59.5521 86.9064 59.8791 87.301 59.9104C87.1106 59.9034 84.293 59.4895 84.4384 59.966C84.6045 60.5156 87.1625 60.6861 87.5537 60.7174C87.3114 60.7104 84.9057 60.2826 85.1099 60.867C85.238 61.2287 87.5744 61.6253 87.9656 61.6601C89.6963 61.8062 94.0404 60.6304 94.5527 60.3869L94.8988 57.6876C94.8988 57.6876 93.8292 57.1867 93.2962 57.0162C92.635 56.8075 92.0016 56.5258 91.6658 56.4214Z" fill="#FDBCA0"/>
<path d="M94.4729 61.3018C97.3147 61.674 110.42 68.5093 114.369 59.2147C119.894 46.2188 109.776 32.6699 101.285 33.8318L104.539 45.9823C103.244 48.1286 103.988 51.788 103.673 52.7133C102.884 55.03 103.777 56.3205 94.3102 56.1849C93.2268 56.1744 93.5314 61.1801 94.4729 61.3018Z" fill="#8E97FD"/>
<path d="M94.5524 15.5834C94.3274 14.2963 105.681 10.9013 109.059 21.7717C110.264 25.6538 119.215 25.5425 115.075 33.0213C113.767 35.3833 123.057 37.4913 114.996 43.5822C107.453 49.28 95.9301 44.2883 96.9685 40.3193C98.1177 35.9259 102.064 38.267 99.4815 32.6735C98.1696 29.828 99.7134 28.134 100.032 27.1809C100.094 26.9826 100.157 26.7843 100.219 26.5826C100.409 25.9042 100.489 25.2711 100.219 24.652C99.4088 22.8014 93.8844 23.925 95.0647 19.5768C96.1793 15.4686 94.5524 15.5834 94.5524 15.5834Z" fill="#3F414E"/>
<path d="M101.77 55.8197C105.335 54.9605 102.905 47.9477 104.754 45.6693C104.857 45.5406 104.674 45.3527 104.57 45.4849C102.697 47.7912 104.899 54.797 101.701 55.5692C101.538 55.6075 101.607 55.8614 101.77 55.8197Z" fill="#5863E3"/>
<path d="M98.4536 62.6516C102.081 63.8795 106.906 65.0379 110.562 63.4273C110.714 63.3612 110.583 63.1351 110.43 63.2012C106.851 64.7805 102.085 63.6047 98.5229 62.3976C98.3636 62.3455 98.2944 62.5994 98.4536 62.6516Z" fill="#5863E3"/>
<path d="M107.471 18.975C108.087 20.1299 108.845 21.0969 109.894 21.8796C110.987 22.697 111.991 23.2953 112.628 24.572C112.704 24.7216 112.933 24.5998 112.86 24.4502C112.386 23.5006 111.728 22.8536 110.877 22.2448C109.516 21.2778 108.505 20.3595 107.702 18.8498C107.619 18.7037 107.391 18.8254 107.471 18.975Z" fill="#002869"/>
<path d="M85.8298 32.2004C86.1725 33.4771 85.1548 34.8754 85.1271 36.1695C85.096 37.5226 86.0652 38.1001 87.2836 38.3227C87.4463 38.354 87.519 38.1001 87.3528 38.0687C83.5729 37.3765 86.6709 34.3258 86.0825 32.1274C86.0375 31.9709 85.7848 32.0404 85.8298 32.2004Z" fill="#002869"/>
</svg>
