<svg width="370" height="230" viewBox="0 0 370 230" fill="none" xmlns="http://www.w3.org/2000/svg">
<g clip-path="url(#clip0_3_2990)">
<path d="M16.4355 155.01C25.7864 161.772 66.8552 167.676 111.835 171.818C111.823 171.89 111.819 171.967 111.819 172.039C98.9434 181.161 82.1409 187.633 65.105 190.206C89.8139 190.206 112.394 181.653 133.635 173.664L133.554 173.656C133.281 173.636 133.003 173.612 132.73 173.588H132.734L133.554 173.656C155.338 175.358 177.001 176.62 195.502 177.346C195.751 177.354 196.001 177.366 196.25 177.374C176.659 190.698 146.663 203.724 125.853 210.119C125.753 210.152 125.696 210.244 125.72 210.341C125.741 210.422 125.813 210.482 125.897 210.49C125.914 210.49 125.93 210.49 125.942 210.49C151.419 207.486 189.744 193.884 210.912 177.907C237.842 178.818 264.466 179.363 288.129 179.677C271.797 193.864 250.186 208.075 234.04 216.499C233.947 216.547 233.911 216.652 233.951 216.741C233.987 216.817 234.068 216.862 234.152 216.854C234.168 216.854 234.185 216.85 234.197 216.846C254.367 210.648 281.707 195.783 300.546 179.822C334.501 180.185 360.646 180.096 369.884 180.048V150.832C253.836 167.357 132.178 172.648 16.4355 155.01Z" fill="#807BB0"/>
<path d="M6.4729 175.701C8.86292 173.777 10.9874 170.027 13.0998 167.809C15.2122 165.591 17.4855 163.454 20.2376 162.071C22.9898 160.687 26.2972 160.139 29.1941 161.188C32.0911 162.24 34.3765 165.131 34.107 168.16C33.8816 170.713 32.0066 172.838 29.9305 174.386C23.3076 179.322 13.6228 179.863 6.4729 175.701Z" fill="#65D1CA"/>
<path d="M32.1998 163.188C32.1998 163.188 31.9503 163.426 31.5198 163.841C31.0813 164.26 30.4697 164.821 29.681 165.474C28.9045 166.14 27.9509 166.853 26.9048 167.595C25.8506 168.325 24.6878 169.051 23.4968 169.725C22.2937 170.386 21.0625 170.995 19.8796 171.511C18.6926 172.015 17.566 172.455 16.5802 172.773C15.5985 173.108 14.7656 173.342 14.1821 173.495C13.5947 173.648 13.2607 173.733 13.2607 173.733C13.2607 173.733 13.5987 173.66 14.1902 173.535C14.7817 173.406 15.6266 173.209 16.6245 172.918C17.6263 172.644 18.7771 172.249 19.9962 171.793C21.2114 171.325 22.4788 170.765 23.7261 170.148C24.9654 169.519 26.1725 168.833 27.279 168.14C28.3734 167.434 29.3793 166.744 30.2001 166.103C31.0289 165.478 31.7089 164.902 32.1596 164.51C32.6102 164.115 32.8718 163.885 32.8718 163.885C33.0729 163.712 33.089 163.409 32.912 163.212C32.7349 163.014 32.4292 162.998 32.228 163.176C32.2079 163.18 32.2038 163.184 32.1998 163.188Z" fill="#4AA5A2"/>
<path d="M29.6568 165.841C29.6568 165.841 29.6971 166.382 29.6367 167.156C29.5844 167.942 29.3993 168.991 29.0694 170.003C28.7395 171.015 28.2767 171.983 27.8382 172.656C27.4077 173.338 27.0415 173.737 27.0415 173.737C27.0415 173.737 27.4278 173.358 27.9026 172.701C28.3854 172.047 28.9165 171.096 29.3108 170.088C29.7051 169.075 29.9667 168.015 30.0672 167.2C30.1799 166.378 30.1678 165.841 30.1678 165.841V165.817C30.1638 165.676 30.0471 165.563 29.9023 165.563C29.7574 165.567 29.6448 165.684 29.6448 165.825C29.6528 165.833 29.6528 165.837 29.6568 165.841Z" fill="#4AA5A2"/>
<path d="M23.7785 169.672C23.7785 169.672 23.7343 170.108 23.5975 170.729C23.4647 171.358 23.2233 172.189 22.8973 172.991C22.5714 173.79 22.157 174.56 21.7627 175.08C21.3764 175.608 21.0344 175.895 21.0344 175.895C21.0344 175.895 21.3965 175.636 21.8271 175.132C22.2697 174.636 22.7485 173.89 23.1468 173.1C23.5411 172.31 23.859 171.479 24.0441 170.842C24.2372 170.196 24.3177 169.769 24.3177 169.769L24.3217 169.753C24.3499 169.604 24.2493 169.463 24.1004 169.438C23.9515 169.41 23.8067 169.511 23.7785 169.656C23.7825 169.66 23.7825 169.664 23.7785 169.672Z" fill="#4AA5A2"/>
<path d="M18.2497 172.201C18.2497 172.201 18.1532 172.499 17.9641 172.914C17.7749 173.338 17.4812 173.882 17.1312 174.398C16.7811 174.915 16.3747 175.394 16.0287 175.713C15.6867 176.036 15.4211 176.213 15.4211 176.213C15.4211 176.213 15.6988 176.056 16.0649 175.753C16.4351 175.455 16.8777 174.995 17.268 174.499C17.6583 173.999 18.0003 173.463 18.2216 173.039C18.4509 172.616 18.5636 172.322 18.5636 172.322L18.5676 172.309C18.6038 172.225 18.5596 172.124 18.471 172.092C18.3825 172.059 18.2859 172.1 18.2497 172.189C18.2538 172.193 18.2497 172.197 18.2497 172.201Z" fill="#4AA5A2"/>
<path d="M29.9143 165.672C29.9143 165.672 29.4637 165.361 28.6952 164.99C27.9387 164.623 26.8846 164.252 25.7982 164.022C24.7118 163.793 23.6013 163.704 22.7724 163.736C21.9436 163.756 21.4004 163.861 21.4004 163.861C21.4004 163.861 21.9476 163.789 22.7724 163.817C23.5932 163.833 24.6836 163.986 25.7378 164.272C26.788 164.559 27.7939 164.982 28.494 165.377C29.1901 165.761 29.6246 166.099 29.6246 166.099C29.7373 166.188 29.9022 166.168 29.9908 166.059C30.0793 165.946 30.0592 165.785 29.9465 165.7C29.9425 165.696 29.9385 165.696 29.9344 165.692L29.9143 165.672Z" fill="#4AA5A2"/>
<path d="M24.1645 169.471C24.1645 169.471 23.7581 169.293 23.1063 169.091C22.4625 168.886 21.5894 168.676 20.7042 168.555C19.819 168.438 18.9177 168.41 18.2539 168.491C17.5859 168.559 17.1675 168.708 17.1675 168.708C17.1675 168.708 17.598 168.591 18.2619 168.575C18.9218 168.547 19.8029 168.64 20.6559 168.821C21.513 169.007 22.3458 169.273 22.9494 169.519C23.5489 169.757 23.9392 169.962 23.9392 169.962C24.072 170.035 24.241 169.983 24.3134 169.85C24.3858 169.717 24.3335 169.551 24.2007 169.483C24.1967 169.479 24.1887 169.475 24.1806 169.475L24.1645 169.471Z" fill="#4AA5A2"/>
<path d="M18.459 172.1C18.459 172.1 18.1573 172.007 17.6744 171.914C17.1996 171.822 16.5599 171.745 15.9201 171.729C15.2804 171.717 14.6406 171.769 14.1699 171.862C13.6991 171.951 13.4014 172.068 13.4014 172.068C13.4014 172.068 13.7072 171.975 14.1779 171.914C14.6487 171.85 15.2804 171.842 15.9081 171.894C16.5357 171.951 17.1554 172.068 17.606 172.189C18.0567 172.306 18.3504 172.418 18.3504 172.418C18.4389 172.451 18.5355 172.41 18.5717 172.322C18.6039 172.237 18.5636 172.136 18.4751 172.104C18.4711 172.104 18.4671 172.1 18.4631 172.1H18.459Z" fill="#4AA5A2"/>
<path d="M1.4112 130.27C4.72664 132.31 10.1545 133.29 13.7154 134.879C17.2762 136.468 20.8049 138.282 23.6054 140.964C26.4058 143.646 28.4216 147.327 28.317 151.171C28.2124 155.014 25.6212 158.885 21.8229 159.796C18.6241 160.567 15.2725 159.22 12.5445 157.401C3.84547 151.594 -0.753498 140.395 1.4112 130.27Z" fill="#65D1CA"/>
<path d="M27.0415 155.635C27.0415 155.635 26.6512 155.437 25.9712 155.09C25.2872 154.739 24.3497 154.239 23.2312 153.566C22.6678 153.239 22.0764 152.86 21.4527 152.457C20.825 152.058 20.1893 151.598 19.5214 151.134C18.2097 150.178 16.8538 149.098 15.5501 147.956C14.2626 146.799 13.0233 145.585 11.9168 144.396C11.3776 143.791 10.8425 143.214 10.3717 142.637C9.89293 142.065 9.44631 141.524 9.05603 141.004C8.25533 139.98 7.6357 139.089 7.21724 138.46C6.79879 137.831 6.55737 137.468 6.55737 137.468C6.55737 137.468 6.78672 137.835 7.18103 138.48C7.57937 139.125 8.17084 140.036 8.93532 141.089C9.30951 141.625 9.73601 142.182 10.1987 142.775C10.6494 143.371 11.1684 143.964 11.6875 144.593C12.7577 145.827 13.9608 147.093 15.2202 148.303C16.4957 149.501 17.8234 150.642 19.119 151.65C19.7789 152.142 20.4026 152.634 21.0262 153.058C21.6459 153.489 22.2333 153.897 22.7926 154.247C23.891 154.965 24.8647 155.526 25.5286 155.893C26.1965 156.26 26.5788 156.473 26.5788 156.473C26.8122 156.602 27.1059 156.522 27.2387 156.292C27.3714 156.062 27.2869 155.772 27.0536 155.643C27.0536 155.643 27.0455 155.639 27.0415 155.635Z" fill="#4AA5A2"/>
<path d="M22.861 153.667C22.861 153.667 22.2212 153.929 21.2435 154.171C20.2577 154.425 18.9018 154.618 17.5337 154.639C16.1657 154.655 14.7977 154.489 13.7958 154.243C13.2929 154.126 12.8865 153.997 12.6008 153.897C12.3191 153.792 12.1582 153.735 12.1582 153.735C12.1582 153.735 12.3151 153.8 12.5928 153.917C12.8704 154.03 13.2768 154.183 13.7757 154.32C14.7695 154.618 16.1416 154.848 17.5297 154.897C18.9178 154.945 20.314 154.808 21.34 154.594C21.851 154.497 22.2896 154.376 22.5753 154.292C22.865 154.203 23.0259 154.155 23.0259 154.155L23.038 154.151C23.1748 154.11 23.2513 153.965 23.211 153.828C23.1668 153.691 23.0219 153.618 22.8851 153.659C22.8771 153.663 22.869 153.667 22.861 153.667Z" fill="#4AA5A2"/>
<path d="M15.7996 148.303C15.7996 148.303 15.2524 148.42 14.4356 148.509C13.6108 148.602 12.5003 148.646 11.3897 148.578C10.2833 148.505 9.17676 148.324 8.38411 148.061C7.98578 147.936 7.66389 147.803 7.44259 147.698C7.22532 147.59 7.10059 147.525 7.10059 147.525C7.10059 147.525 7.22129 147.594 7.43052 147.719C7.64377 147.836 7.95761 147.993 8.35192 148.142C9.13653 148.453 10.243 148.707 11.3616 148.848C12.4842 148.985 13.6188 149.009 14.4678 148.965C15.3248 148.924 15.8801 148.84 15.8801 148.84L15.8962 148.836C16.045 148.811 16.1497 148.674 16.1255 148.525C16.1014 148.376 15.9605 148.275 15.8117 148.299C15.8076 148.299 15.8036 148.299 15.7996 148.303Z" fill="#4AA5A2"/>
<path d="M10.4603 142.779C10.4603 142.779 10.058 142.783 9.47052 142.726C8.87905 142.674 8.09043 142.537 7.32192 142.331C6.55341 142.121 5.80503 141.831 5.27793 141.553C4.74682 141.279 4.42896 141.033 4.42896 141.033C4.42896 141.033 4.73475 141.295 5.25379 141.597C5.76881 141.908 6.50915 142.238 7.27364 142.492C8.04214 142.742 8.83479 142.92 9.43833 143.009C10.0459 143.101 10.4483 143.117 10.4483 143.117H10.4603C10.5529 143.121 10.6333 143.049 10.6374 142.956C10.6414 142.863 10.569 142.787 10.4724 142.783C10.4684 142.779 10.4643 142.779 10.4603 142.779Z" fill="#4AA5A2"/>
<path d="M23.0823 153.824C23.0823 153.824 23.1226 153.659 23.195 153.368C23.2634 153.082 23.36 152.634 23.4203 152.122C23.5692 151.086 23.5974 149.695 23.4485 148.32C23.2916 146.944 22.9616 145.602 22.5915 144.634C22.4144 144.15 22.2374 143.755 22.1046 143.484C21.9678 143.214 21.8914 143.061 21.8914 143.061C21.8914 143.061 21.9598 143.218 22.0845 143.493C22.2012 143.767 22.3621 144.166 22.515 144.658C22.8329 145.634 23.0984 146.981 23.187 148.34C23.2715 149.699 23.1789 151.058 22.9858 152.054C22.8973 152.558 22.7967 152.949 22.7122 153.239C22.6277 153.526 22.5754 153.691 22.5754 153.691C22.5351 153.828 22.6116 153.969 22.7524 154.01C22.8892 154.05 23.0341 153.973 23.0783 153.836C23.0823 153.832 23.0823 153.828 23.0823 153.824Z" fill="#4AA5A2"/>
<path d="M16.1136 148.594C16.1136 148.594 16.1699 148.045 16.1578 147.198C16.1538 146.36 16.0613 145.247 15.8601 144.154C15.6549 143.061 15.333 141.988 14.9709 141.238C14.7978 140.859 14.6208 140.561 14.488 140.355C14.3512 140.153 14.2708 140.041 14.2708 140.041C14.2708 140.041 14.3432 140.157 14.4639 140.367C14.5806 140.577 14.7375 140.887 14.8864 141.27C15.1962 142.037 15.4497 143.109 15.5824 144.194C15.7152 145.279 15.7353 146.376 15.6911 147.19C15.6508 147.997 15.5623 148.545 15.5623 148.545C15.5382 148.695 15.6428 148.832 15.7917 148.856C15.9405 148.88 16.0854 148.779 16.1055 148.63C16.1055 148.626 16.1055 148.618 16.1095 148.614L16.1136 148.594Z" fill="#4AA5A2"/>
<path d="M10.6213 142.944C10.6213 142.944 10.6133 142.549 10.5369 141.948C10.4644 141.351 10.3035 140.569 10.0661 139.807C9.8287 139.044 9.51084 138.311 9.20907 137.794C8.91132 137.274 8.65381 136.968 8.65381 136.968C8.65381 136.968 8.89522 137.286 9.16078 137.819C9.43439 138.347 9.70799 139.089 9.90112 139.851C10.0943 140.613 10.2109 141.391 10.2512 141.976C10.2954 142.557 10.2793 142.952 10.2793 142.952C10.2753 143.045 10.3477 143.121 10.4443 143.125C10.5369 143.129 10.6173 143.057 10.6213 142.964C10.6213 142.96 10.6213 142.96 10.6213 142.956V142.944Z" fill="#4AA5A2"/>
<path d="M46.0891 198.872C48.7849 197.219 51.4687 193.686 53.919 191.698C56.3734 189.714 58.9807 187.827 61.9622 186.767C64.9437 185.706 68.3718 185.549 71.1561 186.964C73.9405 188.38 75.8396 191.581 75.1395 194.61C74.548 197.163 72.3471 199.086 70.0255 200.397C62.6181 204.579 52.7361 203.949 46.0891 198.872Z" fill="#65D1CA"/>
<path d="M73.9364 189.376C73.9364 189.376 73.6507 189.585 73.1518 189.952C72.6488 190.319 71.9487 190.815 71.0515 191.38C70.6089 191.67 70.122 191.961 69.599 192.263C69.0799 192.574 68.5126 192.868 67.9332 193.182C66.7623 193.787 65.4788 194.38 64.1751 194.916C62.8635 195.437 61.5276 195.9 60.2562 196.275C59.6164 196.449 59.0008 196.634 58.4093 196.771C57.8179 196.917 57.2586 197.046 56.7355 197.147C55.6934 197.364 54.8203 197.497 54.2047 197.578C53.5891 197.659 53.239 197.707 53.239 197.707C53.239 197.707 53.5931 197.675 54.2087 197.618C54.8243 197.558 55.7095 197.461 56.7597 197.284C57.2868 197.207 57.8541 197.098 58.4536 196.977C59.0531 196.864 59.6808 196.703 60.3286 196.554C61.6242 196.223 62.9882 195.812 64.3361 195.34C65.6759 194.852 66.9997 194.304 68.2148 193.735C68.8144 193.436 69.4018 193.162 69.941 192.868C70.4841 192.578 70.9951 192.303 71.4579 192.025C72.3833 191.493 73.1518 190.993 73.6628 190.65C74.1778 190.303 74.4715 190.106 74.4715 190.106C74.6848 189.964 74.7371 189.682 74.5963 189.476C74.4554 189.271 74.1657 189.222 73.9565 189.364C73.9444 189.368 73.9404 189.376 73.9364 189.376Z" fill="#4AA5A2"/>
<path d="M70.9832 191.727C70.9832 191.727 70.947 192.275 70.774 193.053C70.609 193.844 70.267 194.88 69.7882 195.86C69.3094 196.84 68.6978 197.763 68.1587 198.393C67.6235 199.026 67.197 199.389 67.197 199.389C67.197 199.389 67.6436 199.054 68.215 198.441C68.7944 197.84 69.4663 196.941 70.0095 195.969C70.5527 194.997 70.9631 193.953 71.1804 193.146C71.4097 192.327 71.4741 191.787 71.4741 191.787L71.4781 191.763C71.4942 191.63 71.3977 191.509 71.2609 191.497C71.124 191.485 70.9993 191.581 70.9832 191.715C70.9832 191.719 70.9832 191.723 70.9832 191.727Z" fill="#4AA5A2"/>
<path d="M64.489 194.888C64.489 194.888 64.3803 195.32 64.151 195.933C63.9257 196.554 63.5595 197.36 63.1129 198.131C62.6663 198.897 62.1352 199.627 61.6604 200.102C61.1936 200.586 60.8074 200.836 60.8074 200.836C60.8074 200.836 61.2097 200.619 61.7167 200.159C62.2317 199.711 62.8232 199.014 63.3382 198.264C63.8492 197.514 64.2838 196.711 64.5614 196.09C64.8471 195.461 64.9879 195.037 64.9879 195.037L64.9919 195.021C65.0362 194.884 64.9597 194.743 64.8229 194.699C64.6861 194.658 64.5373 194.735 64.493 194.868C64.493 194.876 64.489 194.88 64.489 194.888Z" fill="#4AA5A2"/>
<path d="M58.5221 196.767C58.5221 196.767 58.3813 197.058 58.1278 197.457C57.8783 197.86 57.4961 198.376 57.0696 198.856C56.639 199.332 56.1602 199.768 55.7659 200.05C55.3716 200.336 55.0779 200.477 55.0779 200.477C55.0779 200.477 55.3797 200.352 55.7941 200.09C56.2085 199.832 56.7235 199.421 57.1903 198.965C57.653 198.505 58.0755 198.005 58.3611 197.602C58.6508 197.199 58.8078 196.921 58.8078 196.921L58.8118 196.913C58.856 196.836 58.8279 196.739 58.7474 196.695C58.671 196.655 58.5704 196.683 58.5261 196.759C58.5261 196.763 58.5221 196.763 58.5221 196.767Z" fill="#4AA5A2"/>
<path d="M71.2367 191.598C71.2367 191.598 70.8262 191.227 70.102 190.763C69.3938 190.299 68.3759 189.791 67.3096 189.424C66.2434 189.061 65.1329 188.831 64.2919 188.759C63.451 188.678 62.8877 188.714 62.8877 188.714C62.8877 188.714 63.455 188.706 64.2839 188.831C65.1127 188.948 66.1991 189.234 67.2211 189.646C68.2471 190.061 69.2047 190.61 69.8606 191.093C70.5124 191.565 70.9067 191.96 70.9067 191.96C71.0033 192.057 71.1602 192.057 71.2568 191.96C71.3574 191.868 71.3574 191.71 71.2648 191.618C71.2608 191.614 71.2608 191.614 71.2568 191.61L71.2367 191.598Z" fill="#4AA5A2"/>
<path d="M64.8752 194.743C64.8752 194.743 64.489 194.513 63.8613 194.227C63.2417 193.941 62.3887 193.622 61.5075 193.388C60.6263 193.158 59.725 193.017 59.041 193.017C58.357 193.005 57.9104 193.106 57.9104 193.106C57.9104 193.106 58.3651 193.041 59.037 193.098C59.7089 193.146 60.5861 193.348 61.431 193.634C62.272 193.924 63.0807 194.295 63.6601 194.614C64.2355 194.929 64.6016 195.183 64.6016 195.183C64.7183 195.263 64.8833 195.235 64.9678 195.118C65.0523 195.001 65.0281 194.84 64.9074 194.759C64.9034 194.755 64.8994 194.751 64.8913 194.751L64.8752 194.743Z" fill="#4AA5A2"/>
<path d="M58.7312 196.699C58.7312 196.699 58.4375 196.566 57.9667 196.412C57.5 196.259 56.8642 196.102 56.2205 196.009C55.5727 195.916 54.9208 195.888 54.43 195.929C53.9431 195.961 53.6252 196.041 53.6252 196.041C53.6252 196.041 53.9471 195.985 54.434 195.981C54.9208 195.973 55.5606 196.037 56.1883 196.17C56.816 196.304 57.4275 196.493 57.8661 196.671C58.3047 196.844 58.5904 196.993 58.5904 196.993C58.6708 197.033 58.7674 197.005 58.8117 196.929C58.8559 196.852 58.8278 196.755 58.7473 196.715C58.7433 196.715 58.7433 196.711 58.7392 196.711L58.7312 196.699Z" fill="#4AA5A2"/>
<path d="M104.468 217.822C107.304 216.084 110.129 212.361 112.712 210.273C115.295 208.184 118.039 206.2 121.178 205.083C124.316 203.966 127.925 203.8 130.855 205.292C133.784 206.784 135.783 210.152 135.047 213.337C134.423 216.023 132.11 218.047 129.664 219.427C121.866 223.83 111.465 223.165 104.468 217.822Z" fill="#65D1CA"/>
<path d="M133.779 207.829C133.779 207.829 133.478 208.051 132.955 208.438C132.424 208.825 131.687 209.345 130.746 209.942C130.283 210.244 129.764 210.551 129.217 210.873C128.674 211.2 128.074 211.511 127.466 211.841C126.231 212.478 124.883 213.103 123.507 213.668C122.127 214.216 120.719 214.704 119.379 215.1C118.707 215.285 118.059 215.479 117.436 215.62C116.812 215.773 116.225 215.91 115.673 216.015C114.579 216.241 113.657 216.382 113.01 216.471C112.362 216.555 111.992 216.604 111.992 216.604C111.992 216.604 112.362 216.567 113.014 216.511C113.661 216.451 114.591 216.346 115.697 216.16C116.253 216.08 116.848 215.963 117.48 215.838C118.112 215.721 118.771 215.551 119.455 215.394C120.819 215.047 122.256 214.612 123.672 214.116C125.084 213.603 126.473 213.027 127.752 212.426C128.384 212.111 129.003 211.825 129.571 211.515C130.142 211.212 130.681 210.918 131.164 210.627C132.138 210.067 132.951 209.543 133.486 209.18C134.025 208.813 134.335 208.607 134.335 208.607C134.556 208.458 134.616 208.159 134.467 207.946C134.319 207.732 134.017 207.676 133.796 207.829C133.792 207.821 133.783 207.825 133.779 207.829Z" fill="#4AA5A2"/>
<path d="M130.669 210.301C130.669 210.301 130.629 210.877 130.448 211.7C130.275 212.531 129.913 213.62 129.41 214.656C128.907 215.688 128.263 216.66 127.692 217.321C127.129 217.991 126.682 218.37 126.682 218.37C126.682 218.37 127.153 218.015 127.756 217.374C128.368 216.741 129.072 215.793 129.643 214.769C130.215 213.745 130.645 212.648 130.875 211.797C131.116 210.938 131.185 210.365 131.185 210.365L131.189 210.341C131.205 210.2 131.104 210.075 130.959 210.059C130.814 210.043 130.686 210.147 130.669 210.289C130.669 210.293 130.669 210.297 130.669 210.301Z" fill="#4AA5A2"/>
<path d="M123.837 213.628C123.837 213.628 123.721 214.083 123.483 214.729C123.246 215.382 122.86 216.233 122.393 217.043C121.922 217.85 121.363 218.616 120.864 219.12C120.369 219.632 119.967 219.89 119.967 219.89C119.967 219.89 120.389 219.661 120.924 219.181C121.467 218.709 122.087 217.975 122.63 217.185C123.169 216.394 123.624 215.551 123.918 214.894C124.219 214.233 124.368 213.785 124.368 213.785L124.372 213.769C124.421 213.628 124.34 213.475 124.195 213.43C124.05 213.386 123.894 213.466 123.845 213.608C123.837 213.616 123.837 213.624 123.837 213.628Z" fill="#4AA5A2"/>
<path d="M117.556 215.608C117.556 215.608 117.408 215.914 117.142 216.334C116.876 216.761 116.478 217.301 116.027 217.806C115.577 218.306 115.07 218.765 114.655 219.06C114.241 219.358 113.931 219.511 113.931 219.511C113.931 219.511 114.249 219.378 114.684 219.104C115.122 218.834 115.661 218.402 116.152 217.918C116.639 217.435 117.086 216.906 117.383 216.487C117.689 216.063 117.854 215.769 117.854 215.769L117.858 215.761C117.902 215.68 117.874 215.58 117.794 215.535C117.709 215.491 117.609 215.523 117.56 215.604C117.556 215.604 117.556 215.604 117.556 215.608Z" fill="#4AA5A2"/>
<path d="M130.939 210.168C130.939 210.168 130.508 209.777 129.744 209.289C128.996 208.797 127.929 208.268 126.807 207.881C125.684 207.498 124.517 207.256 123.628 207.184C122.743 207.099 122.147 207.139 122.147 207.139C122.147 207.139 122.743 207.131 123.616 207.264C124.489 207.385 125.632 207.688 126.71 208.123C127.789 208.563 128.798 209.135 129.491 209.648C130.179 210.144 130.593 210.559 130.593 210.559C130.694 210.66 130.859 210.66 130.963 210.559C131.068 210.458 131.072 210.297 130.971 210.196C130.967 210.192 130.967 210.192 130.963 210.188L130.939 210.168Z" fill="#4AA5A2"/>
<path d="M124.244 213.474C124.244 213.474 123.837 213.233 123.177 212.934C122.526 212.632 121.624 212.297 120.703 212.051C119.777 211.809 118.824 211.664 118.104 211.66C117.383 211.648 116.913 211.753 116.913 211.753C116.913 211.753 117.391 211.684 118.096 211.744C118.804 211.797 119.729 212.007 120.614 212.309C121.499 212.611 122.352 213.003 122.96 213.341C123.564 213.672 123.95 213.938 123.95 213.938C124.075 214.023 124.248 213.995 124.336 213.874C124.425 213.753 124.396 213.583 124.276 213.495C124.272 213.491 124.264 213.487 124.26 213.483L124.244 213.474Z" fill="#4AA5A2"/>
<path d="M117.778 215.535C117.778 215.535 117.468 215.394 116.973 215.237C116.482 215.076 115.814 214.91 115.134 214.809C114.454 214.713 113.766 214.684 113.251 214.725C112.736 214.761 112.402 214.842 112.402 214.842C112.402 214.842 112.74 214.781 113.251 214.777C113.762 214.769 114.438 214.838 115.098 214.975C115.758 215.112 116.402 215.313 116.864 215.503C117.327 215.684 117.625 215.842 117.625 215.842C117.709 215.886 117.81 215.854 117.858 215.773C117.902 215.692 117.874 215.592 117.79 215.547C117.786 215.547 117.786 215.543 117.782 215.543L117.778 215.535Z" fill="#4AA5A2"/>
<path d="M210.063 222.536C212.9 220.798 215.724 217.075 218.307 214.987C220.89 212.898 223.635 210.914 226.773 209.797C229.911 208.68 233.521 208.514 236.45 210.006C239.379 211.498 241.379 214.866 240.642 218.051C240.019 220.737 237.705 222.761 235.259 224.141C227.461 228.54 217.056 227.879 210.063 222.536Z" fill="#65D1CA"/>
<path d="M239.371 212.543C239.371 212.543 239.069 212.765 238.546 213.152C238.015 213.539 237.279 214.059 236.337 214.656C235.874 214.958 235.355 215.265 234.808 215.588C234.265 215.914 233.665 216.225 233.058 216.555C231.823 217.193 230.475 217.818 229.099 218.382C227.719 218.931 226.31 219.419 224.97 219.814C224.299 219.999 223.651 220.193 223.027 220.334C222.403 220.487 221.816 220.624 221.265 220.729C220.17 220.955 219.249 221.096 218.601 221.185C217.953 221.269 217.583 221.318 217.583 221.318C217.583 221.318 217.953 221.282 218.605 221.225C219.253 221.165 220.182 221.06 221.289 220.874C221.844 220.794 222.44 220.677 223.071 220.552C223.703 220.435 224.363 220.265 225.047 220.108C226.411 219.761 227.847 219.326 229.264 218.83C230.676 218.318 232.068 217.741 233.344 217.14C233.975 216.826 234.595 216.539 235.162 216.229C235.734 215.926 236.273 215.632 236.756 215.342C237.729 214.781 238.542 214.257 239.077 213.894C239.616 213.527 239.926 213.321 239.926 213.321C240.147 213.172 240.208 212.874 240.059 212.66C239.91 212.446 239.608 212.39 239.383 212.543C239.383 212.535 239.375 212.539 239.371 212.543Z" fill="#4AA5A2"/>
<path d="M236.26 215.015C236.26 215.015 236.22 215.591 236.039 216.414C235.866 217.245 235.504 218.334 235.001 219.37C234.498 220.402 233.854 221.374 233.283 222.035C232.72 222.705 232.273 223.084 232.273 223.084C232.273 223.084 232.744 222.729 233.347 222.088C233.959 221.455 234.663 220.507 235.234 219.483C235.806 218.459 236.236 217.362 236.466 216.511C236.707 215.652 236.775 215.079 236.775 215.079L236.779 215.055C236.796 214.914 236.695 214.789 236.55 214.773C236.405 214.757 236.277 214.861 236.26 215.003C236.264 215.003 236.26 215.011 236.26 215.015Z" fill="#4AA5A2"/>
<path d="M229.429 218.342C229.429 218.342 229.312 218.797 229.075 219.443C228.837 220.096 228.451 220.947 227.984 221.757C227.513 222.564 226.954 223.33 226.455 223.834C225.96 224.346 225.558 224.604 225.558 224.604C225.558 224.604 225.98 224.375 226.516 223.895C227.059 223.423 227.678 222.689 228.222 221.899C228.761 221.108 229.215 220.265 229.509 219.608C229.811 218.947 229.96 218.499 229.96 218.499L229.964 218.483C230.012 218.342 229.932 218.189 229.787 218.144C229.642 218.1 229.485 218.18 229.437 218.322C229.433 218.33 229.429 218.334 229.429 218.342Z" fill="#4AA5A2"/>
<path d="M223.148 220.322C223.148 220.322 222.999 220.628 222.733 221.048C222.468 221.475 222.07 222.015 221.619 222.52C221.168 223.02 220.661 223.479 220.247 223.774C219.832 224.072 219.523 224.225 219.523 224.225C219.523 224.225 219.84 224.092 220.275 223.818C220.714 223.548 221.253 223.116 221.744 222.632C222.23 222.148 222.677 221.62 222.975 221.201C223.281 220.777 223.446 220.483 223.446 220.483L223.45 220.475C223.494 220.394 223.466 220.293 223.385 220.249C223.301 220.205 223.2 220.237 223.152 220.318C223.152 220.314 223.148 220.318 223.148 220.322Z" fill="#4AA5A2"/>
<path d="M236.53 214.878C236.53 214.878 236.1 214.487 235.335 213.999C234.587 213.507 233.52 212.978 232.398 212.591C231.275 212.208 230.108 211.966 229.219 211.894C228.334 211.809 227.739 211.849 227.739 211.849C227.739 211.849 228.334 211.841 229.207 211.974C230.08 212.095 231.223 212.398 232.301 212.833C233.38 213.273 234.39 213.845 235.082 214.357C235.77 214.854 236.184 215.269 236.184 215.269C236.285 215.37 236.45 215.37 236.554 215.269C236.659 215.168 236.663 215.007 236.562 214.906C236.558 214.902 236.558 214.902 236.554 214.898L236.53 214.878Z" fill="#4AA5A2"/>
<path d="M229.835 218.188C229.835 218.188 229.429 217.947 228.769 217.648C228.117 217.346 227.216 217.011 226.294 216.765C225.369 216.523 224.415 216.378 223.695 216.374C222.975 216.362 222.504 216.467 222.504 216.467C222.504 216.467 222.983 216.398 223.687 216.458C224.395 216.511 225.321 216.721 226.206 217.023C227.091 217.325 227.944 217.717 228.552 218.055C229.155 218.386 229.541 218.652 229.541 218.652C229.666 218.737 229.839 218.709 229.928 218.588C230.016 218.467 229.988 218.297 229.867 218.209C229.863 218.205 229.855 218.201 229.851 218.197L229.835 218.188Z" fill="#4AA5A2"/>
<path d="M223.369 220.249C223.369 220.249 223.059 220.108 222.564 219.951C222.073 219.79 221.406 219.624 220.726 219.523C220.046 219.427 219.358 219.398 218.843 219.439C218.328 219.475 217.994 219.556 217.994 219.556C217.994 219.556 218.332 219.495 218.843 219.491C219.354 219.483 220.029 219.552 220.689 219.689C221.349 219.826 221.993 220.027 222.456 220.217C222.918 220.398 223.216 220.556 223.216 220.556C223.301 220.6 223.401 220.568 223.45 220.487C223.494 220.406 223.466 220.306 223.381 220.261C223.377 220.261 223.377 220.257 223.373 220.257L223.369 220.249Z" fill="#4AA5A2"/>
<path d="M235.834 188.25C238.848 188.621 243.068 187.629 246.122 187.617C249.176 187.609 252.278 187.763 255.119 188.726C257.96 189.69 260.539 191.573 261.637 194.215C262.736 196.856 262.044 200.272 259.581 202.054C257.505 203.554 254.676 203.667 252.15 203.264C244.098 201.982 237.363 195.783 235.834 188.25Z" fill="#65D1CA"/>
<path d="M262.088 197.574C262.088 197.574 261.746 197.562 261.15 197.534C260.547 197.505 259.722 197.457 258.712 197.344C258.209 197.296 257.666 197.223 257.09 197.138C256.515 197.062 255.916 196.945 255.292 196.836C254.053 196.594 252.745 196.275 251.457 195.904C250.174 195.517 248.907 195.074 247.748 194.61C247.172 194.364 246.609 194.142 246.094 193.892C245.575 193.654 245.084 193.42 244.646 193.19C243.752 192.743 243.036 192.327 242.537 192.033C242.038 191.735 241.757 191.565 241.757 191.565C241.757 191.565 242.034 191.747 242.517 192.065C243 192.38 243.704 192.823 244.577 193.307C245.008 193.557 245.49 193.807 246.001 194.07C246.508 194.34 247.064 194.586 247.631 194.856C248.778 195.372 250.033 195.864 251.313 196.308C252.596 196.735 253.904 197.106 255.151 197.4C255.775 197.534 256.378 197.679 256.958 197.78C257.537 197.888 258.084 197.985 258.595 198.054C259.609 198.207 260.486 198.296 261.078 198.344C261.673 198.393 262.015 198.421 262.015 198.421C262.261 198.441 262.482 198.267 262.51 198.038C262.538 197.808 262.365 197.602 262.12 197.586C262.1 197.574 262.092 197.574 262.088 197.574Z" fill="#4AA5A2"/>
<path d="M258.439 197.554C258.439 197.554 258.056 197.929 257.429 198.392C256.801 198.868 255.884 199.417 254.906 199.848C253.928 200.28 252.89 200.59 252.093 200.731C251.297 200.881 250.758 200.893 250.758 200.893C250.758 200.893 251.297 200.909 252.105 200.8C252.914 200.703 253.976 200.441 254.998 200.054C256.016 199.667 256.986 199.151 257.666 198.695C258.358 198.235 258.756 197.884 258.756 197.884L258.773 197.868C258.869 197.78 258.877 197.638 258.789 197.55C258.7 197.461 258.547 197.457 258.451 197.546C258.443 197.546 258.439 197.55 258.439 197.554Z" fill="#4AA5A2"/>
<path d="M251.703 196.062C251.703 196.062 251.345 196.312 250.786 196.622C250.222 196.941 249.438 197.312 248.617 197.61C247.796 197.904 246.947 198.122 246.295 198.191C245.643 198.271 245.205 198.223 245.205 198.223C245.205 198.223 245.635 198.3 246.299 198.263C246.963 198.239 247.84 198.078 248.693 197.836C249.546 197.59 250.379 197.263 250.983 196.977C251.594 196.691 251.969 196.465 251.969 196.465L251.985 196.457C252.105 196.384 252.142 196.235 252.069 196.126C251.997 196.017 251.84 195.985 251.719 196.058C251.715 196.058 251.711 196.062 251.703 196.062Z" fill="#4AA5A2"/>
<path d="M246.179 193.957C246.179 193.957 245.889 194.086 245.45 194.227C245.008 194.372 244.4 194.525 243.781 194.622C243.161 194.719 242.533 194.751 242.067 194.727C241.6 194.703 241.294 194.638 241.294 194.638C241.294 194.638 241.592 194.723 242.063 194.775C242.529 194.832 243.165 194.832 243.797 194.771C244.428 194.711 245.056 194.59 245.519 194.469C245.99 194.348 246.283 194.235 246.283 194.235L246.291 194.231C246.372 194.199 246.416 194.114 246.384 194.037C246.356 193.961 246.263 193.924 246.183 193.957C246.183 193.953 246.179 193.953 246.179 193.957Z" fill="#4AA5A2"/>
<path d="M258.704 197.61C258.704 197.61 258.648 197.102 258.422 196.348C258.209 195.598 257.803 194.642 257.268 193.759C256.732 192.876 256.077 192.065 255.513 191.525C254.958 190.977 254.523 190.678 254.523 190.678C254.523 190.678 254.938 191.001 255.457 191.573C255.984 192.138 256.579 192.977 257.054 193.872C257.525 194.767 257.867 195.723 258.028 196.453C258.197 197.175 258.225 197.687 258.225 197.687C258.233 197.812 258.346 197.905 258.479 197.892C258.611 197.88 258.712 197.771 258.704 197.646C258.704 197.642 258.704 197.638 258.704 197.634V197.61Z" fill="#4AA5A2"/>
<path d="M252.077 196.183C252.077 196.183 251.949 195.795 251.679 195.223C251.418 194.654 251.007 193.928 250.52 193.251C250.033 192.573 249.47 191.948 248.975 191.549C248.488 191.142 248.102 190.956 248.102 190.956C248.102 190.956 248.472 191.17 248.919 191.606C249.374 192.033 249.876 192.686 250.303 193.384C250.725 194.082 251.071 194.82 251.281 195.388C251.494 195.949 251.595 196.344 251.595 196.344C251.627 196.473 251.764 196.546 251.9 196.513C252.037 196.477 252.122 196.348 252.089 196.219C252.089 196.215 252.085 196.207 252.085 196.203L252.077 196.183Z" fill="#4AA5A2"/>
<path d="M246.376 194.029C246.376 194.029 246.251 193.763 246.006 193.38C245.768 192.997 245.41 192.517 245.004 192.073C244.597 191.63 244.143 191.231 243.764 190.977C243.39 190.719 243.109 190.589 243.109 190.589C243.109 190.589 243.378 190.735 243.732 191.013C244.09 191.287 244.509 191.711 244.879 192.17C245.249 192.63 245.567 193.122 245.772 193.509C245.977 193.888 246.086 194.162 246.086 194.162C246.114 194.239 246.207 194.275 246.287 194.243C246.368 194.211 246.412 194.126 246.38 194.049C246.38 194.045 246.376 194.045 246.376 194.041V194.029Z" fill="#4AA5A2"/>
<path d="M162.395 229.895C162.029 226.71 159.788 222.645 158.979 219.519C158.166 216.39 157.531 213.172 157.885 210.01C158.239 206.849 159.703 203.712 162.419 201.893C165.135 200.074 169.207 199.889 171.879 201.945C174.132 203.679 174.997 206.55 175.202 209.24C175.854 217.826 170.567 226.355 162.395 229.895Z" fill="#65D1CA"/>
<path d="M166.121 200.55C166.121 200.55 166.193 200.905 166.322 201.522C166.451 202.147 166.612 203.006 166.745 204.07C166.825 204.599 166.881 205.175 166.938 205.784C167.002 206.393 167.026 207.038 167.067 207.704C167.115 209.039 167.099 210.458 167.01 211.878C166.906 213.293 166.737 214.708 166.511 216.019C166.383 216.672 166.274 217.309 166.129 217.902C165.992 218.499 165.86 219.06 165.711 219.572C165.433 220.604 165.151 221.447 164.946 222.036C164.737 222.624 164.616 222.959 164.616 222.959C164.616 222.959 164.749 222.629 164.986 222.052C165.22 221.471 165.538 220.636 165.859 219.616C166.033 219.108 166.189 218.552 166.354 217.959C166.527 217.37 166.664 216.737 166.821 216.084C167.107 214.773 167.34 213.358 167.505 211.93C167.654 210.502 167.734 209.063 167.743 207.712C167.73 207.034 167.739 206.381 167.698 205.76C167.67 205.139 167.634 204.55 167.578 204.01C167.489 202.929 167.356 202.01 167.256 201.393C167.155 200.772 167.095 200.413 167.095 200.413C167.055 200.155 166.801 199.973 166.527 200.006C166.258 200.038 166.073 200.268 166.113 200.526C166.117 200.534 166.121 200.542 166.121 200.55Z" fill="#4AA5A2"/>
<path d="M167.054 204.296C167.054 204.296 167.581 204.591 168.273 205.111C168.978 205.631 169.843 206.426 170.595 207.317C171.343 208.208 171.971 209.188 172.337 209.966C172.716 210.74 172.872 211.293 172.872 211.293C172.872 211.293 172.748 210.736 172.414 209.938C172.092 209.135 171.516 208.115 170.808 207.172C170.1 206.228 169.259 205.369 168.559 204.792C167.855 204.204 167.348 203.889 167.348 203.889L167.328 203.877C167.203 203.8 167.038 203.829 166.962 203.945C166.885 204.062 166.922 204.216 167.046 204.292C167.046 204.288 167.05 204.292 167.054 204.296Z" fill="#4AA5A2"/>
<path d="M167.127 211.583C167.127 211.583 167.505 211.886 168.004 212.378C168.511 212.87 169.143 213.579 169.694 214.341C170.245 215.104 170.716 215.918 170.961 216.572C171.223 217.221 171.283 217.681 171.283 217.681C171.283 217.681 171.255 217.217 171.042 216.547C170.841 215.874 170.426 215.019 169.927 214.208C169.424 213.398 168.833 212.632 168.35 212.087C167.863 211.535 167.509 211.208 167.509 211.208L167.497 211.196C167.384 211.091 167.203 211.091 167.099 211.196C166.994 211.301 166.998 211.466 167.111 211.571C167.115 211.575 167.123 211.579 167.127 211.583Z" fill="#4AA5A2"/>
<path d="M166.177 217.801C166.177 217.801 166.399 218.064 166.676 218.479C166.958 218.894 167.292 219.475 167.565 220.084C167.835 220.693 168.04 221.326 168.133 221.814C168.229 222.298 168.233 222.628 168.233 222.628C168.233 222.628 168.253 222.302 168.185 221.806C168.125 221.314 167.96 220.661 167.726 220.031C167.489 219.398 167.191 218.789 166.93 218.346C166.668 217.898 166.463 217.624 166.463 217.624L166.455 217.616C166.399 217.539 166.29 217.519 166.209 217.572C166.133 217.62 166.113 217.725 166.169 217.801C166.173 217.793 166.173 217.797 166.177 217.801Z" fill="#4AA5A2"/>
<path d="M167.05 204.006C167.05 204.006 166.487 204.199 165.686 204.623C164.89 205.038 163.912 205.708 163.043 206.486C162.178 207.268 161.43 208.151 160.959 208.869C160.48 209.583 160.255 210.103 160.255 210.103C160.255 210.103 160.516 209.595 161.031 208.914C161.538 208.228 162.331 207.393 163.228 206.675C164.125 205.958 165.119 205.357 165.908 205.002C166.684 204.639 167.26 204.478 167.26 204.478C167.401 204.437 167.473 204.296 167.425 204.163C167.376 204.03 167.228 203.953 167.087 203.994C167.083 203.994 167.079 203.998 167.075 203.998L167.05 204.006Z" fill="#4AA5A2"/>
<path d="M167.167 211.168C167.167 211.168 166.761 211.402 166.177 211.829C165.602 212.249 164.882 212.857 164.238 213.535C163.594 214.212 163.031 214.954 162.705 215.563C162.371 216.168 162.258 216.616 162.258 216.616C162.258 216.616 162.407 216.18 162.781 215.608C163.148 215.031 163.759 214.341 164.443 213.724C165.127 213.107 165.876 212.563 166.467 212.196C167.046 211.829 167.473 211.623 167.473 211.623C167.61 211.559 167.658 211.398 167.582 211.265C167.505 211.136 167.336 211.083 167.199 211.148C167.195 211.152 167.187 211.152 167.183 211.156L167.167 211.168Z" fill="#4AA5A2"/>
<path d="M166.205 217.58C166.205 217.58 165.936 217.777 165.562 218.128C165.187 218.471 164.737 218.967 164.338 219.495C163.94 220.027 163.606 220.6 163.413 221.056C163.216 221.507 163.143 221.826 163.143 221.826C163.143 221.826 163.236 221.511 163.465 221.076C163.686 220.64 164.057 220.096 164.479 219.596C164.906 219.1 165.384 218.64 165.767 218.334C166.145 218.023 166.427 217.842 166.427 217.842C166.503 217.789 166.523 217.689 166.467 217.612C166.41 217.535 166.302 217.515 166.221 217.568C166.217 217.568 166.217 217.572 166.213 217.572L166.205 217.58Z" fill="#4AA5A2"/>
<path d="M275.704 228.629C274.279 225.722 270.791 222.552 268.964 219.838C267.142 217.12 265.452 214.265 264.719 211.16C263.987 208.055 264.317 204.639 266.276 202.09C268.236 199.542 272.03 198.13 275.253 199.264C277.969 200.219 279.764 202.679 280.862 205.167C284.383 213.108 282.25 222.794 275.704 228.629Z" fill="#63D1CA"/>
<path d="M269.33 199.695C269.33 199.695 269.52 200.01 269.85 200.554C270.179 201.107 270.622 201.873 271.113 202.841C271.366 203.32 271.616 203.845 271.873 204.409C272.139 204.966 272.38 205.571 272.642 206.192C273.137 207.442 273.6 208.793 273.998 210.164C274.376 211.539 274.694 212.926 274.923 214.241C275.02 214.898 275.137 215.535 275.197 216.14C275.269 216.745 275.33 217.318 275.362 217.85C275.446 218.911 275.466 219.798 275.47 220.419C275.47 221.04 275.47 221.395 275.47 221.395C275.47 221.395 275.487 221.04 275.515 220.423C275.539 219.802 275.559 218.915 275.523 217.85C275.515 217.318 275.475 216.741 275.43 216.128C275.394 215.515 275.31 214.874 275.241 214.208C275.068 212.882 274.815 211.47 274.489 210.067C274.147 208.668 273.74 207.28 273.29 205.998C273.052 205.361 272.835 204.74 272.59 204.163C272.352 203.583 272.123 203.038 271.885 202.542C271.435 201.546 271 200.715 270.699 200.159C270.393 199.598 270.216 199.28 270.216 199.28C270.091 199.05 269.789 198.953 269.544 199.066C269.298 199.179 269.202 199.453 269.326 199.683C269.326 199.683 269.33 199.691 269.33 199.695Z" fill="#4AA5A2"/>
<path d="M271.483 202.961C271.483 202.961 272.082 203.078 272.911 203.361C273.756 203.639 274.843 204.127 275.853 204.744C276.863 205.361 277.784 206.099 278.395 206.728C279.015 207.349 279.349 207.825 279.349 207.825C279.349 207.825 279.043 207.333 278.46 206.68C277.884 206.018 276.991 205.224 276.005 204.546C275.016 203.869 273.929 203.308 273.072 202.978C272.207 202.635 271.62 202.49 271.62 202.49L271.596 202.486C271.451 202.449 271.306 202.53 271.27 202.663C271.233 202.796 271.322 202.933 271.467 202.97C271.471 202.957 271.479 202.961 271.483 202.961Z" fill="#4AA5A2"/>
<path d="M274.006 209.845C274.006 209.845 274.464 210.019 275.104 210.329C275.752 210.644 276.589 211.124 277.369 211.676C278.146 212.232 278.87 212.862 279.325 213.402C279.792 213.934 280.005 214.354 280.005 214.354C280.005 214.354 279.824 213.926 279.397 213.354C278.979 212.777 278.299 212.091 277.55 211.474C276.798 210.861 275.985 210.313 275.342 209.946C274.694 209.571 274.247 209.369 274.247 209.369L274.231 209.361C274.09 209.297 273.917 209.349 273.853 209.482C273.788 209.611 273.849 209.769 273.994 209.833C273.994 209.841 274.002 209.845 274.006 209.845Z" fill="#4AA5A2"/>
<path d="M275.205 216.023C275.205 216.023 275.502 216.205 275.905 216.511C276.311 216.818 276.822 217.269 277.289 217.761C277.752 218.257 278.158 218.794 278.407 219.225C278.665 219.657 278.778 219.967 278.778 219.967C278.778 219.967 278.685 219.648 278.456 219.205C278.234 218.757 277.856 218.189 277.422 217.66C276.987 217.132 276.496 216.644 276.098 216.305C275.7 215.959 275.414 215.761 275.414 215.761L275.406 215.753C275.325 215.696 275.217 215.713 275.16 215.785C275.104 215.858 275.12 215.959 275.201 216.015C275.201 216.019 275.201 216.019 275.205 216.023Z" fill="#4AA5A2"/>
<path d="M271.379 202.691C271.379 202.691 270.912 203.042 270.296 203.691C269.681 204.325 268.98 205.256 268.421 206.26C267.866 207.264 267.451 208.329 267.25 209.152C267.041 209.974 266.997 210.535 266.997 210.535C266.997 210.535 267.073 209.974 267.331 209.172C267.58 208.365 268.051 207.337 268.655 206.385C269.262 205.433 270.002 204.562 270.63 203.982C271.242 203.405 271.733 203.074 271.733 203.074C271.849 202.994 271.873 202.841 271.785 202.728C271.696 202.615 271.527 202.59 271.407 202.671C271.403 202.675 271.399 202.675 271.395 202.679L271.379 202.691Z" fill="#4AA5A2"/>
<path d="M273.905 209.442C273.905 209.442 273.599 209.789 273.193 210.369C272.787 210.942 272.312 211.741 271.93 212.575C271.551 213.41 271.266 214.285 271.165 214.963C271.052 215.636 271.097 216.096 271.097 216.096C271.097 216.096 271.089 215.636 271.254 214.983C271.407 214.325 271.753 213.487 272.191 212.692C272.63 211.902 273.157 211.156 273.591 210.632C274.018 210.111 274.352 209.785 274.352 209.785C274.46 209.68 274.452 209.515 274.336 209.414C274.219 209.313 274.042 209.317 273.933 209.418C273.929 209.422 273.925 209.426 273.921 209.43L273.905 209.442Z" fill="#4AA5A2"/>
<path d="M275.161 215.805C275.161 215.805 274.971 216.076 274.738 216.519C274.501 216.959 274.239 217.564 274.038 218.189C273.841 218.814 273.716 219.459 273.688 219.947C273.652 220.435 273.692 220.761 273.692 220.761C273.692 220.761 273.676 220.435 273.744 219.955C273.805 219.475 273.974 218.846 274.207 218.245C274.444 217.644 274.742 217.068 275 216.656C275.253 216.249 275.458 215.987 275.458 215.987C275.515 215.914 275.499 215.813 275.418 215.757C275.338 215.705 275.229 215.717 275.173 215.789C275.169 215.793 275.169 215.793 275.169 215.797L275.161 215.805Z" fill="#4AA5A2"/>
<path d="M149.009 46.5C149.009 46.5 152.465 22.8488 133.888 15.2231C115.315 7.60146 103.007 14.6666 97.8606 21.5301C98.9792 20.038 104.572 20.3364 106.189 20.5018C110.253 20.9131 114.265 22.2035 117.303 24.8852C123.925 30.7245 122.819 39.3905 118.365 45.5725L149.009 46.5Z" fill="#FBF5EB"/>
<path d="M101.438 20.8204C102.065 18.1064 100.102 15.332 97.048 14.6223C93.9981 13.9125 91.0126 15.5377 90.3849 18.2556C89.7572 20.9696 91.7208 23.744 94.7747 24.4538C97.8246 25.1635 100.81 23.5384 101.438 20.8204Z" fill="#FA6E5A"/>
<path d="M148.522 34.2771C148.908 36.2572 149.113 38.1444 149.202 39.8139C140.382 36.6322 130.456 36.1442 121.604 38.4267C121.994 36.6483 122.087 34.8377 121.829 33.0593C130.472 31.2245 139.871 31.6519 148.522 34.2771Z" fill="#FA6E5A"/>
<path d="M143.456 22.4779C144.856 24.3046 145.931 26.2725 146.747 28.2687C138.061 26.1395 128.834 26.5306 120.683 29.297C119.93 27.7364 118.848 26.2564 117.351 24.9256C125.463 21.9536 134.604 21.1108 143.456 22.4779Z" fill="#FA6E5A"/>
<path d="M106.729 20.5663C111.082 16.5821 116.578 13.7068 122.586 12.1704C126.046 12.5858 129.816 13.5496 133.888 15.2231C134.524 15.4852 135.127 15.7675 135.715 16.0659C127.619 15.4731 119.371 17.804 113.211 22.2923C111.179 21.3849 108.97 20.8365 106.729 20.5663Z" fill="#FA6E5A"/>
<path d="M122.678 167.519L120.047 165.111C120.011 163.889 119.938 162.672 119.838 161.462C119.806 161.095 119.484 160.829 119.122 160.853C118.755 160.885 118.486 161.208 118.514 161.571C118.611 162.736 118.679 163.91 118.715 165.083C118.711 165.087 118.703 165.091 118.699 165.099L116.192 168.063C115.955 168.345 115.991 168.765 116.269 169.003C116.394 169.108 116.546 169.16 116.699 169.16C116.888 169.16 117.074 169.079 117.206 168.926L118.747 167.103C118.747 167.491 118.751 167.882 118.743 168.269C118.743 168.285 118.739 168.305 118.739 168.321V168.527C118.735 168.894 119.029 169.192 119.395 169.2C119.399 169.2 119.403 169.2 119.403 169.2C119.765 169.2 120.059 168.91 120.067 168.547C120.075 168.015 120.079 167.482 120.075 166.95L121.777 168.507C121.906 168.624 122.067 168.68 122.224 168.68C122.405 168.68 122.582 168.608 122.715 168.462C122.968 168.188 122.948 167.765 122.678 167.519Z" fill="#6C97A3"/>
<path d="M102.782 165.135C102.758 163.28 102.693 161.365 102.576 159.978C102.544 159.611 102.222 159.345 101.86 159.369C101.494 159.401 101.225 159.724 101.253 160.087C101.361 161.401 101.426 163.256 101.45 165.051C101.434 165.067 101.422 165.079 101.406 165.091L98.8989 168.055C98.6615 168.337 98.6977 168.757 98.9754 168.995C99.1001 169.1 99.253 169.152 99.4059 169.152C99.595 169.152 99.7801 169.071 99.9129 168.918L101.462 167.087C101.462 167.499 101.458 167.894 101.454 168.261C101.454 168.277 101.45 168.297 101.45 168.313V168.519C101.446 168.886 101.74 169.184 102.106 169.192C102.11 169.192 102.114 169.192 102.114 169.192C102.476 169.192 102.77 168.902 102.778 168.539C102.786 168.047 102.79 167.511 102.794 166.946L104.492 168.499C104.62 168.616 104.781 168.672 104.938 168.672C105.119 168.672 105.296 168.599 105.429 168.454C105.675 168.184 105.659 167.761 105.385 167.515L102.782 165.135Z" fill="#6C97A3"/>
<path d="M175.162 82.2411C174.905 71.3652 172.873 62.5176 168.946 55.1823C165.28 48.3349 159.695 42.9595 153.628 40.4431C144.273 36.5637 134.721 35.2773 126.006 36.721C116.212 38.3461 107.594 43.516 102.363 50.9037C95.8811 60.0618 94.8229 71.712 93.805 82.9791L93.6521 84.6405C92.618 95.8754 90.8195 108.57 82.4584 117.051C80.2012 119.341 75.562 123.023 69.8686 121.958C68.7098 121.741 67.6436 121.366 66.694 120.837C66.348 120.644 65.9818 120.418 65.6438 120.184C66.6216 117.688 67.1929 115.067 67.3337 112.385C67.4021 111.054 67.374 109.348 66.533 107.969C66.1307 107.312 65.3984 106.659 64.5494 106.804C63.7648 106.937 63.2055 107.675 62.9319 108.941C62.4451 111.183 62.4531 113.55 62.9239 115.821L60.8316 110.639C60.5942 110.05 60.3246 109.381 59.7975 108.909C59.2785 108.445 58.3812 108.203 57.7495 108.675C57.2868 109.022 57.0776 109.639 57.1098 110.562C57.1822 112.824 58.0151 115.006 59.3549 116.813C58.1117 115.873 56.8281 114.982 55.5124 114.155C54.6353 113.603 53.4966 113.034 52.4907 113.542C51.859 113.865 51.4405 114.595 51.4285 115.401C51.4164 116.03 51.6337 116.704 52.0722 117.41C53.2069 119.232 55.3193 120.543 57.8662 121.007C58.7112 121.16 59.5601 121.22 60.3971 121.22C61.4915 121.22 62.5658 121.116 63.5837 120.982C62.9882 129.415 69.2369 138.557 74.8538 144.964C75.6103 145.827 76.4069 146.67 77.2237 147.469C84.5708 154.667 93.9257 159.393 104.274 161.135C107.212 161.631 110.165 161.873 113.114 161.873C120.389 161.873 127.619 160.377 134.395 157.437C152.763 149.461 167.453 132.06 171.818 113.099C174.269 102.449 175.395 92.0646 175.162 82.2411Z" fill="#A2E0C1"/>
<path d="M115.5 106.441C112.213 104.945 108.692 105.324 106.318 105.909C102.508 106.844 98.7097 108.945 95.024 112.155C91.7569 115.006 88.9404 118.385 86.2164 121.652C85.5968 122.394 84.8926 123.237 84.5788 124.253C84.277 125.213 84.3736 126.515 85.2628 127.257C86.0876 127.947 87.2384 127.894 88.1517 127.777C90.8315 127.423 93.3985 126.435 95.6236 124.93C93.5353 127.346 91.3827 130.245 89.3789 133.359C88.9886 133.963 88.1839 135.468 89.1415 136.335C89.894 137.016 91.2338 136.81 92.1592 136.331C96.0782 134.298 99.4862 132.165 103.091 129.907C103.353 129.745 103.614 129.58 103.876 129.415C103.763 129.528 103.655 129.64 103.542 129.753C101.027 132.302 98.428 134.935 96.6737 138.008C96.1828 138.867 95.696 139.787 95.5672 140.807C95.4224 141.964 95.8408 143.077 96.6254 143.642C97.1364 144.009 97.7319 144.138 98.3314 144.138C98.9108 144.138 99.4943 144.021 100.009 143.888C104.54 142.734 109.095 140.008 113.557 135.786C118.578 131.032 121.536 126.12 122.344 121.196C123.358 115.022 120.417 108.679 115.5 106.441Z" fill="#87C7A7"/>
<path d="M132.959 64.2798C132.484 64.3967 132.19 64.8766 132.307 65.3525C132.633 66.6913 132.11 68.2237 131.039 69.0867C129.969 69.9496 128.36 70.123 127.128 69.5141C125.897 68.9052 125.056 67.518 125.088 66.1429C125.101 65.6509 124.71 65.2476 124.223 65.2355C123.741 65.2275 123.33 65.6146 123.318 66.1025C123.274 68.1793 124.489 70.1876 126.348 71.107C127.092 71.474 127.909 71.6554 128.73 71.6554C129.957 71.6554 131.184 71.2522 132.154 70.4739C133.767 69.1754 134.524 66.9494 134.033 64.9331C133.916 64.4572 133.433 64.1628 132.959 64.2798Z" fill="#3F4553"/>
<path d="M162.999 64.9331C162.882 64.4572 162.403 64.1628 161.929 64.2798C161.454 64.3967 161.16 64.8766 161.277 65.3525C161.603 66.6913 161.08 68.2237 160.009 69.0867C158.939 69.9496 157.33 70.123 156.098 69.5141C154.867 68.9052 154.026 67.518 154.058 66.1429C154.07 65.6509 153.68 65.2476 153.193 65.2355C152.706 65.2275 152.3 65.6146 152.288 66.1025C152.244 68.1753 153.459 70.1876 155.318 71.107C156.062 71.474 156.879 71.6554 157.7 71.6554C158.927 71.6554 160.154 71.2522 161.124 70.4739C162.733 69.1754 163.49 66.9494 162.999 64.9331Z" fill="#3F4553"/>
<path d="M161.333 89.3062C161.095 88.7497 160.641 88.2698 160.319 87.9593C159.828 87.4835 159.333 87.0117 158.838 86.5399C157.225 85.0034 155.418 83.4509 153.157 81.6523C152.956 81.491 152.734 81.3015 152.505 81.0999C151.564 80.2772 150.389 79.257 149.19 79.257C148.755 79.257 148.385 79.4828 147.991 79.7247L147.862 79.8014C147.17 80.2207 146.546 80.7369 146.011 81.3418C145.138 82.3177 144.084 83.8824 143.967 85.072C143.963 85.1244 143.959 85.1768 143.959 85.2293C143.959 85.2696 143.959 85.3059 143.963 85.3462C144.039 86.4794 144.993 87.2335 145.838 87.8988C146.007 88.0319 146.168 88.161 146.317 88.286C147.323 89.1409 148.518 90.1369 149.781 91.0241C152.026 92.6009 154.593 93.8349 157.418 94.6898C157.551 94.7301 157.696 94.7543 157.844 94.7543C158.122 94.7543 158.396 94.6656 158.541 94.4115C158.665 94.1938 158.71 93.8228 158.207 93.2985L153.028 87.8827C154.231 88.3223 155.426 88.7376 156.653 89.0965C157.49 89.3425 158.267 89.5361 159.019 89.6893C159.072 89.7014 159.164 89.7256 159.281 89.7619C160.053 89.9837 160.842 90.1813 161.196 89.9635C161.301 89.899 161.369 89.8063 161.393 89.6893C161.421 89.5401 161.377 89.4111 161.333 89.3062Z" fill="#3F4553"/>
<path d="M131.647 77.4744C129.639 76.3534 125.833 77.0228 124.236 78.3415C123.861 78.6479 123.242 79.2932 123.274 80.144C123.294 80.7409 123.66 81.3417 124.272 81.8014C125.169 82.4668 126.392 82.8136 127.64 82.8136C128.541 82.8136 129.45 82.6322 130.255 82.2652C130.983 81.9305 131.567 81.4748 131.981 80.9022C132.472 80.2247 132.681 79.3657 132.528 78.6641C132.42 78.1439 132.114 77.7325 131.647 77.4744Z" fill="#86D1AB"/>
<path d="M166.423 77.8414C166.31 77.3253 166.005 76.9139 165.538 76.6518C163.53 75.5308 159.724 76.2002 158.126 77.5188C157.752 77.8253 157.133 78.4705 157.165 79.3214C157.185 79.9182 157.551 80.5191 158.163 80.9788C159.06 81.6442 160.283 81.991 161.53 81.991C162.432 81.991 163.341 81.8095 164.146 81.4426C164.874 81.1079 165.457 80.6522 165.872 80.0795C166.367 79.4021 166.576 78.5431 166.423 77.8414Z" fill="#86D1AB"/>
<path d="M137.578 132.213C137.067 132.645 136.423 133.181 135.783 133.403C135.212 133.6 135.103 133.407 134.93 132.907C134.789 132.512 134.753 132.112 134.753 131.693C134.757 130.834 133.425 130.834 133.425 131.693C133.421 132.778 133.743 134.58 135.015 134.863C136.23 135.133 137.666 133.879 138.519 133.157C139.175 132.604 138.229 131.665 137.578 132.213Z" fill="#A6D4E0"/>
<path d="M146.063 132.733C145.552 133.064 145.029 133.371 144.482 133.637C144.088 133.83 143.508 134.165 143.001 134.254C142.772 133.79 142.74 132.883 142.667 132.52C142.502 131.681 141.223 132.036 141.384 132.875C141.573 133.838 141.577 135.742 142.997 135.617C144.233 135.508 145.725 134.54 146.735 133.887C147.451 133.419 146.783 132.266 146.063 132.733Z" fill="#A6D4E0"/>
<path d="M154.187 134.064C153.922 134.237 153.66 134.411 153.394 134.584C153.153 134.742 152.819 135.056 152.541 135.121C152.465 135.137 152.441 135.157 152.437 135.169C152.429 135.161 152.417 135.153 152.393 135.137C152.304 135.08 152.236 134.83 152.199 134.742C152.067 134.403 152.002 134.056 151.982 133.693C151.934 132.842 150.606 132.834 150.654 133.693C150.707 134.604 150.964 136.028 151.922 136.423C152.936 136.838 154.082 135.73 154.863 135.217C155.571 134.746 154.907 133.592 154.187 134.064Z" fill="#A6D4E0"/>
<path d="M137.867 140.44C137.264 140.847 136.66 141.254 136.057 141.658C135.759 141.855 135.522 142.137 135.135 141.831C134.854 141.609 134.83 140.996 134.822 140.678C134.809 139.823 133.482 139.819 133.494 140.678C133.506 141.666 133.96 143.21 135.127 143.379C135.63 143.452 136.057 143.234 136.471 142.98C137.175 142.545 137.851 142.053 138.543 141.589C139.247 141.117 138.584 139.964 137.867 140.44Z" fill="#A6D4E0"/>
<path d="M146.864 141.742C146.176 142.295 145.403 142.92 144.518 143.105C143.303 143.359 143.122 142.585 143.166 141.581C143.202 140.722 141.875 140.726 141.838 141.581C141.782 142.908 142.132 144.246 143.629 144.46C145.238 144.686 146.622 143.634 147.805 142.69C148.473 142.15 147.528 141.21 146.864 141.742Z" fill="#A6D4E0"/>
<path d="M138.865 148.485C138.29 148.936 137.453 149.271 136.712 149.146C135.988 149.025 136.105 148.21 136.193 147.642C136.322 146.803 135.043 146.44 134.91 147.287C134.737 148.408 134.725 149.807 135.956 150.319C137.24 150.856 138.789 150.223 139.803 149.424C140.479 148.9 139.533 147.96 138.865 148.485Z" fill="#A6D4E0"/>
<path d="M138.406 113.502C137.815 114.308 137.018 115.341 135.908 115.321C134.64 115.3 134.532 113.925 134.483 112.949C134.443 112.094 133.111 112.09 133.156 112.949C133.232 114.502 133.614 116.276 135.393 116.607C137.236 116.946 138.567 115.514 139.553 114.171C140.06 113.486 138.905 112.82 138.406 113.502Z" fill="#A6D4E0"/>
<path d="M147.898 113.691C147.242 114.482 146.482 115.151 145.557 115.607C145.09 115.837 144.973 115.901 144.454 115.708C143.923 115.51 143.931 115.429 143.782 114.933C143.633 114.437 143.549 113.929 143.476 113.417C143.356 112.57 142.076 112.933 142.193 113.772C142.39 115.167 142.764 117.293 144.563 117.276C146.192 117.264 147.858 115.813 148.836 114.631C149.379 113.978 148.446 113.03 147.898 113.691Z" fill="#A6D4E0"/>
<path d="M156.545 115.256C155.966 115.772 155.008 116.627 154.203 116.76C153.205 116.926 152.96 115.05 152.891 114.373C152.803 113.53 151.471 113.518 151.564 114.373C151.692 115.611 152.067 117.603 153.447 118.071C154.819 118.535 156.549 117.03 157.486 116.2C158.122 115.627 157.181 114.687 156.545 115.256Z" fill="#A6D4E0"/>
<path d="M165.168 115.982C164.745 116.284 164.323 116.591 163.9 116.893C163.61 117.103 163.047 117.68 162.685 117.708C161.574 117.805 161.405 115.7 161.49 115.026C161.599 114.179 160.267 114.187 160.162 115.026C159.989 116.393 160.496 118.16 161.8 118.853C163.228 119.611 164.789 117.889 165.839 117.131C166.528 116.639 165.864 115.482 165.168 115.982Z" fill="#A6D4E0"/>
<path d="M138.04 123.353C137.517 123.862 136.049 125.055 135.409 124.228C134.93 123.612 134.854 122.494 134.673 121.761C134.471 120.926 133.188 121.281 133.389 122.115C133.675 123.293 133.832 125.075 135.079 125.676C136.411 126.313 138.052 125.192 138.978 124.301C139.597 123.7 138.656 122.761 138.04 123.353Z" fill="#A6D4E0"/>
<path d="M147.081 124.196C146.554 124.692 145.58 125.987 144.804 125.922C143.734 125.829 143.524 124.398 143.363 123.563C143.203 122.72 141.923 123.079 142.08 123.918C142.341 125.289 142.844 126.842 144.365 127.221C145.886 127.604 147.041 126.055 148.015 125.14C148.646 124.551 147.705 123.612 147.081 124.196Z" fill="#A6D4E0"/>
<path d="M155.527 125.112C155.201 125.434 154.871 125.749 154.529 126.047C154.332 126.221 153.704 126.926 153.451 126.93C152.763 126.943 152.537 125.511 152.557 125.031C152.59 124.172 151.262 124.176 151.23 125.031C151.185 126.197 151.753 127.797 152.964 128.225C153.519 128.419 153.974 128.205 154.416 127.866C155.141 127.31 155.821 126.701 156.472 126.055C157.076 125.451 156.134 124.511 155.527 125.112Z" fill="#A6D4E0"/>
<path d="M163.723 125.104C163.324 125.612 162.898 126.16 162.302 126.442C161.699 126.729 160.52 126.624 160.818 125.676C161.075 124.858 159.796 124.507 159.534 125.321C159.148 126.547 160.033 127.757 161.272 127.922C162.721 128.116 163.835 127.096 164.664 126.043C165.187 125.382 164.254 124.43 163.723 125.104Z" fill="#A6D4E0"/>
<path d="M101.096 138.629C100.931 138.351 100.472 138.169 100.186 138.391C99.5789 138.863 98.9673 139.331 98.3597 139.803C98.074 140.02 97.9252 140.375 98.1223 140.714C98.2873 140.992 98.746 141.174 99.0317 140.952C99.6392 140.48 100.251 140.012 100.858 139.541C101.14 139.323 101.293 138.968 101.096 138.629Z" fill="#598E9C"/>
<path d="M112.446 133.572C112.281 133.286 111.827 133.121 111.537 133.334C110.801 133.879 110.06 134.419 109.324 134.964C109.034 135.177 108.894 135.54 109.087 135.875C109.252 136.161 109.706 136.327 109.996 136.113C110.732 135.568 111.473 135.028 112.209 134.484C112.499 134.27 112.64 133.907 112.446 133.572Z" fill="#598E9C"/>
<path d="M105.365 137.895C104.894 138.355 104.343 138.673 103.715 138.855C102.894 139.093 103.244 140.375 104.069 140.141C104.918 139.895 105.675 139.456 106.306 138.839C106.918 138.238 105.976 137.294 105.365 137.895Z" fill="#598E9C"/>
<path d="M90.9844 119.922C90.3366 120.446 89.5963 120.858 88.8116 121.144C88.011 121.43 88.357 122.721 89.1657 122.43C90.1797 122.063 91.089 121.547 91.9259 120.866C92.5898 120.325 91.6443 119.386 90.9844 119.922Z" fill="#598E9C"/>
<path d="M97.0559 115.111C96.2231 115.567 95.3942 116.018 94.5613 116.474C93.8089 116.885 94.4808 118.035 95.2333 117.623C96.0661 117.168 96.895 116.716 97.7279 116.26C98.4763 115.849 97.8083 114.7 97.0559 115.111Z" fill="#598E9C"/>
<path d="M100.243 119.486C100.154 119.168 99.7597 118.889 99.4257 119.022C98.8463 119.248 98.2669 119.474 97.6835 119.696C97.3496 119.825 97.1162 120.144 97.2208 120.515C97.3093 120.833 97.7036 121.111 98.0376 120.978C98.617 120.752 99.1964 120.527 99.7798 120.305C100.114 120.176 100.343 119.857 100.243 119.486Z" fill="#598E9C"/>
<path d="M104.029 109.84C103.264 110.3 102.468 110.691 101.631 111.002C100.834 111.296 101.18 112.583 101.985 112.288C102.93 111.937 103.836 111.514 104.701 110.994C105.433 110.55 104.769 109.397 104.029 109.84Z" fill="#598E9C"/>
<path d="M107.823 113.163C106.749 113.732 105.634 114.167 104.467 114.494C103.643 114.724 103.993 116.006 104.822 115.78C106.097 115.425 107.324 114.938 108.495 114.317C109.252 113.913 108.584 112.764 107.823 113.163Z" fill="#598E9C"/>
<path d="M111.541 107.634C110.664 107.921 109.827 108.304 109.046 108.792C108.322 109.243 108.986 110.397 109.718 109.941C110.406 109.514 111.127 109.171 111.899 108.917C112.704 108.651 112.358 107.364 111.541 107.634Z" fill="#598E9C"/>
<path d="M116.562 110.873C115.878 111.042 115.194 111.211 114.51 111.377C113.681 111.582 114.031 112.865 114.864 112.663C115.548 112.494 116.232 112.324 116.916 112.159C117.745 111.953 117.391 110.667 116.562 110.873Z" fill="#598E9C"/>
<path d="M113.328 117.591C112.495 117.801 111.662 118.014 110.829 118.224C110 118.434 110.35 119.72 111.183 119.511C112.016 119.301 112.849 119.087 113.682 118.877C114.507 118.664 114.157 117.381 113.328 117.591Z" fill="#598E9C"/>
<path d="M106.206 120.724C105.401 121.228 104.58 121.7 103.739 122.14C102.979 122.535 103.651 123.684 104.411 123.289C105.252 122.85 106.073 122.378 106.878 121.874C107.598 121.422 106.934 120.269 106.206 120.724Z" fill="#598E9C"/>
<path d="M99.1646 126.055C98.6294 126.519 98.0178 126.902 97.362 127.173C97.028 127.31 96.7947 127.616 96.8993 127.991C96.9838 128.306 97.3821 128.592 97.7161 128.455C98.5972 128.096 99.3818 127.62 100.102 126.999C100.75 126.439 99.8083 125.499 99.1646 126.055Z" fill="#598E9C"/>
<path d="M94.1229 131.427C93.5274 131.818 92.936 132.209 92.3405 132.6C91.6283 133.068 92.2922 134.221 93.0124 133.75C93.6079 133.359 94.1994 132.967 94.7949 132.576C95.507 132.108 94.8391 130.955 94.1229 131.427Z" fill="#598E9C"/>
<path d="M108.6 126.612C108.061 126.765 107.517 126.914 106.978 127.068C106.157 127.297 106.503 128.584 107.332 128.354C107.871 128.201 108.415 128.052 108.954 127.898C109.775 127.664 109.425 126.378 108.6 126.612Z" fill="#598E9C"/>
<path d="M114.466 122.043C113.746 122.523 112.989 122.87 112.153 123.096C111.328 123.321 111.678 124.604 112.507 124.382C113.44 124.128 114.329 123.733 115.138 123.196C115.846 122.725 115.182 121.567 114.466 122.043Z" fill="#598E9C"/>
<path d="M120.26 115.792C119.427 116.01 118.598 116.232 117.765 116.45C116.941 116.668 117.291 117.954 118.119 117.736L120.614 117.079C121.443 116.857 121.089 115.571 120.26 115.792Z" fill="#598E9C"/>
<path d="M118.622 124.148L116.301 125.834C115.617 126.334 116.277 127.487 116.973 126.983L119.294 125.297C119.978 124.801 119.318 123.644 118.622 124.148Z" fill="#598E9C"/>
<path d="M112.744 129.374C112.044 129.81 111.316 130.12 110.519 130.322C109.69 130.536 110.04 131.818 110.873 131.608C111.771 131.378 112.628 131.011 113.412 130.524C114.14 130.076 113.477 128.923 112.744 129.374Z" fill="#598E9C"/>
<path d="M105.067 132.044C104.303 132.508 103.51 132.919 102.685 133.254C102.351 133.391 102.122 133.697 102.222 134.072C102.307 134.391 102.709 134.673 103.039 134.536C103.973 134.157 104.874 133.717 105.739 133.193C106.471 132.754 105.803 131.6 105.067 132.044Z" fill="#598E9C"/>
<path d="M173.009 107.388C172.655 109.284 172.257 111.191 171.818 113.107C169.412 123.559 163.864 133.536 156.291 141.722C156.247 142.347 156.211 142.972 156.183 143.597C156.142 144.46 156.134 145.299 156.452 146.069C156.75 146.787 157.47 147.533 158.384 147.533C158.42 147.533 158.456 147.533 158.492 147.529C159.498 147.465 160.17 146.553 160.588 145.876C161.405 144.549 162.077 143.065 162.54 141.597C162.54 142.238 162.564 142.883 162.616 143.521C162.701 144.577 163.051 145.214 163.654 145.416C164.117 145.569 164.676 145.408 165.079 144.997C165.429 144.646 165.618 144.182 165.767 143.775C166.278 142.4 166.624 140.924 166.789 139.472C166.813 139.617 166.837 139.762 166.869 139.907C167.07 140.787 167.646 141.621 168.334 142.033C168.809 142.319 169.32 142.396 169.811 142.258C170.539 142.057 171.114 141.42 171.573 140.315C172.39 138.335 172.663 136.238 172.897 134.08C173.657 127.023 173.911 119.853 173.653 112.76C173.593 110.973 173.472 109.122 173.009 107.388Z" fill="#87C7A7"/>
<path d="M163.638 137.742V139.295C163.638 140.153 164.966 140.153 164.966 139.295V137.742C164.966 136.883 163.638 136.883 163.638 137.742Z" fill="#598E9C"/>
<path d="M160.536 138.686V140.016C160.536 140.875 161.864 140.875 161.864 140.016V138.686C161.868 137.827 160.536 137.827 160.536 138.686Z" fill="#598E9C"/>
<path d="M157.989 142.347V143.678C157.989 144.537 159.317 144.537 159.317 143.678V142.347C159.317 141.488 157.989 141.488 157.989 142.347Z" fill="#598E9C"/>
<path d="M171.834 114.595V116.704C171.834 117.563 173.162 117.563 173.162 116.704V114.595C173.166 113.736 171.834 113.736 171.834 114.595Z" fill="#598E9C"/>
<path d="M171.613 120.144V122.696C171.613 123.555 172.941 123.555 172.941 122.696V120.144C172.941 119.289 171.613 119.285 171.613 120.144Z" fill="#598E9C"/>
<path d="M171.183 126.253C171.134 126.955 171.086 127.656 171.042 128.362C170.985 129.217 172.313 129.213 172.37 128.362C172.418 127.66 172.466 126.959 172.51 126.253C172.567 125.394 171.239 125.398 171.183 126.253Z" fill="#598E9C"/>
<path d="M170.752 131.58C170.37 131.58 170.116 131.887 170.088 132.245C170.048 132.762 170.008 133.282 169.967 133.798C169.939 134.157 170.293 134.463 170.631 134.463C171.014 134.463 171.267 134.157 171.295 133.798C171.335 133.282 171.376 132.762 171.416 132.245C171.444 131.887 171.09 131.58 170.752 131.58Z" fill="#598E9C"/>
<path d="M169.147 123.946C168.825 123.858 168.39 124.055 168.33 124.41C168.197 125.168 168.141 125.926 168.181 126.693C168.225 127.544 169.557 127.552 169.509 126.693C169.473 126.047 169.497 125.402 169.609 124.765C169.674 124.41 169.517 124.047 169.147 123.946Z" fill="#598E9C"/>
<path d="M167.071 132.246V133.576C167.071 134.435 168.398 134.435 168.398 133.576V132.246C168.402 131.387 167.071 131.387 167.071 132.246Z" fill="#598E9C"/>
<path d="M168.624 137.685V139.351C168.624 140.21 169.951 140.21 169.951 139.351V137.685C169.951 136.827 168.624 136.827 168.624 137.685Z" fill="#598E9C"/>
<path d="M165.296 132.58C165.268 132.221 165.011 131.915 164.632 131.915C164.294 131.915 163.94 132.221 163.969 132.58C164.005 133.044 163.985 133.5 163.888 133.959C163.816 134.31 163.993 134.681 164.351 134.778C164.681 134.871 165.095 134.665 165.168 134.314C165.292 133.738 165.341 133.161 165.296 132.58Z" fill="#598E9C"/>
<path d="M177.101 106.481C177.439 108.284 177.814 110.095 178.236 111.917C180.521 121.85 185.792 131.326 192.987 139.105C193.027 139.698 193.063 140.295 193.091 140.884C193.127 141.706 193.135 142.501 192.838 143.231C192.556 143.912 191.868 144.618 191.003 144.618C190.967 144.618 190.934 144.618 190.898 144.614C189.941 144.553 189.305 143.686 188.907 143.041C188.13 141.779 187.494 140.371 187.052 138.976C187.052 139.585 187.028 140.198 186.979 140.803C186.899 141.807 186.565 142.412 185.994 142.605C185.555 142.751 185.024 142.597 184.642 142.21C184.312 141.876 184.131 141.436 183.986 141.049C183.499 139.742 183.173 138.339 183.012 136.96C182.992 137.101 182.964 137.238 182.936 137.375C182.746 138.21 182.199 139.004 181.543 139.396C181.089 139.666 180.606 139.742 180.139 139.609C179.447 139.416 178.9 138.815 178.465 137.762C177.689 135.883 177.427 133.891 177.21 131.842C176.49 125.14 176.248 118.325 176.49 111.591C176.546 109.889 176.659 108.131 177.101 106.481Z" fill="#D9A4D1"/>
<path d="M186.002 135.318V136.794C186.002 137.609 184.738 137.609 184.738 136.794V135.318C184.742 134.504 186.002 134.5 186.002 135.318Z" fill="#B98BB2"/>
<path d="M188.951 136.214V137.48C188.951 138.294 187.688 138.294 187.688 137.48V136.214C187.687 135.399 188.951 135.399 188.951 136.214Z" fill="#B98BB2"/>
<path d="M191.369 139.694V140.96C191.369 141.775 190.106 141.775 190.106 140.96V139.694C190.106 138.879 191.369 138.879 191.369 139.694Z" fill="#B98BB2"/>
<path d="M178.216 113.329V115.333C178.216 116.147 176.953 116.147 176.953 115.333V113.329C176.953 112.514 178.216 112.514 178.216 113.329Z" fill="#B98BB2"/>
<path d="M178.425 118.599V121.023C178.425 121.837 177.162 121.837 177.162 121.023V118.599C177.166 117.789 178.425 117.785 178.425 118.599Z" fill="#B98BB2"/>
<path d="M178.84 124.402C178.884 125.068 178.928 125.737 178.977 126.402C179.033 127.217 177.769 127.213 177.713 126.402C177.669 125.737 177.625 125.068 177.576 124.402C177.52 123.588 178.783 123.592 178.84 124.402Z" fill="#B98BB2"/>
<path d="M179.246 129.467C179.608 129.467 179.85 129.758 179.878 130.1C179.914 130.592 179.954 131.084 179.99 131.576C180.019 131.919 179.681 132.209 179.359 132.209C178.997 132.209 178.755 131.919 178.727 131.576C178.691 131.084 178.651 130.592 178.614 130.1C178.59 129.758 178.924 129.467 179.246 129.467Z" fill="#B98BB2"/>
<path d="M180.767 122.212C181.073 122.128 181.483 122.317 181.544 122.656C181.668 123.378 181.725 124.096 181.684 124.826C181.64 125.636 180.377 125.64 180.421 124.826C180.453 124.213 180.429 123.6 180.324 122.995C180.268 122.656 180.417 122.309 180.767 122.212Z" fill="#B98BB2"/>
<path d="M182.743 130.096V131.362C182.743 132.177 181.479 132.177 181.479 131.362V130.096C181.479 129.282 182.743 129.282 182.743 130.096Z" fill="#B98BB2"/>
<path d="M181.266 135.266V136.847C181.266 137.661 180.002 137.661 180.002 136.847V135.266C180.006 134.451 181.266 134.447 181.266 135.266Z" fill="#B98BB2"/>
<path d="M184.429 130.415C184.453 130.072 184.702 129.782 185.06 129.782C185.382 129.782 185.716 130.072 185.692 130.415C185.66 130.858 185.676 131.29 185.768 131.725C185.837 132.06 185.672 132.411 185.326 132.504C185.012 132.588 184.622 132.399 184.549 132.06C184.433 131.516 184.384 130.967 184.429 130.415Z" fill="#B98BB2"/>
<path d="M213.237 164.817C213.173 164.579 212.984 164.41 212.762 164.354L212.509 156.538C212.497 156.171 212.183 155.873 211.825 155.893C211.459 155.905 211.169 156.212 211.181 156.579L211.423 164.087L207.737 166.063C207.415 166.237 207.29 166.64 207.463 166.967C207.584 167.193 207.813 167.318 208.051 167.318C208.155 167.318 208.264 167.293 208.365 167.241L210.582 166.051L209.238 168.435C209.057 168.753 209.169 169.16 209.487 169.342C209.592 169.402 209.704 169.427 209.813 169.427C210.046 169.427 210.268 169.306 210.393 169.088L212.171 165.938L212.911 168.624C212.992 168.919 213.261 169.112 213.551 169.112C213.611 169.112 213.668 169.104 213.728 169.088C214.082 168.991 214.287 168.624 214.191 168.269L213.237 164.817Z" fill="#D9A4D1"/>
<path d="M231.026 168.269L230.072 164.813C230.008 164.575 229.819 164.406 229.597 164.349L229.344 156.534C229.332 156.167 229.014 155.869 228.66 155.889C228.294 155.901 228.004 156.207 228.016 156.574L228.257 164.083L224.572 166.059C224.25 166.233 224.125 166.636 224.298 166.962C224.419 167.188 224.648 167.313 224.886 167.313C224.99 167.313 225.099 167.289 225.199 167.237L227.416 166.047L226.073 168.43C225.891 168.749 226.004 169.156 226.322 169.338C226.427 169.398 226.539 169.422 226.648 169.422C226.881 169.422 227.103 169.301 227.227 169.084L229.006 165.934L229.746 168.62C229.827 168.914 230.096 169.108 230.386 169.108C230.446 169.108 230.503 169.1 230.563 169.084C230.913 168.991 231.122 168.624 231.026 168.269Z" fill="#D9A4D1"/>
<path d="M204.232 49.4844C204.232 49.4844 201.122 28.1962 217.84 21.3367C234.558 14.4772 245.635 20.8367 250.262 27.0106C249.256 25.6677 244.223 25.9379 242.766 26.0831C239.109 26.4541 235.5 27.6155 232.764 30.027C226.805 35.2815 227.798 43.0806 231.806 48.6456L204.232 49.4844Z" fill="#FBF5EB"/>
<path d="M247.047 26.3774C246.484 23.9337 248.25 21.4375 250.999 20.8003C253.743 20.1632 256.43 21.627 256.994 24.0708C257.557 26.5145 255.791 29.0107 253.043 29.6479C250.294 30.281 247.611 28.8212 247.047 26.3774Z" fill="#FA6E5A"/>
<path d="M204.671 38.4875C204.321 40.2658 204.14 41.9676 204.059 43.4718C211.998 40.6086 220.93 40.1691 228.897 42.2257C228.547 40.6247 228.462 38.9956 228.696 37.3946C220.914 35.7372 212.452 36.1243 204.671 38.4875Z" fill="#FA6E5A"/>
<path d="M209.23 27.8696C207.97 29.5149 207.001 31.2852 206.268 33.0797C214.086 31.1642 222.391 31.515 229.726 34.0032C230.402 32.5998 231.38 31.265 232.727 30.0673C225.425 27.3977 217.192 26.6356 209.23 27.8696Z" fill="#FA6E5A"/>
<path d="M242.283 26.1476C238.364 22.5626 233.415 19.9736 228.012 18.5905C224.897 18.9655 221.505 19.8325 217.84 21.3367C217.269 21.5706 216.721 21.8286 216.198 22.0948C223.485 21.5625 230.909 23.6594 236.453 27.7001C238.276 26.8815 240.268 26.3895 242.283 26.1476Z" fill="#FA6E5A"/>
<path d="M281.807 121.701C281.542 121.2 280.902 120.922 280.25 121.019C279.695 121.104 279.216 121.41 278.782 121.729C277.546 122.64 276.464 123.753 275.414 124.834L271.137 129.233C273.145 126.838 274.939 124.265 276.488 121.547C277.394 119.954 278.231 118.228 278.202 116.402C278.19 115.704 278.045 115.152 277.764 114.712C277.394 114.143 276.778 113.809 276.182 113.865C275.418 113.934 274.883 114.575 274.505 115.127C272.606 117.886 271.688 121.164 270.799 124.338C270.332 125.995 269.853 127.693 269.238 129.322C269.833 127.463 270.364 125.568 270.702 123.636C271.346 119.971 271.205 116.672 270.276 113.825C270.163 113.478 269.998 113.099 269.636 112.938C269.069 112.684 268.497 113.131 268.184 113.595C267.069 115.216 267.141 117.285 267.323 119.442L268.272 130.681C264.864 131.351 261.569 128.62 260.157 127.241C255.896 123.076 255.638 116.636 255.409 110.958L255.389 110.486C255.043 102.05 254.664 94.9723 253.924 87.8507C252.343 72.5792 248.999 55.7955 236.2 47.073C231.452 43.8388 225.381 42.0806 218.645 41.9919C209.479 41.8588 200.973 44.8953 194.045 50.7467C187.498 56.2713 182.658 63.9857 180.043 73.0591C177.266 82.7011 176.949 92.9157 176.985 100.739C177.005 105.348 177.162 109.131 177.476 112.643C177.906 117.446 178.634 121.701 179.705 125.648C184.078 141.775 196.374 154.607 211.793 159.139C216.428 160.502 221.063 161.18 225.63 161.18C232.925 161.18 240.039 159.45 246.661 156.014C257.883 150.199 265.846 141.952 269.813 132.08C274.742 131.23 279.224 128.036 281.562 123.584C281.832 123.08 282.145 122.334 281.807 121.701Z" fill="#ECC6E8"/>
<path d="M254.012 122.503C252.335 118.192 250.303 114.861 247.804 112.308C244.754 109.199 241 107.328 237.226 107.05C232.989 106.739 228.833 108.594 226.628 111.776C223.779 115.889 224.532 121.176 225.236 123.959C226.797 130.149 230.668 135.823 235.858 139.521C236.856 140.23 238.063 140.996 239.459 141.283C239.918 141.376 240.372 141.408 240.811 141.384C241.801 141.327 242.698 140.968 243.346 140.355C245.036 138.754 243.088 134.778 241.817 132.669C242.095 132.891 243.953 134.298 244.251 134.496C245.108 135.06 245.889 135.355 246.637 135.399C247.615 135.46 248.516 135.06 248.991 134.359C249.816 133.145 249.192 131.548 248.56 130.29L246.384 126.632C246.838 127.128 248.206 128.604 248.79 128.947C250.295 129.83 252.6 129.967 253.908 128.483C255.042 127.197 255.079 125.241 254.012 122.503Z" fill="#D9A4D1"/>
<path d="M228.201 84.7535C228.116 83.826 227.517 82.9429 226.595 82.3904C225.883 81.967 224.986 81.7291 223.859 81.6605C222.495 81.5799 221.139 81.7452 219.836 82.1444C219.309 82.3057 218.637 82.5517 218.086 83.0195C217.514 83.5034 217.18 84.1769 217.188 84.818C217.2 85.7738 217.913 86.5077 218.572 86.8747C219.252 87.2497 219.981 87.5562 220.737 87.782C221.739 88.0804 222.789 88.2296 223.819 88.2296C224.125 88.2296 224.431 88.2175 224.733 88.1893C226.535 88.028 228.366 86.6085 228.201 84.7535Z" fill="#D9A4D1"/>
<path d="M193.091 78.4748C192.459 78.0998 191.667 77.886 190.665 77.8296C189.458 77.757 188.259 77.9022 187.104 78.257C186.637 78.4022 186.038 78.62 185.551 79.0313C185.04 79.4628 184.742 80.0637 184.75 80.6363C184.762 81.4912 185.394 82.1485 185.985 82.4752C186.589 82.8099 187.233 83.08 187.901 83.2776C188.786 83.5398 189.715 83.6769 190.629 83.6769C190.898 83.6769 191.172 83.6648 191.437 83.6406C193.047 83.4954 194.672 82.2332 194.523 80.5798C194.447 79.7531 193.912 78.9668 193.091 78.4748Z" fill="#D9A4D1"/>
<path d="M202.917 68.123C202.49 67.994 202.044 68.2319 201.911 68.6553C201.311 70.6071 199.649 72.196 197.678 72.7081C196.909 72.9057 196.205 72.9097 195.642 72.7162C194.857 72.446 194.169 71.7121 193.843 70.8007C193.546 69.9659 193.514 68.9417 193.747 67.8407C193.839 67.4052 193.562 66.9778 193.127 66.885C192.693 66.7923 192.266 67.0705 192.174 67.506C191.876 68.9013 191.928 70.2281 192.327 71.3451C192.817 72.7323 193.864 73.8171 195.123 74.2445C195.574 74.3978 196.052 74.4744 196.563 74.4744C197.046 74.4744 197.553 74.4058 198.08 74.2687C200.583 73.6235 202.687 71.6032 203.448 69.1312C203.581 68.7078 203.339 68.2561 202.917 68.123Z" fill="#3F4553"/>
<path d="M228.422 70.6595C228.39 70.216 228.008 69.8812 227.561 69.9135C227.119 69.9458 226.785 70.3329 226.817 70.7765C226.897 71.8774 226.298 73.0751 225.288 73.8292C224.358 74.5228 223.071 74.8898 221.671 74.8656C220.914 74.8535 220.367 74.7123 220.001 74.4421C219.542 74.1034 219.244 73.4501 219.204 72.692C219.164 71.9056 219.369 71.0709 219.566 70.2644C219.671 69.8329 219.409 69.3933 218.979 69.2885C218.548 69.1836 218.11 69.4457 218.005 69.8772C217.788 70.7563 217.542 71.7484 217.599 72.7767C217.667 74.0308 218.194 75.1116 219.047 75.7406C219.691 76.2165 220.54 76.4544 221.642 76.4746C221.695 76.4746 221.751 76.4746 221.803 76.4746C223.501 76.4746 225.075 75.9947 226.25 75.1196C227.706 74.0348 228.539 72.321 228.422 70.6595Z" fill="#3F4553"/>
<path d="M207.141 88.9233C207.073 88.7782 207.013 88.6411 206.956 88.512C206.526 87.5119 205.987 86.5602 205.347 85.6932C204.341 84.3221 203.267 83.6124 202.16 83.5882C201.444 83.5721 200.76 83.8503 200.128 84.1528C199.082 84.6528 198.113 85.3827 197.179 86.0844C196.72 86.4272 196.246 86.7861 195.775 87.1006C193.542 88.6088 191.397 90.2944 189.405 92.1131C188.951 92.5285 188.818 92.968 189.047 93.2907C189.305 93.6496 189.812 93.5649 190.005 93.5326L195.622 92.5809C194.507 93.456 193.497 94.3996 192.439 95.3916C192.113 95.6941 191.791 96.0006 191.462 96.303C191.184 96.5611 190.93 96.8514 190.955 97.2305C190.991 97.7507 191.526 98.0249 191.977 98.1016C192.17 98.1338 192.363 98.1499 192.556 98.1499C193.59 98.1499 194.596 97.7225 195.429 97.3676L204.019 93.702C204.208 93.6213 204.401 93.5407 204.595 93.46C205.287 93.1697 206.003 92.8713 206.671 92.5083C207.109 92.2704 207.399 91.9922 207.564 91.6574C207.58 91.6252 207.596 91.5889 207.608 91.5566C207.958 90.6856 207.508 89.7097 207.141 88.9233Z" fill="#3F4553"/>
<path d="M216.046 136.895C216.026 137.645 215.921 139.617 214.682 139.21C214.022 138.992 213.547 138.214 212.923 137.879C212.171 137.476 211.499 138.625 212.252 139.028C213.362 139.625 214.058 140.968 215.523 140.504C217.072 140.016 217.333 138.295 217.369 136.895C217.398 136.036 216.07 136.036 216.046 136.895Z" fill="#D9A4D1"/>
<path d="M209.737 149.836C209.632 150.296 209.532 150.755 209.427 151.219C209.379 151.445 209.371 151.784 209.254 151.985C209.198 152.086 209.206 152.126 209.218 152.143C209.202 152.139 209.169 152.135 209.101 152.135C208.795 152.143 208.224 151.719 207.962 151.586C207.548 151.376 207.142 151.155 206.735 150.929C205.987 150.509 205.319 151.659 206.063 152.078C206.711 152.441 207.367 152.788 208.039 153.102C208.514 153.328 209.069 153.667 209.62 153.506C210.091 153.368 210.348 152.953 210.489 152.51C210.727 151.763 210.843 150.953 211.012 150.187C211.205 149.356 209.926 148.997 209.737 149.836Z" fill="#D9A4D1"/>
<path d="M218.03 145.46C217.869 144.618 216.589 144.976 216.746 145.815C216.855 146.396 217.132 147.735 216.287 147.953C215.99 148.029 215.656 147.779 215.414 147.642C215.084 147.452 214.758 147.279 214.396 147.158C213.583 146.888 213.233 148.17 214.042 148.445C214.613 148.634 215.072 149.066 215.66 149.223C216.223 149.372 216.79 149.275 217.261 148.928C218.38 148.098 218.259 146.67 218.03 145.46Z" fill="#D9A4D1"/>
<path d="M219.78 153.163C219.707 152.316 218.38 152.308 218.452 153.163C218.484 153.53 218.496 153.893 218.476 154.26C218.456 154.602 218.351 154.937 218.315 155.272C218.211 155.203 218.094 155.131 218.066 155.107C217.752 154.881 217.434 154.655 217.12 154.429C216.424 153.929 215.76 155.082 216.448 155.578C217.132 156.07 218.384 157.397 219.229 156.518C219.567 156.167 219.639 155.55 219.711 155.09C219.812 154.449 219.832 153.812 219.78 153.163Z" fill="#D9A4D1"/>
<path d="M185.539 113.877C185.169 114.663 184.513 116.204 183.374 115.881C182.549 115.647 181.974 114.256 181.552 113.595C181.093 112.877 179.938 113.542 180.405 114.268C181.133 115.405 181.922 117.16 183.479 117.244C185.128 117.333 186.07 115.857 186.686 114.551C187.052 113.78 185.905 113.103 185.539 113.877Z" fill="#D9A4D1"/>
<path d="M195.614 112.397C195.135 113.22 194.54 114.22 193.695 114.728C192.697 115.329 191.562 113.611 190.951 112.974C190.355 112.353 189.418 113.296 190.009 113.917C190.947 114.893 192.037 116.631 193.622 116.212C195.059 115.833 196.061 114.268 196.761 113.074C197.195 112.328 196.049 111.659 195.614 112.397Z" fill="#D9A4D1"/>
<path d="M204.711 110.897C204.349 111.667 204.003 112.921 203.311 113.482C202.792 113.901 202.394 113.292 202.064 112.909C201.706 112.49 201.352 112.07 200.998 111.655C200.442 111.002 199.505 111.945 200.056 112.599C200.845 113.53 201.867 115.349 203.339 114.97C204.756 114.603 205.311 112.724 205.854 111.57C206.224 110.8 205.077 110.123 204.711 110.897Z" fill="#D9A4D1"/>
<path d="M214.086 109.889C213.744 110.369 213.402 110.845 213.06 111.324C212.811 111.671 212.4 112.558 212.034 112.76C211.004 113.329 209.978 111.703 209.713 110.941C209.431 110.139 208.148 110.482 208.429 111.296C208.9 112.643 210.067 114.123 211.596 114.3C212.272 114.377 212.702 114.042 213.101 113.542C213.857 112.591 214.525 111.554 215.233 110.566C215.732 109.865 214.581 109.199 214.086 109.889Z" fill="#D9A4D1"/>
<path d="M189.514 122.85C189.422 123.705 189.233 125.467 188.009 125.443C187.197 125.426 186.13 124.253 185.519 123.793C184.835 123.277 184.171 124.434 184.847 124.943C185.998 125.806 187.325 127.257 188.895 126.58C190.391 125.935 190.689 124.301 190.846 122.85C190.935 121.999 189.603 122.007 189.514 122.85Z" fill="#D9A4D1"/>
<path d="M200.978 120.845C200.788 121.773 200.438 122.991 199.678 123.624C198.567 124.547 197.554 123.055 197.022 122.249C196.552 121.535 195.401 122.204 195.876 122.922C196.68 124.144 197.871 125.592 199.533 125.193C201.167 124.801 201.967 122.66 202.265 121.2C202.43 120.361 201.147 120.003 200.978 120.845Z" fill="#D9A4D1"/>
<path d="M212.513 119.539C212.111 120.386 211.704 121.47 210.819 121.845C210.107 122.148 209.729 121.805 209.19 121.301C208.815 120.954 208.534 120.555 208.276 120.115C207.842 119.378 206.695 120.047 207.13 120.789C207.83 121.987 209.141 123.459 210.658 123.442C212.252 123.426 213.085 121.43 213.664 120.208C214.026 119.442 212.879 118.765 212.513 119.539Z" fill="#D9A4D1"/>
<path d="M193.679 133.701C193.413 134.145 193.152 134.588 192.886 135.032C192.725 135.302 192.367 136.226 192.093 136.363C191.268 136.77 190.094 135.234 189.679 134.697C189.156 134.02 188.223 134.972 188.738 135.641C189.43 136.536 190.935 138.129 192.222 137.883C192.773 137.778 193.067 137.319 193.337 136.871C193.84 136.044 194.326 135.21 194.821 134.379C195.264 133.637 194.117 132.963 193.679 133.701Z" fill="#D9A4D1"/>
<path d="M202.136 131.342C201.931 132.137 201.279 134.577 200.088 134.399C199.392 134.294 198.712 133.185 198.157 132.77C197.469 132.258 196.805 133.415 197.485 133.919C198.555 134.714 199.3 136.169 200.873 135.617C202.378 135.089 203.062 133.088 203.416 131.697C203.629 130.867 202.349 130.512 202.136 131.342Z" fill="#D9A4D1"/>
<path d="M212.147 127.935C211.729 128.818 211.374 130.064 210.723 130.794C210.208 131.37 209.854 131.108 209.399 130.624C209.013 130.213 208.63 129.798 208.244 129.382C207.661 128.753 206.723 129.697 207.303 130.326C208.164 131.25 209.198 132.923 210.682 132.443C212.163 131.963 212.702 129.862 213.294 128.608C213.66 127.834 212.513 127.156 212.147 127.935Z" fill="#D9A4D1"/>
<path d="M200.221 143.23C200.04 143.807 199.851 144.38 199.658 144.952C199.589 145.158 199.541 145.569 199.392 145.731C198.885 146.287 198.612 145.888 198.302 145.521C197.771 144.9 197.38 144.283 196.535 144.085C195.703 143.888 195.348 145.174 196.181 145.372C196.885 145.537 197.175 146.348 197.674 146.803C198.125 147.215 198.728 147.529 199.356 147.432C199.968 147.34 200.346 146.892 200.575 146.348C200.953 145.46 201.211 144.501 201.505 143.581C201.762 142.767 200.483 142.416 200.221 143.23Z" fill="#D9A4D1"/>
<path d="M208.759 140.077C208.313 140.827 208.345 141.775 207.894 142.492C207.492 143.134 206.876 142.751 206.353 142.432C205.894 142.154 205.436 141.871 204.977 141.593C204.245 141.146 203.577 142.299 204.305 142.742C205.367 143.392 206.804 144.706 208.123 144.065C209.451 143.42 209.258 141.843 209.906 140.746C210.344 140.012 209.198 139.339 208.759 140.077Z" fill="#D9A4D1"/>
<path d="M242.951 130.443C242.505 130.116 242.058 129.79 241.608 129.463C241.318 129.249 240.867 129.415 240.698 129.701C240.501 130.04 240.646 130.399 240.936 130.612C241.382 130.939 241.829 131.266 242.279 131.592C242.569 131.806 243.02 131.641 243.189 131.354C243.39 131.016 243.245 130.657 242.951 130.443Z" fill="#B98BB2"/>
<path d="M247.381 132.697C247.011 132.161 246.577 131.717 246.058 131.326C245.772 131.108 245.313 131.278 245.148 131.564C244.951 131.903 245.1 132.258 245.386 132.475C245.659 132.681 246.029 133.072 246.235 133.367C246.44 133.661 246.818 133.798 247.144 133.605C247.434 133.435 247.586 132.992 247.381 132.697Z" fill="#B98BB2"/>
<path d="M244.879 126.572C244.295 126.047 243.708 125.523 243.124 124.995C242.489 124.422 241.547 125.362 242.183 125.939C242.766 126.463 243.354 126.987 243.937 127.515C244.573 128.084 245.518 127.144 244.879 126.572Z" fill="#B98BB2"/>
<path d="M241.27 110.159C240.706 109.792 240.195 109.332 239.785 108.792C239.568 108.506 239.213 108.356 238.876 108.554C238.594 108.719 238.421 109.175 238.638 109.465C239.189 110.195 239.829 110.808 240.598 111.308C241.318 111.78 241.986 110.627 241.27 110.159Z" fill="#B98BB2"/>
<path d="M246.745 114.341C246.214 113.76 245.719 113.147 245.265 112.502C245.06 112.208 244.685 112.071 244.356 112.264C244.066 112.433 243.909 112.881 244.118 113.175C244.637 113.913 245.196 114.619 245.808 115.285C246.383 115.914 247.321 114.97 246.745 114.341Z" fill="#B98BB2"/>
<path d="M247.591 119.813C247.124 119.208 246.702 118.567 246.311 117.91C245.877 117.172 244.726 117.841 245.165 118.583C245.611 119.341 246.11 120.059 246.649 120.757C246.871 121.043 247.357 120.987 247.591 120.757C247.872 120.47 247.812 120.095 247.591 119.813Z" fill="#B98BB2"/>
<path d="M252.169 121.132C251.674 120.402 251.184 119.668 250.689 118.938C250.214 118.232 249.059 118.898 249.542 119.611C250.037 120.341 250.528 121.075 251.023 121.805C251.501 122.511 252.652 121.845 252.169 121.132Z" fill="#B98BB2"/>
<path d="M252.025 126.265C251.526 125.584 250.995 124.93 250.411 124.318C249.82 123.697 248.882 124.64 249.47 125.261C249.973 125.789 250.443 126.346 250.874 126.939C251.087 127.229 251.449 127.374 251.783 127.177C252.073 127.007 252.238 126.556 252.025 126.265Z" fill="#B98BB2"/>
<path d="M237.222 110.562L235.673 109.119C235.045 108.534 234.103 109.474 234.731 110.062C235.246 110.542 235.765 111.026 236.28 111.506C236.908 112.087 237.849 111.147 237.222 110.562Z" fill="#B98BB2"/>
<path d="M241.869 115.676C241.342 115.055 240.819 114.43 240.292 113.809C240.059 113.534 239.592 113.571 239.35 113.809C239.081 114.083 239.117 114.474 239.35 114.752L240.928 116.619C241.161 116.894 241.628 116.857 241.869 116.619C242.139 116.349 242.102 115.954 241.869 115.676Z" fill="#B98BB2"/>
<path d="M246.038 122.229C245.49 121.596 244.943 120.958 244.396 120.325C243.837 119.676 242.899 120.62 243.454 121.269C244.002 121.902 244.549 122.539 245.096 123.172C245.655 123.822 246.593 122.874 246.038 122.229Z" fill="#B98BB2"/>
<path d="M233.351 111.8C232.901 111.175 232.45 110.554 231.999 109.929C231.79 109.639 231.42 109.498 231.09 109.691C230.804 109.861 230.639 110.308 230.852 110.603C231.303 111.228 231.754 111.849 232.204 112.474C232.414 112.764 232.784 112.905 233.114 112.712C233.399 112.542 233.564 112.091 233.351 111.8Z" fill="#B98BB2"/>
<path d="M230.201 114.389C229.814 113.821 229.396 113.276 228.941 112.76C228.704 112.49 228.245 112.518 228 112.76C227.734 113.026 227.762 113.433 228 113.704C228.378 114.135 228.728 114.587 229.05 115.063C229.251 115.361 229.633 115.49 229.959 115.3C230.257 115.127 230.402 114.688 230.201 114.389Z" fill="#B98BB2"/>
<path d="M228.261 118.438C227.702 117.74 227.139 117.043 226.579 116.345C226.354 116.063 225.875 116.111 225.638 116.345C225.36 116.623 225.413 117.006 225.638 117.289C226.197 117.986 226.76 118.684 227.32 119.382C227.545 119.664 228.024 119.615 228.261 119.382C228.539 119.099 228.487 118.716 228.261 118.438Z" fill="#B98BB2"/>
<path d="M228.804 124.681C228.422 124.172 228.04 123.664 227.662 123.152C227.444 122.866 227.086 122.717 226.752 122.914C226.471 123.08 226.298 123.535 226.515 123.826C226.897 124.334 227.279 124.842 227.658 125.354C227.875 125.64 228.233 125.79 228.567 125.592C228.849 125.427 229.022 124.971 228.804 124.681Z" fill="#B98BB2"/>
<path d="M233.536 119.813C232.977 119.345 232.466 118.817 232.039 118.228C231.83 117.938 231.46 117.793 231.13 117.99C230.844 118.16 230.679 118.607 230.893 118.902C231.392 119.587 231.951 120.212 232.599 120.757C232.872 120.987 233.271 121.027 233.54 120.757C233.774 120.519 233.81 120.043 233.536 119.813Z" fill="#B98BB2"/>
<path d="M236.968 116.821C236.594 116.232 236.22 115.643 235.85 115.05C235.391 114.329 234.24 114.998 234.703 115.724C235.077 116.313 235.451 116.901 235.822 117.494C236.276 118.216 237.427 117.547 236.968 116.821Z" fill="#B98BB2"/>
<path d="M234.031 126.334C233.588 125.669 233.142 125.003 232.699 124.338C232.224 123.628 231.074 124.293 231.553 125.011C231.995 125.677 232.442 126.342 232.884 127.007C233.355 127.717 234.506 127.052 234.031 126.334Z" fill="#B98BB2"/>
<path d="M233.001 132.221C232.711 131.846 232.422 131.471 232.132 131.096C231.911 130.81 231.424 130.867 231.19 131.096C230.909 131.379 230.969 131.754 231.19 132.04C231.48 132.415 231.77 132.79 232.059 133.165C232.281 133.451 232.768 133.395 233.001 133.165C233.279 132.883 233.222 132.508 233.001 132.221Z" fill="#B98BB2"/>
<path d="M238.252 124.987L237.045 123.313C236.836 123.023 236.465 122.882 236.135 123.075C235.85 123.245 235.685 123.692 235.898 123.987C236.3 124.543 236.703 125.104 237.105 125.66C237.314 125.951 237.684 126.092 238.014 125.898C238.3 125.729 238.465 125.281 238.252 124.987Z" fill="#B98BB2"/>
<path d="M241.213 121.539C240.755 120.922 240.3 120.301 239.841 119.684C239.628 119.394 239.266 119.249 238.932 119.446C238.646 119.611 238.477 120.067 238.695 120.357C239.153 120.974 239.608 121.595 240.067 122.212C240.28 122.503 240.642 122.648 240.976 122.45C241.258 122.285 241.427 121.829 241.213 121.539Z" fill="#B98BB2"/>
<path d="M238.183 130.568C237.701 130.294 237.294 129.931 236.988 129.467C236.791 129.169 236.401 129.04 236.079 129.229C235.781 129.403 235.641 129.838 235.842 130.141C236.272 130.794 236.836 131.334 237.516 131.721C238.256 132.141 238.928 130.991 238.183 130.568Z" fill="#B98BB2"/>
<path d="M237.853 136.464C237.355 136.04 236.9 135.564 236.526 135.028C236.32 134.734 235.946 134.597 235.616 134.79C235.327 134.959 235.17 135.407 235.379 135.702C235.822 136.331 236.329 136.907 236.916 137.407C237.19 137.641 237.588 137.678 237.857 137.407C238.095 137.165 238.131 136.698 237.853 136.464Z" fill="#B98BB2"/>
<path d="M241.728 137.444C241.789 137.488 241.644 137.375 241.632 137.367C241.567 137.311 241.503 137.25 241.443 137.19C241.338 137.085 241.245 136.972 241.193 136.899C240.984 136.609 240.614 136.468 240.284 136.661C239.994 136.831 239.837 137.278 240.046 137.573C240.332 137.976 240.658 138.303 241.056 138.593C241.346 138.807 241.797 138.641 241.966 138.355C242.163 138.016 242.018 137.657 241.728 137.444Z" fill="#B98BB2"/>
<path d="M175.029 35.1926C173.323 36.5516 171.525 37.7533 169.642 38.8341C170.394 35.237 171.859 31.8254 172.43 28.1839C172.494 27.7726 172.064 27.2887 171.645 27.5831C169.513 29.0792 167.505 30.7084 165.602 32.4948C165.099 32.9666 165.864 33.7127 166.363 33.2449C167.879 31.8214 169.473 30.4987 171.143 29.2647C170.386 32.7932 168.958 36.1484 168.386 39.7293C168.314 40.185 168.736 40.5641 169.171 40.3302C171.513 39.0599 173.702 37.6001 175.786 35.9427C176.329 35.5152 175.564 34.7692 175.029 35.1926Z" fill="#DCC272"/>
<path d="M175.999 28.4904C175.363 29.0913 174.728 29.6962 174.092 30.2971C173.593 30.7689 174.353 31.5189 174.852 31.0471L176.76 29.2405C177.258 28.7687 176.498 28.0186 175.999 28.4904Z" fill="#DCC272"/>
<path d="M186.521 22.6028C184.763 24.0626 183.004 25.5265 181.246 26.9863C181.081 22.5504 180.912 18.1105 180.747 13.6746C180.731 13.2714 180.304 12.9972 179.942 13.2109C177.955 14.3924 176.152 15.7393 174.45 17.304C173.943 17.7677 174.704 18.5178 175.21 18.054C176.619 16.7636 178.116 15.6304 179.717 14.6183C179.886 19.1066 180.055 23.5949 180.22 28.0832C180.24 28.5792 180.779 28.7526 181.133 28.4582C183.181 26.7564 185.229 25.0506 187.277 23.3489C187.808 22.9133 187.048 22.1673 186.521 22.6028Z" fill="#DCC272"/>
<path d="M187.064 13.6505L183.986 16.5338C183.483 17.0056 184.243 17.7517 184.746 17.2839C185.772 16.3241 186.798 15.3603 187.824 14.4005C188.327 13.9287 187.567 13.1787 187.064 13.6505Z" fill="#DCC272"/>
<path d="M200.833 10.9607C198.125 12.8479 195.542 14.8804 193.063 17.054C193.349 11.8196 193.985 6.6216 194.652 1.42356C194.705 1.00417 194.166 0.774307 193.848 0.959807C191.615 2.29057 189.567 3.8149 187.647 5.56908C187.14 6.03283 187.901 6.7829 188.408 6.31915C189.989 4.87547 191.659 3.60923 193.453 2.47204C192.786 7.72653 192.162 12.9851 191.933 18.2839C191.912 18.7799 192.52 18.9574 192.846 18.6589C195.55 16.2192 198.386 13.961 201.376 11.8801C201.935 11.493 201.4 10.5695 200.833 10.9607Z" fill="#DCC272"/>
</g>
<defs>
<clipPath id="clip0_3_2990">
<rect width="369" height="229" fill="white" transform="translate(0.880127 0.895264)"/>
</clipPath>
</defs>
</svg>
