<svg width="415" height="256" viewBox="0 0 415 256" fill="none" xmlns="http://www.w3.org/2000/svg">
<path fill-rule="evenodd" clip-rule="evenodd" d="M0.0956863 98.1695C-29.017 110.713 -49.3979 139.665 -49.3979 173.378C-49.3979 218.585 -12.7505 255.232 32.4564 255.232C59.9299 255.232 84.242 241.697 99.0885 220.932C104.091 222.352 109.371 223.112 114.829 223.112C134.806 223.112 152.404 212.926 162.712 197.463C170.278 205.593 181.074 210.679 193.057 210.679C209.256 210.679 223.284 201.385 230.101 187.839C241.436 194.455 254.623 198.245 268.694 198.245C294.364 198.245 317.088 185.63 331.004 166.262C335.577 167.523 340.394 168.197 345.368 168.197C353.823 168.197 361.823 166.25 368.944 162.779C376.793 176.537 391.599 185.812 408.572 185.812C433.75 185.812 454.161 165.4 454.161 140.222C454.161 116.913 436.669 97.69 414.096 94.9635L414.096 -20L0.0956967 -20L0.0956863 98.1695ZM165.642 138.15L165.368 138.15C165.398 138.204 165.427 138.259 165.457 138.314C165.519 138.259 165.581 138.204 165.642 138.15Z" fill="#1F265E"/>
<circle cx="74.1544" cy="39.63" r="25.37" fill="#D3D4DE"/>
<circle cx="65.3925" cy="27.9256" r="4.65732" fill="#C5C6D0"/>
<circle cx="84.6227" cy="39.4158" r="6.75236" fill="#F1F1F3"/>
<path fill-rule="evenodd" clip-rule="evenodd" d="M92.9842 56.6327C89.9841 59.953 86.1182 62.476 81.7425 63.8457C81.3638 63.0023 81.1532 62.0672 81.1532 61.0828C81.1532 57.3536 84.1763 54.3304 87.9056 54.3304C89.9301 54.3304 91.7466 55.2214 92.9842 56.6327Z" fill="#C5C6D0"/>
<circle cx="68.4113" cy="55.6243" r="3.01873" fill="#C5C6D0"/>
<circle cx="91.3751" cy="30.2545" r="25.37" fill="#1F265E"/>
<path d="M25.5693 73.9293C25.5693 73.9293 26.9412 81.0632 33.09 79.4477C33.09 79.4477 27.9317 83.3988 29.9126 88.07C29.9126 88.07 27.5609 82.7845 22.2701 83.0441C22.2701 83.0441 26.8194 81.5558 25.5693 73.9293Z" fill="#FCFCFC"/>
<path d="M363.836 21.1977C363.836 21.1977 365.208 28.3316 371.357 26.7161C371.357 26.7161 366.199 30.6672 368.18 35.3384C368.18 35.3384 365.828 30.0528 360.537 30.3125C360.537 30.3125 365.087 28.8241 363.836 21.1977Z" fill="#6D75B0"/>
<path d="M25.7917 134.167C25.7917 134.167 26.7313 139.053 30.9427 137.946C30.9427 137.946 27.4097 140.653 28.7664 143.852C28.7664 143.852 27.1557 140.232 23.5319 140.41C23.5319 140.41 26.6479 139.39 25.7917 134.167Z" fill="#6D75B0"/>
<path d="M386.179 72.1838C386.179 72.1838 381.971 74.335 384.096 77.8835C384.096 77.8835 380.692 75.3774 378.132 77.4624C378.132 77.4624 381.008 75.0344 379.886 71.7759C379.886 71.7759 381.641 74.3482 386.179 72.1838Z" fill="white"/>
<path d="M39.1188 124.148C39.1188 124.148 40.0584 129.034 44.2699 127.928C44.2699 127.928 40.7368 130.634 42.0936 133.833C42.0936 133.833 40.4829 130.213 36.8591 130.391C36.8591 130.391 39.975 129.371 39.1188 124.148Z" fill="#6D75B0"/>
<path d="M406.051 103.832C406.051 103.832 401.843 105.983 403.968 109.531C403.968 109.531 400.563 107.025 398.004 109.11C398.004 109.11 400.88 106.682 399.758 103.424C399.758 103.424 401.513 105.996 406.051 103.832Z" fill="#6D75B0"/>
</svg>
