<svg width="169" height="30" viewBox="0 0 169 30" fill="none" xmlns="http://www.w3.org/2000/svg">
    <defs>
        <radialGradient id="paint0_radial_1_3481" cx="0" cy="0" r="1" gradientUnits="userSpaceOnUse"
            gradientTransform="translate(88.4999 14.9998) scale(14.9075 15.0942)">
            <stop offset="2.23767e-07" stop-color="#CFCFFA" />
            <stop offset="1" stop-color="#767FF7" />
        </radialGradient>
        <clipPath id="clip0_1_3481">
            <rect width="30" height="30" fill="white" transform="translate(73.5)" />
        </clipPath>
    </defs>
    <g opacity="0.75">
        <g clip-path="url(#clip0_1_3481)">
            <path
                d="M74.0884 21.0175L74.0877 21.0221C73.7526 23.0961 74.4087 24.6245 75.5907 25.7883C76.7959 26.9751 78.5664 27.7969 80.4545 28.358C84.2257 29.4788 88.2532 29.4997 88.4934 29.4997H88.4935H88.4935H88.4936H88.4936H88.4937H88.4937H88.4938H88.4938H88.4939H88.4939H88.494H88.494H88.4941H88.4941H88.4942H88.4942H88.4943H88.4943H88.4944H88.4944H88.4945H88.4945H88.4946H88.4946H88.4947H88.4947H88.4947H88.4948H88.4948H88.4949H88.4949H88.495H88.495H88.4951H88.4951H88.4952H88.4952H88.4953H88.4953H88.4954H88.4954H88.4954H88.4955H88.4955H88.4956H88.4956H88.4957H88.4957H88.4958H88.4958H88.4958H88.4959H88.4959H88.496H88.496H88.4961H88.4961H88.4962H88.4962H88.4962H88.4963H88.4963H88.4964H88.4964H88.4965H88.4965H88.4965H88.4966H88.4966H88.4967H88.4967H88.4968H88.4968H88.4968H88.4969H88.4969H88.497H88.497H88.4971H88.4971H88.4971H88.4972H88.4972H88.4973H88.4973H88.4973H88.4974H88.4974H88.4975H88.4975H88.4975H88.4976H88.4976H88.4977H88.4977H88.4977H88.4978H88.4978H88.4979H88.4979H88.4979H88.498H88.498H88.4981H88.4981H88.4981H88.4982H88.4982H88.4983H88.4983H88.4983H88.4984H88.4984H88.4984H88.4985H88.4985H88.4986H88.4986H88.4986H88.4987H88.4987H88.4987H88.4988H88.4988H88.4989H88.4989H88.4989H88.499H88.499H88.499H88.4991H88.4991H88.4991H88.4992H88.4992H88.4993H88.4993H88.4993H88.4994H88.4994H88.4994H88.4995H88.4995H88.4995H88.4996H88.4996H88.4996H88.4997H88.4997H88.4997H88.4998H88.4998H88.4998H88.4999H88.4999H88.4999H88.5H88.5H88.5001H88.5001H88.5001H88.5001H88.5002H88.5002H88.5002H88.5003H88.5003H88.5003H88.5004H88.5004H88.5004H88.5005H88.5005H88.5005H88.5006H88.5006H88.5006H88.5007H88.5007H88.5007H88.5008H88.5008H88.5008H88.5009H88.5009H88.5009H88.5009H88.501H88.501H88.501H88.5011H88.5011H88.5011H88.5012H88.5012H88.5012H88.5012H88.5013H88.5013H88.5013H88.5014H88.5014H88.5014H88.5014H88.5015H88.5015H88.5015H88.5016H88.5016H88.5016H88.5016H88.5017H88.5017H88.5017H88.5018H88.5018H88.5018H88.5018H88.5019H88.5019H88.5019H88.5019H88.502H88.502H88.502H88.5021H88.5021H88.5021H88.5021H88.5022H88.5022H88.5022H88.5022H88.5023H88.5023H88.5023H88.5023H88.5024H88.5024H88.5024H88.5024H88.5025H88.5025H88.5025H88.5025H88.5026H88.5026H88.5026H88.5026H88.5027H88.5027H88.5027H88.5027H88.5028H88.5028H88.5028H88.5028H88.5029H88.5029H88.5029H88.5029H88.5029H88.503H88.503H88.503H88.503H88.5031H88.5031H88.5031H88.5031H88.5032H88.5032H88.5032H88.5032H88.5032H88.5033H88.5033H88.5033H88.5033H88.5033H88.5034H88.5034H88.5034H88.5034H88.5035H88.5035H88.5035H88.5035H88.5035H88.5036H88.5036H88.5036H88.5036H88.5036H88.5037H88.5037H88.5037H88.5037H88.5037H88.5038H88.5038H88.5038H88.5038H88.5038H88.5038H88.5039H88.5039H88.5039H88.5039H88.5039H88.504H88.504H88.504H88.504H88.504H88.5041H88.5041H88.5041H88.5041H88.5041H88.5041H88.5042H88.5042H88.5042H88.5042H88.5042H88.5042H88.5043H88.5043H88.5043H88.5043H88.5043H88.5043H88.5044H88.5044H88.5044H88.5044H88.5044H88.5044H88.5045H88.5045H88.5045H88.5045H88.5045H88.5045H88.5045H88.5046H88.5046H88.5046H88.5046H88.5046H88.5046H88.5046H88.5047H88.5047H88.5047H88.5047H88.5048H88.5048H88.5048H88.5048H88.5049H88.5049H88.5049H88.5049H88.505H88.505H88.505H88.505H88.5051H88.5051H88.5051H88.5051H88.5051H88.5052H88.5052H88.5052H88.5052H88.5052H88.5053H88.5053H88.5053H88.5053H88.5053H88.5054H88.5054H88.5054H88.5054H88.5054H88.5054H88.5055H88.5055H88.5055H88.5055H88.5055H88.5055H88.5056H88.5056H88.5056H88.5056H88.5056H88.5056H88.5057H88.5057H88.5057H88.5057H88.5057H88.5057H88.5058H88.5058C88.752 29.4997 92.937 29.4778 96.7706 28.2897C98.6902 27.6947 100.462 26.8248 101.619 25.5716C102.75 24.3466 103.324 22.7251 102.811 20.5045C102.803 20.4707 102.796 20.4399 102.789 20.4106C102.778 20.3615 102.768 20.3163 102.756 20.2676L102.752 20.2549L102.753 20.2549C102.745 20.2203 102.738 20.1911 102.73 20.1569C102.724 20.1349 102.718 20.1108 102.712 20.082C102.682 19.9582 102.652 19.8341 102.622 19.7084L102.621 19.7068L102.613 19.6737C102.557 19.4462 102.501 19.2198 102.443 18.9948L102.442 18.9934C101.886 16.8133 101.209 14.6711 100.334 12.6183L100.333 12.618C99.5689 10.8227 98.6026 9.20295 97.4713 7.59623C95.8035 5.22882 93.8894 2.72742 91.4881 1.28446L91.4879 1.2843C90.5852 0.741092 89.5446 0.420218 88.5482 0.516625L88.5001 0.521284L88.4519 0.516625C87.4554 0.420211 86.414 0.741137 85.5113 1.2843L85.5111 1.28446C83.1098 2.72742 81.1957 5.22882 79.5279 7.59623C78.3967 9.20286 77.4303 10.8226 76.6648 12.618L74.0884 21.0175ZM74.0884 21.0175C74.0971 20.9602 74.1067 20.9024 74.1173 20.8432M74.0884 21.0175L74.1173 20.8432M74.1173 20.8432C74.1374 20.7335 74.1613 20.6206 74.1883 20.5039C74.242 20.2732 74.2967 20.0432 74.3524 19.8118C74.3884 19.6638 74.424 19.5179 74.4604 19.3733L74.4606 19.3726C74.4948 19.2361 74.5286 19.1009 74.5633 18.9649C74.5962 18.8366 74.6284 18.7107 74.6615 18.5861L74.6623 18.5836C74.6641 18.5773 74.6663 18.5694 74.6685 18.5603C74.731 18.3224 74.7951 18.0855 74.8618 17.8501L74.8619 17.8501L74.8645 17.8402C74.8733 17.8065 74.8802 17.7804 74.8875 17.7552L74.8875 17.7552L74.8888 17.7505C75.3787 15.9998 75.9574 14.2798 76.6647 12.6182L74.1173 20.8432ZM102.612 19.6662L102.612 19.6665L102.612 19.6662Z"
                fill="url(#paint0_radial_1_3481)" stroke="white" />
            <circle cx="92.5001" cy="8.00006" r="1.5" fill="#D7D9FF" stroke="white" />
            <path
                d="M74.0881 21.0175L74.0874 21.0222C73.7524 23.0961 74.4085 24.6246 75.5904 25.7884C76.7957 26.9752 78.5662 27.7969 80.4542 28.3581C84.2255 29.4788 88.2529 29.4998 88.4932 29.4998H88.4932H88.4933H88.4933H88.4934H88.4934H88.4935H88.4935H88.4936H88.4936H88.4937H88.4937H88.4938H88.4938H88.4939H88.4939H88.494H88.494H88.4941H88.4941H88.4942H88.4942H88.4943H88.4943H88.4944H88.4944H88.4945H88.4945H88.4946H88.4946H88.4946H88.4947H88.4947H88.4948H88.4948H88.4949H88.4949H88.495H88.495H88.4951H88.4951H88.4952H88.4952H88.4952H88.4953H88.4953H88.4954H88.4954H88.4955H88.4955H88.4956H88.4956H88.4957H88.4957H88.4957H88.4958H88.4958H88.4959H88.4959H88.496H88.496H88.496H88.4961H88.4961H88.4962H88.4962H88.4963H88.4963H88.4963H88.4964H88.4964H88.4965H88.4965H88.4966H88.4966H88.4966H88.4967H88.4967H88.4968H88.4968H88.4969H88.4969H88.4969H88.497H88.497H88.4971H88.4971H88.4971H88.4972H88.4972H88.4973H88.4973H88.4973H88.4974H88.4974H88.4975H88.4975H88.4975H88.4976H88.4976H88.4977H88.4977H88.4977H88.4978H88.4978H88.4979H88.4979H88.4979H88.498H88.498H88.4981H88.4981H88.4981H88.4982H88.4982H88.4982H88.4983H88.4983H88.4984H88.4984H88.4984H88.4985H88.4985H88.4985H88.4986H88.4986H88.4987H88.4987H88.4987H88.4988H88.4988H88.4988H88.4989H88.4989H88.4989H88.499H88.499H88.499H88.4991H88.4991H88.4992H88.4992H88.4992H88.4993H88.4993H88.4993H88.4994H88.4994H88.4994H88.4995H88.4995H88.4995H88.4996H88.4996H88.4996H88.4997H88.4997H88.4997H88.4998H88.4998H88.4998H88.4999H88.4999H88.4999H88.5H88.5H88.5H88.5001H88.5001H88.5001H88.5002H88.5002H88.5002H88.5003H88.5003H88.5003H88.5004H88.5004H88.5004H88.5005H88.5005H88.5005H88.5005H88.5006H88.5006H88.5006H88.5007H88.5007H88.5007H88.5008H88.5008H88.5008H88.5009H88.5009H88.5009H88.5009H88.501H88.501H88.501H88.5011H88.5011H88.5011H88.5011H88.5012H88.5012H88.5012H88.5013H88.5013H88.5013H88.5013H88.5014H88.5014H88.5014H88.5015H88.5015H88.5015H88.5015H88.5016H88.5016H88.5016H88.5017H88.5017H88.5017H88.5017H88.5018H88.5018H88.5018H88.5018H88.5019H88.5019H88.5019H88.5019H88.502H88.502H88.502H88.502H88.5021H88.5021H88.5021H88.5021H88.5022H88.5022H88.5022H88.5022H88.5023H88.5023H88.5023H88.5023H88.5024H88.5024H88.5024H88.5024H88.5025H88.5025H88.5025H88.5025H88.5026H88.5026H88.5026H88.5026H88.5027H88.5027H88.5027H88.5027H88.5028H88.5028H88.5028H88.5028H88.5028H88.5029H88.5029H88.5029H88.5029H88.503H88.503H88.503H88.503H88.503H88.5031H88.5031H88.5031H88.5031H88.5031H88.5032H88.5032H88.5032H88.5032H88.5033H88.5033H88.5033H88.5033H88.5033H88.5034H88.5034H88.5034H88.5034H88.5034H88.5035H88.5035H88.5035H88.5035H88.5035H88.5035H88.5036H88.5036H88.5036H88.5036H88.5036H88.5037H88.5037H88.5037H88.5037H88.5037H88.5038H88.5038H88.5038H88.5038H88.5038H88.5038H88.5039H88.5039H88.5039H88.5039H88.5039H88.5039H88.504H88.504H88.504H88.504H88.504H88.504H88.5041H88.5041H88.5041H88.5041H88.5041H88.5041H88.5042H88.5042H88.5042H88.5042H88.5042H88.5042H88.5043H88.5043H88.5043H88.5043H88.5044H88.5044H88.5044H88.5044H88.5045H88.5045H88.5045H88.5046H88.5046H88.5046H88.5046H88.5047H88.5047H88.5047H88.5047H88.5048H88.5048H88.5048H88.5048H88.5048H88.5049H88.5049H88.5049H88.5049H88.505H88.505H88.505H88.505H88.505H88.5051H88.5051H88.5051H88.5051H88.5051H88.5051H88.5052H88.5052H88.5052H88.5052H88.5052H88.5052H88.5053H88.5053H88.5053H88.5053H88.5053H88.5054H88.5054H88.5054H88.5054H88.5054H88.5054H88.5054H88.5055H88.5055H88.5055H88.5055H88.5055C88.7518 29.4998 92.9368 29.4779 96.7703 28.2897C98.6899 27.6948 100.462 26.8248 101.619 25.5716C102.75 24.3467 103.323 22.7251 102.811 20.5045C102.803 20.4707 102.796 20.4399 102.789 20.4106C102.778 20.3615 102.767 20.3163 102.755 20.2676L102.752 20.255L102.752 20.2549C102.745 20.2204 102.738 20.1911 102.729 20.157C102.724 20.135 102.718 20.1109 102.711 20.082C102.682 19.9582 102.652 19.8342 102.621 19.7084L102.621 19.7069L102.613 19.6738C102.566 19.4813 102.518 19.2895 102.469 19.0987C102.29 18.8778 102.095 18.6525 101.884 18.4218C96.6382 12.6871 93.4859 10.3686 91.6714 9.4825L74.0881 21.0175ZM74.0881 21.0175C74.0968 20.9602 74.1065 20.9025 74.1171 20.8433M74.0881 21.0175L74.1171 20.8433M74.1171 20.8433C74.1372 20.7335 74.1611 20.6205 74.1881 20.5038C74.2418 20.2731 74.2964 20.0432 74.3521 19.8119C74.3882 19.6639 74.4237 19.518 74.4602 19.3733L74.4603 19.3727C74.4945 19.2361 74.5284 19.1008 74.5632 18.9647C74.596 18.8365 74.6282 18.7107 74.6612 18.5861L74.662 18.5836C74.6639 18.5773 74.666 18.5695 74.6683 18.5603C74.7166 18.3764 74.7659 18.1931 74.8166 18.0105C75.6541 17.3751 76.5682 16.6208 77.3438 15.8348C78.1174 15.0507 78.799 14.1902 79.095 13.3505C79.4701 12.2874 79.9127 11.716 80.3298 11.4283C80.7319 11.151 81.1655 11.0991 81.6285 11.1971C82.1058 11.2982 82.6027 11.5581 83.0722 11.8905C83.5377 12.22 83.9496 12.6015 84.2553 12.914L84.2553 12.9141C84.8207 13.4919 85.7101 13.6123 86.4043 13.1814L86.4046 13.1812C87.1376 12.7255 88.1122 11.8726 89.0587 10.2933C89.6089 9.37597 90.739 9.0277 91.6712 9.48242L74.1171 20.8433ZM102.612 19.6663L102.612 19.6665L102.612 19.6663Z"
                fill="#8589EB" stroke="white" />
            <path opacity="0.15"
                d="M74.0881 21.0177L74.0874 21.0223C73.7524 23.0963 74.4085 24.6248 75.5904 25.7886C76.7957 26.9754 78.5662 27.7971 80.4542 28.3583C84.2255 29.479 88.2529 29.5 88.4932 29.5H88.4932H88.4933H88.4933H88.4934H88.4934H88.4935H88.4935H88.4936H88.4936H88.4937H88.4937H88.4938H88.4938H88.4939H88.4939H88.494H88.494H88.4941H88.4941H88.4942H88.4942H88.4943H88.4943H88.4944H88.4944H88.4945H88.4945H88.4946H88.4946H88.4946H88.4947H88.4947H88.4948H88.4948H88.4949H88.4949H88.495H88.495H88.4951H88.4951H88.4952H88.4952H88.4952H88.4953H88.4953H88.4954H88.4954H88.4955H88.4955H88.4956H88.4956H88.4957H88.4957H88.4957H88.4958H88.4958H88.4959H88.4959H88.496H88.496H88.496H88.4961H88.4961H88.4962H88.4962H88.4963H88.4963H88.4963H88.4964H88.4964H88.4965H88.4965H88.4966H88.4966H88.4966H88.4967H88.4967H88.4968H88.4968H88.4969H88.4969H88.4969H88.497H88.497H88.4971H88.4971H88.4971H88.4972H88.4972H88.4973H88.4973H88.4973H88.4974H88.4974H88.4975H88.4975H88.4975H88.4976H88.4976H88.4977H88.4977H88.4977H88.4978H88.4978H88.4979H88.4979H88.4979H88.498H88.498H88.4981H88.4981H88.4981H88.4982H88.4982H88.4982H88.4983H88.4983H88.4984H88.4984H88.4984H88.4985H88.4985H88.4985H88.4986H88.4986H88.4987H88.4987H88.4987H88.4988H88.4988H88.4988H88.4989H88.4989H88.4989H88.499H88.499H88.499H88.4991H88.4991H88.4992H88.4992H88.4992H88.4993H88.4993H88.4993H88.4994H88.4994H88.4994H88.4995H88.4995H88.4995H88.4996H88.4996H88.4996H88.4997H88.4997H88.4997H88.4998H88.4998H88.4998H88.4999H88.4999H88.4999H88.5H88.5H88.5H88.5001H88.5001H88.5001H88.5002H88.5002H88.5002H88.5003H88.5003H88.5003H88.5004H88.5004H88.5004H88.5005H88.5005H88.5005H88.5005H88.5006H88.5006H88.5006H88.5007H88.5007H88.5007H88.5008H88.5008H88.5008H88.5009H88.5009H88.5009H88.5009H88.501H88.501H88.501H88.5011H88.5011H88.5011H88.5011H88.5012H88.5012H88.5012H88.5013H88.5013H88.5013H88.5013H88.5014H88.5014H88.5014H88.5015H88.5015H88.5015H88.5015H88.5016H88.5016H88.5016H88.5017H88.5017H88.5017H88.5017H88.5018H88.5018H88.5018H88.5018H88.5019H88.5019H88.5019H88.5019H88.502H88.502H88.502H88.502H88.5021H88.5021H88.5021H88.5021H88.5022H88.5022H88.5022H88.5022H88.5023H88.5023H88.5023H88.5023H88.5024H88.5024H88.5024H88.5024H88.5025H88.5025H88.5025H88.5025H88.5026H88.5026H88.5026H88.5026H88.5027H88.5027H88.5027H88.5027H88.5028H88.5028H88.5028H88.5028H88.5028H88.5029H88.5029H88.5029H88.5029H88.503H88.503H88.503H88.503H88.503H88.5031H88.5031H88.5031H88.5031H88.5031H88.5032H88.5032H88.5032H88.5032H88.5033H88.5033H88.5033H88.5033H88.5033H88.5034H88.5034H88.5034H88.5034H88.5034H88.5035H88.5035H88.5035H88.5035H88.5035H88.5035H88.5036H88.5036H88.5036H88.5036H88.5036H88.5037H88.5037H88.5037H88.5037H88.5037H88.5038H88.5038H88.5038H88.5038H88.5038H88.5038H88.5039H88.5039H88.5039H88.5039H88.5039H88.5039H88.504H88.504H88.504H88.504H88.504H88.504H88.5041H88.5041H88.5041H88.5041H88.5041H88.5041H88.5042H88.5042H88.5042H88.5042H88.5042H88.5042H88.5043H88.5043H88.5043H88.5043H88.5043H88.5043H88.5043H88.5044H88.5044H88.5044H88.5044H88.5044H88.5044H88.5044H88.5045H88.5045H88.5045H88.5045H88.5045H88.5045H88.5045H88.5046H88.5046H88.5046H88.5046H88.5046H88.5046H88.5046H88.5046H88.5047H88.5047H88.5047H88.5047H88.5047H88.5047H88.5047H88.5047H88.5048H88.5048H88.5048H88.5048H88.5048H88.5048H88.5048H88.5048H88.5048H88.5049H88.5049H88.5049H88.5049H88.5049H88.5049H88.5049H88.5049H88.5049H88.505H88.505H88.505H88.505H88.505H88.505H88.505H88.505H88.505H88.505H88.5051H88.5051H88.5051H88.5051H88.5051H88.5051H88.5051H88.5051H88.5051H88.5051H88.5051H88.5051H88.5052H88.5052H88.5052H88.5052H88.5052H88.5052H88.5052H88.5052H88.5052H88.5052H88.5052H88.5052H88.5053H88.5053H88.5053H88.5053H88.5053H88.5053H88.5053H88.5054H88.5054H88.5054H88.5054H88.5054H88.5054H88.5054H88.5054H88.5054H88.5054H88.5054H88.5055H88.5055H88.5055H88.5055H88.5055H88.5055H88.5055H88.5055H88.5055H88.5055C88.7518 29.5 92.9368 29.4781 96.7703 28.2899C98.6899 27.695 100.462 26.825 101.619 25.5718C102.632 24.4747 103.197 23.0595 102.936 21.1807C102.853 21.2347 102.769 21.2865 102.685 21.3362C102.627 21.3702 102.569 21.4026 102.512 21.4334C102.512 21.4336 102.512 21.4338 102.511 21.434L102.273 20.9945C102.028 21.129 101.774 21.2453 101.514 21.3491C101.241 21.4576 100.961 21.5509 100.677 21.6335L74.0881 21.0177ZM74.0881 21.0177C74.0968 20.9605 74.1065 20.9027 74.1171 20.8435M74.0881 21.0177L74.1171 20.8435M74.1171 20.8435C74.1372 20.7338 74.1611 20.6208 74.1881 20.5041C74.2417 20.2734 74.2964 20.0434 74.3521 19.8121C74.3616 19.7732 74.371 19.7345 74.3805 19.6958C74.907 19.6514 75.403 19.8002 75.8041 20.3227L75.8041 20.3227L75.8057 20.3248C75.8691 20.4065 75.9357 20.4914 76.0055 20.5755L74.1171 20.8435ZM78.2793 22.2109C78.9816 22.4196 79.7622 22.4168 80.6281 22.1488L77.2088 21.6982C77.5338 21.9179 77.8891 22.0956 78.2793 22.2109ZM76.0056 20.5757C76.3572 21 76.7539 21.3911 77.2086 21.698L76.0056 20.5757Z"
                fill="white" stroke="white" />
            <path opacity="0.15"
                d="M74.0881 21.0178L74.0874 21.0225C73.7524 23.0965 74.4085 24.6249 75.5904 25.7887C76.7957 26.9755 78.5662 27.7973 80.4542 28.3584C84.2255 29.4792 88.2529 29.5001 88.4932 29.5001H88.4932H88.4933H88.4933H88.4934H88.4934H88.4935H88.4935H88.4936H88.4936H88.4937H88.4937H88.4938H88.4938H88.4939H88.4939H88.494H88.494H88.4941H88.4941H88.4942H88.4942H88.4943H88.4943H88.4944H88.4944H88.4945H88.4945H88.4946H88.4946H88.4946H88.4947H88.4947H88.4948H88.4948H88.4949H88.4949H88.495H88.495H88.4951H88.4951H88.4952H88.4952H88.4952H88.4953H88.4953H88.4954H88.4954H88.4955H88.4955H88.4956H88.4956H88.4957H88.4957H88.4957H88.4958H88.4958H88.4959H88.4959H88.496H88.496H88.496H88.4961H88.4961H88.4962H88.4962H88.4963H88.4963H88.4963H88.4964H88.4964H88.4965H88.4965H88.4966H88.4966H88.4966H88.4967H88.4967H88.4968H88.4968H88.4969H88.4969H88.4969H88.497H88.497H88.4971H88.4971H88.4971H88.4972H88.4972H88.4973H88.4973H88.4973H88.4974H88.4974H88.4975H88.4975H88.4975H88.4976H88.4976H88.4977H88.4977H88.4977H88.4978H88.4978H88.4979H88.4979H88.4979H88.498H88.498H88.4981H88.4981H88.4981H88.4982H88.4982H88.4982H88.4983H88.4983H88.4984H88.4984H88.4984H88.4985H88.4985H88.4985H88.4986H88.4986H88.4987H88.4987H88.4987H88.4988H88.4988H88.4988H88.4989H88.4989H88.4989H88.499H88.499H88.499H88.4991H88.4991H88.4992H88.4992H88.4992H88.4993H88.4993H88.4993H88.4994H88.4994H88.4994H88.4995H88.4995H88.4995H88.4996H88.4996H88.4996H88.4997H88.4997H88.4997H88.4998H88.4998H88.4998H88.4999H88.4999H88.4999H88.5H88.5H88.5H88.5001H88.5001H88.5001H88.5002H88.5002H88.5002H88.5003H88.5003H88.5003H88.5004H88.5004H88.5004H88.5005H88.5005H88.5005H88.5005H88.5006H88.5006H88.5006H88.5007H88.5007H88.5007H88.5008H88.5008H88.5008H88.5009H88.5009H88.5009H88.5009H88.501H88.501H88.501H88.5011H88.5011H88.5011H88.5011H88.5012H88.5012H88.5012H88.5013H88.5013H88.5013H88.5013H88.5014H88.5014H88.5014H88.5015H88.5015H88.5015H88.5015H88.5016H88.5016H88.5016H88.5017H88.5017H88.5017H88.5017H88.5018H88.5018H88.5018H88.5018H88.5019H88.5019H88.5019H88.5019H88.502H88.502H88.502H88.502H88.5021H88.5021H88.5021H88.5021H88.5022H88.5022H88.5022H88.5022H88.5023H88.5023H88.5023H88.5023H88.5024H88.5024H88.5024H88.5024H88.5025H88.5025H88.5025H88.5025H88.5026H88.5026H88.5026H88.5026H88.5027H88.5027H88.5027H88.5027H88.5028H88.5028H88.5028H88.5028H88.5028H88.5029H88.5029H88.5029H88.5029H88.503H88.503H88.503H88.503H88.503H88.5031H88.5031H88.5031H88.5031H88.5031H88.5032H88.5032H88.5032H88.5032H88.5033H88.5033H88.5033H88.5033H88.5033H88.5034H88.5034H88.5034H88.5034H88.5034H88.5035H88.5035H88.5035H88.5035H88.5035H88.5035H88.5036H88.5036H88.5036H88.5036H88.5036H88.5037H88.5037H88.5037H88.5037H88.5037H88.5038H88.5038H88.5038H88.5038H88.5038H88.5038H88.5039H88.5039H88.5039H88.5039H88.5039H88.5039H88.504H88.504H88.504H88.504H88.504H88.504H88.5041H88.5041H88.5041H88.5041H88.5041H88.5041H88.5042H88.5042H88.5042H88.5042H88.5042H88.5042H88.5043H88.5043H88.5043H88.5043H88.5043H88.5043H88.5043H88.5044H88.5044H88.5044H88.5044H88.5044H88.5044H88.5044H88.5045H88.5045H88.5045H88.5045H88.5045H88.5045H88.5045H88.5046H88.5046H88.5046H88.5046H88.5046H88.5046H88.5046H88.5046H88.5047H88.5047H88.5047H88.5047H88.5047H88.5047H88.5047H88.5047H88.5048H88.5048H88.5048H88.5048H88.5048H88.5048H88.5048H88.5048H88.5048H88.5049H88.5049H88.5049H88.5049H88.5049H88.5049H88.5049H88.5049H88.5049H88.505H88.505H88.505H88.505H88.505H88.505H88.505H88.505H88.505H88.505H88.5051H88.5051H88.5051H88.5051H88.5051H88.5051H88.5051H88.5051H88.5051H88.5051H88.5051H88.5051H88.5052H88.5052H88.5052H88.5052H88.5052H88.5052H88.5052H88.5052H88.5052H88.5052H88.5052H88.5052H88.5053H88.5053H88.5053H88.5053H88.5053H88.5053H88.5053H88.5054H88.5054H88.5054H88.5054H88.5054H88.5054H88.5054H88.5054H88.5054H88.5054H88.5054H88.5055H88.5055H88.5055H88.5055H88.5055H88.5055H88.5055H88.5055H88.5055H88.5055C88.7518 29.5001 92.9368 29.4782 96.7703 28.2901C98.6899 27.6951 100.462 26.8252 101.619 25.5719C102.676 24.4266 103.246 22.9344 102.897 20.93C102.833 21.0373 102.767 21.1461 102.699 21.2562C102.56 21.4834 102.413 21.7179 102.258 21.9552M74.0881 21.0178L101.839 21.6826M74.0881 21.0178C74.0968 20.9606 74.1065 20.9028 74.1171 20.8436M74.0881 21.0178L74.1171 20.8436M102.258 21.9552C102.258 21.9555 102.258 21.9557 102.258 21.956L101.839 21.6826M102.258 21.9552C102.258 21.955 102.258 21.9549 102.259 21.9547L101.839 21.6826M102.258 21.9552C101.282 23.4596 100.024 25.1119 98.6581 26.15C97.9729 26.6706 97.2285 27.0616 96.4518 27.178C95.6573 27.297 94.8636 27.1224 94.1222 26.5734M101.839 21.6826C99.9031 24.6671 96.9593 28.0533 94.4188 26.1709M94.1222 26.5734C94.1222 26.5735 94.1223 26.5736 94.1224 26.5736L94.4188 26.1709M94.1222 26.5734C93.7899 26.3288 93.4749 26.0126 93.1769 25.6266M94.1222 26.5734C94.1218 26.5732 94.1215 26.5729 94.1211 26.5727L94.4188 26.1709M94.4188 26.1709L93.1769 25.6266M93.1769 25.6266C93.1768 25.6264 93.1766 25.6263 93.1765 25.6261L93.5723 25.3206L93.1773 25.6271C93.1771 25.6269 93.177 25.6268 93.1769 25.6266ZM102.742 20.2083C102.745 20.2235 102.749 20.2387 102.752 20.2552L102.752 20.2553L102.755 20.2679C102.767 20.3167 102.778 20.3618 102.789 20.4109C102.796 20.4403 102.803 20.471 102.811 20.5048C102.811 20.5044 102.811 20.5041 102.811 20.5037L102.742 20.2083ZM102.742 20.2083C102.772 20.1564 102.801 20.1051 102.83 20.0543L102.919 20.0332L102.919 20.0332L103.198 19.9674M102.742 20.2083L103.241 20.1481C103.232 20.1091 103.223 20.0706 103.214 20.032C103.208 20.0105 103.203 19.989 103.198 19.9674M74.1171 20.8436C74.1372 20.7339 74.1611 20.6209 74.1881 20.5042C74.2417 20.2735 74.2964 20.0435 74.3521 19.8122C74.3882 19.6642 74.4237 19.5183 74.4602 19.3736L74.4603 19.373C74.4945 19.2364 74.5284 19.1012 74.5631 18.9653L74.1171 20.8436ZM74.6612 18.5864C74.6282 18.711 74.596 18.8368 74.5632 18.965L74.6612 18.5864ZM74.6612 18.5864L74.662 18.5839C74.6639 18.5776 74.666 18.5698 74.6683 18.5606M74.6612 18.5864L74.6683 18.5606M74.6683 18.5606C74.696 18.4553 74.7239 18.3502 74.7523 18.2454C74.9371 18.325 75.122 18.4334 75.3055 18.5773L74.6683 18.5606ZM77.018 21.453C77.0059 21.4201 76.9939 21.385 76.9845 21.3575C76.9814 21.3483 76.9786 21.34 76.9761 21.3329L76.9745 21.3283L76.9746 21.3283C76.9048 21.1202 76.8316 20.9233 76.7566 20.7387L76.7563 20.7379C76.3114 19.6363 75.8037 18.9683 75.3057 18.5774L77.018 21.453ZM77.018 21.453C77.4447 22.6709 78.1989 24.0932 79.5769 24.6947C79.7149 24.7553 79.8579 24.8061 80.0035 24.8474L80.0038 24.8475C80.9001 25.1012 81.8282 24.9731 82.6641 24.6781C83.5016 24.3826 84.2807 23.9082 84.9065 23.4188M77.018 21.453L93.3502 25.039L92.961 25.3529C92.1823 24.3875 91.0002 23.2591 89.7146 22.5942C88.4321 21.9309 87.144 21.7703 86.0162 22.5322L86.0161 22.5323C85.8371 22.6531 85.664 22.7919 85.4805 22.945C85.4358 22.9823 85.3899 23.0209 85.343 23.0604C85.2036 23.1777 85.0558 23.3022 84.9065 23.4188M84.9065 23.4188C84.9064 23.4189 84.9064 23.4189 84.9063 23.419L84.5985 23.025L84.9065 23.4188ZM103.198 19.9674L102.919 20.033L102.919 20.033L102.83 20.0539L103.102 19.5696M103.198 19.9674C103.172 19.8566 103.145 19.7458 103.118 19.635C103.118 19.6345 103.118 19.634 103.118 19.6335C103.113 19.6128 103.108 19.592 103.103 19.5712L103.102 19.5696M103.102 19.5696C103.098 19.5768 103.094 19.584 103.09 19.5912C103.086 19.5984 103.082 19.6056 103.078 19.6129L103.102 19.5696ZM79.7775 24.2367C79.8933 24.2876 80.0148 24.3308 80.14 24.3664L79.7775 24.2367Z"
                fill="white" stroke="white" />
            <path opacity="0.15"
                d="M76.977 20.9876L76.9759 20.9869C76.757 20.8645 76.532 20.7891 76.3045 20.7491C75.5241 20.6137 74.7021 20.9046 74.0535 21.2565C73.803 23.212 74.4534 24.669 75.5904 25.7886C76.7957 26.9753 78.5662 27.7971 80.4542 28.3582C84.2255 29.479 88.2529 29.5 88.4932 29.5H88.4932H88.4933H88.4933H88.4934H88.4934H88.4935H88.4935H88.4936H88.4936H88.4937H88.4937H88.4938H88.4938H88.4939H88.4939H88.494H88.494H88.4941H88.4941H88.4942H88.4942H88.4943H88.4943H88.4944H88.4944H88.4945H88.4945H88.4946H88.4946H88.4946H88.4947H88.4947H88.4948H88.4948H88.4949H88.4949H88.495H88.495H88.4951H88.4951H88.4952H88.4952H88.4952H88.4953H88.4953H88.4954H88.4954H88.4955H88.4955H88.4956H88.4956H88.4957H88.4957H88.4957H88.4958H88.4958H88.4959H88.4959H88.496H88.496H88.496H88.4961H88.4961H88.4962H88.4962H88.4963H88.4963H88.4963H88.4964H88.4964H88.4965H88.4965H88.4966H88.4966H88.4966H88.4967H88.4967H88.4968H88.4968H88.4969H88.4969H88.4969H88.497H88.497H88.4971H88.4971H88.4971H88.4972H88.4972H88.4973H88.4973H88.4973H88.4974H88.4974H88.4975H88.4975H88.4975H88.4976H88.4976H88.4977H88.4977H88.4977H88.4978H88.4978H88.4979H88.4979H88.4979H88.498H88.498H88.4981H88.4981H88.4981H88.4982H88.4982H88.4982H88.4983H88.4983H88.4984H88.4984H88.4984H88.4985H88.4985H88.4985H88.4986H88.4986H88.4987H88.4987H88.4987H88.4988H88.4988H88.4988H88.4989H88.4989H88.4989H88.499H88.499H88.499H88.4991H88.4991H88.4992H88.4992H88.4992H88.4993H88.4993H88.4993H88.4994H88.4994H88.4994H88.4995H88.4995H88.4995H88.4996H88.4996H88.4996H88.4997H88.4997H88.4997H88.4998H88.4998H88.4998H88.4999H88.4999H88.4999H88.5H88.5H88.5H88.5001H88.5001H88.5001H88.5002H88.5002H88.5002H88.5003H88.5003H88.5003H88.5004H88.5004H88.5004H88.5005H88.5005H88.5005H88.5005H88.5006H88.5006H88.5006H88.5007H88.5007H88.5007H88.5008H88.5008H88.5008H88.5009H88.5009H88.5009H88.5009H88.501H88.501H88.501H88.5011H88.5011H88.5011H88.5011H88.5012H88.5012H88.5012H88.5013H88.5013H88.5013H88.5013H88.5014H88.5014H88.5014H88.5015H88.5015H88.5015H88.5015H88.5016H88.5016H88.5016H88.5017H88.5017H88.5017H88.5017H88.5018H88.5018H88.5018H88.5018H88.5019H88.5019H88.5019H88.5019H88.502H88.502H88.502H88.502H88.5021H88.5021H88.5021H88.5021H88.5022H88.5022H88.5022H88.5022H88.5023H88.5023H88.5023H88.5023H88.5024H88.5024H88.5024H88.5024H88.5025H88.5025H88.5025H88.5025H88.5026H88.5026H88.5026H88.5026H88.5027H88.5027H88.5027H88.5027H88.5028H88.5028H88.5028H88.5028H88.5028H88.5029H88.5029H88.5029H88.5029H88.503H88.503H88.503H88.503H88.503H88.5031H88.5031H88.5031H88.5031H88.5031H88.5032H88.5032H88.5032H88.5032H88.5033H88.5033H88.5033H88.5033H88.5033H88.5034H88.5034H88.5034H88.5034H88.5034H88.5035H88.5035H88.5035H88.5035H88.5035H88.5035H88.5036H88.5036H88.5036H88.5036H88.5036H88.5037H88.5037H88.5037H88.5037H88.5037H88.5038H88.5038H88.5038H88.5038H88.5038H88.5038H88.5039H88.5039H88.5039H88.5039H88.5039H88.5039H88.504H88.504H88.504H88.504H88.504H88.504H88.5041H88.5041H88.5041H88.5041H88.5041H88.5041H88.5042H88.5042H88.5042H88.5042H88.5042H88.5042H88.5043H88.5043H88.5043H88.5043H88.5043H88.5043H88.5043H88.5044H88.5044H88.5044H88.5044H88.5044H88.5044H88.5044H88.5045H88.5045H88.5045H88.5045H88.5045H88.5045H88.5045H88.5046H88.5046H88.5046H88.5046H88.5046H88.5046H88.5046H88.5046H88.5047H88.5047H88.5047H88.5047H88.5047H88.5047H88.5047H88.5047H88.5048H88.5048H88.5048H88.5048H88.5048H88.5048H88.5048H88.5048H88.5048H88.5049H88.5049H88.5049H88.5049H88.5049H88.5049H88.5049H88.5049H88.5049H88.505H88.505H88.505H88.505H88.505H88.505H88.505H88.505H88.505H88.505H88.5051H88.5051H88.5051H88.5051H88.5051H88.5051H88.5051H88.5051H88.5051H88.5051H88.5051H88.5051H88.5052H88.5052H88.5052H88.5052H88.5052H88.5052H88.5052H88.5052H88.5052H88.5052H88.5052H88.5052H88.5053H88.5053H88.5053H88.5053H88.5053H88.5053H88.5053H88.5054H88.5054H88.5054H88.5054H88.5054H88.5054H88.5054H88.5054H88.5054H88.5054H88.5054H88.5055H88.5055H88.5055H88.5055H88.5055H88.5055H88.5055H88.5055H88.5055H88.5055C88.7518 29.5 92.9368 29.4781 96.7703 28.2899C98.6899 27.695 100.462 26.825 101.619 25.5718C102.743 24.3542 103.316 22.7448 102.82 20.5447C102.68 20.6132 102.548 20.7207 102.434 20.8411C102.359 20.9198 102.3 20.995 102.261 21.0497C102.242 21.0768 102.227 21.0983 102.219 21.1117L102.215 21.1168L102.207 21.1342C102.194 21.1583 102.176 21.1929 102.152 21.2368C102.105 21.3246 102.035 21.4499 101.944 21.6042M76.977 20.9876L100.569 22.7231L100.962 23.0321C101.403 22.4709 101.733 21.9604 101.944 21.6042M76.977 20.9876C77.3206 21.1786 77.6723 21.4948 78.0017 22.0034L78.0019 22.0036C78.1897 22.2931 78.3704 22.6455 78.5374 23.0713C78.7446 23.6029 79.0268 24.1172 79.3934 24.5566C79.9807 25.2615 80.7917 25.7777 81.8327 25.836L81.8328 25.836C83.4141 25.9241 84.8146 25.0837 85.9224 24.3196L76.977 20.9876ZM101.944 21.6042L101.514 21.3491L101.944 21.604C101.944 21.604 101.944 21.6041 101.944 21.6042ZM103.198 19.9673L102.937 20.0287L102.936 20.0289L102.875 20.0434L102.872 20.044L102.711 20.0818C102.718 20.1108 102.724 20.135 102.729 20.1572C102.738 20.1913 102.745 20.2205 102.752 20.2551L102.752 20.2552L102.755 20.2678C102.767 20.3165 102.778 20.3617 102.789 20.4108C102.796 20.4402 102.803 20.4709 102.811 20.5047C102.811 20.5043 102.811 20.5039 102.811 20.5036L102.975 20.4655L103.003 20.4592L103.008 20.4579L103.018 20.4557L103.198 19.9673Z"
                fill="white" stroke="white" />
            <path opacity="0.15"
                d="M74.0881 21.0178L74.0874 21.0224C73.7524 23.0964 74.4085 24.6249 75.5904 25.7887C76.7957 26.9754 78.5662 27.7972 80.4542 28.3583C84.2255 29.4791 88.2529 29.5001 88.4932 29.5001H88.4932H88.4933H88.4933H88.4934H88.4934H88.4935H88.4935H88.4936H88.4936H88.4937H88.4937H88.4938H88.4938H88.4939H88.4939H88.494H88.494H88.4941H88.4941H88.4942H88.4942H88.4943H88.4943H88.4944H88.4944H88.4945H88.4945H88.4946H88.4946H88.4946H88.4947H88.4947H88.4948H88.4948H88.4949H88.4949H88.495H88.495H88.4951H88.4951H88.4952H88.4952H88.4952H88.4953H88.4953H88.4954H88.4954H88.4955H88.4955H88.4956H88.4956H88.4957H88.4957H88.4957H88.4958H88.4958H88.4959H88.4959H88.496H88.496H88.496H88.4961H88.4961H88.4962H88.4962H88.4963H88.4963H88.4963H88.4964H88.4964H88.4965H88.4965H88.4966H88.4966H88.4966H88.4967H88.4967H88.4968H88.4968H88.4969H88.4969H88.4969H88.497H88.497H88.4971H88.4971H88.4971H88.4972H88.4972H88.4973H88.4973H88.4973H88.4974H88.4974H88.4975H88.4975H88.4975H88.4976H88.4976H88.4977H88.4977H88.4977H88.4978H88.4978H88.4979H88.4979H88.4979H88.498H88.498H88.4981H88.4981H88.4981H88.4982H88.4982H88.4982H88.4983H88.4983H88.4984H88.4984H88.4984H88.4985H88.4985H88.4985H88.4986H88.4986H88.4987H88.4987H88.4987H88.4988H88.4988H88.4988H88.4989H88.4989H88.4989H88.499H88.499H88.499H88.4991H88.4991H88.4992H88.4992H88.4992H88.4993H88.4993H88.4993H88.4994H88.4994H88.4994H88.4995H88.4995H88.4995H88.4996H88.4996H88.4996H88.4997H88.4997H88.4997H88.4998H88.4998H88.4998H88.4999H88.4999H88.4999H88.5H88.5H88.5H88.5001H88.5001H88.5001H88.5002H88.5002H88.5002H88.5003H88.5003H88.5003H88.5004H88.5004H88.5004H88.5005H88.5005H88.5005H88.5005H88.5006H88.5006H88.5006H88.5007H88.5007H88.5007H88.5008H88.5008H88.5008H88.5009H88.5009H88.5009H88.5009H88.501H88.501H88.501H88.5011H88.5011H88.5011H88.5011H88.5012H88.5012H88.5012H88.5013H88.5013H88.5013H88.5013H88.5014H88.5014H88.5014H88.5015H88.5015H88.5015H88.5015H88.5016H88.5016H88.5016H88.5017H88.5017H88.5017H88.5017H88.5018H88.5018H88.5018H88.5018H88.5019H88.5019H88.5019H88.5019H88.502H88.502H88.502H88.502H88.5021H88.5021H88.5021H88.5021H88.5022H88.5022H88.5022H88.5022H88.5023H88.5023H88.5023H88.5023H88.5024H88.5024H88.5024H88.5024H88.5025H88.5025H88.5025H88.5025H88.5026H88.5026H88.5026H88.5026H88.5027H88.5027H88.5027H88.5027H88.5028H88.5028H88.5028H88.5028H88.5028H88.5029H88.5029H88.5029H88.5029H88.503H88.503H88.503H88.503H88.503H88.5031H88.5031H88.5031H88.5031H88.5031H88.5032H88.5032H88.5032H88.5032H88.5033H88.5033H88.5033H88.5033H88.5033H88.5034H88.5034H88.5034H88.5034H88.5034H88.5035H88.5035H88.5035H88.5035H88.5035H88.5035H88.5036H88.5036H88.5036H88.5036H88.5036H88.5037H88.5037H88.5037H88.5037H88.5037H88.5038H88.5038H88.5038H88.5038H88.5038H88.5038H88.5039H88.5039H88.5039H88.5039H88.5039H88.5039H88.504H88.504H88.504H88.504H88.504H88.504H88.5041H88.5041H88.5041H88.5041H88.5041H88.5041H88.5042H88.5042H88.5042H88.5042H88.5042H88.5042H88.5043H88.5043H88.5043H88.5043H88.5043H88.5043H88.5043H88.5044H88.5044H88.5044H88.5044H88.5044H88.5044H88.5044H88.5045H88.5045H88.5045H88.5045H88.5045H88.5045H88.5045H88.5046H88.5046H88.5046H88.5046H88.5046H88.5046H88.5046H88.5046H88.5047H88.5047H88.5047H88.5047H88.5047H88.5047H88.5047H88.5047H88.5048H88.5048H88.5048H88.5048H88.5048H88.5048H88.5048H88.5048H88.5048H88.5049H88.5049H88.5049H88.5049H88.5049H88.5049H88.5049H88.5049H88.5049H88.505H88.505H88.505H88.505H88.505H88.505H88.505H88.505H88.505H88.505H88.5051H88.5051H88.5051H88.5051H88.5051H88.5051H88.5051H88.5051H88.5051H88.5051H88.5051H88.5051H88.5052H88.5052H88.5052H88.5052H88.5052H88.5052H88.5052H88.5052H88.5052H88.5052H88.5052H88.5052H88.5053H88.5053H88.5053H88.5053H88.5053H88.5053H88.5053H88.5054H88.5054H88.5054H88.5054H88.5054H88.5054H88.5054H88.5054H88.5054H88.5054H88.5054H88.5055H88.5055H88.5055H88.5055H88.5055H88.5055H88.5055H88.5055H88.5055H88.5055C88.7518 29.5001 92.9368 29.4782 96.7703 28.29C98.6899 27.6951 100.462 26.8251 101.619 25.5719C102.652 24.453 103.22 23.0031 102.92 21.0681C102.898 21.1037 102.875 21.1397 102.852 21.1759L102.851 21.1772C102.676 21.4464 102.465 21.734 102.212 22.0162C101.842 22.4295 101.382 22.833 100.818 23.1569C99.4902 23.9194 97.6631 24.1941 95.241 23.2599C94.5502 22.9935 93.941 22.5432 93.3661 22.1054C93.3165 22.0677 93.2672 22.0299 93.2179 21.9923C92.6794 21.581 92.1529 21.1789 91.5457 20.8562C90.2728 20.1799 88.596 19.8287 85.8208 20.9144C85.537 21.0255 85.2532 21.1692 84.9537 21.3299C84.8704 21.3746 84.7847 21.4213 84.6974 21.4688C84.48 21.5873 84.2526 21.7111 84.0274 21.8234C83.389 22.1414 82.6619 22.4231 81.8328 22.3769C81.3116 22.348 80.8053 22.2862 80.341 22.1511L80.4807 21.6711M74.0881 21.0178L78.3477 20.3812C78.7372 21.3775 79.4616 21.8966 80.3417 22.1513L80.4807 21.6711M74.0881 21.0178C74.0968 20.9605 74.1065 20.9028 74.1171 20.8436M74.0881 21.0178L74.1171 20.8436M80.4807 21.6711C79.7206 21.451 79.136 21.0244 78.8133 20.199C78.1737 18.5645 76.9239 18.1119 75.6142 18.184L93.5177 21.5921C91.8158 20.2915 89.8603 18.7972 85.6386 20.4488C85.2342 20.607 84.8422 20.8206 84.4496 21.0344C83.6286 21.4817 82.8049 21.9303 81.8606 21.8776C81.3576 21.8498 80.8935 21.7912 80.4807 21.6711ZM74.1171 20.8436C74.1372 20.7339 74.1611 20.6209 74.1881 20.5042C74.2417 20.2735 74.2964 20.0435 74.3521 19.8122C74.3882 19.6642 74.4237 19.5183 74.4602 19.3736L74.4603 19.373C74.4945 19.2364 74.5284 19.1012 74.5631 18.9653L74.1171 20.8436ZM103.116 19.6259C103.111 19.6077 103.107 19.5894 103.103 19.5712L103.102 19.5696L103.102 19.5695C103.101 19.5647 103.1 19.56 103.098 19.5552C103.097 19.56 103.095 19.5655 103.093 19.5714C103.093 19.5716 103.093 19.5717 103.093 19.5719C103.089 19.5835 103.084 19.5971 103.078 19.6128M103.116 19.6259L102.906 20.0362C102.914 20.0187 102.921 20.0015 102.929 19.9847M103.116 19.6259L103.078 19.6128M103.116 19.6259L103.198 19.9674C103.171 19.8536 103.144 19.7399 103.116 19.6262L103.078 19.6128M103.078 19.6128C103.051 19.6916 103.002 19.8204 102.929 19.9847M102.929 19.9847L102.997 20.0147L102.929 19.9847ZM74.5933 18.8476C74.5833 18.8866 74.5732 18.9257 74.5632 18.965L74.5933 18.8476ZM74.5933 18.8476C74.9452 18.7609 75.2985 18.7018 75.6413 18.6832L75.6417 18.6832C76.2337 18.6506 76.7724 18.7391 77.2225 18.9888C77.6645 19.2339 78.0648 19.6584 78.3476 20.381L74.5933 18.8476Z"
                fill="white" stroke="white" />
        </g>
        <path
            d="M114.54 21V9.64H116.78L120.364 16.2L123.964 9.64H126.124V21H123.82V13.816L121.18 18.632H119.484L116.844 13.816V21H114.54ZM135.956 21.24C135.327 21.24 134.746 21.128 134.212 20.904C133.679 20.68 133.215 20.3707 132.82 19.976C132.426 19.5707 132.116 19.096 131.892 18.552C131.679 18.008 131.572 17.416 131.572 16.776C131.572 16.136 131.684 15.5493 131.908 15.016C132.132 14.472 132.442 13.9973 132.836 13.592C133.242 13.1867 133.711 12.872 134.244 12.648C134.788 12.424 135.38 12.312 136.02 12.312C136.65 12.312 137.231 12.424 137.764 12.648C138.298 12.872 138.762 13.1867 139.156 13.592C139.551 13.9867 139.855 14.456 140.068 15C140.292 15.5333 140.404 16.12 140.404 16.76C140.404 17.4 140.292 17.992 140.068 18.536C139.844 19.08 139.53 19.5547 139.124 19.96C138.73 20.3653 138.26 20.68 137.716 20.904C137.183 21.128 136.596 21.24 135.956 21.24ZM135.988 19.224C136.394 19.224 136.756 19.1173 137.076 18.904C137.396 18.6907 137.647 18.4027 137.828 18.04C138.02 17.6667 138.116 17.2453 138.116 16.776C138.116 16.3067 138.02 15.8907 137.828 15.528C137.647 15.1547 137.396 14.8613 137.076 14.648C136.756 14.4347 136.394 14.328 135.988 14.328C135.583 14.328 135.22 14.4347 134.9 14.648C134.58 14.8613 134.324 15.1547 134.132 15.528C133.951 15.8907 133.86 16.3067 133.86 16.776C133.86 17.2453 133.951 17.6667 134.132 18.04C134.324 18.4027 134.58 18.6907 134.9 18.904C135.22 19.1173 135.583 19.224 135.988 19.224ZM149.859 21.24C149.229 21.24 148.648 21.128 148.115 20.904C147.581 20.68 147.117 20.3707 146.723 19.976C146.328 19.5707 146.019 19.096 145.795 18.552C145.581 18.008 145.475 17.416 145.475 16.776C145.475 16.136 145.587 15.5493 145.811 15.016C146.035 14.472 146.344 13.9973 146.739 13.592C147.144 13.1867 147.613 12.872 148.147 12.648C148.691 12.424 149.283 12.312 149.923 12.312C150.552 12.312 151.133 12.424 151.667 12.648C152.2 12.872 152.664 13.1867 153.059 13.592C153.453 13.9867 153.757 14.456 153.971 15C154.195 15.5333 154.307 16.12 154.307 16.76C154.307 17.4 154.195 17.992 153.971 18.536C153.747 19.08 153.432 19.5547 153.027 19.96C152.632 20.3653 152.163 20.68 151.619 20.904C151.085 21.128 150.499 21.24 149.859 21.24ZM149.891 19.224C150.296 19.224 150.659 19.1173 150.979 18.904C151.299 18.6907 151.549 18.4027 151.731 18.04C151.923 17.6667 152.019 17.2453 152.019 16.776C152.019 16.3067 151.923 15.8907 151.731 15.528C151.549 15.1547 151.299 14.8613 150.979 14.648C150.659 14.4347 150.296 14.328 149.891 14.328C149.485 14.328 149.123 14.4347 148.803 14.648C148.483 14.8613 148.227 15.1547 148.035 15.528C147.853 15.8907 147.763 16.3067 147.763 16.776C147.763 17.2453 147.853 17.6667 148.035 18.04C148.227 18.4027 148.483 18.6907 148.803 18.904C149.123 19.1173 149.485 19.224 149.891 19.224ZM159.619 21V12.552H161.683L161.747 13.64C161.992 13.2347 162.328 12.9147 162.755 12.68C163.192 12.4347 163.688 12.312 164.243 12.312C164.862 12.312 165.4 12.4613 165.859 12.76C166.328 13.048 166.691 13.464 166.947 14.008C167.203 14.552 167.331 15.192 167.331 15.928V21H165.091V16.216C165.091 15.6293 164.958 15.1707 164.691 14.84C164.424 14.4987 164.056 14.328 163.587 14.328C163.246 14.328 162.947 14.408 162.691 14.568C162.435 14.7173 162.232 14.9307 162.083 15.208C161.934 15.4853 161.859 15.8 161.859 16.152V21H159.619Z"
            fill="white" />
        <path
            d="M5.044 21.24C4.36133 21.24 3.732 21.1227 3.156 20.888C2.59067 20.6427 2.10533 20.3013 1.7 19.864C1.30533 19.416 1.03333 18.8827 0.884 18.264L3.108 17.784C3.24667 18.2213 3.48667 18.5627 3.828 18.808C4.18 19.0533 4.596 19.176 5.076 19.176C5.41733 19.176 5.716 19.1173 5.972 19C6.23867 18.872 6.44133 18.7013 6.58 18.488C6.72933 18.2747 6.804 18.0293 6.804 17.752C6.804 17.4 6.67067 17.1173 6.404 16.904C6.13733 16.68 5.70533 16.4987 5.108 16.36L4.596 16.248C3.42267 15.992 2.55867 15.5813 2.004 15.016C1.44933 14.44 1.172 13.7413 1.172 12.92C1.172 12.408 1.27333 11.9387 1.476 11.512C1.67867 11.0853 1.956 10.7173 2.308 10.408C2.67067 10.088 3.092 9.84267 3.572 9.672C4.052 9.49067 4.56933 9.4 5.124 9.4C5.75333 9.4 6.34 9.51733 6.884 9.752C7.428 9.98667 7.88667 10.3227 8.26 10.76C8.63333 11.1973 8.884 11.7147 9.012 12.312L6.82 12.792C6.692 12.3653 6.468 12.04 6.148 11.816C5.83867 11.5813 5.476 11.464 5.06 11.464C4.772 11.464 4.51067 11.5227 4.276 11.64C4.052 11.7467 3.87067 11.9013 3.732 12.104C3.604 12.296 3.54 12.5147 3.54 12.76C3.54 13.1333 3.684 13.4213 3.972 13.624C4.26 13.816 4.68667 13.976 5.252 14.104L5.764 14.216C6.92667 14.472 7.78533 14.8773 8.34 15.432C8.90533 15.9867 9.188 16.696 9.188 17.56C9.188 18.104 9.08133 18.6 8.868 19.048C8.66533 19.496 8.37733 19.8853 8.004 20.216C7.63067 20.5467 7.19333 20.8027 6.692 20.984C6.19067 21.1547 5.64133 21.24 5.044 21.24ZM16.8079 10.264C16.8079 10.5093 16.7492 10.728 16.6319 10.92C16.5252 11.112 16.3705 11.2667 16.1679 11.384C15.9759 11.4907 15.7625 11.544 15.5279 11.544C15.2932 11.544 15.0745 11.4907 14.8719 11.384C14.6799 11.2667 14.5252 11.112 14.4079 10.92C14.3012 10.728 14.2479 10.5093 14.2479 10.264C14.2479 10.0187 14.3012 9.8 14.4079 9.608C14.5252 9.416 14.6799 9.26667 14.8719 9.16C15.0745 9.04267 15.2932 8.984 15.5279 8.984C15.7625 8.984 15.9759 9.04267 16.1679 9.16C16.3705 9.26667 16.5252 9.416 16.6319 9.608C16.7492 9.8 16.8079 10.0187 16.8079 10.264ZM14.4079 21V12.552H16.6479V21H14.4079ZM22.2791 21V9.064H24.5191V21H22.2791ZM34.1504 21.24C33.521 21.24 32.9397 21.1333 32.4064 20.92C31.8837 20.696 31.4304 20.3867 31.0464 19.992C30.6624 19.5867 30.3637 19.112 30.1504 18.568C29.937 18.0133 29.8304 17.4107 29.8304 16.76C29.8304 16.1307 29.937 15.544 30.1504 15C30.3637 14.456 30.657 13.9867 31.0304 13.592C31.4144 13.1867 31.8624 12.872 32.3744 12.648C32.8864 12.424 33.441 12.312 34.0384 12.312C34.657 12.312 35.217 12.4187 35.7184 12.632C36.2304 12.8453 36.6677 13.1493 37.0304 13.544C37.393 13.9387 37.6704 14.408 37.8624 14.952C38.065 15.496 38.1664 16.104 38.1664 16.776V17.336H32.1024C32.1984 17.9653 32.4277 18.4613 32.7904 18.824C33.153 19.176 33.6117 19.352 34.1664 19.352C34.5504 19.352 34.897 19.2613 35.2064 19.08C35.5264 18.8987 35.7877 18.6373 35.9904 18.296L37.9904 18.936C37.7984 19.416 37.5104 19.8267 37.1264 20.168C36.7424 20.5093 36.2944 20.776 35.7824 20.968C35.2704 21.1493 34.7264 21.24 34.1504 21.24ZM34.0384 14.04C33.5477 14.04 33.1317 14.2 32.7904 14.52C32.4597 14.84 32.241 15.2773 32.1344 15.832H35.8624C35.777 15.2773 35.569 14.84 35.2384 14.52C34.9184 14.2 34.5184 14.04 34.0384 14.04ZM43.3966 21V12.552H45.4606L45.5246 13.64C45.77 13.2347 46.106 12.9147 46.5326 12.68C46.97 12.4347 47.466 12.312 48.0206 12.312C48.6393 12.312 49.178 12.4613 49.6366 12.76C50.106 13.048 50.4686 13.464 50.7246 14.008C50.9806 14.552 51.1086 15.192 51.1086 15.928V21H48.8686V16.216C48.8686 15.6293 48.7353 15.1707 48.4686 14.84C48.202 14.4987 47.834 14.328 47.3646 14.328C47.0233 14.328 46.7246 14.408 46.4686 14.568C46.2126 14.7173 46.01 14.9307 45.8606 15.208C45.7113 15.4853 45.6366 15.8 45.6366 16.152V21H43.3966ZM60.1663 21.24C59.5796 21.24 59.0729 21.128 58.6463 20.904C58.2303 20.6693 57.9049 20.3333 57.6703 19.896C57.4463 19.4587 57.3343 18.9253 57.3343 18.296V14.36H55.8943V12.552H57.3343V9.672H59.5743V12.552H61.8783V14.36H59.5743V18.024C59.5743 18.4293 59.6596 18.744 59.8303 18.968C60.0009 19.1813 60.2623 19.288 60.6143 19.288C60.7956 19.288 60.9876 19.2613 61.1903 19.208C61.4036 19.1547 61.6063 19.0853 61.7983 19L62.1983 20.68C61.9209 20.8507 61.6116 20.984 61.2703 21.08C60.9289 21.1867 60.5609 21.24 60.1663 21.24Z"
            fill="white" />
    </g>
</svg>
