<svg width="169" height="30" viewBox="0 0 169 30" fill="none" xmlns="http://www.w3.org/2000/svg">
    <defs>
        <radialGradient id="paint0_radial_1_3665" cx="0" cy="0" r="1" gradientUnits="userSpaceOnUse"
            gradientTransform="translate(88.5001 14.9998) scale(14.9075 15.0942)">
            <stop offset="2.23767e-07" stop-color="#8485E0" />
            <stop offset="1" stop-color="#7680FC" />
        </radialGradient>
        <clipPath id="clip0_1_3665">
            <rect width="30" height="30" fill="white" transform="translate(73.5)" />
        </clipPath>
    </defs>

    <g clip-path="url(#clip0_1_3665)">
        <path
            d="M88.506 29.9997C88.506 29.9997 88.5022 29.9997 88.4936 29.9997C87.9925 29.9997 72.1441 29.919 73.5942 20.9424C73.6037 20.8799 73.6141 20.8174 73.6255 20.754C73.6474 20.6349 73.673 20.5138 73.7015 20.3908C73.7555 20.1583 73.8106 19.9267 73.8666 19.6942C73.9026 19.5462 73.9387 19.3982 73.9757 19.2512C74.0099 19.1147 74.044 18.9783 74.0792 18.8409C74.1124 18.7112 74.1456 18.5815 74.1798 18.4527C74.1807 18.4479 74.1826 18.444 74.1835 18.4392C74.2471 18.1971 74.3126 17.955 74.3809 17.7138C74.3895 17.6811 74.398 17.6484 74.4075 17.6158C74.9019 15.8487 75.4875 14.1075 76.2049 12.4221C76.9879 10.5859 77.9739 8.93506 79.1193 7.30827C80.7839 4.94544 82.7512 2.35968 85.2537 0.855885C86.2198 0.274546 87.3681 -0.0905927 88.5003 0.0189489C89.6324 -0.0905927 90.7798 0.274546 91.7459 0.855885C94.2484 2.35968 96.2157 4.94544 97.8802 7.30827C99.0257 8.93506 100.012 10.5859 100.794 12.4221C101.682 14.5044 102.366 16.6722 102.927 18.8697C102.986 19.0975 103.043 19.3261 103.099 19.5548C103.101 19.5596 103.102 19.5644 103.103 19.5692C103.135 19.7019 103.167 19.8345 103.198 19.9671C103.213 20.0276 103.228 20.0872 103.241 20.1477C103.261 20.2284 103.279 20.3101 103.298 20.3908C105.498 29.9161 89.0175 29.9997 88.506 29.9997Z"
            fill="url(#paint0_radial_1_3665)" />
        <circle cx="92.5002" cy="8.00006" r="2" fill="#D7D9FF" />
        <path
            d="M88.5057 29.9998C88.5057 29.9998 88.5019 29.9998 88.4934 29.9998C87.9923 29.9998 72.1439 29.9191 73.594 20.9424C73.6035 20.88 73.6139 20.8175 73.6253 20.7541C73.6471 20.6349 73.6727 20.5139 73.7012 20.3909C73.7553 20.1583 73.8103 19.9268 73.8663 19.6942C73.9024 19.5462 73.9385 19.3983 73.9755 19.2512C74.0096 19.1148 74.0438 18.9784 74.0789 18.8409C74.1121 18.7112 74.1453 18.5815 74.1795 18.4527C74.1805 18.4479 74.1824 18.4441 74.1833 18.4393C74.2469 18.1971 74.3124 17.955 74.3807 17.7138C74.4158 17.6869 74.4519 17.66 74.487 17.6331C76.1572 16.3686 78.1074 14.6486 78.6237 13.1842C80.2019 8.71027 83.3384 11.2614 84.6129 12.5644C85.0181 12.9785 85.6502 13.0612 86.1408 12.7566C86.8022 12.3453 87.7218 11.5516 88.63 10.0363C89.3076 8.90629 90.715 8.45947 91.8908 9.03313C93.7917 9.96135 96.9955 12.3367 102.254 18.0847C102.497 18.3509 102.722 18.6123 102.927 18.8698C102.986 19.0975 103.043 19.3262 103.099 19.5549C103.1 19.5597 103.101 19.5645 103.102 19.5693C103.135 19.7019 103.167 19.8345 103.198 19.9671C103.212 20.0276 103.228 20.0872 103.241 20.1478C103.261 20.2285 103.279 20.3101 103.298 20.3909C105.498 29.9162 89.0172 29.9998 88.5057 29.9998Z"
            fill="#8589EB" />
        <path opacity="0.15"
            d="M88.5057 30C88.5057 30 88.5019 30 88.4934 30C87.9923 30 72.1439 29.9193 73.594 20.9426C73.6035 20.8802 73.6139 20.8177 73.6253 20.7543C73.6471 20.6351 73.6727 20.5141 73.7012 20.3911C73.7553 20.1585 73.8103 19.9269 73.8663 19.6944C73.9024 19.5464 73.9385 19.3985 73.9755 19.2514C74.7375 19.0929 75.5717 19.1986 76.2009 20.0182C76.2635 20.0989 76.3262 20.1787 76.3907 20.2565C76.7219 20.6563 77.0844 21.0108 77.4887 21.2837C77.7772 21.4788 78.0866 21.6325 78.4216 21.7315C79.0194 21.9093 79.6989 21.9131 80.4809 21.671C81.4593 21.3692 82.5991 20.6822 83.9448 19.4667C87.98 15.822 93.6512 18.4722 95.5046 20.9023C96.6662 22.4243 99.09 22.0976 100.678 21.6335C100.961 21.5509 101.241 21.4576 101.514 21.3491C101.774 21.2453 102.028 21.129 102.273 20.9945C102.326 20.9657 102.379 20.9359 102.431 20.9051C102.576 20.8206 102.716 20.7303 102.854 20.6322C102.98 20.5419 103.107 20.442 103.179 20.3036C103.206 20.2546 103.224 20.2018 103.241 20.148C103.261 20.2287 103.279 20.3103 103.298 20.3911C105.498 29.9164 89.0172 30 88.5057 30Z"
            fill="white" />
        <path opacity="0.15"
            d="M88.5057 30.0001C88.5057 30.0001 88.5019 30.0001 88.4934 30.0001C87.9923 30.0001 72.1439 29.9194 73.594 20.9427C73.6035 20.8803 73.6139 20.8178 73.6253 20.7544C73.6471 20.6352 73.6727 20.5142 73.7012 20.3912C73.7553 20.1586 73.8103 19.9271 73.8663 19.6945C73.9024 19.5466 73.9385 19.3986 73.9755 19.2516C74.0096 19.1151 74.0438 18.9787 74.0789 18.8413C74.1121 18.7115 74.1453 18.5818 74.1795 18.4531C74.1805 18.4483 74.1824 18.4444 74.1833 18.4396C74.2469 18.1975 74.3124 17.9553 74.3807 17.7141C74.3892 17.6815 74.3978 17.6488 74.4073 17.6161C74.4338 17.6219 74.4604 17.6276 74.487 17.6334C74.8685 17.7228 75.2481 17.8967 75.6144 18.184C76.2009 18.6443 76.7532 19.3947 77.2201 20.5507C77.2989 20.7448 77.3758 20.9514 77.4488 21.1695C77.4621 21.2079 77.4745 21.2454 77.4887 21.2838C77.9053 22.4744 78.599 23.7226 79.7777 24.2367C79.8935 24.2876 80.015 24.3308 80.1402 24.3664C81.671 24.7998 83.4105 23.9542 84.5987 23.025C84.9811 22.7261 85.3351 22.3889 85.7365 22.1179C88.4175 20.3066 91.739 23.0413 93.3504 25.039C93.4254 25.1322 93.4994 25.2264 93.5725 25.3206C93.8477 25.677 94.1305 25.9586 94.419 26.1709C96.9595 28.0533 99.9033 24.6671 101.839 21.6826C101.991 21.4501 102.135 21.2195 102.273 20.9946C102.486 20.6477 102.683 20.3133 102.861 20.0001C102.937 19.8665 103.009 19.7368 103.079 19.6129C103.086 19.5984 103.095 19.584 103.102 19.5696C103.135 19.7022 103.167 19.8348 103.198 19.9674C103.212 20.028 103.228 20.0875 103.241 20.1481C103.261 20.2288 103.279 20.3105 103.298 20.3912C105.498 29.9165 89.0172 30.0001 88.5057 30.0001Z"
            fill="white" />
        <path opacity="0.15"
            d="M88.5057 30C88.5057 30 88.5019 30 88.4934 30C87.9923 30 72.1439 29.9192 73.594 20.9426C74.2972 20.5256 75.3449 20.0749 76.3907 20.2565C76.6697 20.3055 76.9487 20.3987 77.2201 20.5506C77.6453 20.7869 78.0543 21.1646 78.4216 21.7315C78.6303 22.0534 78.8258 22.4368 79.0033 22.8894C79.195 23.3813 79.4522 23.8464 79.7777 24.2365C80.2949 24.8573 80.9848 25.2878 81.8608 25.3368C83.2568 25.4146 84.5313 24.6718 85.6388 23.9079C88.1574 22.1716 90.3031 25.3175 92.8588 25.9642C93.4016 26.1016 93.9217 26.166 94.419 26.1708C97.2679 26.2006 99.3595 24.2634 100.569 22.7231C100.995 22.1822 101.312 21.6902 101.514 21.3491C101.689 21.0531 101.779 20.8715 101.779 20.8715C101.779 20.8715 102.196 20.1633 102.861 20C102.883 19.9932 102.906 19.9884 102.929 19.9846C103.015 19.9683 103.105 19.9625 103.198 19.9673C103.212 20.0278 103.228 20.0874 103.241 20.148C103.261 20.2287 103.279 20.3103 103.298 20.3911C105.498 29.9164 89.0172 30 88.5057 30Z"
            fill="white" />
        <path opacity="0.15"
            d="M88.5057 30.0001C88.5057 30.0001 88.5019 30.0001 88.4934 30.0001C87.9923 30.0001 72.1439 29.9194 73.594 20.9427C73.6035 20.8802 73.6139 20.8178 73.6253 20.7544C73.6471 20.6352 73.6727 20.5141 73.7012 20.3912C73.7553 20.1586 73.8103 19.927 73.8663 19.6945C73.9024 19.5465 73.9385 19.3985 73.9755 19.2515C74.0096 19.1151 74.0438 18.9786 74.0789 18.8412C74.1121 18.7115 74.1453 18.5818 74.1795 18.453C74.1805 18.4482 74.1824 18.4444 74.1833 18.4396C74.6502 18.306 75.1361 18.2099 75.6144 18.184C76.924 18.1119 78.1739 18.5645 78.8135 20.199C79.1362 21.0244 79.7208 21.451 80.4809 21.6711C80.8937 21.7912 81.3578 21.8498 81.8608 21.8776C83.2568 21.9555 84.3889 20.9379 85.6388 20.4488C91.4353 18.1811 92.9594 21.844 95.4211 22.7934C97.7206 23.6803 99.388 23.4016 100.569 22.7232C101.08 22.4302 101.5 22.0631 101.839 21.6826C102.073 21.4231 102.268 21.157 102.431 20.9052C102.657 20.5545 102.821 20.2307 102.929 19.9847C103.002 19.8204 103.051 19.6916 103.079 19.6128C103.087 19.5888 103.094 19.5696 103.099 19.5552C103.1 19.56 103.101 19.5648 103.102 19.5696C103.135 19.7022 103.167 19.8348 103.198 19.9674C103.212 20.0279 103.228 20.0875 103.241 20.148C103.261 20.2288 103.279 20.3104 103.298 20.3912C105.498 29.9165 89.0172 30.0001 88.5057 30.0001Z"
            fill="white" />
    </g>
    <path
        d="M114.54 21V9.64H116.78L120.364 16.2L123.964 9.64H126.124V21H123.82V13.816L121.18 18.632H119.484L116.844 13.816V21H114.54ZM135.956 21.24C135.327 21.24 134.746 21.128 134.212 20.904C133.679 20.68 133.215 20.3707 132.82 19.976C132.426 19.5707 132.116 19.096 131.892 18.552C131.679 18.008 131.572 17.416 131.572 16.776C131.572 16.136 131.684 15.5493 131.908 15.016C132.132 14.472 132.442 13.9973 132.836 13.592C133.242 13.1867 133.711 12.872 134.244 12.648C134.788 12.424 135.38 12.312 136.02 12.312C136.65 12.312 137.231 12.424 137.764 12.648C138.298 12.872 138.762 13.1867 139.156 13.592C139.551 13.9867 139.855 14.456 140.068 15C140.292 15.5333 140.404 16.12 140.404 16.76C140.404 17.4 140.292 17.992 140.068 18.536C139.844 19.08 139.53 19.5547 139.124 19.96C138.73 20.3653 138.26 20.68 137.716 20.904C137.183 21.128 136.596 21.24 135.956 21.24ZM135.988 19.224C136.394 19.224 136.756 19.1173 137.076 18.904C137.396 18.6907 137.647 18.4027 137.828 18.04C138.02 17.6667 138.116 17.2453 138.116 16.776C138.116 16.3067 138.02 15.8907 137.828 15.528C137.647 15.1547 137.396 14.8613 137.076 14.648C136.756 14.4347 136.394 14.328 135.988 14.328C135.583 14.328 135.22 14.4347 134.9 14.648C134.58 14.8613 134.324 15.1547 134.132 15.528C133.951 15.8907 133.86 16.3067 133.86 16.776C133.86 17.2453 133.951 17.6667 134.132 18.04C134.324 18.4027 134.58 18.6907 134.9 18.904C135.22 19.1173 135.583 19.224 135.988 19.224ZM149.859 21.24C149.229 21.24 148.648 21.128 148.115 20.904C147.581 20.68 147.117 20.3707 146.723 19.976C146.328 19.5707 146.019 19.096 145.795 18.552C145.581 18.008 145.475 17.416 145.475 16.776C145.475 16.136 145.587 15.5493 145.811 15.016C146.035 14.472 146.344 13.9973 146.739 13.592C147.144 13.1867 147.613 12.872 148.147 12.648C148.691 12.424 149.283 12.312 149.923 12.312C150.552 12.312 151.133 12.424 151.667 12.648C152.2 12.872 152.664 13.1867 153.059 13.592C153.453 13.9867 153.757 14.456 153.971 15C154.195 15.5333 154.307 16.12 154.307 16.76C154.307 17.4 154.195 17.992 153.971 18.536C153.747 19.08 153.432 19.5547 153.027 19.96C152.632 20.3653 152.163 20.68 151.619 20.904C151.085 21.128 150.499 21.24 149.859 21.24ZM149.891 19.224C150.296 19.224 150.659 19.1173 150.979 18.904C151.299 18.6907 151.549 18.4027 151.731 18.04C151.923 17.6667 152.019 17.2453 152.019 16.776C152.019 16.3067 151.923 15.8907 151.731 15.528C151.549 15.1547 151.299 14.8613 150.979 14.648C150.659 14.4347 150.296 14.328 149.891 14.328C149.485 14.328 149.123 14.4347 148.803 14.648C148.483 14.8613 148.227 15.1547 148.035 15.528C147.853 15.8907 147.763 16.3067 147.763 16.776C147.763 17.2453 147.853 17.6667 148.035 18.04C148.227 18.4027 148.483 18.6907 148.803 18.904C149.123 19.1173 149.485 19.224 149.891 19.224ZM159.619 21V12.552H161.683L161.747 13.64C161.992 13.2347 162.328 12.9147 162.755 12.68C163.192 12.4347 163.688 12.312 164.243 12.312C164.862 12.312 165.4 12.4613 165.859 12.76C166.328 13.048 166.691 13.464 166.947 14.008C167.203 14.552 167.331 15.192 167.331 15.928V21H165.091V16.216C165.091 15.6293 164.958 15.1707 164.691 14.84C164.424 14.4987 164.056 14.328 163.587 14.328C163.246 14.328 162.947 14.408 162.691 14.568C162.435 14.7173 162.232 14.9307 162.083 15.208C161.934 15.4853 161.859 15.8 161.859 16.152V21H159.619Z"
        fill="#3F414E" />
    <path
        d="M5.044 21.24C4.36133 21.24 3.732 21.1227 3.156 20.888C2.59067 20.6427 2.10533 20.3013 1.7 19.864C1.30533 19.416 1.03333 18.8827 0.884 18.264L3.108 17.784C3.24667 18.2213 3.48667 18.5627 3.828 18.808C4.18 19.0533 4.596 19.176 5.076 19.176C5.41733 19.176 5.716 19.1173 5.972 19C6.23867 18.872 6.44133 18.7013 6.58 18.488C6.72933 18.2747 6.804 18.0293 6.804 17.752C6.804 17.4 6.67067 17.1173 6.404 16.904C6.13733 16.68 5.70533 16.4987 5.108 16.36L4.596 16.248C3.42267 15.992 2.55867 15.5813 2.004 15.016C1.44933 14.44 1.172 13.7413 1.172 12.92C1.172 12.408 1.27333 11.9387 1.476 11.512C1.67867 11.0853 1.956 10.7173 2.308 10.408C2.67067 10.088 3.092 9.84267 3.572 9.672C4.052 9.49067 4.56933 9.4 5.124 9.4C5.75333 9.4 6.34 9.51733 6.884 9.752C7.428 9.98667 7.88667 10.3227 8.26 10.76C8.63333 11.1973 8.884 11.7147 9.012 12.312L6.82 12.792C6.692 12.3653 6.468 12.04 6.148 11.816C5.83867 11.5813 5.476 11.464 5.06 11.464C4.772 11.464 4.51067 11.5227 4.276 11.64C4.052 11.7467 3.87067 11.9013 3.732 12.104C3.604 12.296 3.54 12.5147 3.54 12.76C3.54 13.1333 3.684 13.4213 3.972 13.624C4.26 13.816 4.68667 13.976 5.252 14.104L5.764 14.216C6.92667 14.472 7.78533 14.8773 8.34 15.432C8.90533 15.9867 9.188 16.696 9.188 17.56C9.188 18.104 9.08133 18.6 8.868 19.048C8.66533 19.496 8.37733 19.8853 8.004 20.216C7.63067 20.5467 7.19333 20.8027 6.692 20.984C6.19067 21.1547 5.64133 21.24 5.044 21.24ZM16.8079 10.264C16.8079 10.5093 16.7492 10.728 16.6319 10.92C16.5252 11.112 16.3705 11.2667 16.1679 11.384C15.9759 11.4907 15.7625 11.544 15.5279 11.544C15.2932 11.544 15.0745 11.4907 14.8719 11.384C14.6799 11.2667 14.5252 11.112 14.4079 10.92C14.3012 10.728 14.2479 10.5093 14.2479 10.264C14.2479 10.0187 14.3012 9.8 14.4079 9.608C14.5252 9.416 14.6799 9.26667 14.8719 9.16C15.0745 9.04267 15.2932 8.984 15.5279 8.984C15.7625 8.984 15.9759 9.04267 16.1679 9.16C16.3705 9.26667 16.5252 9.416 16.6319 9.608C16.7492 9.8 16.8079 10.0187 16.8079 10.264ZM14.4079 21V12.552H16.6479V21H14.4079ZM22.2791 21V9.064H24.5191V21H22.2791ZM34.1504 21.24C33.521 21.24 32.9397 21.1333 32.4064 20.92C31.8837 20.696 31.4304 20.3867 31.0464 19.992C30.6624 19.5867 30.3637 19.112 30.1504 18.568C29.937 18.0133 29.8304 17.4107 29.8304 16.76C29.8304 16.1307 29.937 15.544 30.1504 15C30.3637 14.456 30.657 13.9867 31.0304 13.592C31.4144 13.1867 31.8624 12.872 32.3744 12.648C32.8864 12.424 33.441 12.312 34.0384 12.312C34.657 12.312 35.217 12.4187 35.7184 12.632C36.2304 12.8453 36.6677 13.1493 37.0304 13.544C37.393 13.9387 37.6704 14.408 37.8624 14.952C38.065 15.496 38.1664 16.104 38.1664 16.776V17.336H32.1024C32.1984 17.9653 32.4277 18.4613 32.7904 18.824C33.153 19.176 33.6117 19.352 34.1664 19.352C34.5504 19.352 34.897 19.2613 35.2064 19.08C35.5264 18.8987 35.7877 18.6373 35.9904 18.296L37.9904 18.936C37.7984 19.416 37.5104 19.8267 37.1264 20.168C36.7424 20.5093 36.2944 20.776 35.7824 20.968C35.2704 21.1493 34.7264 21.24 34.1504 21.24ZM34.0384 14.04C33.5477 14.04 33.1317 14.2 32.7904 14.52C32.4597 14.84 32.241 15.2773 32.1344 15.832H35.8624C35.777 15.2773 35.569 14.84 35.2384 14.52C34.9184 14.2 34.5184 14.04 34.0384 14.04ZM43.3966 21V12.552H45.4606L45.5246 13.64C45.77 13.2347 46.106 12.9147 46.5326 12.68C46.97 12.4347 47.466 12.312 48.0206 12.312C48.6393 12.312 49.178 12.4613 49.6366 12.76C50.106 13.048 50.4686 13.464 50.7246 14.008C50.9806 14.552 51.1086 15.192 51.1086 15.928V21H48.8686V16.216C48.8686 15.6293 48.7353 15.1707 48.4686 14.84C48.202 14.4987 47.834 14.328 47.3646 14.328C47.0233 14.328 46.7246 14.408 46.4686 14.568C46.2126 14.7173 46.01 14.9307 45.8606 15.208C45.7113 15.4853 45.6366 15.8 45.6366 16.152V21H43.3966ZM60.1663 21.24C59.5796 21.24 59.0729 21.128 58.6463 20.904C58.2303 20.6693 57.9049 20.3333 57.6703 19.896C57.4463 19.4587 57.3343 18.9253 57.3343 18.296V14.36H55.8943V12.552H57.3343V9.672H59.5743V12.552H61.8783V14.36H59.5743V18.024C59.5743 18.4293 59.6596 18.744 59.8303 18.968C60.0009 19.1813 60.2623 19.288 60.6143 19.288C60.7956 19.288 60.9876 19.2613 61.1903 19.208C61.4036 19.1547 61.6063 19.0853 61.7983 19L62.1983 20.68C61.9209 20.8507 61.6116 20.984 61.2703 21.08C60.9289 21.1867 60.5609 21.24 60.1663 21.24Z"
        fill="#3F414E" />
</svg>
