<svg width="178" height="210" viewBox="0 0 178 210" fill="none" xmlns="http://www.w3.org/2000/svg">
<rect x="0.5" width="177" height="210" fill="#8E97FD"/>
<mask id="mask0_1_6" style="mask-type:alpha" maskUnits="userSpaceOnUse" x="0" y="0" width="178" height="210">
<rect x="0.5" width="177" height="210" rx="10" fill="#8E97FD"/>
</mask>
<g mask="url(#mask0_1_6)">
<path d="M148.913 -5.50246C143.438 -2.19066 138.85 2.5551 133.05 5.25234C126.665 8.2196 119.385 8.44618 112.609 10.355C100.743 13.6979 90.538 22.5159 85.4974 33.7828C80.4568 45.0497 80.6736 58.5514 86.0767 69.6476C87.6599 72.9005 89.7046 75.995 92.496 78.2949C98.4816 83.23 106.927 83.8073 114.638 83.019C122.349 82.2306 130.045 80.3062 137.756 81.0884C143.147 81.6377 148.352 83.4969 153.758 83.8694C159.136 84.2388 164.521 83.1152 169.639 81.4174C179.234 78.2328 188.355 72.7918 194.309 64.6101C200.264 56.4284 202.606 45.2546 198.792 35.8779C195.294 27.2741 187.335 21.2557 182.995 13.043C180.938 9.15076 179.739 4.84263 177.579 1.00629C171.972 -8.96013 158.281 -11.1701 148.913 -5.50246Z" fill="#808AFF"/>
<path d="M121.569 -6.67233C120.633 -6.20986 119.71 -5.68842 118.975 -4.9466C118.263 -4.22651 117.761 -3.3326 117.275 -2.44491C116.413 -0.868159 115.552 0.969312 116.169 2.65469C116.574 3.76276 117.572 4.57597 118.675 4.99499C119.778 5.4109 120.977 5.47918 122.154 5.46367C125.723 5.41711 129.28 4.63494 132.542 3.18545C133.524 2.74781 134.491 2.24499 135.306 1.54352C136.133 0.832743 136.79 -0.0673695 137.288 -1.03887C138.159 -2.73356 138.509 -4.9435 137.341 -6.45196C136.508 -7.52899 135.113 -7.97905 133.781 -8.24908C129.493 -9.11816 125.5 -8.61844 121.569 -6.67233Z" fill="#808AFF"/>
<path d="M176.61 82.9296C176.554 82.9296 176.498 82.9048 176.464 82.8551C176.402 82.7744 176.421 82.6596 176.501 82.5975C182.905 77.7586 187.902 71.2716 190.948 63.841C191.471 62.5653 191.759 60.6689 191.161 59.5143C190.904 59.0177 190.501 58.7042 189.969 58.5862C189.259 58.4248 188.522 58.7135 187.884 58.999C186.548 59.5888 185.253 60.3026 184.036 61.1189C183.441 61.5162 182.852 61.9477 182.291 62.3946C182.223 62.4474 182.127 62.5436 182.013 62.6554C181.449 63.2047 180.99 63.6175 180.631 63.481C180.541 63.4468 180.491 63.3475 180.519 63.2575C180.609 62.9533 180.718 62.6678 180.82 62.3915C181.055 61.7645 181.275 61.1686 181.288 60.4454C181.297 59.8712 181.17 59.4677 180.91 59.2473C180.674 59.0487 180.312 58.9804 179.835 59.0394C178.772 59.1728 177.784 59.7781 177.124 60.6968C177.077 60.762 176.991 60.7899 176.916 60.762C176.839 60.7341 176.789 60.6627 176.792 60.5789C176.814 60.0978 176.913 59.6043 177.009 59.1294C177.059 58.8842 177.108 58.639 177.146 58.3969C178.041 52.7231 178.487 46.9344 178.465 41.1923C178.459 39.1841 178.09 34.4353 174.831 33.6593C172.817 33.1813 170.804 34.6308 169.586 36.1455C166.627 39.8359 165.93 44.9324 165.37 49.0295C165.357 49.1226 165.277 49.1878 165.184 49.1878C165.091 49.1847 165.013 49.1133 165.004 49.0202C164.902 47.9028 164.276 46.8289 163.288 46.0778C162.299 45.3266 161.097 45.0131 159.994 45.2149C158.891 45.4197 157.885 46.1429 157.228 47.1982C156.785 47.909 156.549 48.6974 156.537 49.464C156.673 49.8396 156.726 50.2338 156.679 50.6311C156.67 50.718 156.599 50.7863 156.512 50.7925C156.416 50.7987 156.345 50.7428 156.32 50.659C156.218 50.2928 156.168 49.9141 156.168 49.5292C156.001 49.1133 155.71 48.7253 155.307 48.4056C154.384 47.6669 153.073 47.4124 152.048 47.7725C149.984 48.4988 148.909 50.7708 148.59 52.6548C148.59 52.6548 148.59 52.6548 148.59 52.6579C148.575 52.7572 148.482 52.8224 148.38 52.81C148.28 52.7945 148.212 52.6982 148.228 52.5989C148.398 51.5374 147.915 50.5162 146.896 49.7899C145.52 48.8091 143.618 48.6353 142.27 49.3647C139.606 50.8111 138.689 54.1664 138.388 56.727C138.379 56.8201 138.298 56.8884 138.205 56.8884C138.205 56.8884 138.202 56.8884 138.199 56.8884C138.103 56.8853 138.029 56.8108 138.023 56.7177L137.437 47.4466C137.288 45.0721 136.601 41.0185 133.682 40.5622C130.909 40.1277 129.038 43.4209 128.533 44.4389C126.962 47.5955 126.154 51.1153 126.185 54.6412C126.197 54.7933 126.2 54.9454 126.194 55.0975C126.188 55.1968 126.101 55.2682 126.008 55.2713C125.909 55.2713 125.828 55.1906 125.825 55.0944C125.822 54.9485 125.819 54.8057 125.816 54.6599C125.732 53.7256 125.231 52.8007 124.419 52.124C123.486 51.345 122.306 51.0284 121.262 51.2767C120.218 51.525 119.304 52.3351 118.814 53.4494C118.328 54.5637 118.35 55.7866 118.876 56.7239C118.92 56.7984 118.904 56.8946 118.839 56.9505C118.774 57.0064 118.678 57.0126 118.61 56.9629C117.51 56.1714 117.12 54.7778 116.742 53.4276C116.323 51.9378 115.927 50.5287 114.638 50.0538C113.309 49.5634 111.825 50.5597 111.212 51.7671C110.542 53.0831 110.564 54.6599 110.583 56.0504C110.583 56.1435 110.518 56.2211 110.425 56.2335C110.335 56.249 110.248 56.1901 110.22 56.1032C108.625 50.5504 105.22 45.5563 100.641 42.0459C98.6829 40.5436 95.9318 39.6621 94.519 41.2668C93.887 41.9869 93.7259 43.036 93.6453 44.0603C93.1744 50.1407 94.454 56.4756 97.2484 61.8949C97.2918 61.9756 97.267 62.0749 97.1927 62.1277C97.1183 62.1805 97.0161 62.1712 96.9541 62.1029C96.1517 61.24 95.2409 60.2654 94.0822 59.806C93.0474 59.3963 91.5665 59.4925 90.8632 60.4796C90.5039 60.9855 90.4016 61.6373 90.3583 62.1494C90.2157 63.7386 90.4698 65.3557 91.0956 66.8238C91.1328 66.9138 91.0956 67.0162 91.0089 67.0597C90.9221 67.1031 90.8168 67.0721 90.7672 66.9883C89.8626 65.4085 88.7101 63.6672 87.0185 62.6988C85.5035 61.8328 83.1675 61.6714 81.8199 63.0744C79.3848 65.6133 82.2381 69.8594 83.5796 71.5665C86.6064 75.4214 90.0392 79.7947 94.8505 81.9178C94.9435 81.9581 94.9837 82.0667 94.9435 82.1599C94.9032 82.253 94.7947 82.2964 94.7018 82.253C89.8068 80.0927 86.3462 75.6822 83.2915 71.793C81.8911 70.0083 78.9169 65.5667 81.5534 62.8167C83.0312 61.2772 85.5624 61.4417 87.1982 62.376C88.4746 63.1054 89.4505 64.2445 90.2436 65.4333C89.9772 64.3531 89.8873 63.2265 89.9896 62.1153C90.0392 61.5597 90.1507 60.8458 90.5627 60.2654C91.3837 59.1139 93.0226 58.9897 94.2154 59.4646C95.0612 59.7998 95.7706 60.3802 96.3965 60.9979C93.9056 55.7121 92.8274 49.8738 93.2798 44.0292C93.3634 42.9398 93.54 41.8224 94.2433 41.0216C95.8109 39.2369 98.7727 40.1494 100.864 41.751C105.189 45.0659 108.476 49.6782 110.214 54.843C110.239 53.7473 110.369 52.6113 110.883 51.5964C111.568 50.2524 113.244 49.1475 114.762 49.7061C116.231 50.2462 116.667 51.8105 117.095 53.3252C117.374 54.3153 117.659 55.3303 118.226 56.0721C117.996 55.1999 118.08 54.2129 118.48 53.2973C119.013 52.0775 120.023 51.1867 121.178 50.9135C122.334 50.6404 123.635 50.9849 124.654 51.8354C125.175 52.2699 125.578 52.7976 125.844 53.3687C125.993 50.2152 126.798 47.102 128.205 44.2713C128.741 43.1974 130.72 39.7273 133.738 40.196C136.907 40.6895 137.645 44.9324 137.803 47.4186L138.286 55.0634C138.775 52.7541 139.835 50.2617 142.094 49.0357C143.559 48.2411 145.619 48.4274 147.106 49.4827C147.834 50.001 148.318 50.659 148.519 51.3853C149.052 49.7186 150.142 48.0456 151.924 47.4217C153.079 47.0151 154.498 47.2883 155.533 48.1139C155.809 48.3342 156.041 48.5826 156.221 48.8495C156.32 48.2132 156.552 47.58 156.915 46.9965C157.624 45.8512 158.724 45.069 159.926 44.8455C161.128 44.6221 162.436 44.9604 163.508 45.7767C164.276 46.3602 164.843 47.1269 165.143 47.9649C165.698 44.0168 166.516 39.3735 169.301 35.9065C169.924 35.1274 172.173 32.6381 174.915 33.2931C176.368 33.6376 178.812 35.1243 178.831 41.183C178.849 46.9437 178.403 52.751 177.505 58.4434C177.465 58.6886 177.415 58.9401 177.366 59.1915C177.313 59.4553 177.257 59.7253 177.217 59.9923C177.911 59.2598 178.819 58.7818 179.785 58.6607C180.371 58.5862 180.826 58.6855 181.142 58.9525C181.495 59.2504 181.663 59.7377 181.65 60.4392C181.638 61.2276 181.405 61.8484 181.158 62.5064C181.089 62.6864 181.021 62.8695 180.956 63.0588C181.213 62.9037 181.598 62.5281 181.749 62.3791C181.873 62.2581 181.982 62.1525 182.053 62.0936C182.623 61.6373 183.218 61.2028 183.822 60.7993C185.058 59.9705 186.372 59.2473 187.726 58.6483C188.469 58.3193 189.262 58.0399 190.04 58.2138C190.684 58.3596 191.168 58.7352 191.477 59.3311C192.134 60.5944 191.852 62.5715 191.279 63.9652C188.209 71.4609 183.171 78.0007 176.712 82.8768C176.687 82.9172 176.647 82.9296 176.61 82.9296Z" fill="#8E97FD"/>
<path d="M161.713 83.354C161.645 83.3571 161.58 83.3105 161.565 83.2392C160.75 79.7908 160.192 76.2524 159.907 72.7203C159.83 71.7612 159.755 70.6283 159.796 69.4861C159.913 66.106 161.004 62.729 162.953 59.7152C164.756 56.9248 167.315 54.4542 170.348 52.5639C170.416 52.5205 170.509 52.5422 170.552 52.6105C170.596 52.6788 170.574 52.7719 170.506 52.8153C167.507 54.6807 164.982 57.1204 163.203 59.8735C161.286 62.8407 160.211 66.168 160.096 69.4923C160.056 70.6189 160.13 71.7425 160.208 72.6923C160.493 76.209 161.047 79.7349 161.856 83.1678C161.874 83.2485 161.825 83.3261 161.747 83.3447C161.732 83.3509 161.723 83.354 161.713 83.354Z" fill="#565D70"/>
<path d="M170.853 51.5956C170.996 51.4683 171.166 51.3721 171.34 51.2914C171.879 51.0338 172.505 50.8755 173.072 51.0617C173.124 51.0773 173.174 51.099 173.214 51.1393C173.251 51.1766 173.27 51.2293 173.279 51.279C173.313 51.4745 173.208 51.6639 173.093 51.8222C172.743 52.2971 172.229 52.6354 171.668 52.7968C171.346 52.8899 170.197 53.1258 170.333 52.5174C170.404 52.1791 170.593 51.8253 170.853 51.5956Z" fill="#565D70"/>
<path d="M168.3 55.0319C168.976 54.9667 169.657 55.0101 170.333 55.0629C170.763 55.0971 171.194 55.1374 171.625 55.1809C171.711 55.1902 171.817 55.2181 171.832 55.3019C171.851 55.395 171.739 55.4571 171.653 55.4974C171.052 55.7675 170.683 56.3851 170.135 56.7514C169.738 57.0152 169.264 57.1363 168.79 57.2015C168.393 57.2542 167.991 57.2697 167.591 57.248C167.266 57.2294 166.928 57.1797 166.662 56.9935C166.392 56.8042 166.228 56.4752 166.222 56.1461C166.215 55.7364 166.534 55.4912 166.885 55.3578C167.337 55.1809 167.823 55.0753 168.3 55.0319Z" fill="#565D70"/>
<path d="M164.115 60.6964C164.79 60.6312 165.472 60.6746 166.147 60.7274C166.578 60.7615 167.008 60.8019 167.439 60.8454C167.526 60.8547 167.631 60.8795 167.647 60.9664C167.665 61.0595 167.554 61.1216 167.467 61.1619C166.866 61.432 166.497 62.0496 165.949 62.4159C165.552 62.6797 165.078 62.8008 164.604 62.866C164.208 62.9187 163.805 62.9342 163.405 62.9125C163.08 62.8939 162.742 62.8442 162.476 62.658C162.206 62.4687 162.042 62.1397 162.036 61.8107C162.03 61.4009 162.349 61.1557 162.699 61.0223C163.151 60.8485 163.634 60.7429 164.115 60.6964Z" fill="#565D70"/>
<path d="M161.881 66.0009C162.501 65.7278 163.164 65.554 163.82 65.3926C164.242 65.2901 164.663 65.1908 165.084 65.0977C165.168 65.0791 165.277 65.0729 165.32 65.1473C165.366 65.2312 165.283 65.3243 165.212 65.3863C164.725 65.8333 164.57 66.5348 164.164 67.0531C163.87 67.4287 163.458 67.6925 163.03 67.9004C162.671 68.0743 162.293 68.217 161.906 68.3195C161.593 68.4033 161.255 68.4622 160.942 68.3691C160.626 68.2729 160.369 68.0153 160.258 67.7018C160.121 67.3169 160.347 66.9817 160.639 66.7458C161.014 66.4448 161.441 66.1933 161.881 66.0009Z" fill="#565D70"/>
<path d="M161.611 72.5125C162.203 72.1773 162.841 71.9414 163.483 71.7148C163.892 71.5721 164.301 71.4324 164.713 71.2989C164.793 71.271 164.902 71.2524 164.951 71.3238C165.004 71.4014 164.93 71.5038 164.868 71.5752C164.428 72.0656 164.341 72.7826 163.988 73.3381C163.734 73.7416 163.346 74.0458 162.941 74.2941C162.6 74.5052 162.237 74.6821 161.862 74.8218C161.559 74.9366 161.23 75.0297 160.911 74.9645C160.589 74.8994 160.304 74.6697 160.165 74.3686C159.991 73.9962 160.183 73.6423 160.45 73.3785C160.794 73.0402 161.193 72.7484 161.611 72.5125Z" fill="#565D70"/>
<path d="M164.961 55.8104C164.961 55.4225 164.949 55.0314 164.88 54.6496C164.828 54.3454 164.741 54.0444 164.651 53.7495C164.363 52.7873 164.032 51.791 163.322 51.0802C163.3 51.0585 163.276 51.0336 163.245 51.0243C163.167 50.9964 163.084 51.0585 163.053 51.1361C163.022 51.2105 163.028 51.2975 163.025 51.3782C163.018 51.5582 162.963 51.732 162.907 51.9027C162.761 52.3559 162.616 52.8121 162.47 53.2653C162.25 53.9481 162.03 54.6403 161.981 55.3573C161.931 56.0743 162.067 56.8285 162.504 57.3965C162.65 57.5858 162.826 57.7534 163.015 57.8993C163.195 58.039 163.393 58.1663 163.613 58.2159C163.911 58.2842 164.236 58.2004 164.465 57.9987C164.729 57.769 164.822 57.3934 164.859 57.0582C164.911 56.6423 164.958 56.2295 164.961 55.8104Z" fill="#565D70"/>
<path d="M161.323 60.1438C161.162 59.7899 160.989 59.4392 160.769 59.1195C160.592 58.865 160.391 58.6291 160.186 58.3963C159.526 57.639 158.811 56.8723 157.872 56.5216C157.841 56.5092 157.81 56.4999 157.779 56.503C157.699 56.5092 157.646 56.6023 157.649 56.683C157.652 56.7637 157.692 56.8413 157.723 56.9158C157.792 57.0834 157.813 57.2634 157.835 57.4403C157.891 57.9152 157.946 58.387 158.002 58.8619C158.086 59.5758 158.173 60.2959 158.424 60.9663C158.674 61.6398 159.114 62.2668 159.746 62.6051C159.957 62.7169 160.186 62.7945 160.422 62.8503C160.642 62.9031 160.874 62.9372 161.097 62.8907C161.395 62.8286 161.658 62.6175 161.785 62.3382C161.931 62.0185 161.856 61.6398 161.754 61.3201C161.624 60.9197 161.494 60.5224 161.323 60.1438Z" fill="#565D70"/>
<path d="M158.201 66.4381C157.85 66.2705 157.491 66.1184 157.116 66.016C156.819 65.9353 156.512 65.8856 156.205 65.839C155.214 65.6869 154.173 65.5628 153.228 65.9011C153.197 65.9135 153.166 65.9228 153.144 65.9477C153.086 66.0066 153.107 66.1091 153.16 66.1711C153.216 66.2332 153.293 66.2612 153.367 66.3015C153.525 66.3853 153.659 66.5095 153.789 66.6305C154.136 66.9564 154.483 67.2823 154.833 67.6082C155.356 68.0986 155.886 68.5953 156.512 68.946C157.138 69.2967 157.875 69.4954 158.575 69.3433C158.811 69.2936 159.034 69.2036 159.248 69.095C159.452 68.9925 159.647 68.8684 159.79 68.6884C159.979 68.4494 160.041 68.1173 159.96 67.8224C159.864 67.4841 159.567 67.242 159.282 67.0619C158.932 66.8416 158.578 66.6181 158.201 66.4381Z" fill="#565D70"/>
<path d="M158.423 72.9253C158.073 72.7577 157.714 72.6056 157.339 72.5032C157.042 72.4225 156.735 72.3728 156.428 72.3263C155.437 72.1742 154.396 72.05 153.451 72.3883C153.42 72.4008 153.389 72.4101 153.367 72.4349C153.308 72.4939 153.33 72.5963 153.383 72.6584C153.439 72.7205 153.516 72.7484 153.59 72.7887C153.748 72.8725 153.882 72.9967 154.012 73.1177C154.359 73.4437 154.706 73.7696 155.056 74.0955C155.579 74.5859 156.109 75.0825 156.735 75.4332C157.361 75.7839 158.098 75.9826 158.798 75.8305C159.034 75.7808 159.257 75.6908 159.471 75.5822C159.675 75.4798 159.87 75.3556 160.013 75.1756C160.202 74.9366 160.264 74.6045 160.183 74.3096C160.087 73.9713 159.79 73.7292 159.505 73.5492C159.151 73.3257 158.798 73.1053 158.423 72.9253Z" fill="#565D70"/>
<path d="M156.692 68.7098C157.005 67.2728 157.997 65.5719 159.44 65.845C160.456 66.0374 161.008 67.1393 161.308 68.1325C161.968 70.299 162.176 72.6052 161.916 74.8554C161.965 71.8944 162.777 68.9519 164.255 66.3882C164.726 65.5688 165.389 64.7121 166.327 64.6283C167.316 64.5383 168.186 65.4074 168.456 66.3633C168.725 67.3224 168.542 68.3405 168.357 69.3182C168.917 63.6289 170.163 57.3188 174.844 54.0504C175.789 53.3893 176.889 52.8772 178.041 52.8772C179.194 52.8772 180.396 53.4917 180.839 54.5595C181.081 55.1399 181.084 55.7886 181.04 56.4155C180.672 61.6672 177.36 66.2175 173.871 70.1593C174.705 69.79 175.569 69.4144 176.48 69.402C177.391 69.3896 178.373 69.8365 178.707 70.687C179.119 71.7361 178.41 72.9093 177.527 73.6108C176.647 74.3123 175.569 74.7685 174.804 75.5973C176.409 75.2217 178.525 75.0603 179.284 76.5284C179.618 77.1802 179.547 77.9624 179.395 78.6794C178.481 82.9347 174.76 86.4328 170.463 87.0784C160.707 88.5372 154.886 76.9909 156.692 68.7098Z" fill="#F2EDE4"/>
<path d="M164.611 85.2411C164.602 85.2411 164.592 85.2411 164.583 85.238C164.527 85.2224 164.496 85.1635 164.512 85.1107C164.58 84.8748 171.349 61.4812 179.113 54.6745C179.156 54.6372 179.221 54.6403 179.259 54.6838C179.296 54.7273 179.293 54.7924 179.249 54.8297C171.532 61.5991 164.778 84.9307 164.713 85.1666C164.698 85.2131 164.654 85.2411 164.611 85.2411Z" fill="#D9C9AC"/>
<path d="M165.277 83.053C165.252 83.053 165.23 83.0468 165.212 83.0282C157.972 77.1154 158.774 68.6047 158.78 68.5209C158.786 68.465 158.839 68.4215 158.895 68.4277C158.951 68.434 158.994 68.4836 158.988 68.5426C158.978 68.6264 158.192 77.0285 165.342 82.8668C165.385 82.904 165.395 82.9692 165.357 83.0127C165.336 83.0406 165.305 83.053 165.277 83.053Z" fill="#D9C9AC"/>
<path d="M167.161 77.4228C167.12 77.4228 167.08 77.398 167.064 77.3607C165.131 72.7701 166.318 66.1621 166.33 66.0969C166.34 66.041 166.392 66.0007 166.451 66.0131C166.507 66.0224 166.544 66.0783 166.535 66.1341C166.522 66.1993 165.348 72.7453 167.257 77.28C167.278 77.3328 167.253 77.3949 167.201 77.4166C167.188 77.4197 167.176 77.4228 167.161 77.4228Z" fill="#D9C9AC"/>
<path d="M165.682 84.1764C165.214 84.1764 164.942 84.1516 164.926 84.1516C164.871 84.1454 164.827 84.0957 164.833 84.0367C164.84 83.9809 164.889 83.9343 164.948 83.9436C165.032 83.9529 173.359 84.6792 177.57 77.6801C177.601 77.6304 177.663 77.6149 177.712 77.6459C177.762 77.677 177.777 77.739 177.746 77.7887C174.221 83.6487 167.863 84.1764 165.682 84.1764Z" fill="#D9C9AC"/>
<path d="M168.301 74.3251C168.245 74.3251 168.199 74.2816 168.195 74.2258C168.192 74.1699 168.239 74.1202 168.295 74.1171C168.344 74.114 173.286 73.9216 176.706 70.9605C176.749 70.9233 176.814 70.9264 176.852 70.9698C176.889 71.0133 176.886 71.0785 176.842 71.1157C173.366 74.1264 168.353 74.322 168.304 74.3251C168.301 74.3251 168.301 74.3251 168.301 74.3251Z" fill="#D9C9AC"/>
<path d="M172.889 63.8434C172.836 63.8434 172.789 63.8031 172.783 63.7472C172.78 63.7099 172.535 59.9729 174.301 56.8908C174.329 56.8411 174.394 56.8256 174.444 56.8536C174.493 56.8815 174.512 56.9467 174.481 56.9963C172.746 60.0195 172.988 63.6975 172.991 63.7348C172.994 63.7906 172.95 63.8434 172.895 63.8465C172.895 63.8434 172.892 63.8434 172.889 63.8434Z" fill="#D9C9AC"/>
<path d="M175.227 59.7306C175.184 59.7306 175.141 59.7026 175.128 59.6592C175.11 59.6033 175.141 59.5444 175.196 59.5288C175.234 59.5164 178.84 58.3742 179.893 57.0985C179.93 57.0551 179.995 57.0489 180.039 57.0861C180.082 57.1234 180.088 57.1885 180.051 57.232C178.958 58.5542 175.407 59.6809 175.255 59.7275C175.249 59.7275 175.24 59.7306 175.227 59.7306Z" fill="#D9C9AC"/>
<path d="M171.51 67.5861C171.247 67.5861 171.095 67.5427 171.073 67.5364C171.017 67.5178 170.989 67.4619 171.005 67.4061C171.024 67.3502 171.079 67.3192 171.135 67.3378C171.151 67.3409 172.693 67.7785 174.918 65.5096C174.958 65.4693 175.023 65.4662 175.063 65.5096C175.104 65.55 175.104 65.6152 175.063 65.6555C173.425 67.3285 172.145 67.5861 171.51 67.5861Z" fill="#D9C9AC"/>
<path d="M165.989 73.0958C165.571 73.0958 164.567 72.8754 163.923 70.9231C163.904 70.8672 163.935 70.8082 163.988 70.7927C164.044 70.7741 164.103 70.8051 164.118 70.8579C164.871 73.133 166.082 72.8878 166.132 72.8754C166.188 72.8599 166.243 72.8971 166.256 72.953C166.268 73.0089 166.234 73.0647 166.178 73.0772C166.169 73.0803 166.101 73.0958 165.989 73.0958Z" fill="#D9C9AC"/>
<path d="M160.822 77.587C160.819 77.587 160.819 77.587 160.816 77.587C160.744 77.5807 159.028 77.4473 157.953 75.2218C157.928 75.1691 157.95 75.107 158.002 75.0822C158.052 75.0573 158.117 75.0791 158.142 75.1318C159.164 77.2486 160.812 77.3759 160.828 77.379C160.884 77.3821 160.93 77.4318 160.924 77.4907C160.924 77.5435 160.877 77.587 160.822 77.587Z" fill="#D9C9AC"/>
<path d="M162.619 80.3616C162.597 80.3616 162.575 80.3554 162.557 80.3399C162.51 80.3058 162.504 80.2406 162.538 80.194C162.547 80.1816 163.52 78.8594 162.712 75.3893C162.699 75.3334 162.733 75.2775 162.789 75.2651C162.845 75.2527 162.901 75.2869 162.913 75.3427C163.746 78.9246 162.743 80.2685 162.699 80.3213C162.677 80.3492 162.65 80.3616 162.619 80.3616Z" fill="#D9C9AC"/>
<path d="M169.32 83.7603C169.311 83.7603 169.302 83.7603 169.295 83.7572C169.24 83.7417 169.206 83.6858 169.221 83.63C169.274 83.4251 170.544 78.5738 172.895 77.4533C172.948 77.4285 173.01 77.4502 173.035 77.503C173.06 77.5558 173.038 77.6178 172.985 77.6427C170.724 78.7228 169.438 83.6331 169.426 83.6827C169.41 83.7293 169.367 83.7603 169.32 83.7603Z" fill="#D9C9AC"/>
<path d="M174.497 83.016C174.327 83.016 174.169 82.9881 174.026 82.9291C173.438 82.6932 173.307 82.0693 173.301 82.0414C173.289 81.9855 173.326 81.9296 173.382 81.9203C173.441 81.9079 173.493 81.9451 173.506 82.001C173.506 82.0072 173.62 82.5442 174.107 82.7366C174.612 82.9353 175.361 82.7025 176.279 82.0538C176.325 82.0196 176.39 82.0321 176.424 82.0786C176.458 82.1252 176.446 82.1904 176.399 82.2245C175.65 82.7491 175.014 83.016 174.497 83.016Z" fill="#D9C9AC"/>
<rect x="134.226" y="15.009" width="5.86056" height="14.6514" rx="2.93028" fill="#FDFFFC"/>
<rect x="124.458" y="19.8858" width="5.86056" height="14.6514" rx="2.93028" transform="rotate(-41.7192 124.458 19.8858)" fill="#FDFFFC"/>
<rect x="145.274" y="15.9854" width="5.86056" height="14.6514" rx="2.93028" transform="rotate(43.4252 145.274 15.9854)" fill="#FDFFFC"/>
<path d="M104.47 52.9902C101.926 52.9902 99.4137 51.671 96.991 49.0607C96.7958 48.8496 96.8082 48.5206 97.0189 48.3251C97.2295 48.1296 97.5579 48.142 97.7531 48.353C100.12 50.9044 102.54 52.1087 104.938 51.9317C108.705 51.6524 111.217 48.0489 111.242 48.0116C111.406 47.7757 111.729 47.7136 111.964 47.8781C112.2 48.0395 112.262 48.3654 112.097 48.6013C111.983 48.7658 109.272 52.6549 105.012 52.9715C104.832 52.9808 104.65 52.9902 104.47 52.9902Z" fill="#E9F2DE"/>
<path d="M95.6469 50.1129C95.5663 50.1129 95.4858 50.1098 95.4052 50.1005C95.114 50.0664 94.8631 49.9764 94.6617 49.8336C94.0266 49.3773 93.9925 48.5083 94.2868 47.9216C94.4138 47.664 94.7267 47.5585 94.9839 47.6888C95.241 47.8161 95.3433 48.1296 95.2162 48.3872C95.1078 48.6045 95.1326 48.89 95.2689 48.9893C95.3247 49.0297 95.4114 49.0545 95.523 49.0701C95.8607 49.1073 96.2107 48.9956 96.4617 48.7659C96.7126 48.5362 96.8582 48.1979 96.8551 47.8596C96.852 47.7509 96.8366 47.6578 96.8056 47.5864C96.7405 47.4343 96.5825 47.3102 96.3997 47.2698C96.2107 47.2295 95.9846 47.276 95.8018 47.3971C95.5601 47.5523 95.2379 47.484 95.083 47.245C94.9281 47.0029 94.9963 46.6801 95.2348 46.5249C95.65 46.2549 96.1519 46.1524 96.6135 46.2518C97.1247 46.3604 97.5646 46.7173 97.7629 47.1829C97.8465 47.3785 97.8899 47.6019 97.893 47.844C97.9023 48.4772 97.6297 49.1104 97.1619 49.5387C96.7498 49.905 96.1983 50.1129 95.6469 50.1129Z" fill="#E9F2DE"/>
<path d="M96.2602 52.459C96.0402 52.459 95.8358 52.3193 95.7645 52.0958C95.0891 49.9728 96.5948 48.5947 96.6599 48.5357C96.8736 48.3433 97.202 48.365 97.3941 48.5792C97.5831 48.7934 97.5676 49.1193 97.3538 49.3117C97.3074 49.3551 96.2881 50.3111 96.7528 51.7792C96.8395 52.0524 96.6877 52.3472 96.4151 52.4341C96.3655 52.4528 96.3129 52.459 96.2602 52.459Z" fill="#E9F2DE"/>
<path d="M94.912 52.7509C94.7106 52.7509 94.5185 52.6329 94.4348 52.4374C93.8338 51.0407 94.8221 49.3894 94.8655 49.3211C95.0142 49.0759 95.3333 48.9983 95.5811 49.1473C95.8259 49.2963 95.9034 49.616 95.7546 49.8612C95.544 50.2088 95.07 51.2765 95.3922 52.0246C95.5068 52.2884 95.386 52.5957 95.1195 52.7074C95.0514 52.7385 94.9801 52.7509 94.912 52.7509Z" fill="#E9F2DE"/>
<path d="M166.73 33.6715C155.363 16.8022 137.614 29.5683 137.614 29.5683C137.614 29.5683 121.067 15.272 108.25 31.0674C95.4335 46.8597 116.581 71.647 135.687 72.9661C154.837 73.351 178.097 50.544 166.73 33.6715Z" fill="#93BFA8"/>
<path d="M166.73 33.6718C160.456 24.3602 152.24 24.0778 146.137 25.6949C150.864 27.6038 164.397 34.3267 162.371 48.2008C160.859 58.5645 149.61 67.3049 141.238 72.4666C158.953 69.0586 177.012 48.9364 166.73 33.6718Z" fill="#80B996"/>
<path d="M137.614 29.5716C137.614 29.5716 128.586 21.7748 118.703 24.0623C128.701 26.2909 134.342 31.3874 134.342 31.3874C135.761 30.4966 137.614 29.5716 137.614 29.5716Z" fill="#80B996"/>
<path d="M113.885 28.2804C111.946 29.5157 110.387 31.468 109.994 33.737C109.941 34.0349 109.91 34.3484 110.009 34.634C110.17 35.0995 110.657 35.3944 111.146 35.4565C111.636 35.5186 112.125 35.3913 112.593 35.2361C114.898 34.4695 116.974 33.0169 119.362 32.5792C120.611 32.3495 121.912 32.4054 123.117 32.0081C124.323 31.6139 125.466 30.5617 125.385 29.2954C125.246 27.1103 122.237 26.5361 120.512 26.3374C118.337 26.0891 115.688 27.132 113.885 28.2804Z" fill="#66A986"/>
<path d="M140.353 30.2325C140.288 30.4497 140.245 30.6856 140.31 30.9029C140.443 31.3405 140.954 31.533 141.403 31.6106C142.515 31.803 143.68 31.6788 144.724 31.2598C145.381 30.996 146.004 30.6049 146.444 30.0493C147.184 29.112 147.361 26.9672 145.827 26.691C144.65 26.4768 142.816 27.4452 141.918 28.1094C141.208 28.6371 140.613 29.3665 140.353 30.2325Z" fill="#66A986"/>
<path d="M137.047 30.7854C136.873 31.0833 136.858 31.4899 137.075 31.7569C137.261 31.9866 137.574 32.0735 137.865 32.1293C138.162 32.1852 138.484 32.2193 138.751 32.0735C138.893 31.9959 139.005 31.8748 139.101 31.7444C139.361 31.403 139.547 30.9312 139.349 30.5495C139.225 30.3136 138.977 30.1615 138.717 30.0994C138.079 29.9411 137.391 30.2018 137.047 30.7854Z" fill="#66A986"/>
<path d="M126.495 40.4132C126.575 40.8353 126.594 41.2295 126.582 41.6486C126.56 42.0614 126.498 42.4835 126.34 42.8963C126.188 43.3091 125.919 43.7157 125.528 43.9951C125.144 44.2806 124.676 44.411 124.233 44.4389C124.007 44.4544 123.772 44.4327 123.536 44.3768C123.301 44.3148 123.068 44.203 122.873 44.0478C122.473 43.7343 122.257 43.2936 122.142 42.8777C121.916 42.0334 121.95 41.2264 122.086 40.4132C122.117 40.2301 122.291 40.1059 122.473 40.137C122.647 40.168 122.768 40.3263 122.752 40.5001L122.749 40.5219C122.715 40.8695 122.703 41.2513 122.724 41.6082C122.746 41.9682 122.793 42.3252 122.898 42.6449C123.003 42.9615 123.155 43.2408 123.375 43.4022C123.483 43.4829 123.604 43.5419 123.741 43.576C123.88 43.604 124.029 43.6195 124.19 43.6071C124.512 43.5885 124.819 43.5015 125.054 43.3308C125.299 43.1632 125.476 42.9025 125.606 42.6014C125.736 42.2973 125.804 41.9496 125.838 41.5958C125.875 41.2451 125.869 40.8664 125.838 40.525L125.835 40.5063C125.816 40.3201 125.953 40.1556 126.139 40.1401C126.309 40.1246 126.464 40.2456 126.495 40.4132Z" fill="#3F4553"/>
<path d="M141.762 40.5251C141.731 40.8665 141.725 41.2452 141.762 41.5959C141.793 41.9497 141.864 42.2974 141.995 42.6016C142.125 42.9057 142.301 43.1634 142.546 43.331C142.785 43.5048 143.088 43.5917 143.41 43.6072C143.568 43.6196 143.72 43.6041 143.86 43.5762C143.996 43.542 144.117 43.483 144.225 43.4023C144.442 43.2409 144.597 42.9616 144.702 42.645C144.808 42.3284 144.854 41.9684 144.876 41.6083C144.901 41.2514 144.885 40.8696 144.851 40.522L144.848 40.5003C144.829 40.314 144.966 40.1495 145.152 40.134C145.328 40.1185 145.486 40.2426 145.514 40.4133C145.65 41.2266 145.684 42.0305 145.458 42.8778C145.344 43.2937 145.124 43.7345 144.727 44.0479C144.532 44.2031 144.3 44.3149 144.064 44.377C143.829 44.4328 143.59 44.4546 143.367 44.439C142.927 44.4142 142.459 44.2807 142.072 43.9952C141.685 43.7158 141.412 43.3092 141.26 42.8964C141.102 42.4836 141.04 42.0615 141.019 41.6487C141.006 41.2297 141.025 40.8355 141.105 40.4133C141.139 40.2302 141.316 40.1092 141.499 40.1433C141.669 40.1743 141.787 40.3326 141.771 40.5034L141.762 40.5251Z" fill="#3F4553"/>
<path d="M133.633 46.4254C133.063 46.4254 132.555 46.3509 132.13 46.2516C130.795 45.935 129.974 45.3111 129.937 45.2832C129.791 45.1684 129.764 44.9573 129.875 44.8114C129.99 44.6655 130.2 44.6376 130.346 44.7494C130.467 44.8425 133.357 46.9934 137.075 44.7276C137.233 44.6314 137.441 44.6811 137.537 44.8394C137.633 44.9977 137.583 45.2056 137.425 45.3018C136.019 46.1585 134.711 46.4254 133.633 46.4254Z" fill="#3F4553"/>
<path d="M176.483 56.3363C175.742 56.3363 175.011 56.2649 174.283 56.1253C167.957 54.8993 164.471 48.8188 164.326 48.5612C164.183 48.3098 164.273 47.9932 164.524 47.8535C164.775 47.7139 165.091 47.8008 165.231 48.0522C165.265 48.1112 168.635 53.9774 174.488 55.1072C178.153 55.8149 182.032 54.5423 186.028 51.3329C186.251 51.1529 186.58 51.1902 186.759 51.4136C186.939 51.6371 186.902 51.9661 186.679 52.1462C183.206 54.9303 179.785 56.3363 176.483 56.3363Z" fill="#E9F2DE"/>
<path d="M129.733 75.6723C129.352 75.6723 128.974 75.6661 128.596 75.6568C128.308 75.6475 128.081 75.4085 128.091 75.123C128.1 74.8343 128.335 74.617 128.624 74.617C133.085 74.7381 137.828 74.1297 142.342 72.8571C143.017 72.6678 143.801 72.4164 144.504 71.9974C144.814 71.8112 144.898 71.6839 144.913 71.6094C144.944 71.4542 144.718 71.2121 144.415 71.0662C143.708 70.731 142.856 70.7217 142.277 70.7403C140.245 70.8117 138.256 71.4108 136.521 72.4785C136.276 72.6275 135.957 72.553 135.805 72.3078C135.656 72.0626 135.731 71.7429 135.975 71.5908C137.862 70.4299 140.028 69.7781 142.24 69.7005C142.924 69.6757 143.944 69.6943 144.855 70.1258C145.446 70.4051 146.084 71.0135 145.93 71.8049C145.821 72.3636 145.366 72.6926 145.034 72.8913C144.223 73.3755 143.318 73.6641 142.621 73.8597C138.389 75.0516 133.955 75.6723 129.733 75.6723Z" fill="#E9F2DE"/>
<path d="M141.326 75.688C137.1 75.688 132.778 75.0735 128.462 73.8599C127.765 73.6643 126.86 73.3757 126.049 72.8915C125.717 72.6928 125.262 72.3638 125.153 71.8051C125.002 71.0137 125.637 70.4053 126.228 70.126C127.139 69.6945 128.159 69.6759 128.843 69.7007C131.055 69.7783 133.221 70.4301 135.108 71.591C135.352 71.74 135.43 72.0628 135.278 72.308C135.129 72.5532 134.807 72.6308 134.562 72.4787C132.827 71.414 130.838 70.8119 128.806 70.7405C128.23 70.7219 127.378 70.7312 126.671 71.0664C126.365 71.2123 126.142 71.4544 126.173 71.6065C126.188 71.681 126.269 71.8113 126.579 71.9945C127.282 72.4135 128.066 72.6649 128.741 72.8542C133.354 74.1516 137.97 74.7538 142.459 74.6296C142.751 74.6327 142.986 74.85 142.992 75.1356C142.998 75.4242 142.772 75.6632 142.487 75.6694C142.103 75.6818 141.713 75.688 141.326 75.688Z" fill="#E9F2DE"/>
<path d="M141.443 76.4204C141.344 76.6531 141.257 76.8952 141.254 77.1467C141.248 77.3981 141.338 77.665 141.533 77.8202C141.803 78.0375 142.218 77.994 142.5 77.7892C142.782 77.5843 142.946 77.2584 143.045 76.9263C143.219 76.3552 143.225 75.7344 143.067 75.1602C143.014 74.9708 142.909 74.7194 142.683 74.6884C142.472 74.6574 142.367 74.8498 142.264 75.0019C141.955 75.4582 141.66 75.9144 141.443 76.4204Z" fill="#E9F2DE"/>
<path d="M129.67 76.4204C129.77 76.6531 129.856 76.8952 129.859 77.1467C129.866 77.3981 129.776 77.665 129.581 77.8202C129.311 78.0375 128.896 77.994 128.614 77.7892C128.332 77.5843 128.168 77.2584 128.069 76.9263C127.895 76.3552 127.889 75.7344 128.047 75.1602C128.1 74.9708 128.205 74.7194 128.431 74.6884C128.642 74.6574 128.747 74.8498 128.849 75.0019C129.159 75.4582 129.454 75.9144 129.67 76.4204Z" fill="#E9F2DE"/>
<path d="M136.185 89.0002C145.163 89.0002 152.441 88.1094 152.441 87.0106C152.441 85.9118 145.163 85.0211 136.185 85.0211C127.208 85.0211 119.93 85.9118 119.93 87.0106C119.93 88.1094 127.208 89.0002 136.185 89.0002Z" fill="#808AFF"/>
<path d="M115.041 84.9149C115.109 84.918 115.174 84.8714 115.189 84.8C116.004 81.3517 116.562 77.8133 116.847 74.2811C116.924 73.3221 116.999 72.1891 116.959 71.0469C116.841 67.6669 115.75 64.2899 113.802 61.2761C111.998 58.4857 109.439 56.015 106.406 54.1248C106.338 54.0814 106.245 54.1031 106.202 54.1714C106.158 54.2397 106.18 54.3328 106.248 54.3762C109.247 56.2416 111.772 58.6812 113.551 61.4343C115.468 64.4016 116.543 67.7289 116.658 71.0531C116.698 72.1798 116.624 73.3034 116.546 74.2532C116.261 77.7698 115.707 81.2958 114.898 84.7286C114.88 84.8093 114.929 84.8869 115.007 84.9056C115.022 84.9118 115.031 84.9149 115.041 84.9149Z" fill="#565D70"/>
<path d="M105.902 53.1565C105.759 53.0293 105.589 52.933 105.415 52.8523C104.876 52.5947 104.25 52.4364 103.683 52.6227C103.631 52.6382 103.581 52.6599 103.541 52.7003C103.504 52.7375 103.485 52.7903 103.476 52.8399C103.442 53.0355 103.547 53.2248 103.662 53.3831C104.012 53.858 104.526 54.1963 105.087 54.3577C105.409 54.4508 106.558 54.6867 106.422 54.0784C106.354 53.74 106.162 53.3862 105.902 53.1565Z" fill="#565D70"/>
<path d="M108.454 56.5928C107.779 56.5276 107.097 56.571 106.422 56.6238C105.991 56.6579 105.56 56.6983 105.13 56.7417C105.043 56.7511 104.938 56.779 104.922 56.8628C104.904 56.9559 105.015 57.018 105.102 57.0583C105.703 57.3284 106.072 57.946 106.62 58.3123C107.017 58.5761 107.491 58.6972 107.965 58.7623C108.361 58.8151 108.764 58.8306 109.164 58.8089C109.489 58.7903 109.827 58.7406 110.093 58.5544C110.362 58.365 110.527 58.036 110.533 57.707C110.539 57.2973 110.22 57.0521 109.87 56.9187C109.418 56.7417 108.934 56.6393 108.454 56.5928Z" fill="#565D70"/>
<path d="M112.643 62.2573C111.967 62.1921 111.286 62.2355 110.61 62.2883C110.18 62.3224 109.749 62.3628 109.318 62.4062C109.232 62.4156 109.126 62.4435 109.111 62.5273C109.092 62.6204 109.204 62.6825 109.291 62.7228C109.892 62.9929 110.26 63.6105 110.809 63.9768C111.205 64.2406 111.679 64.3616 112.153 64.4268C112.55 64.4796 112.952 64.4951 113.352 64.4734C113.677 64.4548 114.015 64.4051 114.282 64.2189C114.551 64.0295 114.715 63.7005 114.721 63.3715C114.728 62.9618 114.409 62.7166 114.058 62.5832C113.603 62.4093 113.12 62.3038 112.643 62.2573Z" fill="#565D70"/>
<path d="M114.873 67.5618C114.254 67.2887 113.591 67.1148 112.934 66.9534C112.512 66.851 112.091 66.7548 111.67 66.6586C111.586 66.64 111.478 66.6337 111.434 66.7082C111.388 66.792 111.471 66.8852 111.543 66.9472C112.029 67.3942 112.184 68.0957 112.59 68.614C112.884 68.9896 113.296 69.2534 113.724 69.4613C114.083 69.6352 114.461 69.7779 114.848 69.8803C115.161 69.9642 115.499 70.0231 115.812 69.93C116.128 69.8338 116.385 69.5762 116.497 69.2627C116.633 68.8778 116.407 68.5426 116.115 68.3067C115.741 68.0056 115.313 67.7542 114.873 67.5618Z" fill="#565D70"/>
<path d="M115.143 74.0734C114.551 73.7382 113.913 73.5023 113.272 73.2757C112.863 73.1329 112.454 72.9933 112.042 72.8598C111.961 72.8319 111.853 72.8133 111.803 72.8846C111.751 72.9622 111.825 73.0647 111.887 73.1361C112.327 73.6265 112.414 74.3434 112.767 74.899C113.021 75.3025 113.408 75.6067 113.814 75.855C114.155 76.0661 114.517 76.243 114.892 76.3827C115.196 76.4975 115.524 76.5906 115.843 76.5254C116.165 76.4602 116.45 76.2306 116.59 75.9295C116.763 75.557 116.571 75.2032 116.305 74.9394C115.961 74.6011 115.561 74.3093 115.143 74.0734Z" fill="#565D70"/>
<path d="M111.794 57.3742C111.794 56.9862 111.806 56.5951 111.875 56.2134C111.927 55.9092 112.014 55.6081 112.104 55.3133C112.392 54.3511 112.723 53.3547 113.433 52.644C113.455 52.6222 113.479 52.5974 113.51 52.5881C113.588 52.5602 113.671 52.6222 113.702 52.6998C113.733 52.7743 113.727 52.8612 113.73 52.9419C113.737 53.1219 113.792 53.2958 113.848 53.4665C113.994 53.9196 114.139 54.3759 114.285 54.8291C114.505 55.5119 114.725 56.2041 114.774 56.921C114.824 57.638 114.688 58.3923 114.251 58.9603C114.105 59.1496 113.929 59.3172 113.74 59.4631C113.56 59.6028 113.362 59.73 113.142 59.7797C112.844 59.848 112.519 59.7642 112.29 59.5624C112.026 59.3327 111.933 58.9572 111.896 58.6219C111.844 58.206 111.797 57.7901 111.794 57.3742Z" fill="#565D70"/>
<path d="M115.431 61.7052C115.592 61.3513 115.766 61.0006 115.986 60.6809C116.162 60.4264 116.364 60.1905 116.568 59.9577C117.228 59.2004 117.944 58.4337 118.882 58.083C118.913 58.0706 118.944 58.0612 118.975 58.0643C119.056 58.0706 119.109 58.1637 119.105 58.2444C119.102 58.3251 119.062 58.4027 119.031 58.4772C118.963 58.6448 118.941 58.8248 118.92 59.0017C118.864 59.4766 118.808 59.9484 118.752 60.4233C118.669 61.1372 118.582 61.8572 118.331 62.5277C118.08 63.2012 117.64 63.8282 117.008 64.1665C116.797 64.2782 116.568 64.3558 116.333 64.4117C116.113 64.4645 115.88 64.4986 115.657 64.4521C115.36 64.39 115.096 64.1789 114.969 63.8996C114.824 63.5799 114.898 63.2012 115 62.8815C115.134 62.4811 115.261 62.0838 115.431 61.7052Z" fill="#565D70"/>
<path d="M118.554 68.0019C118.905 67.8342 119.264 67.6822 119.639 67.5797C119.936 67.499 120.243 67.4494 120.55 67.4028C121.541 67.2507 122.582 67.1266 123.527 67.4649C123.558 67.4742 123.589 67.4866 123.611 67.5114C123.669 67.5704 123.648 67.6728 123.595 67.7349C123.539 67.797 123.462 67.828 123.387 67.8653C123.229 67.9491 123.096 68.0732 122.966 68.1943C122.619 68.5202 122.272 68.8461 121.922 69.172C121.398 69.6624 120.869 70.159 120.243 70.5097C119.617 70.8605 118.88 71.0591 118.18 70.907C117.944 70.8574 117.721 70.7674 117.507 70.6587C117.303 70.5563 117.108 70.4322 116.965 70.2521C116.776 70.0131 116.714 69.681 116.795 69.3862C116.891 69.0478 117.188 68.8057 117.473 68.6257C117.826 68.4022 118.176 68.1788 118.554 68.0019Z" fill="#565D70"/>
<path d="M118.334 74.4862C118.685 74.3186 119.044 74.1665 119.419 74.0641C119.716 73.9834 120.023 73.9337 120.33 73.8872C121.321 73.7351 122.362 73.6109 123.307 73.9492C123.338 73.9616 123.369 73.971 123.391 73.9958C123.449 74.0548 123.428 74.1572 123.375 74.2193C123.319 74.2813 123.242 74.3124 123.167 74.3496C123.009 74.4334 122.876 74.5576 122.746 74.6786C122.399 75.0045 122.052 75.3304 121.702 75.6563C121.179 76.1467 120.649 76.6434 120.023 76.9941C119.397 77.3448 118.66 77.5435 117.96 77.3914C117.724 77.3417 117.501 77.2517 117.287 77.1431C117.083 77.0406 116.888 76.9165 116.745 76.7365C116.556 76.4975 116.494 76.1654 116.575 75.8705C116.671 75.5322 116.968 75.2901 117.253 75.1101C117.603 74.8866 117.956 74.6662 118.334 74.4862Z" fill="#565D70"/>
<path d="M125.918 74.9456C125.934 74.8369 125.946 74.7314 125.952 74.6228C126.284 69.787 120.317 72.4966 118.808 74.7004C119.341 73.6637 118.827 72.2297 117.761 71.7641C116.695 71.3017 115.298 71.91 114.908 73.0057C115.211 70.5412 115.518 68.0768 115.822 65.6123C115.958 64.5105 116.039 63.2379 115.252 62.4557C114.369 61.5836 112.789 61.8691 111.915 62.7506C111.041 63.6321 110.71 64.9078 110.49 66.1338C109.421 65.0009 107.107 65.9569 107.147 67.515C107.28 64.3553 107.395 61.0838 106.205 58.1538C105.443 56.276 103.652 54.4199 101.688 54.9041C99.947 55.3324 99.126 57.3189 98.7976 59.085C98.0416 63.1572 98.5249 67.4498 100.17 71.2489C99.6991 70.1532 97.8898 70.3643 97.2764 71.3855C96.663 72.4097 96.9325 73.7289 97.391 74.8307C96.2509 73.6668 94.7514 72.7667 93.1249 72.7046C91.4984 72.6425 89.7821 73.5954 89.2926 75.1473C88.8 76.7023 89.9339 78.6578 91.5604 78.7074C90.5287 78.8285 89.9711 80.1104 90.2344 81.116C91.5542 86.1597 104.929 86.8736 108.956 86.4732C115.004 85.868 120.924 82.9162 124.499 77.9904C125.159 77.0779 125.754 76.0567 125.918 74.9456Z" fill="#F2EDE4"/>
<path d="M108.851 85.5018C108.82 85.5018 108.789 85.4863 108.767 85.4584C105.44 80.9888 103.804 73.2448 103.014 67.5399C102.159 61.3633 102.091 56.1737 102.091 56.1209C102.091 56.065 102.137 56.0154 102.193 56.0154C102.249 56.0154 102.295 56.0619 102.299 56.1178C102.302 56.3226 102.615 76.839 108.935 85.3342C108.969 85.3808 108.959 85.446 108.913 85.4801C108.894 85.4956 108.873 85.5018 108.851 85.5018Z" fill="#D9C9AC"/>
<path d="M107.001 84.5948C99.5905 84.5948 92.3905 80.327 92.3161 80.2836C92.2666 80.2556 92.2511 80.1904 92.279 80.1408C92.3099 80.0911 92.3719 80.0756 92.4215 80.1035C92.502 80.1501 100.442 84.8555 108.191 84.3465C108.247 84.3465 108.296 84.3868 108.302 84.4427C108.305 84.4986 108.262 84.5482 108.206 84.5544C107.807 84.5824 107.404 84.5948 107.001 84.5948Z" fill="#D9C9AC"/>
<path d="M106.116 80.2967C106.079 80.2967 106.041 80.275 106.023 80.2377C105.998 80.185 106.02 80.1229 106.069 80.0981C113.582 76.3486 113.861 63.4025 113.861 63.2722C113.861 63.2163 113.911 63.1697 113.966 63.1697C114.022 63.1697 114.069 63.2163 114.069 63.2753C114.065 63.4056 113.787 76.4759 106.162 80.2843C106.147 80.2936 106.131 80.2967 106.116 80.2967Z" fill="#D9C9AC"/>
<path d="M106.567 81.8674C97.589 81.8674 91.6189 74.8807 91.5601 74.8093C91.5229 74.7658 91.5291 74.7007 91.5724 74.6634C91.6158 74.6262 91.6809 74.6324 91.7181 74.6758C91.7769 74.7472 97.7842 81.765 106.766 81.6564C106.821 81.6564 106.868 81.7029 106.871 81.7588C106.871 81.8147 106.824 81.8643 106.769 81.8643C106.701 81.8674 106.635 81.8674 106.567 81.8674Z" fill="#D9C9AC"/>
<path d="M105.23 77.7113C105.22 77.7113 105.214 77.7113 105.205 77.7082C99.8822 76.4232 98.6461 71.8078 98.6337 71.7643C98.6182 71.7085 98.6523 71.6526 98.708 71.6371C98.7638 71.6216 98.8196 71.6557 98.8351 71.7116C98.8475 71.7581 100.056 76.2494 105.254 77.5064C105.31 77.5189 105.344 77.5747 105.332 77.6306C105.319 77.6771 105.279 77.7113 105.23 77.7113Z" fill="#D9C9AC"/>
<path d="M104.758 76.0565C104.721 76.0565 104.684 76.0348 104.665 75.9975C104.64 75.9448 104.662 75.8827 104.711 75.8579C107.605 74.4208 109.241 66.7481 109.256 66.6705C109.269 66.6147 109.325 66.5774 109.38 66.5898C109.436 66.6022 109.473 66.6581 109.461 66.714C109.393 67.0337 107.788 74.5605 104.804 76.0441C104.789 76.0534 104.773 76.0565 104.758 76.0565Z" fill="#D9C9AC"/>
<path d="M102.955 66.4064C102.933 66.4064 102.912 66.4002 102.89 66.3847C100.805 64.7676 99.9096 60.236 99.8724 60.0435C99.86 59.9877 99.8972 59.9318 99.9561 59.9225C100.012 59.9101 100.068 59.9473 100.077 60.0063C100.086 60.0528 100.994 64.6527 103.017 66.2202C103.063 66.2543 103.07 66.3195 103.036 66.366C103.017 66.394 102.986 66.4064 102.955 66.4064Z" fill="#D9C9AC"/>
<path d="M103.625 70.8639C103.609 70.8639 103.594 70.8608 103.578 70.8546C103.525 70.8297 103.504 70.7677 103.529 70.7149C103.553 70.6621 106.053 65.4104 105.415 61.4251C105.406 61.3692 105.446 61.3165 105.502 61.3072C105.558 61.2978 105.614 61.3351 105.62 61.3941C106.267 65.4446 103.739 70.7553 103.714 70.808C103.702 70.8422 103.665 70.8639 103.625 70.8639Z" fill="#D9C9AC"/>
<path d="M107.571 72.363C107.534 72.363 107.497 72.3413 107.479 72.304C107.441 72.2295 106.571 70.4386 106.521 68.7284C106.518 68.6726 106.565 68.6229 106.623 68.6229C106.682 68.6229 106.729 68.6663 106.729 68.7253C106.775 70.3921 107.655 72.1985 107.664 72.2171C107.689 72.2699 107.668 72.332 107.618 72.3568C107.602 72.3599 107.587 72.363 107.571 72.363Z" fill="#D9C9AC"/>
<path d="M99.944 76.2307C99.4328 76.2307 98.8534 76.1873 98.271 76.0507C98.2152 76.0383 98.1811 75.9824 98.1935 75.9265C98.2059 75.8707 98.2648 75.8365 98.3174 75.8489C99.9811 76.2338 101.666 75.852 101.685 75.8489C101.741 75.8365 101.797 75.8707 101.809 75.9265C101.821 75.9824 101.787 76.0383 101.732 76.0507C101.685 76.0631 100.938 76.2307 99.944 76.2307Z" fill="#D9C9AC"/>
<path d="M99.2031 80.2962C99.1598 80.2962 99.1195 80.2714 99.104 80.228C99.0947 80.2062 98.2737 77.9498 97.558 76.8324C97.527 76.7827 97.5394 76.7206 97.589 76.6896C97.6386 76.6586 97.7005 76.6741 97.7315 76.7206C98.4596 77.8566 99.2651 80.0635 99.2992 80.1566C99.3178 80.2093 99.2899 80.2714 99.2372 80.29C99.2279 80.2963 99.2155 80.2962 99.2031 80.2962Z" fill="#D9C9AC"/>
<path d="M95.7925 81.9971C95.7616 81.9971 95.7306 81.9815 95.7089 81.9567C95.6748 81.9102 95.681 81.845 95.7275 81.8108C95.7306 81.8077 96.1333 81.488 96.1922 80.9573C96.2356 80.5538 96.0745 80.1286 95.712 79.6909C95.6748 79.6475 95.681 79.5823 95.7244 79.545C95.7677 79.5078 95.8328 79.514 95.87 79.5575C96.2696 80.0386 96.4493 80.5197 96.3967 80.9821C96.3285 81.6029 95.8731 81.9598 95.8545 81.9753C95.839 81.9909 95.8142 81.9971 95.7925 81.9971Z" fill="#D9C9AC"/>
<path d="M92.2294 77.2454C91.7709 77.2454 91.2442 77.1523 90.699 76.8699C90.6494 76.8419 90.6277 76.7798 90.6556 76.7302C90.6835 76.6805 90.7455 76.6588 90.795 76.6867C92.2976 77.4658 93.6887 76.696 93.7041 76.6898C93.7537 76.6619 93.8188 76.6805 93.8467 76.7302C93.8745 76.7798 93.856 76.845 93.8064 76.873C93.7661 76.8916 93.1217 77.2454 92.2294 77.2454Z" fill="#D9C9AC"/>
<path d="M111.063 75.1844C111.026 75.1844 110.989 75.1627 110.97 75.1255C110.958 75.1006 109.756 72.6114 110.351 70.0848C110.363 70.0289 110.422 69.9948 110.475 70.0072C110.531 70.0196 110.565 70.0755 110.552 70.1314C109.976 72.5896 111.144 75.0106 111.156 75.0355C111.181 75.0882 111.159 75.1503 111.11 75.1751C111.094 75.1813 111.079 75.1844 111.063 75.1844Z" fill="#D9C9AC"/>
<path d="M107.404 83.1768C107.364 83.1768 107.327 83.1551 107.311 83.1179C107.287 83.0651 107.308 83.003 107.361 82.9813C107.429 82.9503 114.071 79.7999 117.03 73.7257C117.055 73.6729 117.117 73.6512 117.169 73.6791C117.222 73.7039 117.244 73.766 117.216 73.8188C114.226 79.9613 107.516 83.1396 107.448 83.1737C107.435 83.1737 107.42 83.1768 107.404 83.1768Z" fill="#D9C9AC"/>
<path d="M108.522 85.0419C108.473 85.0419 108.429 85.0047 108.42 84.955C108.411 84.8992 108.451 84.8464 108.507 84.8371C114.889 83.8252 124.106 73.7998 124.199 73.7005C124.236 73.6571 124.304 73.654 124.344 73.6943C124.388 73.7316 124.391 73.7999 124.351 73.8402C124.258 73.9426 114.991 84.0208 108.538 85.0419C108.532 85.0419 108.528 85.0419 108.522 85.0419Z" fill="#D9C9AC"/>
<path d="M112.807 79.4588C112.752 79.4588 112.705 79.4153 112.702 79.3563C112.702 79.3346 112.649 77.165 113.458 75.042C113.48 74.9893 113.539 74.9613 113.591 74.9831C113.644 75.0048 113.672 75.0637 113.65 75.1165C112.854 77.1992 112.907 79.3284 112.907 79.3501C112.913 79.4091 112.869 79.4557 112.807 79.4588C112.811 79.4588 112.811 79.4588 112.807 79.4588Z" fill="#D9C9AC"/>
<path d="M115.528 77.8509C114.917 77.8509 114.533 77.7143 114.499 77.7019C114.446 77.6832 114.419 77.6212 114.437 77.5684C114.456 77.5156 114.515 77.4877 114.57 77.5063C114.589 77.5125 116.284 78.1023 118.304 76.69C118.35 76.6559 118.415 76.6683 118.449 76.7148C118.483 76.7614 118.471 76.8266 118.424 76.8607C117.281 77.6615 116.246 77.8509 115.528 77.8509Z" fill="#D9C9AC"/>
<path d="M117.681 81.4265C116.77 81.4265 116.348 81.023 116.324 80.9982C116.283 80.9578 116.283 80.8927 116.324 80.8492C116.364 80.8089 116.429 80.8089 116.469 80.8492C116.479 80.8585 117.352 81.6779 119.36 80.8275C119.412 80.8027 119.474 80.8306 119.496 80.8834C119.518 80.9361 119.493 80.9982 119.44 81.0199C118.725 81.3241 118.139 81.4265 117.681 81.4265Z" fill="#D9C9AC"/>
<path d="M112.265 83.6917C112.21 83.6917 112.163 83.6451 112.16 83.5893C112.16 83.5303 112.145 82.1584 113.102 81.0503C113.139 81.0069 113.204 81.0038 113.248 81.041C113.291 81.0783 113.297 81.1435 113.257 81.1869C112.352 82.2329 112.365 83.5706 112.365 83.5862C112.371 83.6451 112.324 83.6917 112.265 83.6917Z" fill="#D9C9AC"/>
<path d="M99.5752 36.7068C100.756 36.7068 100.756 34.8693 99.5752 34.8693C98.3948 34.8724 98.3948 36.7068 99.5752 36.7068Z" fill="#8E97FD"/>
<path d="M121.048 4.7711C122.228 4.7711 122.228 2.93362 121.048 2.93362C119.868 2.93362 119.865 4.7711 121.048 4.7711Z" fill="#8E97FD"/>
<path d="M165.571 23.1176C166.16 23.1176 166.163 22.1989 165.571 22.1989C164.982 22.1989 164.979 23.1176 165.571 23.1176Z" fill="#8E97FD"/>
<path d="M116.317 15.8922C116.906 15.8922 116.909 14.9734 116.317 14.9734C115.729 14.9734 115.729 15.8922 116.317 15.8922Z" fill="#8E97FD"/>
<path d="M174.395 22.1993C174.983 22.1993 174.986 21.2806 174.395 21.2806C173.803 21.2806 173.803 22.1993 174.395 22.1993Z" fill="#8E97FD"/>
<path d="M114.896 7.74749C115.484 7.74749 115.487 6.82875 114.896 6.82875C114.307 6.82875 114.304 7.74749 114.896 7.74749Z" fill="#59D6B8"/>
<path d="M150.954 74.4833C151.543 74.4833 151.546 73.5645 150.954 73.5645C150.366 73.5645 150.366 74.4833 150.954 74.4833Z" fill="#59D6B8"/>
<path d="M93.7541 17.8474C94.3427 17.8474 94.3458 16.9287 93.7541 16.9287C93.1655 16.9287 93.1655 17.8474 93.7541 17.8474Z" fill="#59D6B8"/>
<path d="M83.9326 52.3992C84.5213 52.3992 84.5244 51.4805 83.9326 51.4805C83.3409 51.4805 83.3409 52.3992 83.9326 52.3992Z" fill="#8ABFA3"/>
<path d="M163.465 2.02727C164.053 2.02727 164.057 1.10854 163.465 1.10854C162.876 1.10854 162.876 2.02727 163.465 2.02727Z" fill="#8E97FD"/>
<path d="M84.847 42.6473C84.847 42.6069 84.847 42.5666 84.847 42.5262C84.847 42.0452 84.4256 41.5858 83.9299 41.6075C83.4342 41.6292 83.0129 42.011 83.0129 42.5262C83.0129 42.5666 83.0129 42.6069 83.0129 42.6473C83.0129 43.1284 83.4342 43.5878 83.9299 43.566C84.4287 43.5412 84.847 43.1594 84.847 42.6473Z" fill="#8E97FD"/>
<path d="M155.428 1.56807C156.608 1.56807 156.608 -0.269394 155.428 -0.269394C154.248 -0.269394 154.244 1.56807 155.428 1.56807Z" fill="#8E97FD"/>
<path d="M95.3093 67.5647C96.4897 67.5647 96.4897 65.7272 95.3093 65.7272C94.1289 65.7272 94.1289 67.5647 95.3093 67.5647Z" fill="#E9F2DE"/>
</g>
</svg>
