<svg width="163" height="114" viewBox="0 0 163 114" fill="none" xmlns="http://www.w3.org/2000/svg">
<rect x="0.5" y="0.49707" width="162" height="113" fill="#FEDEA5"/>
<mask id="mask0_1_975" style="mask-type:alpha" maskUnits="userSpaceOnUse" x="0" y="0" width="163" height="114">
<rect x="0.5" y="0.49707" width="162" height="113" fill="#FEE3B4"/>
</mask>
<g mask="url(#mask0_1_975)">
<path d="M133.052 60.8212H28.6851V98.6141H133.052V60.8212Z" fill="#FEDEA5"/>
<path d="M105.295 55.1212C105.357 54.9242 104.242 55.3823 104.25 55.1468C104.28 54.3463 104.059 53.4813 103.919 52.698C103.645 51.1689 103.344 49.6436 103.023 48.1233C102.653 46.3709 102.268 44.6224 101.895 42.8712C101.575 41.3626 101.234 39.8451 100.842 38.3527C100.519 37.1247 100.131 35.9317 99.5816 34.7827C99.349 34.2973 99.1707 33.7178 98.7247 33.3727C98.246 33.0025 97.6003 33.091 97.0307 33.0515C94.6384 32.8851 93.816 34.4888 94.145 37.0228C94.4312 39.2266 98.5825 57.2772 100.731 58.1167C102.198 58.6906 104.86 56.5045 105.295 55.1212Z" fill="#F29A31"/>
<path d="M120.029 52.6611C117.352 53.3859 109.004 57.3037 106.29 57.9829C104.447 58.4443 101.845 59.4052 100.317 57.7474C99.4308 56.7855 99.5516 55.1895 100.236 54.1708C101.141 52.8247 100.626 53.7433 102.087 53.3981C105.38 52.6193 111.203 52.6171 117.735 50.8057C118.413 50.6175 122.126 52.0933 120.029 52.6611Z" fill="#F29A31"/>
<path d="M118.693 47.8534C118.61 47.6435 118.554 47.417 118.563 47.191C118.58 46.7428 118.737 46.263 119.127 45.9963C119.324 45.8622 119.642 45.8488 119.708 46.1294C119.762 46.3576 119.613 46.5658 119.548 46.7746C119.448 47.093 119.438 47.4821 119.596 47.7833C119.709 47.9965 119.905 48.154 120.137 48.2242C120.379 48.2965 120.645 48.2776 120.878 48.1852C121.115 48.0906 121.314 47.918 121.438 47.697C121.567 47.4671 121.618 47.1932 121.587 46.9327C121.556 46.6788 121.438 46.435 121.222 46.2853C120.993 46.1266 120.704 46.096 120.432 46.0899C120.299 46.0871 120.165 46.0949 120.033 46.0865C119.936 46.0804 119.811 46.0726 119.734 46.0075C119.637 45.9245 119.638 45.7887 119.663 45.6768C119.716 45.4341 120.046 45.2988 120.257 45.2404C120.591 45.1485 120.935 45.2109 121.24 45.3628C121.405 45.4447 121.57 45.5543 121.705 45.6785C121.889 45.8483 122.062 46.0737 122.19 46.288C122.3 46.4734 122.369 46.676 122.39 46.8898C122.43 47.2945 122.359 47.751 122.147 48.1034C122.025 48.3043 121.848 48.5003 121.66 48.6439C121.495 48.7697 121.284 48.8755 121.088 48.9451C120.896 49.0146 120.693 49.0425 120.488 49.0391C119.726 49.0291 118.974 48.5637 118.693 47.8534Z" fill="#F29A31"/>
<path d="M119.241 48.5843C119.241 48.5843 119.977 50.4948 115.256 51.42L118.358 52.9303C119.802 52.7839 121.211 52.412 122.565 51.9038C122.952 51.7585 123.333 51.6026 123.711 51.4378C124.606 51.0476 125.54 50.6485 126.262 49.9755C126.367 49.8775 127.149 49.116 126.684 49.0564C126.3 49.0074 125.972 49.2279 125.668 49.4271C124.936 49.907 123.912 50.3946 123.019 50.0562C124.181 49.7138 125.344 49.1488 126.169 48.252C126.508 47.8829 126.801 47.4771 127.058 47.0479C127.204 46.8041 127.375 46.5119 127.301 46.2174C127.236 45.9613 126.982 45.9491 126.77 46.0231C126.425 46.1439 126.252 46.5174 126.022 46.7729C125.71 47.1209 125.329 47.4042 124.955 47.6842C124.609 47.9431 124.252 48.1908 123.865 48.389C123.646 48.5008 123.418 48.5966 123.181 48.6662C122.901 48.7486 122.615 48.7653 122.324 48.7658C122.744 48.62 123.145 48.4441 123.541 48.2437C124.435 47.7922 125.339 47.1916 125.981 46.4211C126.214 46.1422 126.408 45.8144 126.494 45.4603C126.54 45.2722 126.635 45.0773 126.504 44.9003C126.363 44.7105 126.091 44.7138 125.893 44.8001C125.639 44.9109 125.498 45.158 125.326 45.3579C124.771 46.0031 123.915 46.7178 123.173 47.1353C122.796 47.3474 121.075 48.4747 120.529 48.3767L119.241 48.5843Z" fill="#F29A31"/>
<path d="M65.356 55.0515C65.2939 54.8545 66.4094 55.3126 66.4009 55.0771C66.371 54.2767 66.5928 53.4116 66.7328 52.6284C67.0066 51.0992 67.3069 49.5739 67.6281 48.0537C67.9984 46.3018 68.3834 44.5533 68.7559 42.8015C69.0766 41.2929 69.4175 39.7754 69.8098 38.2836C70.1321 37.0555 70.52 35.8626 71.0698 34.7136C71.3023 34.2282 71.4807 33.6487 71.9267 33.3042C72.4053 32.934 73.0511 33.0225 73.6207 32.983C76.013 32.8165 76.8354 34.4203 76.5064 36.9542C76.2202 39.1581 72.0689 57.2086 69.9205 58.0481C68.4534 58.6209 65.7924 56.4354 65.356 55.0515Z" fill="#F29A31"/>
<path d="M50.6226 52.5916C53.2994 53.3163 61.6477 57.2336 64.3617 57.9133C66.2042 58.3748 68.807 59.3356 70.3345 57.6778C71.2208 56.7159 71.1 55.1199 70.4153 54.1012C69.5104 52.7547 70.0258 53.6737 68.5649 53.3286C65.2717 52.5498 59.4484 52.5476 52.9167 50.7362C52.2382 50.548 48.5256 52.0238 50.6226 52.5916Z" fill="#F29A31"/>
<path d="M51.958 47.7824C52.041 47.5731 52.0968 47.346 52.0884 47.12C52.0709 46.6724 51.9139 46.192 51.5239 45.9254C51.3274 45.7906 51.0096 45.7778 50.943 46.0584C50.8888 46.2866 51.0379 46.4948 51.1033 46.7036C51.2033 47.022 51.2134 47.4111 51.0548 47.7123C50.9425 47.9255 50.7472 48.083 50.514 48.1532C50.2724 48.2255 50.006 48.2066 49.7734 48.1142C49.5358 48.0196 49.3376 47.847 49.2134 47.626C49.0842 47.3961 49.0328 47.1222 49.0644 46.8617C49.0955 46.6078 49.2129 46.3646 49.4291 46.2143C49.6583 46.0556 49.9473 46.025 50.2194 46.0189C50.352 46.0161 50.4858 46.0239 50.6184 46.0155C50.7155 46.0094 50.8403 46.0016 50.9171 45.9365C51.0147 45.8541 51.013 45.7177 50.9882 45.6058C50.9351 45.3631 50.6049 45.2278 50.3938 45.1694C50.0607 45.0775 49.7158 45.1399 49.4116 45.2919C49.2467 45.3742 49.0814 45.4834 48.9464 45.6075C48.7619 45.7773 48.5891 46.0027 48.4615 46.217C48.3509 46.4024 48.2826 46.605 48.2612 46.8194C48.2211 47.2241 48.2922 47.6805 48.5044 48.0329C48.6258 48.2339 48.8036 48.4298 48.991 48.5734C49.1559 48.6998 49.3675 48.805 49.5629 48.8746C49.7553 48.9436 49.9586 48.972 50.1629 48.9687C50.9255 48.9581 51.6769 48.4927 51.958 47.7824Z" fill="#F29A31"/>
<path d="M51.4101 48.5143C51.4101 48.5143 50.6746 50.4248 55.3954 51.35L52.2929 52.8602C50.8495 52.7138 49.44 52.342 48.0858 51.8337C47.6997 51.6884 47.3181 51.5326 46.9405 51.3678C46.0452 50.9776 45.1115 50.5784 44.3895 49.9054C44.2846 49.8074 43.5027 49.0454 43.9667 48.9864C44.3517 48.9374 44.6791 49.1578 44.9834 49.3571C45.7155 49.8369 46.7395 50.3246 47.632 49.9861C46.4703 49.6438 45.3068 49.0788 44.4827 48.182C44.1429 47.8129 43.8499 47.4071 43.5936 46.9779C43.4474 46.7341 43.2764 46.4418 43.3503 46.1473C43.4152 45.8913 43.6693 45.879 43.8809 45.953C44.2264 46.0738 44.3991 46.4474 44.6289 46.7029C44.9416 47.0508 45.3221 47.3341 45.6958 47.6142C46.0418 47.873 46.3991 48.1207 46.7858 48.3189C47.0048 48.4308 47.2334 48.5265 47.47 48.5961C47.7505 48.6785 48.0361 48.6952 48.3269 48.6963C47.9069 48.551 47.5061 48.3746 47.1098 48.1742C46.2162 47.7227 45.3131 47.1221 44.6701 46.3516C44.4375 46.0727 44.2428 45.7448 44.157 45.3908C44.1113 45.2027 44.0159 45.0078 44.1474 44.8308C44.2885 44.641 44.5606 44.6443 44.7587 44.7306C45.0122 44.8414 45.1533 45.0885 45.3255 45.2878C45.8804 45.933 46.7361 46.6478 47.4784 47.0653C47.8555 47.2774 49.5761 48.4046 50.1225 48.3067L51.4101 48.5143Z" fill="#F29A31"/>
<path d="M76.8212 33.0261H95.3262C95.3262 33.0261 92.5314 38.094 85.4155 38.1407C85.4155 38.1402 76.4774 36.0265 76.8212 33.0261Z" fill="#F29A31"/>
<path d="M96.1035 54.7359L98.9542 33.902C98.9542 33.4182 98.5173 33.0269 97.9782 33.0269H94.6878C94.6912 33.0659 90.6912 36.7126 85.7548 36.7126C80.8183 36.7126 76.8184 33.0664 76.8218 33.0269C76.8218 33.0269 74.4588 32.8471 72.4171 33.0453L76.2426 54.7364L71.0059 66.8295C87.9213 76.0018 100.504 67.1028 100.504 66.6197L96.1035 54.7359Z" fill="#7E64BF"/>
<path d="M72.4099 63.5862C72.4099 63.5862 85.817 71.7364 99.3805 63.5862C99.3805 63.5862 103.174 69.5649 103.457 75.8614C103.457 75.8614 90.7579 78.8696 67.9849 75.8614C67.9854 75.8614 69.172 68.2417 72.4099 63.5862Z" fill="#565D70"/>
<path d="M47.7979 80.1005C55.9852 80.3666 64.1877 78.9789 72.3773 78.7985C74.8345 78.7445 77.5582 78.366 79.3815 76.5763C81.2731 74.7198 80.7125 69.1352 78.769 67.3305C74.3609 63.2373 69.801 65.1205 64.5095 66.206C59.8542 67.1613 48.5057 70.8609 48.4623 71.1237L47.7979 80.1005Z" fill="#565D70"/>
<path d="M119.135 80.1344C110.948 80.4005 104.747 79.261 96.5571 79.0806C94.1005 79.0266 91.3763 78.6481 89.553 76.8584C87.6614 75.0019 90.2857 69.6902 92.2292 67.8854C96.6373 63.7922 100.006 65.1906 105.298 66.2761C109.953 67.2313 118.071 69.9145 117.717 70.3921L119.135 80.1344Z" fill="#565D70"/>
<path d="M88.6018 25.5958H83.2075V34.1952H88.6018V25.5958Z" fill="#F29A31"/>
<path d="M84.3979 28.9625C84.3979 28.9625 86.5639 29.5353 88.6011 28.4955V29.4886C88.6011 29.488 86.4538 30.0625 84.3979 28.9625Z" fill="#DB7D0D"/>
<path d="M88.5454 28.3107V33.0079H88.6583V28.3107" fill="#333242"/>
<path d="M85.6559 11.6645C85.7321 10.5227 85.6333 9.43557 84.2723 9.09043C82.987 8.76423 81.4228 8.95572 80.405 9.84194C80.1307 10.0808 79.8626 10.3847 79.5323 10.5539C78.798 10.9297 77.8999 10.7103 77.1683 11.1351C76.2623 11.6606 75.7796 12.6153 74.9408 13.2159C74.185 13.7576 73.2649 13.9969 72.3679 14.2124C71.4585 14.4311 70.5768 14.9232 70.2217 15.8039C69.8937 16.6177 70.163 17.5385 69.8068 18.3412C69.4879 19.061 68.7569 19.4662 68.1845 19.975C66.6988 21.296 67.3095 23.2332 68.5757 24.4128C69.7125 25.4721 69.5754 27.0319 71.2863 27.6142C73.1672 28.2544 75.1779 27.4349 77.0435 28.2811C77.9044 28.6713 78.6348 29.0014 79.6035 28.8194C80.9594 28.565 82.0883 28.2839 83.4798 28.3768C84.51 28.4453 85.6734 28.3512 86.1103 27.303C87.0784 24.9817 85.8394 22.2679 85.8625 19.8876C85.8732 18.8127 86.1583 17.7528 86.055 16.6756C85.9539 15.6213 85.6384 14.597 85.556 13.5382C85.5131 12.9804 85.6124 12.3136 85.6559 11.6645Z" fill="#565D70"/>
<path d="M84.5946 11.7476C84.3384 10.632 84.2627 9.5426 85.5514 8.99149C86.769 8.47045 88.3439 8.41756 89.491 9.13511C89.7997 9.32883 90.1125 9.58769 90.4653 9.70292C91.2505 9.9601 92.1029 9.60494 92.8926 9.91111C93.8708 10.2896 94.4997 11.1581 95.4232 11.6212C96.2558 12.0393 97.2024 12.1333 98.1225 12.2074C99.0556 12.2825 100.005 12.6321 100.496 13.4471C100.949 14.1997 100.83 15.151 101.309 15.8886C101.739 16.55 102.526 16.8372 103.171 17.2514C104.849 18.3263 104.554 20.3336 103.491 21.6947C102.536 22.9166 102.92 24.4357 101.323 25.2758C99.5676 26.1993 97.4514 25.7005 95.7432 26.825C94.9552 27.3438 94.2863 27.7824 93.3007 27.7529C91.9211 27.7117 90.7616 27.6088 89.4018 27.9155C88.3953 28.1426 87.2313 28.2294 86.633 27.262C85.3076 25.1193 86.0996 22.2469 85.6976 19.9C85.5164 18.8401 85.066 17.8375 84.9965 16.7576C84.9288 15.7005 85.0778 14.64 84.9903 13.5818C84.9452 13.0246 84.7408 12.3822 84.5946 11.7476Z" fill="#565D70"/>
<path d="M93.4797 20.469C93.3572 22.7213 92.5517 24.8227 91.3375 26.3953C90.1154 27.969 88.484 29.0145 86.5235 29.1659C84.5631 29.3195 82.7855 28.5396 81.328 27.1747C79.8784 25.8092 78.7488 23.8586 78.269 21.6531C77.8073 19.447 78.2933 17.3489 79.5504 15.6688C80.7974 14.0027 82.8154 12.7541 85.1953 12.5754C87.574 12.3839 89.766 13.3047 91.2624 14.757C92.7713 16.2222 93.5847 18.219 93.4797 20.469Z" fill="#F29A31"/>
<path d="M79.7927 23.3172C79.7329 23.0389 79.6369 22.7672 79.5308 22.5034C79.4461 22.2941 79.3417 22.0931 79.2655 21.881C79.1639 21.5994 79.0758 21.3082 78.9093 21.0555C78.8128 20.9091 78.701 20.7783 78.5531 20.6803C78.4205 20.5923 78.272 20.5523 78.1179 20.5222C77.8447 20.4688 77.5337 20.4799 77.2819 20.6074C77.2464 20.6252 77.2125 20.6463 77.1803 20.6697C77.1679 20.6758 77.1555 20.682 77.143 20.6886C76.8207 20.8618 76.6175 21.213 76.6299 21.5749C76.644 21.979 76.8563 22.3275 77.0143 22.6888C77.1922 23.0957 77.3231 23.5193 77.5258 23.9162C77.7391 24.3348 78.0575 24.8269 78.5492 24.9522C78.819 25.0206 79.1075 24.9772 79.3479 24.8386C79.62 24.6816 79.7707 24.4272 79.8306 24.1283C79.8836 23.8628 79.8492 23.58 79.7927 23.3172Z" fill="#DB7D0D"/>
<path d="M92.3331 23.1554C92.4398 23.4415 92.6289 23.6692 92.9224 23.7822C93.1821 23.8818 93.4739 23.8807 93.7291 23.7711C94.1948 23.5712 94.4307 23.0357 94.5752 22.5893C94.7118 22.1656 94.7739 21.727 94.8851 21.2978C94.9839 20.9159 95.138 20.5396 95.0878 20.1382C95.0421 19.7792 94.7858 19.4636 94.4398 19.3428C94.4262 19.3383 94.4132 19.3339 94.3997 19.33C94.3641 19.3116 94.3274 19.296 94.289 19.2838C94.0204 19.1964 93.7116 19.2337 93.4502 19.3288C93.3023 19.3828 93.1623 19.4452 93.0455 19.5526C92.9151 19.6723 92.8248 19.8187 92.7531 19.9785C92.6289 20.254 92.5883 20.5552 92.533 20.8486C92.4912 21.0701 92.4195 21.2844 92.3698 21.5043C92.3072 21.7815 92.2552 22.0643 92.2406 22.3482C92.227 22.616 92.2383 22.901 92.3331 23.1554Z" fill="#DB7D0D"/>
<path d="M83.8226 20.0052C83.6877 19.9724 83.5618 19.9139 83.4314 19.8688L83.4359 19.8588C83.4642 19.7903 83.4907 19.7107 83.4828 19.635C83.4755 19.5649 83.4269 19.4764 83.3547 19.4636C83.3372 19.4602 83.3185 19.4619 83.2982 19.4691C83.2023 19.5025 83.1785 19.6629 83.1526 19.7447C83.1097 19.88 83.0278 19.9969 82.929 20.0987C82.6502 20.3854 82.2031 20.4277 81.8356 20.308C81.4879 20.195 81.0922 19.9707 81.1216 19.5554C81.1346 19.374 80.8484 19.3689 80.8354 19.5499C80.8184 19.7915 80.9364 20.0342 81.1075 20.2145C80.9946 20.3481 80.8472 20.4444 80.6807 20.5062C80.587 20.5413 80.6243 20.6921 80.7197 20.6571C80.9167 20.5841 81.0888 20.475 81.2226 20.3203C81.2689 20.357 81.3169 20.3893 81.366 20.416C81.4309 20.4517 81.4986 20.4839 81.5681 20.5123C81.5229 20.6632 81.4953 20.8196 81.4258 20.9616C81.3818 21.0512 81.5156 21.1325 81.5602 21.0428C81.6341 20.8909 81.6607 20.7244 81.7109 20.5652C81.913 20.6309 82.1247 20.6626 82.3301 20.6509C82.3465 20.8001 82.3674 20.9488 82.3877 21.0974C82.4018 21.1965 82.5542 21.1575 82.5401 21.059C82.5204 20.9176 82.5 20.7756 82.4854 20.6337C82.6541 20.6053 82.8156 20.5435 82.9601 20.4444C83.0798 20.5491 83.2034 20.6487 83.3473 20.7211C83.4376 20.7662 83.5201 20.6342 83.4292 20.5886C83.301 20.524 83.191 20.4383 83.0837 20.3459C83.1187 20.3142 83.1526 20.2791 83.1848 20.2412C83.2468 20.1689 83.3072 20.0909 83.358 20.008C83.4986 20.0536 83.6324 20.1188 83.7775 20.1538C83.8762 20.1778 83.9214 20.0292 83.8226 20.0052Z" fill="#333242"/>
<path d="M80.4074 18.1346C80.4886 18.0756 80.5778 18.026 80.6659 17.9793C80.6761 17.9743 80.6862 17.9687 80.6964 17.9631C80.6738 17.9748 80.7099 17.957 80.7105 17.9559C80.7336 17.9448 80.7562 17.9336 80.7799 17.9225C80.8358 17.8963 80.8917 17.8718 80.9493 17.849C81.0763 17.7978 81.2078 17.7549 81.3405 17.7199C82.0619 17.5306 82.8177 17.6636 83.4313 18.0817C83.5041 18.1312 83.5736 18.1847 83.6424 18.2398C83.7661 18.34 83.9281 18.1535 83.8039 18.0533C83.1739 17.544 82.3881 17.2974 81.5781 17.422C81.1293 17.4905 80.684 17.6575 80.3052 17.9058C80.2916 17.9147 80.2787 17.9236 80.2657 17.9325C80.137 18.0266 80.2781 18.2281 80.4074 18.1346Z" fill="#333242"/>
<path d="M87.7332 19.7C87.8614 19.6466 87.976 19.5692 88.0979 19.5046L88.0922 19.4957C88.0527 19.4322 88.0143 19.3582 88.0104 19.2819C88.0064 19.2118 88.0403 19.1166 88.1097 19.0927C88.1261 19.0871 88.1453 19.0854 88.1662 19.0893C88.2661 19.1077 88.3152 19.2625 88.3542 19.3387C88.4185 19.4656 88.5179 19.5686 88.6319 19.6544C88.9525 19.8943 89.4019 19.8665 89.7451 19.6917C90.0702 19.5263 90.4259 19.2435 90.3305 18.8377C90.2893 18.6601 90.571 18.6112 90.6122 18.7876C90.6675 19.0237 90.5896 19.2819 90.449 19.4862C90.5817 19.6009 90.7426 19.6727 90.917 19.7084C91.0152 19.7284 91.0022 19.8832 90.9023 19.8631C90.6963 19.8214 90.5089 19.7406 90.3519 19.6082C90.3124 19.6516 90.2701 19.6911 90.226 19.7251C90.1673 19.7707 90.1058 19.8125 90.042 19.8514C90.1103 19.9934 90.1623 20.1437 90.2537 20.2734C90.3113 20.3547 90.1916 20.456 90.134 20.3741C90.0369 20.2355 89.9839 20.0746 89.9094 19.9255C89.7203 20.0212 89.5159 20.0858 89.311 20.1064C89.3189 20.2561 89.3217 20.4059 89.3251 20.5562C89.3274 20.6558 89.1704 20.6408 89.1682 20.5423C89.1648 20.3992 89.1625 20.2561 89.1546 20.1136C88.9836 20.1114 88.8142 20.0758 88.6556 20.0001C88.554 20.122 88.4479 20.24 88.3175 20.3329C88.2356 20.3914 88.1329 20.2739 88.2153 20.2149C88.3316 20.1314 88.427 20.0296 88.5179 19.9221C88.4784 19.896 88.4388 19.867 88.401 19.8347C88.3282 19.7729 88.2559 19.705 88.1927 19.631C88.0612 19.6978 87.9387 19.783 87.8021 19.8397C87.7078 19.8787 87.6395 19.739 87.7332 19.7Z" fill="#333242"/>
<path d="M90.8079 17.3246C90.7187 17.2789 90.6228 17.2439 90.5279 17.211C90.5172 17.2071 90.5059 17.2038 90.4952 17.1999C90.5195 17.2077 90.4811 17.1954 90.4799 17.1954C90.4557 17.1876 90.4308 17.1804 90.4066 17.1732C90.3473 17.1559 90.2874 17.1409 90.2276 17.127C90.0938 17.0958 89.9578 17.0741 89.8206 17.0602C89.0783 16.9845 88.3529 17.2333 87.8133 17.741C87.7489 17.8011 87.6885 17.8651 87.6298 17.9297C87.5237 18.0477 87.334 17.889 87.4407 17.7705C87.9821 17.1698 88.7187 16.8052 89.5389 16.8024C89.9928 16.8008 90.4591 16.8965 90.8728 17.083C90.8875 17.0897 90.9016 17.0963 90.9157 17.1036C91.058 17.1765 90.9507 17.3975 90.8079 17.3246Z" fill="#333242"/>
<path d="M84.4999 25.508C84.7828 25.7285 85.1237 25.8921 85.4641 26.0029C86.1228 26.2172 86.8313 26.1682 87.4065 25.7652C87.6125 25.6205 87.7903 25.4373 87.9444 25.2403C88.0421 25.1156 87.8536 24.9552 87.7553 25.081C87.5041 25.4034 87.1903 25.67 86.7957 25.803C86.4937 25.9055 86.168 25.9088 85.8558 25.8515C85.5883 25.8025 85.332 25.7056 85.0904 25.5837C84.9995 25.5375 84.9103 25.4874 84.824 25.4334C84.8155 25.4284 84.807 25.4228 84.7991 25.4178C84.772 25.4006 84.8206 25.4317 84.7952 25.415C84.7816 25.4061 84.7675 25.3972 84.7545 25.3878C84.7331 25.3733 84.7122 25.3583 84.6907 25.3432C84.6806 25.336 84.6715 25.3293 84.6614 25.3215C84.5355 25.2236 84.3735 25.41 84.4999 25.508Z" fill="#333242"/>
<path d="M77.5308 22.8231C77.7425 23.5734 78.3493 24.3711 79.2282 24.1001C79.3428 24.0644 79.279 23.8919 79.165 23.9275C78.3905 24.1663 77.8875 23.402 77.7063 22.7601C77.6736 22.646 77.4986 22.7095 77.5308 22.8231Z" fill="#333242"/>
<path d="M94.1017 21.4842C94.0255 22.1455 93.6501 22.9783 92.8468 22.8625C92.7283 22.8453 92.6927 23.0256 92.8118 23.0429C93.7229 23.1748 94.1948 22.293 94.2846 21.5187C94.2987 21.4013 94.1158 21.3662 94.1017 21.4842Z" fill="#333242"/>
<path d="M84.962 12.8746C84.8785 12.8663 85.0523 13.7041 85.0743 13.757C85.3763 14.4962 85.9973 14.7373 86.7458 14.8647C87.0737 14.9204 87.4237 14.9911 87.7302 15.1403C88.0712 15.3062 88.2919 15.5923 88.5798 15.8261C89.129 16.2731 89.8567 16.4685 90.5583 16.4958C90.5583 16.4958 91.8679 16.5715 92.827 19.0019L91.5473 14.0247C91.5462 14.0247 84.975 12.8763 84.962 12.8746Z" fill="#C15724"/>
<path d="M95.038 17.8792C94.8997 17.6153 94.7383 17.3659 94.5655 17.1227C94.2957 16.7419 93.9965 16.384 93.703 16.021C93.1526 15.3413 92.6265 14.6421 92.0265 14.0031C91.3689 13.3017 90.6012 12.706 89.7324 12.2785C88.8998 11.8688 87.9842 11.6361 87.0562 11.5849C86.818 11.5715 86.5758 11.5615 86.3376 11.5777C86.1282 11.5921 85.9187 11.5966 85.7133 11.6395C85.5897 11.6651 85.4649 11.7024 85.3531 11.7614C85.2865 11.7291 85.2081 11.7174 85.1352 11.709C84.9766 11.6896 84.8152 11.6845 84.6554 11.6807C84.3489 11.6729 84.0441 11.6862 83.7376 11.6996C83.2363 11.7213 82.7328 11.7419 82.2377 11.8271C81.7483 11.9111 81.2928 12.0748 80.8553 12.3052C80.0515 12.7289 79.3718 13.3924 78.8734 14.1406C78.6013 14.5492 78.3846 14.9784 78.2451 15.4482C78.1723 15.6937 78.1164 15.9431 78.0402 16.1869C77.977 16.3895 77.9098 16.5816 77.8404 16.7814C77.666 17.2852 77.4599 17.8252 77.4983 18.3668C77.5192 18.6591 77.6265 18.9675 77.6981 19.2502C77.7631 19.5058 77.7873 20.4816 78.1559 20.52C78.6188 20.5673 78.6171 19.8398 78.6657 19.557C78.7599 19.0036 78.9355 18.482 79.1969 17.9833C79.5107 17.3837 79.8359 16.7597 80.4839 16.4552C80.9095 16.2548 81.3904 16.1557 81.7449 15.8306C82.1028 15.5022 82.2812 15.0363 82.5663 14.6527C82.9704 14.1105 83.6941 14.0443 84.2727 13.7765C84.6142 13.6179 84.914 13.3846 85.1132 13.0701C85.0382 13.1887 85.3842 13.6752 85.457 13.7637C85.6196 13.9613 85.8239 14.0983 86.0571 14.2035C86.5719 14.4373 87.1646 14.4462 87.6715 14.6978C88.3285 15.024 88.7417 15.6965 89.449 15.9442C90.1219 16.1797 90.9393 16.1156 91.3971 16.7553C92.022 17.6287 92.7298 18.7231 92.7671 19.8281C92.7716 19.9594 92.6542 20.5579 92.9568 20.4521C93.3513 20.314 93.6336 19.5642 93.8103 19.2441C94.285 18.3824 95.3321 19.5208 95.2655 18.55C95.2497 18.3139 95.1453 18.0857 95.038 17.8792Z" fill="#6B748B"/>
<path d="M85.8335 12.1089C86.9077 12.1435 87.2312 13.1744 88.1033 13.5663C89.3926 14.1458 91.2752 12.935 92.3302 14.2243C93.4219 15.5492 93.0104 16.82 95.2339 16.7087C96.7004 16.623 98.1924 16.9408 99.253 17.9974C97.3716 16.3135 94.0276 17.8599 92.7885 15.6499C92.3178 14.8227 92.3488 14.2571 91.3909 13.8452C90.4171 13.426 89.3141 14.084 88.3076 13.7561C87.2763 13.4477 87.0076 12.2047 85.8335 12.1089Z" fill="#9099B9"/>
<path d="M84.0049 10.7549C82.1748 10.1598 81.5053 12.6125 79.988 13.1135C79.367 13.3016 78.5914 12.9047 78.0715 13.2443C76.9928 14.4116 78.2702 14.3871 76.2082 14.8458C75.9942 14.8937 75.4433 14.9956 75.2378 15.1999C75.064 15.3724 74.9347 15.501 74.8726 15.7577C74.8026 16.0649 74.8382 16.4362 74.6045 16.6879C74.5723 16.7213 73.7871 17.0681 73.7764 16.9384C73.7894 17.1042 74.6519 16.6216 74.7055 16.3505C74.8032 15.8963 74.736 15.4303 75.1616 15.1169C75.8181 14.6404 76.9352 14.8247 77.502 14.2708C77.8187 13.9613 77.5336 13.3567 77.988 13.1012C78.391 12.8274 78.9409 13.0489 79.3687 13.0773C81.3619 13.1536 81.8598 9.94547 84.0049 10.7549Z" fill="#9099B9"/>
<path d="M78.0942 15.9031C77.068 16.2538 76.9517 17.4105 76.0784 17.9093C75.4411 18.2622 74.3708 18.0262 73.8566 18.5768C73.3 19.173 74.0632 20.195 73.3999 20.7355C72.7259 21.3885 71.4874 20.4149 70.8055 21.1091C70.2828 21.6412 70.8405 22.675 69.8516 22.8793C70.8304 22.616 70.2202 21.56 70.7643 20.9999C71.4287 20.3169 72.6943 21.2438 73.3 20.6097C73.93 20.0909 73.1115 18.8673 73.8956 18.3413C75.1572 17.5864 75.9638 18.1765 76.8975 16.821C77.1967 16.3868 77.5777 16.0445 78.0942 15.9031Z" fill="#9099B9"/>
<path d="M85.4448 11.0419C86.5055 10.085 87.1868 11.0364 88.3068 11.2529C89.3212 11.4488 90.3942 11.0068 91.359 11.4633C91.9884 11.7611 92.2983 12.467 92.8904 12.8277C93.9471 13.4634 95.2613 13.0354 96.3727 13.4991C97.4746 13.9867 98.2158 15.0171 99.3527 15.4463C98.2384 15.0928 97.5254 14.0992 96.4647 13.6722C95.3459 13.204 94.0589 13.6004 92.9655 13.0576C92.2898 12.7164 91.9669 11.9927 91.3206 11.6231C90.4174 11.1722 89.3991 11.5368 88.4327 11.3921C87.2828 11.2195 86.5924 10.0883 85.4448 11.0419Z" fill="#9099B9"/>
<path d="M96.2725 20.5737C97.787 20.0281 97.3997 21.9269 98.3932 22.345C98.9656 22.5465 99.5538 21.9464 100.161 22.3272C100.56 22.5777 100.739 23.3937 100.881 23.8062C100.703 23.4416 100.479 22.6439 100.086 22.4329C99.4957 22.1156 98.8685 22.7291 98.308 22.488C97.3004 22.0739 97.7367 20.2213 96.2725 20.5737Z" fill="#9099B9"/>
<path d="M88.0859 17.117L88.1004 17.0975C88.0726 17.1032 88.0443 17.1089 88.0153 17.1153L87.9985 17.1365C88.0286 17.1296 88.0576 17.1233 88.0859 17.117Z" fill="black"/>
<path d="M79.4556 24.7664C80.5326 26.5049 82.0658 28.0374 83.9907 28.8346C81.9845 28.2122 80.37 26.5996 79.4556 24.7664Z" fill="#333242"/>
<path d="M85.6016 36.7095C85.6016 36.7095 85.6405 36.7129 85.7139 36.7157C85.7873 36.7185 85.8951 36.719 86.0323 36.7168C86.1694 36.7146 86.3354 36.7051 86.5256 36.6889C86.7159 36.6728 86.9292 36.6455 87.1612 36.6121C87.3932 36.5765 87.6433 36.5309 87.9052 36.4724C88.1672 36.4123 88.4415 36.3427 88.7226 36.2603C89.0043 36.1807 89.2905 36.0827 89.5801 35.9798C89.7234 35.9241 89.8691 35.8712 90.0125 35.8122C90.1553 35.7515 90.3015 35.6953 90.4426 35.6296C90.5854 35.5661 90.7288 35.5055 90.8682 35.437C91.0088 35.3708 91.1488 35.3045 91.2848 35.2333C91.4214 35.1637 91.5575 35.0946 91.689 35.0212C91.8205 34.9482 91.9526 34.8792 92.0773 34.8035C92.2032 34.7289 92.328 34.6577 92.4482 34.5847C92.5679 34.5113 92.6853 34.4389 92.7999 34.3687C92.9128 34.2969 93.0212 34.224 93.1267 34.1555C93.1792 34.121 93.2312 34.0871 93.282 34.0537C93.3316 34.0186 93.3807 33.9846 93.4287 33.9512C93.5247 33.8844 93.6167 33.8204 93.7042 33.7592C93.7917 33.6985 93.8724 33.6373 93.9497 33.5816C94.1038 33.4697 94.2382 33.3723 94.3449 33.2871C94.5616 33.1213 94.6858 33.0261 94.6858 33.0261C94.6858 33.0261 94.5667 33.1274 94.3584 33.3038C94.2551 33.3935 94.1247 33.4959 93.9751 33.6139C93.9001 33.6729 93.8216 33.7369 93.7364 33.8015C93.65 33.865 93.5597 33.9318 93.4654 34.0013C93.418 34.0359 93.37 34.0715 93.3209 34.1077C93.2707 34.1422 93.2193 34.1778 93.1674 34.214C93.0629 34.2858 92.9563 34.361 92.8445 34.4361C92.7316 34.5096 92.6153 34.5847 92.4968 34.6616C92.3788 34.7389 92.2523 34.8096 92.1265 34.8859C92.0011 34.9627 91.8696 35.0334 91.7375 35.108C91.606 35.1832 91.47 35.2539 91.3328 35.3251C91.1967 35.398 91.0562 35.4659 90.9151 35.5339C90.7751 35.604 90.6311 35.6669 90.4878 35.7315C90.3449 35.7966 90.1976 35.8523 90.0525 35.9124C89.9075 35.9708 89.7601 36.0232 89.6151 36.0777C89.3227 36.179 89.0331 36.2753 88.7486 36.3538C88.4652 36.4368 88.1863 36.498 87.921 36.5526C87.6557 36.6049 87.4028 36.645 87.1686 36.675C86.7001 36.734 86.3055 36.7435 86.0306 36.7391C85.7574 36.7329 85.6016 36.7095 85.6016 36.7095Z" fill="#333242"/>
<path d="M58.2229 37.1425L58.2878 37.2338L64.0867 33.1957L63.135 40.2126L58.2849 37.0496L58.2229 37.1425L58.1602 37.2355L63.3106 40.5944L64.3791 32.7198L58.0225 37.1459L58.1602 37.2355L58.2229 37.1425Z" fill="#565D70"/>
<path d="M72.3291 4.07886L72.2258 4.03377L70.9766 6.82937L73.8718 7.49292L72.333 3.7944L72.2258 4.03377L72.3291 4.07886L72.2246 4.12117L73.4964 7.1784L71.2932 6.6735L72.4324 4.12395L72.3291 4.07886L72.2246 4.12117L72.3291 4.07886Z" fill="#565D70"/>
<path d="M104.306 31.2133V31.3247H109.236L108.094 33.7334L104.372 31.1226L104.306 31.2133V31.3247V31.2133L104.241 31.3041L108.184 34.0696L109.591 31.102H103.953L104.241 31.3041L104.306 31.2133Z" fill="#8E97FD"/>
<path d="M90.0391 78.147C91.0399 78.1197 92.0295 77.9616 93.0297 77.9182C94.2806 77.8642 95.3803 78.1759 96.5657 78.5222C97.7235 78.8606 97.0156 76.9702 96.665 75.9593C96.4054 75.2105 95.6591 74.8793 94.9292 74.7257C93.61 74.4485 92.2615 74.2336 90.9829 73.7988C89.9951 73.4626 89.2731 72.5719 88.2135 72.4194C87.2449 72.2797 86.0589 72.4845 85.5514 73.4108C84.83 74.7274 76.2712 72.9332 73.6509 73.0423C68.2013 73.2689 71.0842 79.7302 71.0842 79.7302C71.2202 79.5342 88.5646 78.1492 89.7292 78.152C89.8325 78.1514 89.9358 78.1498 90.0391 78.147Z" fill="#DB7D0D"/>
<path d="M75.7942 73.1611C63.98 72.2019 58.2488 69.6908 52.609 69.874C49.7945 69.9652 47.1498 71.4087 45.3474 73.5391C42.8671 76.4699 43.9153 81.3146 47.471 82.4363C49.5478 83.0915 62.5998 80.9912 75.9979 79.2076L75.7942 73.1611Z" fill="#9099B9"/>
<path d="M69.2623 87.0669C68.2005 87.6342 69.0382 84.0699 71.9007 82.9187C73.1493 82.4166 74.4076 81.8927 75.567 81.2064C76.4629 80.6759 76.9822 79.6572 77.987 79.2914C78.9054 78.9569 80.1089 78.9151 80.7998 79.7178C81.782 80.8584 89.7785 77.3559 92.3656 76.9273C97.7446 76.0366 96.2809 82.9459 96.2809 82.9459C96.1064 82.7817 78.8473 84.9678 77.7081 85.2088C77.6059 85.2299 70.3495 86.4863 69.2623 87.0669Z" fill="#F29A31"/>
<path d="M90.292 77.4823C101.649 74.1323 106.729 70.505 112.284 69.5325C115.057 69.0471 117.947 69.9194 120.158 71.6356C123.2 73.9964 123.192 78.9502 119.949 80.7733C118.055 81.8388 104.844 82.4484 91.3623 83.4387L90.292 77.4823Z" fill="#9099B9"/>
<path d="M75.1261 33.1761L80.2426 54.7354L77.861 65.891C77.861 65.891 73.4992 64.6029 72.4092 63.5853L76.2415 54.7354L72.416 33.0442C72.416 33.0442 74.3922 32.7491 75.1261 33.1761Z" fill="#8E6ED9"/>
<path d="M84.964 36.6806C84.964 36.6806 80.8557 36.5759 76.8208 33.0261H78.792C78.792 33.0261 79.4304 35.2099 84.964 36.6806Z" fill="#DB7D0D"/>
<path d="M74.9126 64.8161C74.9126 64.8161 75.2146 64.9581 75.7588 65.168C76.0303 65.2743 76.3633 65.3951 76.7477 65.5253C76.8443 65.5576 76.9436 65.5905 77.0458 65.6244C77.1485 65.6567 77.2547 65.6901 77.363 65.7246C77.5798 65.7948 77.8101 65.8605 78.05 65.9317C78.5315 66.067 79.0542 66.2095 79.6136 66.3342C79.8919 66.4016 80.181 66.4578 80.4756 66.5201C80.6229 66.5513 80.7731 66.5758 80.9238 66.6053C81.0751 66.6326 81.2264 66.6649 81.3811 66.6883C81.6898 66.7378 82.0026 66.7929 82.3221 66.833C82.4812 66.8541 82.6421 66.8759 82.803 66.8976C82.9644 66.9154 83.127 66.9332 83.2901 66.951C83.372 66.9599 83.4533 66.9688 83.5351 66.9777C83.617 66.9861 83.6994 66.9916 83.7818 66.9989C83.9466 67.0122 84.1115 67.0256 84.2774 67.039C84.4428 67.054 84.6094 67.0579 84.7753 67.0679C84.9418 67.0757 85.1078 67.0863 85.2743 67.0924C85.4408 67.0963 85.6074 67.1008 85.7739 67.1047C85.9404 67.1086 86.1069 67.1152 86.2729 67.1119C86.4389 67.1108 86.6048 67.1097 86.7696 67.1085C86.8521 67.1074 86.935 67.108 87.0169 67.1063C87.0993 67.103 87.1812 67.0996 87.263 67.0963C87.591 67.0824 87.9167 67.0746 88.2367 67.0456C88.3971 67.034 88.5568 67.0217 88.7149 67.01L88.8334 67.0011L88.9508 66.9883C89.0293 66.9794 89.1072 66.9711 89.1845 66.9621C89.495 66.9276 89.8009 66.897 90.0984 66.8497C90.2474 66.828 90.3948 66.8068 90.5398 66.7857C90.6127 66.7751 90.6849 66.7645 90.7566 66.7534C90.8277 66.74 90.8989 66.7272 90.9694 66.7139C91.2511 66.6604 91.526 66.6142 91.7896 66.5591C92.0527 66.4995 92.3067 66.4422 92.5506 66.3871C92.6115 66.3726 92.6719 66.3604 92.7312 66.3453C92.7905 66.3292 92.8486 66.3136 92.9062 66.298C93.0219 66.2668 93.1348 66.2368 93.2449 66.2073C93.3549 66.1778 93.4622 66.1494 93.5666 66.1215C93.6186 66.1076 93.6705 66.0943 93.7207 66.0798C93.771 66.0642 93.8201 66.0492 93.8686 66.0336C94.0628 65.9729 94.244 65.9167 94.4122 65.8644C94.5799 65.812 94.7351 65.7658 94.8712 65.7141C95.421 65.5181 95.7348 65.4057 95.7348 65.4057C95.7348 65.4057 95.4232 65.5253 94.8785 65.7341C94.743 65.7887 94.5889 65.8376 94.4218 65.8933C94.2547 65.949 94.0741 66.0091 93.881 66.0731C93.8325 66.0893 93.784 66.1054 93.7337 66.1221C93.6835 66.1377 93.6321 66.1516 93.5802 66.1666C93.4763 66.1967 93.3691 66.2268 93.2595 66.2585C93.1495 66.2897 93.0371 66.3214 92.9214 66.3542C92.8638 66.3704 92.8051 66.3871 92.7464 66.4038C92.6872 66.4199 92.6268 66.4327 92.5658 66.4478C92.3219 66.5057 92.0679 66.5663 91.8049 66.6292C91.5407 66.6871 91.2658 66.7367 90.9841 66.7935C90.9135 66.8074 90.8424 66.8213 90.7713 66.8352C90.6996 66.8469 90.6268 66.858 90.554 66.8697C90.4083 66.8926 90.2604 66.9159 90.1114 66.9393C89.8139 66.9916 89.5068 67.0206 89.1952 67.0579C89.1173 67.0668 89.0389 67.0757 88.9604 67.0846L88.8424 67.098L88.7233 67.1074C88.5647 67.1197 88.4044 67.1325 88.2435 67.1453C87.9218 67.1754 87.5949 67.1848 87.2658 67.1998C87.1834 67.2037 87.101 67.2071 87.0186 67.211C86.9362 67.2132 86.8532 67.2132 86.7702 67.2143C86.6043 67.216 86.4377 67.2177 86.2712 67.2199C86.1047 67.2238 85.9376 67.2177 85.7705 67.2149C85.6034 67.2115 85.4358 67.2076 85.2687 67.2043C85.1016 67.1976 84.9345 67.1865 84.7674 67.1776C84.6003 67.167 84.4332 67.162 84.2673 67.1464C84.1013 67.1325 83.9354 67.118 83.77 67.1041C83.6875 67.0969 83.6046 67.0907 83.5227 67.0824C83.4403 67.0729 83.3585 67.064 83.2766 67.0546C83.1129 67.0362 82.9498 67.0178 82.7878 66.9994C82.6263 66.9772 82.4654 66.9549 82.3057 66.9326C81.9856 66.8914 81.6718 66.8347 81.3624 66.784C81.2072 66.7601 81.0553 66.7267 80.9041 66.6988C80.7528 66.6693 80.6026 66.6426 80.4553 66.6098C80.1606 66.5441 79.8716 66.4845 79.5933 66.4138C79.0339 66.2819 78.5118 66.1332 78.0308 65.9924C77.551 65.8471 77.1152 65.7035 76.7325 65.5649C76.3498 65.4274 76.019 65.2999 75.7492 65.1885C75.4788 65.0789 75.2699 64.9842 75.1277 64.9197C74.9871 64.854 74.9126 64.8161 74.9126 64.8161Z" fill="#333242"/>
<path d="M87.6836 78.426C87.6836 78.426 87.9687 78.3286 88.4677 78.1582C88.9661 77.9862 89.6779 77.7402 90.5326 77.4452C90.9593 77.296 91.4211 77.134 91.9099 76.9631C92.3976 76.79 92.9124 76.6079 93.4447 76.4192C93.9776 76.2316 94.5263 76.0329 95.084 75.8319C95.6423 75.6315 96.2062 75.4206 96.7718 75.2135C97.3363 75.0036 97.9008 74.7943 98.4568 74.5878C99.0106 74.3757 99.5564 74.1708 100.083 73.966C100.608 73.7606 101.117 73.5618 101.599 73.3731C102.079 73.1805 102.533 72.9979 102.952 72.8292C103.369 72.6561 103.751 72.4975 104.09 72.3566C104.175 72.3216 104.257 72.2876 104.337 72.2553C104.415 72.2214 104.491 72.1885 104.564 72.1568C104.71 72.0939 104.843 72.0354 104.964 71.9831C105.449 71.7749 105.725 71.6558 105.725 71.6558C105.725 71.6558 105.451 71.7822 104.973 72.0026C104.854 72.0577 104.721 72.1184 104.576 72.1846C104.504 72.2175 104.429 72.252 104.351 72.2876C104.273 72.3221 104.191 72.3578 104.107 72.3945C103.771 72.5409 103.391 72.7062 102.977 72.8866C102.56 73.0603 102.108 73.2484 101.63 73.4477C101.151 73.6453 100.644 73.8468 100.119 74.055C99.5931 74.2621 99.0473 74.4698 98.4946 74.6841C97.9392 74.8928 97.3753 75.1049 96.8113 75.317C96.2446 75.5219 95.679 75.7306 95.1201 75.9288C94.5613 76.1275 94.0115 76.3246 93.4781 76.5099C93.211 76.6029 92.9486 76.6942 92.6923 76.7833C92.4349 76.8707 92.1831 76.9564 91.9376 77.0393C91.4465 77.2041 90.9825 77.36 90.554 77.5042C89.696 77.7897 88.978 78.018 88.4756 78.1783C88.2238 78.2573 88.0262 78.3191 87.8913 78.3614C87.7553 78.4037 87.6836 78.426 87.6836 78.426Z" fill="#333242"/>
<path d="M44.9038 80.466C44.9038 80.466 44.9416 80.5495 45.0359 80.692C45.1302 80.8345 45.282 81.036 45.5112 81.2592C45.7392 81.4824 46.048 81.7251 46.4409 81.9361C46.6379 82.0402 46.853 82.1421 47.0901 82.2239C47.326 82.3068 47.5789 82.3831 47.8487 82.4354C47.9825 82.4666 48.1225 82.4833 48.2636 82.5072C48.3348 82.515 48.4064 82.5234 48.4787 82.5312C48.5148 82.5351 48.5515 82.539 48.5877 82.5429C48.6243 82.5451 48.661 82.5473 48.6983 82.5501C48.7722 82.5546 48.8467 82.559 48.9224 82.564C48.998 82.5651 49.0737 82.5662 49.1504 82.5679C49.3034 82.5735 49.4592 82.5635 49.6167 82.5601C49.6957 82.5585 49.7748 82.5495 49.8544 82.5445C49.934 82.5379 50.0141 82.5345 50.0948 82.5256C50.175 82.5161 50.2563 82.5072 50.3376 82.4978C50.4188 82.4889 50.5007 82.4789 50.5825 82.4649C50.6644 82.4521 50.7468 82.4393 50.8292 82.4265L50.8913 82.4171L50.9246 82.4126L50.9562 82.4087C50.998 82.4031 51.0403 82.3981 51.0821 82.3926C51.2503 82.3709 51.4208 82.3491 51.5918 82.3274C52.9636 82.1521 54.4261 81.9656 55.8893 81.7786C57.353 81.5965 58.8167 81.4151 60.1884 81.2447C61.5613 81.0783 62.8421 80.9224 63.9406 80.7894C65.0391 80.6597 65.9547 80.5517 66.5953 80.476C67.2366 80.4019 67.603 80.3602 67.603 80.3602C67.603 80.3602 67.2377 80.4103 66.5982 80.4977C65.9586 80.5834 65.0447 80.7053 63.9485 80.8517C62.8517 80.9948 61.572 81.1618 60.2008 81.3405C58.8291 81.5153 57.3665 81.7023 55.9034 81.8888C54.4397 82.0703 52.976 82.2523 51.6037 82.4226C51.4321 82.4438 51.2622 82.4649 51.0934 82.4861C51.0511 82.4911 51.0093 82.4967 50.9675 82.5017L50.9359 82.5056L50.9066 82.5095L50.8439 82.5184C50.7604 82.5306 50.6774 82.5429 50.5944 82.5546C50.512 82.5679 50.4296 82.5768 50.3472 82.5852C50.2647 82.5935 50.1835 82.6024 50.1022 82.6108C50.0209 82.6191 49.9396 82.6219 49.8594 82.6275C49.7787 82.6319 49.6991 82.6397 49.6195 82.6403C49.4603 82.642 49.3034 82.6503 49.1488 82.6431C49.0714 82.6408 48.9946 82.6392 48.9184 82.6369C48.8422 82.6314 48.7672 82.6258 48.6921 82.6208C48.6548 82.618 48.6176 82.6152 48.5803 82.6124C48.5436 82.608 48.5069 82.6035 48.4702 82.5991C48.3974 82.5902 48.3246 82.5813 48.2529 82.5729C48.1107 82.5473 47.9695 82.529 47.8346 82.4961C47.2905 82.3814 46.8112 82.1922 46.4195 81.9723C46.026 81.7524 45.7201 81.503 45.4943 81.2748C45.2668 81.0471 45.1206 80.84 45.0291 80.6959C44.9394 80.55 44.9038 80.466 44.9038 80.466Z" fill="#333242"/>
<path d="M106.859 66.6376C106.859 66.6376 107.256 66.7484 107.951 66.9421C108.299 67.0351 108.722 67.1481 109.207 67.2772C109.692 67.4069 110.241 67.5455 110.836 67.7159C111.432 67.8812 112.074 68.0677 112.755 68.2636C113.435 68.4607 114.153 68.6717 114.885 68.9194C115.619 69.166 116.369 69.4438 117.113 69.7722C117.857 70.1007 118.594 70.4809 119.285 70.9373C119.972 71.3966 120.612 71.936 121.131 72.565C121.26 72.7215 121.384 72.8846 121.496 73.0504C121.609 73.2186 121.713 73.39 121.808 73.5654C121.997 73.9161 122.149 74.2801 122.264 74.6492C122.495 75.3862 122.571 76.1444 122.49 76.8481C122.449 77.201 122.371 77.5344 122.281 77.8534C122.187 78.1713 122.078 78.4741 121.948 78.7535C121.819 79.0335 121.671 79.293 121.493 79.5145C121.315 79.7322 121.131 79.9281 120.946 80.0973C120.576 80.4386 120.195 80.6696 119.867 80.8182C119.786 80.8572 119.705 80.8861 119.631 80.9179C119.555 80.944 119.484 80.9696 119.417 80.9914C119.35 81.0108 119.287 81.0292 119.23 81.0454C119.173 81.0593 119.12 81.0721 119.073 81.0832C118.979 81.1071 118.905 81.1166 118.856 81.1272C118.807 81.1366 118.782 81.1411 118.782 81.1411C118.782 81.1411 118.807 81.1355 118.856 81.125C118.904 81.1127 118.978 81.1016 119.07 81.0749C119.257 81.0275 119.53 80.9457 119.853 80.7898C120.175 80.6345 120.545 80.3979 120.903 80.0534C121.082 79.8814 121.258 79.6854 121.429 79.4661C121.513 79.3581 121.589 79.2373 121.662 79.1131C121.732 78.9862 121.801 78.8548 121.861 78.7157C121.985 78.4396 122.088 78.1395 122.176 77.825C122.26 77.5105 122.333 77.1776 122.368 76.8353C122.437 76.1483 122.35 75.4113 122.124 74.6921C121.896 73.9723 121.522 73.2731 121.008 72.6636C120.498 72.0512 119.868 71.5252 119.189 71.0754C118.511 70.6228 117.784 70.2426 117.048 69.9136C116.311 69.5841 115.565 69.3046 114.837 69.0558C114.107 68.8081 113.396 68.5848 112.718 68.3794C112.041 68.1746 111.4 67.9786 110.808 67.8055C110.66 67.7615 110.515 67.7192 110.373 67.6769C110.231 67.6363 110.092 67.5962 109.957 67.5578C109.687 67.4798 109.43 67.4058 109.189 67.3362C108.707 67.1959 108.286 67.0735 107.94 66.9722C107.253 66.7595 106.859 66.6376 106.859 66.6376Z" fill="#333242"/>
<path d="M82.0972 46.0953C82.1977 46.5401 82.5223 46.9815 82.9851 47.1029C83.7359 47.3005 84.4624 47.001 85.1545 46.7433C85.6467 46.5596 86.2129 46.4371 86.6029 46.0808C86.901 46.382 87.0777 46.8134 87.1798 47.2209C87.2628 47.5532 87.3243 47.9167 87.326 48.2746C87.181 47.9089 86.9653 47.5655 86.6289 47.3484C86.4189 47.2125 86.1372 47.1107 85.8826 47.1351C85.6501 47.1574 85.4316 47.3044 85.3932 47.546C85.3294 47.9479 85.5169 48.3888 85.7398 48.7194C85.886 48.9354 86.0819 49.1241 86.284 49.2889C86.4895 49.4559 86.7079 49.6118 86.9512 49.7186C86.5397 50.4907 85.8341 51.1276 85.0387 51.471C84.9044 51.5289 84.8745 51.7204 84.9422 51.834C85.0229 51.9698 85.1759 51.9871 85.3103 51.9292C85.4124 51.8852 85.5129 51.8379 85.61 51.7844C85.9588 51.5929 86.2919 51.348 86.5894 51.0624C86.595 51.0686 86.6007 51.0741 86.6069 51.0791C87.1917 51.5651 88.022 51.6202 88.753 51.525C89.1758 51.4699 89.7144 51.3758 89.9701 50.9984C90.1072 50.7964 90.0971 50.5408 89.991 50.3282C89.8713 50.0872 89.6122 49.9441 89.352 49.8962C88.8992 49.8127 88.4059 49.8567 87.9509 49.9129C87.7714 49.9352 87.5908 49.9597 87.4135 49.9964C87.6495 49.5672 87.8036 49.1002 87.842 48.6181C87.8871 48.0542 87.816 47.453 87.65 46.9119C87.4993 46.4204 87.2594 45.9561 86.8744 45.6138C87.1781 45.3833 87.483 45.1512 87.7432 44.8751C88.1169 44.4787 88.4702 43.9538 88.5583 43.4094C88.613 43.0726 88.608 42.6401 88.3376 42.3845C88.1231 42.1814 87.8239 42.1296 87.536 42.1563C87.2701 42.1808 87.0037 42.227 86.7734 42.369C86.5713 42.4931 86.402 42.6634 86.2795 42.8649C86.0367 43.2646 85.9509 43.7417 85.9255 44.2026C85.7319 43.7935 85.5163 43.3971 85.229 43.037C84.8903 42.6128 84.2643 41.9631 83.649 42.183C83.1443 42.3634 82.9406 43.028 83.0089 43.5085C83.0693 43.9321 83.3662 44.2973 83.6896 44.5645C83.8432 44.6919 84.0046 44.806 84.1711 44.9107C83.929 44.8617 83.6823 44.8239 83.4362 44.8144C83.1867 44.8049 82.905 44.8111 82.6707 44.9079C82.4184 45.0126 82.2361 45.1729 82.1316 45.4251C82.047 45.6327 82.0481 45.8765 82.0972 46.0953ZM86.9885 50.7028L86.9868 50.7017C87.0133 50.6856 87.0398 50.6705 87.0681 50.6572C87.0844 50.6494 87.1002 50.6416 87.1166 50.6344C87.0946 50.6433 87.0991 50.641 87.1296 50.6294C87.2747 50.5748 87.4248 50.5353 87.5767 50.5047C88.0079 50.4178 88.4674 50.3766 88.9263 50.3844C89.0646 50.3867 89.1527 50.39 89.2673 50.4195C89.4406 50.464 89.6353 50.6333 89.4355 50.7936C89.2797 50.9188 88.9738 50.9589 88.7841 50.9912C88.6926 51.0068 88.5978 51.0196 88.5007 51.029C87.978 51.0808 87.3949 51.0341 86.9885 50.7028ZM86.9236 48.7562C86.9331 48.7901 86.9896 49.1425 87.0127 49.1531C86.6825 49.005 86.3845 48.7261 86.175 48.4389C86.0915 48.3242 85.6727 47.576 86.0802 47.6829C86.1982 47.7141 86.2529 47.7352 86.3574 47.8065C86.5103 47.9106 86.6362 48.0765 86.7356 48.2685C86.8163 48.4233 86.8756 48.5886 86.9236 48.7562ZM86.4629 44.2611C86.4866 43.7907 86.5566 43.2574 86.9219 42.9173C87.1234 42.7297 87.8945 42.4402 88.0147 42.8555C88.0576 43.0036 88.0666 43.1583 88.0333 43.3097C87.9594 43.6437 87.794 43.9582 87.5896 44.2332C87.2938 44.6324 86.8914 44.9369 86.4945 45.238C86.4624 44.9135 86.4466 44.5867 86.4629 44.2611ZM85.7664 45.1395C85.7212 45.0365 85.2572 44.9007 85.1353 44.8417C84.9428 44.7482 84.7509 44.6541 84.5657 44.5478C84.1982 44.3368 83.8178 44.0707 83.627 43.6832C83.5129 43.4528 83.4887 43.0993 83.6213 42.87C83.8561 42.4653 84.3687 42.8922 84.5719 43.0976C84.7672 43.2947 84.9354 43.5107 85.0816 43.7462C85.356 44.1876 85.5586 44.6647 85.7664 45.1395ZM82.6329 45.6149C82.826 45.2024 83.5186 45.3299 83.8691 45.3911C84.2321 45.454 84.5894 45.5464 84.9512 45.6154C85.3069 45.6828 85.6631 45.7513 86.0091 45.8576C85.9103 45.9121 85.8047 45.9561 85.7031 45.9934C85.2103 46.1743 84.713 46.3686 84.2112 46.5234C83.7884 46.6542 83.2488 46.7666 82.8762 46.4538C82.7339 46.3341 82.6165 46.0975 82.5962 45.8804C82.5872 45.7841 82.5973 45.6917 82.6329 45.6149Z" fill="#FDC6D4"/>
<path d="M86.9242 91.4437C85.0591 90.6332 82.9197 90.563 80.9129 90.494C78.5703 90.4133 76.2141 90.5753 73.8777 90.3476C72.7075 90.2335 71.543 90.0681 70.3881 89.8521C70.0223 89.7837 68.926 91.1531 68.9531 91.6775C68.991 92.3878 78.2361 93.3191 78.8853 93.8579C79.592 94.4447 81.0038 94.0995 81.8308 94.0427C82.6657 93.986 83.5005 93.9264 84.3371 93.888C85.0309 93.8563 85.7833 93.7744 86.4686 93.9409C87.1263 93.0101 87.0664 92.0449 86.9242 91.4437Z" fill="#F59D0E"/>
<path d="M87.6096 91.7827C87.3861 91.6569 87.1569 91.5445 86.9238 91.4432C87.066 92.0449 87.1259 93.0097 86.4683 93.9404C86.5208 93.9532 86.5727 93.9671 86.6241 93.9822C87.2235 94.1659 87.8834 94.6012 88.2943 93.868C88.7025 93.1399 88.3186 92.1819 87.6096 91.7827Z" fill="#FBD89F"/>
<path d="M44.5148 100.678C44.5791 101.83 44.7846 102.936 45.3621 104.061C47.1639 107.568 50.6666 110.055 54.5807 110.736C58.0297 111.336 61.5205 110.977 64.5541 109.166C65.8733 108.38 71.0474 104.295 72.4456 103.635C75.3154 102.281 80.6103 97.9132 76.5048 94.7953C75.6451 94.1429 75.8681 92.4529 75.1738 91.6234C74.0978 90.3381 71.8478 89.9863 70.2898 89.6595C65.4222 88.6402 60.4017 87.8336 55.4224 88.451C53.9852 88.6291 52.5689 88.9403 51.2028 89.4212C49.7069 89.9479 48.1552 90.7812 46.9511 91.8144C44.3172 94.0772 44.337 97.5141 44.5148 100.678Z" fill="#F59D0E"/>
<path d="M75.0985 91.8583C76.5735 92.5753 78.1885 93.3496 79.2232 94.6567C81.3609 97.3577 79.1599 100.937 76.7394 102.534C75.9999 103.022 75.1645 103.451 74.3358 103.771C73.1002 104.248 71.9074 104.642 70.7451 105.277C69.2509 106.094 67.8245 107.029 66.433 108.005C66.433 108.005 68.5713 100.004 60.4585 96.0094C60.4585 96.0094 65.7009 93.4337 62.9174 88.8551C62.9174 88.8551 73.4242 91.0445 75.0985 91.8583Z" fill="#F59D0E"/>
<path d="M70.2456 105.556C73.125 104.228 74.6237 104.544 75.1363 104.582C77.3366 104.748 79.7148 104.85 81.7125 103.749C82.8014 103.149 83.6662 102.008 83.962 100.803C84.522 98.522 83.3004 96.3877 81.5279 94.9988C80.561 94.2406 79.4568 93.6166 78.3595 93.0616C77.1136 92.4309 74.0976 91.2446 71.7115 90.3523C71.5631 90.2966 73.7138 91.4673 73.6014 91.5775C73.3756 91.7996 73.3514 92.2138 73.6014 92.432C75.2136 93.8404 73.4084 96.174 72.5899 97.4827C71.7646 98.8026 71.0358 100.222 70.4736 101.671C70.2506 102.244 70.0723 102.868 70.0915 103.488C70.1202 104.404 69.1956 106.04 70.2456 105.556Z" fill="#F59D0E"/>
<path d="M82.0198 104.167C82.1282 104.195 82.2388 104.219 82.3489 104.239C82.564 104.281 82.7948 104.324 83.0054 104.24C83.2199 104.155 83.1239 103.869 83.0827 103.712C83.0155 103.457 82.9512 103.201 82.8592 102.953C82.8112 102.824 82.757 102.697 82.6977 102.572C82.6537 102.481 82.6108 102.36 82.5143 102.312C82.4353 102.272 82.3523 102.314 82.2823 102.351C82.096 102.45 81.9267 102.575 81.7788 102.724C81.7223 102.782 81.6636 102.838 81.6094 102.897C81.4604 103.06 81.0224 103.5 81.0314 103.574C81.0624 103.821 81.3831 103.944 81.5823 104.025C81.7246 104.082 81.8708 104.129 82.0198 104.167Z" fill="#F59D0E"/>
<path d="M84.0329 96.6017C84.1413 96.6301 84.2497 96.6624 84.3558 96.6974C84.5635 96.7659 84.786 96.8399 84.9276 97.0147C85.0721 97.1929 84.8463 97.3955 84.7323 97.5124C84.5466 97.7022 84.3637 97.8937 84.1599 98.0657C84.0538 98.1554 83.9437 98.24 83.8297 98.319C83.7467 98.3775 83.6485 98.4615 83.5401 98.4571C83.4521 98.4532 83.4002 98.3769 83.3578 98.3101C83.2444 98.1342 83.1597 97.9433 83.1049 97.7417C83.084 97.6649 83.0609 97.5864 83.0434 97.5091C82.9943 97.2947 82.8317 96.7002 82.8763 96.6401C83.0265 96.4397 83.3669 96.4876 83.5814 96.5132C83.7338 96.5321 83.8839 96.5633 84.0329 96.6017Z" fill="#F59D0E"/>
<path d="M78.4178 99.4437C78.4731 99.4014 78.485 99.3129 78.5002 99.2511C78.5347 99.1136 78.6154 98.9444 78.4556 98.8514C78.3721 98.803 78.2682 98.8141 78.1807 98.8419C78.0977 98.8681 77.9736 99.0418 77.7624 98.8703C77.7246 98.8397 77.7788 98.9889 77.7743 99.0262C77.7658 99.0423 77.6851 99.0919 77.7083 99.0902C77.9803 99.0718 78.0238 99.3847 78.1779 99.4504C78.2626 99.4865 78.341 99.5027 78.4178 99.4437ZM78.2389 99.2945L78.2298 99.2895L78.2428 99.2906V99.2962L78.2389 99.2945Z" fill="black"/>
<path d="M77.4903 99.7497C77.4079 99.5765 77.3921 99.4056 77.4909 99.2492C77.5654 99.1301 77.7071 99.0711 77.8764 99.0538L77.8849 99.0521C77.9843 99.0722 78.0842 99.0889 78.183 99.1089C78.2518 99.1228 78.2693 99.0416 78.2005 99.0277C78.1022 99.0076 78.0034 98.9909 77.9052 98.9714C77.5852 98.8345 77.671 98.4576 77.763 98.2617C77.7861 98.2132 77.6879 98.1698 77.6648 98.2188C77.5643 98.4331 77.492 98.7961 77.7562 98.9859C77.6027 99.0176 77.4802 99.0822 77.4 99.1958C77.2781 99.3689 77.2973 99.576 77.3898 99.7714C77.4147 99.8237 77.5152 99.802 77.4903 99.7497Z" fill="black"/>
<path d="M51.7293 108.337C52.2786 106.885 50.9899 105.971 49.831 105.403C47.9061 104.46 44.8917 98.3792 44.5039 100.467C44.3137 101.492 43.1576 101.493 42.3402 101.379C41.2423 101.225 40.1489 100.893 39.2102 100.301C38.4611 99.8288 37.9954 99.2175 37.6189 98.4343C37.4778 98.1409 37.2356 97.6321 36.876 97.5531C36.692 97.5125 36.4526 97.6305 36.32 97.7529C36.0948 97.9617 35.9305 98.0112 35.6291 98.0168C35.3062 98.0229 35.1476 98.2244 34.9528 98.4555C34.7761 98.6648 34.434 98.5334 34.2557 98.7488C34.092 98.9475 34.1315 99.2782 34.1162 99.5142C33.9847 101.521 35.9164 103.095 37.4857 103.973C38.6287 104.613 39.7425 105.304 40.9155 105.889C41.7091 106.286 42.5068 106.673 43.3117 107.046C46.1065 108.341 48.9876 109.455 51.9783 110.226C53.8247 110.703 55.74 111.027 57.6553 111.005C58.1752 110.998 51.4968 108.951 51.7293 108.337Z" fill="#F59D0E"/>
<path d="M57.1947 97.3132C57.7439 95.8614 56.4552 94.9473 55.2963 94.3795C53.372 93.4359 57.6943 88.2405 56.8718 88.3106C51.7417 88.7487 46.1426 90.5039 44.6755 89.2776C43.9975 88.7103 43.4607 88.1937 43.0836 87.4099C42.9425 87.1166 42.7009 86.6078 42.3413 86.5287C42.1573 86.4886 41.918 86.6067 41.7859 86.7286C41.5601 86.9373 41.3964 86.9869 41.095 86.9924C40.7721 86.9986 40.6134 87.2001 40.4187 87.4305C40.242 87.6404 39.8999 87.5085 39.7216 87.7245C39.5579 87.9226 39.5974 88.2539 39.5816 88.4899C39.45 90.4967 41.3823 92.071 42.951 92.9488C44.0935 93.5885 45.2078 94.2793 46.3808 94.8649C47.1745 95.2613 47.9721 95.6487 48.7771 96.0217C51.5718 97.317 54.453 98.431 57.4436 99.2025C59.2906 99.679 61.2054 100.003 63.1207 99.9807C63.6406 99.9746 56.9621 97.9277 57.1947 97.3132Z" fill="#F59D0E"/>
<path d="M78.0599 101.714C77.9887 101.334 77.9786 100.938 77.8307 100.576C77.82 100.55 77.7963 100.533 77.7669 100.541C77.7421 100.548 77.7206 100.578 77.7313 100.604C77.8792 100.966 77.8888 101.362 77.9605 101.742C77.9718 101.806 78.0717 101.778 78.0599 101.714Z" fill="black"/>
<path d="M77.5898 101.803C77.6129 101.407 77.5836 101.007 77.6468 100.614C77.6513 100.587 77.6394 100.56 77.6101 100.552C77.5847 100.545 77.5508 100.561 77.5469 100.588C77.4825 100.99 77.5102 101.398 77.4865 101.803C77.482 101.87 77.5858 101.869 77.5898 101.803Z" fill="black"/>
<path d="M76.905 101.63C77.0478 101.25 77.2296 100.88 77.4542 100.54C77.4904 100.485 77.4012 100.434 77.3645 100.488C77.1347 100.837 76.9507 101.215 76.8051 101.605C76.7955 101.631 76.8169 101.66 76.8423 101.667C76.8711 101.674 76.8954 101.656 76.905 101.63Z" fill="black"/>
<path d="M79.3652 96.8051C79.114 97.1013 78.9085 97.442 78.5992 97.6858C78.5772 97.7031 78.5478 97.7069 78.5258 97.6858C78.5077 97.6674 78.5038 97.6312 78.5258 97.6134C78.8352 97.3696 79.0406 97.0294 79.2918 96.7327C79.3347 96.6821 79.4076 96.755 79.3652 96.8051Z" fill="black"/>
<path d="M79.0001 96.5004C78.8234 96.8561 78.5988 97.1906 78.4588 97.563C78.4486 97.5892 78.4249 97.607 78.3956 97.5992C78.3701 97.5925 78.3487 97.563 78.3583 97.5369C78.5022 97.155 78.7297 96.8132 78.9104 96.4486C78.9403 96.3896 79.0295 96.4408 79.0001 96.5004Z" fill="black"/>
<path d="M78.318 96.3196C78.2531 96.7203 78.2271 97.13 78.2531 97.5359C78.2576 97.6015 78.1537 97.6026 78.1498 97.537C78.1227 97.1228 78.1515 96.7036 78.2181 96.294C78.2226 96.2667 78.2559 96.2511 78.2813 96.2578C78.3101 96.2644 78.3225 96.2923 78.318 96.3196Z" fill="black"/>
<path d="M33.5979 94.9523C34.2161 92.179 34.2104 88.7811 31.4851 87.1962C29.169 85.8502 26.3838 87.1294 25.0042 89.1001C24.2675 90.151 23.7522 91.3651 23.3672 92.631C25.0606 91.8673 29.1086 90.7884 33.5979 94.9523Z" fill="#FBD89F"/>
<path d="M52.2387 104.795C52.0733 104.6 51.8892 104.454 51.6905 104.351C49.7555 103.353 46.4256 106.46 44.9652 107.144C40.8812 109.055 34.4968 110.062 31.9979 105.268C30.3134 102.037 32.4449 99.0631 33.3357 95.978C33.4305 95.6496 33.5191 95.3061 33.5976 94.9526C29.1082 90.7887 25.0603 91.8675 23.3663 92.6318C22.9361 94.0475 22.6708 95.5271 22.4456 96.9171C22.0121 99.5952 21.9991 102.359 23.0513 104.908C26.5229 113.315 38.0898 115.5 45.6855 111.686C47.2683 110.891 54.29 107.221 52.2387 104.795Z" fill="#F59D0E"/>
<path d="M81.8557 107.066C81.1721 106.912 80.5404 106.511 79.9381 106.18C79.2065 105.778 78.4857 105.358 77.7643 104.94C77.0496 104.526 74.5038 102.695 73.6052 102.91C72.781 103.107 64.2228 100.969 63.8678 101.588C63.6059 102.045 62.7964 110.107 63.1379 109.96C72.4688 105.935 75.1699 107.838 76.0048 108.082C76.9616 108.361 77.924 108.626 78.869 108.943C79.4115 109.126 79.9669 109.294 80.5291 109.399C81.5175 108.63 81.7941 107.697 81.8557 107.066Z" fill="#F59D0E"/>
<path d="M82.028 107.099C81.9699 107.09 81.9129 107.078 81.8558 107.065C81.7943 107.696 81.5177 108.629 80.5293 109.399C80.9882 109.485 81.4517 109.528 81.9162 109.502C82.7314 109.456 83.5081 108.768 83.472 107.936C83.4353 107.099 82.6478 107.199 82.028 107.099Z" fill="#FBD89F"/>
<path d="M75.5308 94.8595C73.9581 93.3448 71.7126 92.9195 69.6183 92.615C66.9133 92.2209 64.1547 92.0545 61.4271 92.3116C58.7458 92.5644 55.6326 93.2146 53.4814 94.9096C51.2691 96.6525 49.8195 99.9937 51.5773 102.547C52.555 103.968 54.3326 104.038 55.8968 103.86C59.7206 103.424 63.3051 101.777 67.1662 101.571C69.1735 101.465 71.1176 102.1 73.1131 102.011C73.7589 101.982 73.7165 100.94 73.7092 100.511C73.6934 99.6385 73.5285 98.7584 73.7899 97.9045C73.9711 97.3128 74.3239 96.7917 74.7348 96.3308C75.0013 96.0341 76.0123 95.3238 75.5308 94.8595Z" fill="#FBD89F"/>
<path d="M80.604 98.2421C80.6017 98.2393 80.5504 98.1759 80.5047 98.0779C80.4595 97.9793 80.4177 97.8446 80.4454 97.6993C80.4595 97.627 80.4922 97.5529 80.5481 97.4839C80.6046 97.4154 80.6836 97.352 80.7903 97.298L80.8529 97.4165C80.7598 97.4644 80.6966 97.5162 80.6537 97.568C80.6113 97.6197 80.5888 97.6721 80.5786 97.7244C80.5577 97.829 80.5888 97.9382 80.6277 98.0222C80.6469 98.064 80.6678 98.099 80.6842 98.123C80.6921 98.1347 80.6988 98.1441 80.7033 98.1502L80.7084 98.1569L80.7095 98.1586L80.6921 98.1725L80.7095 98.1586L80.6921 98.1725L80.7095 98.1586L80.604 98.2421Z" fill="black"/>
<path d="M80.2175 101.78C80.2153 101.777 80.1639 101.713 80.1182 101.615C80.073 101.517 80.0312 101.382 80.0595 101.237C80.0736 101.164 80.1058 101.09 80.1622 101.021C80.2187 100.953 80.2977 100.889 80.4044 100.835L80.4671 100.954C80.3739 101.001 80.3107 101.053 80.2678 101.105C80.2254 101.157 80.2029 101.209 80.1927 101.261C80.1718 101.365 80.2023 101.475 80.2418 101.559C80.261 101.6 80.2819 101.635 80.2983 101.659C80.3062 101.672 80.3129 101.681 80.3175 101.687L80.3225 101.693L80.3237 101.695V101.696L80.3062 101.709L80.3237 101.696L80.3062 101.709L80.3237 101.696L80.2175 101.78Z" fill="black"/>
<path d="M90.7262 105.44C90.9757 105.568 91.206 105.731 91.4577 105.855C92.3237 106.284 93.2946 106.557 94.252 106.683C94.9192 106.771 95.6034 106.773 96.261 106.615C96.8825 106.465 97.4509 106.169 97.9962 105.845C98.9304 105.291 99.7089 104.578 100.361 103.718C100.686 103.289 101.005 102.85 101.293 102.396C101.558 101.981 101.807 101.545 102.151 101.187C102.326 101.005 102.529 100.841 102.747 100.699C102.774 101.025 102.865 101.345 103.03 101.64C103.212 101.968 103.466 102.296 103.804 102.477C104.121 102.645 104.5 102.638 104.835 102.521C105.171 102.404 105.515 102.185 105.675 101.859C105.852 101.501 105.779 101.063 105.609 100.716C105.224 99.9258 104.305 99.7177 103.511 99.9771C103.364 100.025 103.222 100.082 103.085 100.146C103.123 99.9002 103.201 99.6592 103.318 99.4332C103.942 98.2308 105.373 97.4548 106.689 97.2472C106.894 97.2149 106.868 96.8976 106.662 96.9299C105.858 97.0562 105.073 97.3696 104.402 97.8244C103.749 98.2664 103.142 98.8743 102.884 99.6297C102.806 99.8568 102.759 100.091 102.743 100.326C102.217 100.64 101.772 101.075 101.43 101.588C100.841 102.474 100.285 103.387 99.5644 104.179C98.8525 104.962 97.9358 105.615 96.9468 106.015C96.4789 106.203 95.9996 106.346 95.4905 106.348C95.0022 106.349 94.515 106.28 94.0397 106.17C93.8376 106.124 90.5422 105.346 90.7262 105.44ZM103.06 100.516C103.124 100.483 103.188 100.451 103.253 100.421C103.619 100.254 104.036 100.125 104.442 100.202C104.886 100.287 105.249 100.582 105.387 101.014C105.515 101.413 105.456 101.788 105.093 102.037C104.815 102.227 104.385 102.384 104.051 102.24C103.7 102.09 103.433 101.746 103.271 101.412C103.132 101.128 103.065 100.823 103.06 100.516Z" fill="#565D70"/>
<path d="M90.7261 105.44C93.7675 107.202 97.6822 106.199 99.4688 103.2C101.256 100.201 100.239 96.3407 97.1974 94.5782C94.1553 92.8164 90.2412 93.8189 88.454 96.8189C86.6668 99.8177 87.684 103.678 90.7261 105.44Z" fill="#565D70"/>
<path d="M95.0505 102.399C94.9839 102.861 94.8964 103.322 94.7931 103.773C94.7519 103.784 94.7106 103.797 94.6694 103.808C94.7637 103.358 94.8433 102.903 94.9037 102.445C94.9522 102.43 95.0014 102.414 95.0505 102.399Z" fill="#9099B9"/>
<path d="M91.1929 94.3316C91.2059 94.3254 91.2188 94.3193 91.2318 94.3132C94.3777 95.2924 95.2962 98.0329 95.1861 100.939C95.1325 100.957 95.0783 100.974 95.0247 100.99C95.1133 98.1292 94.2361 95.4421 91.1929 94.3316Z" fill="#9099B9"/>
<path d="M94.0215 106.309C94.0108 106.309 94.0001 106.309 93.9888 106.309C94.2287 105.585 94.4511 104.802 94.6289 103.992C94.669 103.981 94.7091 103.969 94.7491 103.957C94.5493 104.787 94.297 105.585 94.0215 106.309Z" fill="#9099B9"/>
<path d="M95.1782 101.111C95.159 101.48 95.124 101.851 95.0749 102.222C95.0252 102.238 94.9755 102.253 94.9253 102.269C94.9699 101.9 95.0015 101.531 95.0179 101.164C95.0715 101.146 95.1251 101.129 95.1782 101.111Z" fill="#9099B9"/>
<path d="M95.3249 106.162L95.3057 106.167C95.589 105.345 95.8555 104.436 96.0587 103.492C96.101 103.475 96.1428 103.457 96.1846 103.439C95.9559 104.412 95.6534 105.341 95.3249 106.162Z" fill="#9099B9"/>
<path d="M92.5278 93.8708C92.5448 93.8669 92.5617 93.8635 92.5786 93.8596C95.7358 94.8071 96.6864 97.5042 96.6051 100.387C96.5509 100.411 96.4967 100.435 96.4425 100.458C96.5074 97.6099 95.5986 94.9507 92.5278 93.8708Z" fill="#9099B9"/>
<path d="M96.4373 100.619C96.4909 100.594 96.5451 100.57 96.5993 100.545C96.584 100.92 96.5513 101.298 96.5045 101.675C96.4537 101.698 96.4029 101.719 96.3521 101.742C96.395 101.367 96.4237 100.992 96.4373 100.619Z" fill="#9099B9"/>
<path d="M96.331 101.908C96.3818 101.886 96.4321 101.864 96.4829 101.841C96.4179 102.319 96.3305 102.795 96.2255 103.262C96.1826 103.28 96.1397 103.298 96.0962 103.315C96.1916 102.852 96.2718 102.381 96.331 101.908Z" fill="#9099B9"/>
<path d="M93.6187 104.045C93.5775 104.053 93.5363 104.059 93.4951 104.065C93.5837 103.628 93.6577 103.186 93.713 102.742C93.7616 102.733 93.8107 102.724 93.8592 102.714C93.7971 103.161 93.7158 103.608 93.6187 104.045Z" fill="#9099B9"/>
<path d="M90.2891 94.853C90.3049 94.8424 90.3207 94.8318 90.3359 94.8207C93.2058 95.8695 94.0718 98.483 93.9843 101.262C93.9301 101.274 93.8764 101.285 93.8223 101.295C93.886 98.5682 93.0557 96.0137 90.2891 94.853Z" fill="#9099B9"/>
<path d="M92.9914 106.236C92.9739 106.234 92.957 106.231 92.9395 106.228C93.1342 105.598 93.312 104.932 93.4571 104.247C93.4966 104.241 93.5367 104.235 93.5762 104.229C93.4136 104.928 93.2127 105.605 92.9914 106.236Z" fill="#9099B9"/>
<path d="M93.8823 102.532C93.8327 102.542 93.7836 102.552 93.7339 102.561C93.7751 102.197 93.8033 101.833 93.8169 101.473C93.8705 101.462 93.9235 101.451 93.9772 101.44C93.9608 101.803 93.9281 102.168 93.8823 102.532Z" fill="#9099B9"/>
<path d="M95.0503 102.399C95.0012 102.415 94.9521 102.43 94.903 102.446C94.5558 102.553 94.207 102.643 93.8592 102.713C93.8107 102.723 93.7622 102.732 93.713 102.741C91.3795 103.17 89.1046 102.659 87.5788 100.26L87.5776 100.241C89.1932 102.51 91.4382 102.981 93.7345 102.56C93.7836 102.551 93.8333 102.542 93.883 102.532C94.2295 102.462 94.5784 102.374 94.925 102.268C94.9747 102.253 95.0249 102.237 95.0746 102.221C95.5036 102.084 95.9309 101.922 96.352 101.741C96.4028 101.719 96.4536 101.697 96.5044 101.675C97.8931 101.061 99.2123 100.246 100.324 99.4451C100.325 99.4551 100.326 99.4652 100.327 99.4746C99.2433 100.33 97.9055 101.196 96.4835 101.84C96.4333 101.863 96.3825 101.886 96.3317 101.908C95.91 102.094 95.481 102.259 95.0503 102.399Z" fill="#9099B9"/>
<path d="M93.5764 104.228C93.5368 104.235 93.4973 104.241 93.4573 104.247C91.4274 104.558 89.4635 104.125 88.0207 102.323C88.0032 102.279 87.9857 102.234 87.9688 102.189C89.4838 103.965 91.4612 104.379 93.4951 104.064C93.5363 104.058 93.5775 104.052 93.6187 104.044C93.9681 103.985 94.3187 103.906 94.6686 103.808C94.7098 103.796 94.7511 103.784 94.7923 103.773C95.2297 103.645 95.6655 103.491 96.0957 103.315C96.1386 103.297 96.182 103.28 96.2249 103.262C97.6966 102.646 99.101 101.791 100.279 100.948C100.277 100.962 100.275 100.975 100.273 100.989C99.1219 101.889 97.6932 102.796 96.1843 103.439C96.1425 103.457 96.1007 103.474 96.0584 103.492C95.6266 103.671 95.1885 103.828 94.7488 103.957C94.7087 103.969 94.6686 103.98 94.6286 103.992C94.278 104.09 93.9269 104.17 93.5764 104.228Z" fill="#9099B9"/>
<path d="M95.1773 101.111C95.1242 101.129 95.0706 101.146 95.017 101.164C94.6709 101.273 94.3238 101.367 93.9772 101.44C93.9235 101.451 93.8705 101.462 93.8169 101.473C91.4765 101.926 89.1864 101.444 87.6431 99.0744L87.6459 99.0544C89.2733 101.289 91.525 101.734 93.8225 101.296C93.8761 101.286 93.9303 101.275 93.9845 101.263C94.3311 101.191 94.6783 101.1 95.0243 100.992C95.0779 100.975 95.1315 100.958 95.1857 100.94C95.608 100.802 96.028 100.639 96.4417 100.459C96.4959 100.435 96.5507 100.411 96.6043 100.388C97.8733 99.8187 99.0813 99.085 100.123 98.3519C100.126 98.3647 100.13 98.3775 100.133 98.3903C99.1146 99.1713 97.8936 99.9484 96.5987 100.546C96.545 100.571 96.4908 100.595 96.4366 100.62C96.0223 100.803 95.6012 100.97 95.1773 101.111Z" fill="#9099B9"/>
<path d="M136.643 80.5131C133.51 78.5948 129.393 79.5445 127.448 82.634C125.503 85.7235 126.466 89.7827 129.599 91.701C132.732 93.6187 136.848 92.669 138.793 89.5795C140.739 86.4906 139.776 82.4313 136.643 80.5131Z" fill="#6C67B7"/>
<path d="M132.046 83.582C132.128 83.1004 132.232 82.6217 132.351 82.1524C132.395 82.1413 132.438 82.1296 132.482 82.1185C132.372 82.5855 132.277 83.0598 132.202 83.5363C132.15 83.5519 132.098 83.5664 132.046 83.582Z" fill="#8AA3D9"/>
<path d="M135.868 92.1097C135.855 92.1159 135.841 92.1214 135.827 92.1281C132.566 91.0259 131.676 88.139 131.867 85.1046C131.923 85.0879 131.98 85.0712 132.037 85.0556C131.87 88.0427 132.717 90.8728 135.868 92.1097Z" fill="#8AA3D9"/>
<path d="M133.222 79.5226C133.234 79.5232 133.245 79.5232 133.256 79.5237C132.987 80.2736 132.734 81.0869 132.527 81.9285C132.485 81.9391 132.443 81.9503 132.401 81.9614C132.631 81.0986 132.916 80.2719 133.222 79.5226Z" fill="#8AA3D9"/>
<path d="M131.879 84.9247C131.908 84.5395 131.955 84.1526 132.016 83.7668C132.068 83.7512 132.121 83.7357 132.173 83.7212C132.117 84.1053 132.074 84.4905 132.048 84.874C131.992 84.8907 131.935 84.9074 131.879 84.9247Z" fill="#8AA3D9"/>
<path d="M131.856 79.6422L131.876 79.6383C131.558 80.49 131.257 81.433 131.02 82.4144C130.975 82.4317 130.931 82.4489 130.887 82.4667C131.152 81.4558 131.492 80.4922 131.856 79.6422Z" fill="#8AA3D9"/>
<path d="M134.461 92.5576C134.444 92.5609 134.426 92.5648 134.408 92.5681C131.133 91.4988 130.21 88.6564 130.37 85.6465C130.427 85.6226 130.484 85.5986 130.542 85.5753C130.399 88.5501 131.28 91.3518 134.461 92.5576Z" fill="#8AA3D9"/>
<path d="M130.55 85.4088C130.493 85.4327 130.436 85.4572 130.379 85.4817C130.405 85.0898 130.449 84.6957 130.508 84.3027C130.561 84.2804 130.615 84.2592 130.669 84.237C130.614 84.6278 130.574 85.0191 130.55 85.4088Z" fill="#8AA3D9"/>
<path d="M130.694 84.0624C130.64 84.0841 130.587 84.1064 130.534 84.1292C130.614 83.631 130.718 83.1361 130.84 82.6507C130.885 82.6329 130.931 82.615 130.976 82.5978C130.864 83.0799 130.769 83.5703 130.694 84.0624Z" fill="#8AA3D9"/>
<path d="M133.585 81.8981C133.628 81.892 133.671 81.8864 133.714 81.8803C133.61 82.3345 133.521 82.7954 133.452 83.258C133.401 83.2658 133.35 83.2742 133.298 83.2836C133.375 82.8177 133.472 82.3534 133.585 81.8981Z" fill="#8AA3D9"/>
<path d="M136.825 91.5872C136.809 91.5984 136.792 91.6089 136.775 91.6195C133.804 90.4516 132.966 87.6983 133.13 84.7964C133.187 84.7858 133.243 84.7753 133.3 84.7664C133.163 87.6148 133.964 90.3052 136.825 91.5872Z" fill="#8AA3D9"/>
<path d="M134.296 79.6242C134.314 79.627 134.332 79.6309 134.35 79.6342C134.13 80.2872 133.927 80.9791 133.758 81.6911C133.716 81.6961 133.674 81.7023 133.633 81.7078C133.821 80.9808 134.048 80.2783 134.296 79.6242Z" fill="#8AA3D9"/>
<path d="M133.269 83.4722C133.321 83.4633 133.372 83.4544 133.424 83.446C133.372 83.8251 133.333 84.2042 133.31 84.5816C133.253 84.5911 133.197 84.6011 133.142 84.6117C133.168 84.2326 133.212 83.8519 133.269 83.4722Z" fill="#8AA3D9"/>
<path d="M132.046 83.5826C132.097 83.567 132.149 83.552 132.201 83.5375C132.567 83.434 132.934 83.3488 133.299 83.2848C133.351 83.2753 133.401 83.2675 133.453 83.2592C135.902 82.8689 138.266 83.4607 139.799 86.0053L139.799 86.0259C138.17 83.6138 135.836 83.0649 133.425 83.4468C133.373 83.4551 133.321 83.4635 133.269 83.4729C132.905 83.537 132.539 83.6205 132.174 83.7223C132.121 83.7368 132.069 83.7524 132.016 83.768C131.564 83.9005 131.114 84.0586 130.669 84.2373C130.616 84.259 130.561 84.2807 130.508 84.3029C129.041 84.9097 127.641 85.728 126.459 86.5369C126.458 86.5263 126.458 86.5157 126.457 86.5057C127.611 85.639 129.031 84.7678 130.534 84.1304C130.588 84.1075 130.641 84.0853 130.695 84.0636C131.14 83.8799 131.592 83.7173 132.046 83.5826Z" fill="#8AA3D9"/>
<path d="M133.633 81.7075C133.675 81.7014 133.716 81.6958 133.758 81.6908C135.886 81.4175 137.928 81.919 139.389 83.8379C139.406 83.8852 139.423 83.9325 139.44 83.9793C137.902 82.0849 135.847 81.6034 133.714 81.8806C133.671 81.8867 133.627 81.8923 133.584 81.8984C133.218 81.9513 132.849 82.0259 132.481 82.1189C132.437 82.13 132.394 82.1411 132.35 82.1528C131.89 82.2753 131.431 82.425 130.976 82.5982C130.931 82.6154 130.885 82.6332 130.84 82.6511C129.286 83.2578 127.797 84.1157 126.543 84.9668C126.546 84.9529 126.548 84.9384 126.551 84.9245C127.777 84.0127 129.293 83.1008 130.887 82.4668C130.931 82.449 130.975 82.4317 131.019 82.4145C131.475 82.238 131.937 82.0849 132.4 81.9613C132.442 81.9502 132.484 81.9391 132.526 81.9285C132.896 81.8344 133.266 81.7598 133.633 81.7075Z" fill="#8AA3D9"/>
<path d="M131.879 84.9249C131.935 84.9077 131.991 84.8904 132.047 84.8743C132.412 84.7679 132.777 84.6794 133.141 84.6115C133.197 84.6009 133.253 84.5909 133.31 84.5815C135.767 84.1673 138.147 84.7284 139.699 87.2435L139.696 87.2641C138.052 84.8876 135.712 84.3666 133.299 84.7657C133.243 84.7752 133.187 84.7852 133.13 84.7958C132.766 84.862 132.4 84.9494 132.036 85.0535C131.98 85.0697 131.923 85.0858 131.866 85.1025C131.421 85.2367 130.978 85.3959 130.541 85.5735C130.483 85.5968 130.426 85.6208 130.369 85.6447C129.028 86.2075 127.747 86.9434 126.639 87.6838C126.636 87.6705 126.632 87.6571 126.629 87.6432C127.714 86.8527 129.01 86.0711 130.378 85.4799C130.435 85.4554 130.492 85.431 130.549 85.407C130.988 85.2255 131.432 85.0624 131.879 84.9249Z" fill="#8AA3D9"/>
<path d="M119.247 91.3815C119.839 94.2194 122.653 96.0464 125.531 95.4614C128.409 94.8768 130.262 92.1018 129.669 89.2639C129.076 86.426 126.262 84.5991 123.384 85.1841C120.506 85.7686 118.654 88.5436 119.247 91.3815Z" fill="#F59D0E"/>
<path d="M123.567 92.3209C123.24 92.5385 122.902 92.7417 122.561 92.931C122.531 92.9126 122.5 92.8943 122.47 92.8753C122.804 92.6822 123.134 92.4762 123.455 92.2574C123.492 92.2786 123.529 92.2997 123.567 92.3209Z" fill="#FBD89F"/>
<path d="M126.471 85.4664C126.482 85.4708 126.493 85.4758 126.504 85.4797C127.646 87.9441 126.441 90.0339 124.556 91.5892C124.515 91.5664 124.475 91.5424 124.435 91.5196C126.278 89.9765 127.473 87.9413 126.471 85.4664Z" fill="#FBD89F"/>
<path d="M120.541 93.8755C120.536 93.8689 120.53 93.8622 120.523 93.8555C121.111 93.5978 121.726 93.2966 122.333 92.9526C122.363 92.9709 122.392 92.9888 122.422 93.0066C121.79 93.3489 121.149 93.6395 120.541 93.8755Z" fill="#FBD89F"/>
<path d="M124.446 91.6798C124.203 91.8741 123.951 92.06 123.692 92.2365C123.654 92.2153 123.616 92.1936 123.579 92.1719C123.835 91.9932 124.084 91.8062 124.324 91.6114C124.364 91.6347 124.404 91.6576 124.446 91.6798Z" fill="#FBD89F"/>
<path d="M121.361 94.5888L121.347 94.5794C122.021 94.2938 122.739 93.9481 123.444 93.5456C123.479 93.5618 123.513 93.5774 123.548 93.5929C122.81 93.9965 122.058 94.3305 121.361 94.5888Z" fill="#FBD89F"/>
<path d="M127.505 86.0225C127.517 86.0303 127.529 86.0386 127.54 86.047C128.709 88.5008 127.548 90.5855 125.696 92.1447C125.65 92.1253 125.605 92.1058 125.56 92.0857C127.382 90.536 128.542 88.498 127.505 86.0225Z" fill="#FBD89F"/>
<path d="M125.457 92.1728C125.502 92.1923 125.548 92.2118 125.594 92.2307C125.35 92.4311 125.095 92.6221 124.832 92.8041C124.789 92.7857 124.747 92.7668 124.705 92.7479C124.964 92.5642 125.216 92.3727 125.457 92.1728Z" fill="#FBD89F"/>
<path d="M124.589 92.8286C124.632 92.847 124.674 92.8654 124.717 92.8832C124.381 93.1103 124.033 93.3224 123.682 93.5194C123.646 93.5033 123.611 93.4872 123.576 93.4705C123.92 93.2706 124.26 93.0563 124.589 92.8286Z" fill="#FBD89F"/>
<path d="M121.736 92.3667C121.708 92.3455 121.681 92.3238 121.654 92.3027C121.977 92.1128 122.297 91.9108 122.606 91.6964C122.639 91.7209 122.671 91.746 122.705 91.7699C122.389 91.9826 122.064 92.1819 121.736 92.3667Z" fill="#FBD89F"/>
<path d="M125.64 85.2063C125.656 85.2096 125.671 85.2135 125.686 85.2169C126.63 87.5521 125.475 89.5389 123.684 91.0363C123.647 91.0096 123.609 90.9834 123.573 90.9561C125.319 89.4726 126.457 87.541 125.64 85.2063Z" fill="#FBD89F"/>
<path d="M120.012 93.2075C120.004 93.1958 119.996 93.1835 119.988 93.1713C120.492 92.9386 121.009 92.6747 121.519 92.3814C121.545 92.4025 121.571 92.4231 121.598 92.4437C121.068 92.7343 120.531 92.9898 120.012 93.2075Z" fill="#FBD89F"/>
<path d="M122.831 91.6836C122.798 91.6591 122.764 91.6341 122.731 91.6096C122.982 91.4314 123.226 91.2461 123.46 91.0523C123.496 91.0791 123.533 91.1058 123.57 91.1319C123.333 91.3246 123.085 91.5083 122.831 91.6836Z" fill="#FBD89F"/>
<path d="M123.567 92.3206C123.529 92.2994 123.492 92.2782 123.455 92.2571C123.194 92.1051 122.943 91.9431 122.705 91.77C122.672 91.7461 122.639 91.721 122.606 91.6965C121.034 90.5136 120.085 88.8408 120.737 86.5718L120.749 86.5601C120.228 88.8119 121.186 90.4435 122.731 91.6091C122.764 91.6342 122.798 91.6587 122.832 91.6832C123.069 91.8563 123.319 92.0188 123.579 92.1714C123.616 92.1931 123.654 92.2148 123.692 92.2359C124.017 92.4213 124.357 92.5911 124.706 92.747C124.748 92.7659 124.79 92.7848 124.833 92.8032C125.993 93.307 127.24 93.6566 128.362 93.8876C128.356 93.8937 128.351 93.8998 128.345 93.9054C127.204 93.7223 125.915 93.3899 124.717 92.8822C124.675 92.8644 124.632 92.8461 124.59 92.8277C124.238 92.6746 123.894 92.5059 123.567 92.3206Z" fill="#FBD89F"/>
<path d="M121.596 92.4432C121.57 92.4226 121.544 92.402 121.518 92.3809C120.19 91.3171 119.366 89.8775 119.69 87.9921C119.708 87.9565 119.726 87.9208 119.745 87.8858C119.477 89.8013 120.321 91.2375 121.653 92.3018C121.681 92.323 121.708 92.3447 121.735 92.3659C121.967 92.5457 122.212 92.7154 122.469 92.8741C122.5 92.893 122.53 92.9114 122.561 92.9298C122.885 93.1252 123.224 93.305 123.575 93.4692C123.61 93.4859 123.646 93.502 123.681 93.5182C124.889 94.0715 126.208 94.4506 127.394 94.6983C127.385 94.7044 127.375 94.7111 127.366 94.7172C126.159 94.5179 124.793 94.1533 123.547 93.5922C123.513 93.5766 123.478 93.561 123.444 93.5449C123.091 93.3818 122.747 93.2025 122.421 93.006C122.392 92.9882 122.362 92.9704 122.333 92.952C122.075 92.7934 121.828 92.6236 121.596 92.4432Z" fill="#FBD89F"/>
<path d="M124.445 91.6797C124.404 91.6575 124.364 91.6347 124.323 91.6113C124.061 91.4615 123.809 91.3023 123.569 91.1314C123.533 91.1053 123.496 91.0785 123.459 91.0518C121.869 89.8773 120.893 88.2123 121.517 85.9488L121.532 85.9394C121.039 88.1794 122.016 89.7999 123.573 90.9566C123.609 90.9839 123.647 91.0101 123.684 91.0368C123.922 91.2077 124.173 91.3686 124.435 91.5189C124.475 91.5423 124.516 91.5656 124.557 91.5885C124.879 91.7688 125.215 91.9341 125.56 92.0861C125.605 92.1062 125.65 92.1256 125.696 92.1451C126.76 92.601 127.895 92.9284 128.936 93.1544C128.93 93.1638 128.925 93.1727 128.918 93.1822C127.861 92.9968 126.692 92.6862 125.594 92.2297C125.548 92.2108 125.503 92.1913 125.458 92.1719C125.11 92.0232 124.771 91.8596 124.445 91.6797Z" fill="#FBD89F"/>
<path d="M118.214 95.3122C117.284 93.881 115.83 92.6964 114.152 92.2443C113.311 92.0178 112.431 91.9966 111.586 92.2121C111.192 92.3123 110.809 92.4542 110.417 92.5605C110.02 92.6685 109.595 92.7476 109.185 92.668C109.168 92.6646 109.151 92.6607 109.134 92.6568C109.321 92.4843 109.485 92.2917 109.603 92.0746C109.708 91.8803 109.752 91.6532 109.672 91.4422C109.58 91.1984 109.324 91.0019 109.074 90.9406C108.487 90.797 108.141 91.4461 108.204 91.9382C108.244 92.2477 108.437 92.5143 108.706 92.6724C108.731 92.6869 108.756 92.7003 108.781 92.7131C108.739 92.7459 108.697 92.7782 108.655 92.8099C108.196 93.1528 107.681 93.4512 107.143 93.6561C106.6 93.8632 105.945 93.8247 105.378 93.6644C104.721 93.4785 104.088 93.1005 103.723 92.5171C103.604 92.3267 103.526 92.1163 103.488 91.8987C103.739 91.853 103.983 91.7767 104.212 91.6626C104.46 91.539 104.684 91.3603 104.87 91.1572C105.045 90.9662 105.205 90.7124 105.174 90.4446C105.139 90.149 104.825 89.918 104.54 89.8902C104.194 89.8562 103.896 90.1095 103.697 90.3595C103.385 90.7525 103.245 91.259 103.288 91.7523C102.725 91.8235 102.137 91.7361 101.603 91.5791C100.976 91.3943 100.379 91.0965 99.8595 90.704C99.3938 90.3522 98.9722 89.9046 98.7514 89.3619C98.708 89.2556 98.5403 89.3207 98.5838 89.427C98.8514 90.085 99.3904 90.6088 99.973 91.0052C100.622 91.4461 101.373 91.7539 102.15 91.8886C102.529 91.9543 102.925 91.9744 103.31 91.9265C103.334 92.0618 103.371 92.1942 103.423 92.3223C103.681 92.958 104.265 93.4128 104.886 93.6795C105.514 93.9489 106.247 94.0552 106.92 93.9094C107.125 93.8648 107.32 93.7813 107.51 93.6939C107.782 93.5687 108.045 93.4239 108.299 93.267C108.525 93.1272 108.761 92.9719 108.977 92.7943C109.258 92.8862 109.56 92.8929 109.857 92.8567C110.281 92.8049 110.69 92.6702 111.095 92.5422C111.492 92.4164 111.889 92.3067 112.306 92.2616C114.068 92.0723 115.775 92.9346 117.005 94.1237C117.408 94.5133 117.765 94.9503 118.069 95.4179C118.133 95.5137 118.277 95.4079 118.214 95.3122ZM103.752 90.5905C103.918 90.3377 104.196 90.0349 104.533 90.0678C104.803 90.0939 105.04 90.3394 104.987 90.6088C104.938 90.8655 104.711 91.0859 104.517 91.2473C104.303 91.4249 104.064 91.5507 103.799 91.6381C103.69 91.6743 103.578 91.7027 103.465 91.7244C103.435 91.3297 103.532 90.9256 103.752 90.5905ZM108.427 92.0885C108.336 91.8519 108.365 91.563 108.502 91.3492C108.632 91.1483 108.855 91.0464 109.089 91.1293C109.302 91.2045 109.506 91.3938 109.532 91.6237C109.556 91.8385 109.426 92.0467 109.299 92.2093C109.191 92.3484 109.065 92.4731 108.931 92.5889C108.706 92.4904 108.517 92.3217 108.427 92.0885Z" fill="#8AA3D9"/>
<path d="M30.95 67.3294C27.0183 67.7219 24.1541 71.1832 24.5526 75.0604C24.9512 78.9376 28.4606 81.7621 32.3922 81.3691C36.3239 80.9761 39.1881 77.5148 38.7896 73.6376C38.3916 69.7609 34.8816 66.9364 30.95 67.3294Z" fill="#8E97FD"/>
<path d="M29.0828 72.9008C28.8322 72.4393 28.603 71.9662 28.3936 71.4908C28.4229 71.4529 28.4523 71.4156 28.4816 71.3777C28.6978 71.8454 28.9321 72.3091 29.1844 72.7622C29.15 72.8084 29.1161 72.854 29.0828 72.9008Z" fill="#A9B0FF"/>
<path d="M37.9834 77.6723C37.9755 77.6862 37.9676 77.7002 37.9602 77.7146C34.4604 78.8831 31.7904 77.006 29.9395 74.3073C29.9761 74.2561 30.014 74.206 30.0512 74.1559C31.892 76.7995 34.4887 78.6554 37.9834 77.6723Z" fill="#A9B0FF"/>
<path d="M27.3887 68.6956C27.3988 68.6889 27.4084 68.6817 27.4186 68.6744C27.6873 69.485 28.0119 70.3383 28.3952 71.1861C28.3664 71.2223 28.3381 71.2591 28.3099 71.2952C27.9323 70.4146 27.6258 69.5289 27.3887 68.6956Z" fill="#A9B0FF"/>
<path d="M29.8322 74.147C29.6013 73.8008 29.3845 73.4429 29.1802 73.076C29.2146 73.0293 29.2485 72.9819 29.2835 72.9357C29.4906 73.2981 29.7097 73.6527 29.9417 73.9951C29.905 74.0457 29.8683 74.0964 29.8322 74.147Z" fill="#A9B0FF"/>
<path d="M26.3091 69.678L26.3238 69.6613C26.619 70.5892 26.9887 71.584 27.4381 72.5699C27.4115 72.6133 27.3856 72.6561 27.3602 72.6996C26.9142 71.6714 26.5637 70.6343 26.3091 69.678Z" fill="#A9B0FF"/>
<path d="M37.0863 78.9607C37.0739 78.9751 37.0609 78.9896 37.0479 79.0041C33.5594 80.2087 30.8894 78.3918 29.0288 75.7337C29.0615 75.6763 29.0943 75.6196 29.1276 75.5622C30.9802 78.1791 33.5859 79.9894 37.0863 78.9607Z" fill="#A9B0FF"/>
<path d="M29.0249 75.4151C28.9927 75.4724 28.96 75.5297 28.9278 75.5876C28.6896 75.238 28.4655 74.8756 28.2544 74.5038C28.2854 74.4503 28.3165 74.3975 28.3481 74.344C28.5609 74.7114 28.7867 75.0694 29.0249 75.4151Z" fill="#A9B0FF"/>
<path d="M28.2547 74.179C28.2236 74.2319 28.1932 74.2853 28.1632 74.3393C27.9013 73.865 27.6608 73.3774 27.4424 72.887C27.4695 72.843 27.496 72.7979 27.5231 72.7539C27.7478 73.2355 27.9911 73.7136 28.2547 74.179Z" fill="#A9B0FF"/>
<path d="M29.2725 70.4783C29.3052 70.4449 29.3379 70.4126 29.3707 70.3797C29.5841 70.8323 29.8144 71.2804 30.0622 71.718C30.0244 71.758 29.986 71.7976 29.9487 71.8388C29.7043 71.394 29.4785 70.9375 29.2725 70.4783Z" fill="#A9B0FF"/>
<path d="M38.45 76.6111C38.4432 76.6312 38.4359 76.6507 38.4291 76.6707C35.1319 77.5964 32.5951 75.7995 30.8091 73.2305C30.8503 73.1848 30.8915 73.1397 30.9333 73.0952C32.7069 75.6019 35.1709 77.3688 38.45 76.6111Z" fill="#A9B0FF"/>
<path d="M28.3677 68.0886C28.3852 68.0792 28.4027 68.0708 28.4202 68.0619C28.6669 68.7583 28.953 69.477 29.2816 70.1895C29.2494 70.2207 29.2178 70.2524 29.1867 70.2841C28.8639 69.5471 28.5912 68.804 28.3677 68.0886Z" fill="#A9B0FF"/>
<path d="M30.0488 72.0174C30.0866 71.9762 30.125 71.9356 30.1634 71.895C30.37 72.2507 30.589 72.598 30.8194 72.9326C30.7781 72.9771 30.7369 73.0216 30.6963 73.0667C30.4677 72.7283 30.252 72.377 30.0488 72.0174Z" fill="#A9B0FF"/>
<path d="M29.0828 72.9C29.1161 72.8532 29.15 72.8076 29.1845 72.7619C29.4261 72.438 29.6812 72.129 29.9482 71.839C29.9855 71.7983 30.0233 71.7583 30.0617 71.7182C31.8821 69.8066 34.2812 68.784 37.2702 69.9558L37.2843 69.9725C34.301 68.976 31.9561 70.0159 30.1633 71.8946C30.1249 71.9353 30.0865 71.9759 30.0487 72.0171C29.7817 72.3066 29.5265 72.6139 29.2844 72.9356C29.2494 72.9818 29.2149 73.0291 29.1811 73.0759C28.8853 73.48 28.6081 73.9048 28.349 74.3429C28.318 74.3963 28.2864 74.4492 28.2553 74.5026C27.4125 75.9639 26.7673 77.5616 26.2999 79.0106C26.2926 79.0017 26.2852 78.9939 26.2773 78.9855C26.6826 77.5053 27.3104 75.8498 28.1633 74.3384C28.1938 74.285 28.2243 74.2315 28.2547 74.1781C28.5105 73.7367 28.7865 73.3069 29.0828 72.9Z" fill="#A9B0FF"/>
<path d="M29.187 70.2845C29.218 70.2527 29.2496 70.221 29.2818 70.1898C30.9075 68.5844 32.973 67.6932 35.4861 68.3801C35.5323 68.409 35.5775 68.438 35.6232 68.4675C33.0616 67.8513 30.9978 68.7681 29.3704 70.3796C29.3377 70.4125 29.3049 70.4448 29.2722 70.4782C28.9962 70.7593 28.7325 71.0605 28.4819 71.3772C28.452 71.4145 28.4232 71.4524 28.3938 71.4902C28.0845 71.8905 27.7938 72.3146 27.5228 72.7544C27.4958 72.7984 27.4692 72.8429 27.4421 72.8875C26.526 74.4049 25.83 76.0939 25.3315 77.6242C25.3242 77.6108 25.3168 77.5974 25.3101 77.5835C25.7464 76.0187 26.4283 74.2669 27.3603 72.7004C27.3862 72.657 27.4122 72.6136 27.4382 72.5707C27.708 72.1265 27.9987 71.699 28.3092 71.2954C28.3374 71.2592 28.3662 71.2224 28.3944 71.1863C28.6462 70.8678 28.9098 70.5661 29.187 70.2845Z" fill="#A9B0FF"/>
<path d="M29.8327 74.1477C29.8688 74.0965 29.9055 74.0458 29.9422 73.9957C30.181 73.6706 30.4322 73.36 30.6964 73.0672C30.737 73.0221 30.7777 72.9776 30.8194 72.933C32.6309 70.9958 35.0232 69.937 38.0087 71.071L38.0195 71.0904C35.0486 70.133 32.7155 71.2007 30.9329 73.0961C30.8911 73.1407 30.8499 73.1858 30.8087 73.2314C30.544 73.5225 30.2916 73.832 30.0517 74.1555C30.0145 74.2056 29.9772 74.2557 29.94 74.3069C29.6515 74.7077 29.3811 75.1285 29.1277 75.5616C29.0944 75.619 29.0616 75.6757 29.0289 75.7331C28.264 77.0752 27.6645 78.527 27.2157 79.8697C27.2039 79.8603 27.1926 79.8514 27.1802 79.8419C27.5764 78.4708 28.1584 76.9717 28.9278 75.5867C28.96 75.5288 28.9922 75.4714 29.0249 75.4141C29.2756 74.9771 29.5442 74.5524 29.8327 74.1477Z" fill="#A9B0FF"/>
<path d="M45.5674 64.5126C45.5606 64.3394 45.2874 64.3389 45.2942 64.5126C45.3196 65.1383 45.1119 65.7784 44.8607 66.3457C44.5677 67.007 44.1669 67.6438 43.6284 68.1382C43.4167 68.3325 43.1706 68.5039 42.9042 68.6147C42.9228 68.5869 42.9403 68.5579 42.9567 68.529C43.1012 68.2723 43.1362 67.9845 43.095 67.6973C43.008 67.0905 42.4701 66.7114 41.8729 66.6981C41.371 66.6869 40.7924 66.9218 40.5943 67.4056C40.3414 68.0229 41.0289 68.6019 41.5201 68.8374C41.7018 68.9242 41.8813 68.9776 42.0574 69.0016C41.9999 69.0344 41.9417 69.065 41.8836 69.0934C41.3101 69.374 40.6615 69.5115 40.0315 69.6011C39.6787 69.6512 39.3157 69.6841 38.9573 69.6846C38.7812 69.6846 38.7812 69.9541 38.9573 69.9541C39.4913 69.9535 40.0298 69.8861 40.5537 69.7859C41.1808 69.6663 41.8311 69.4837 42.3668 69.1296C42.43 69.0879 42.4915 69.0433 42.5502 68.9955C43.5127 68.8424 44.3239 67.8927 44.7918 67.0794C45.0374 66.6524 45.2361 66.1959 45.3789 65.7255C45.4985 65.3364 45.5838 64.9212 45.5674 64.5126ZM41.9784 68.7138C41.6397 68.6386 41.3281 68.4449 41.0882 68.2011C40.9923 68.1037 40.9014 67.9784 40.8579 67.8621C40.8404 67.8159 40.8246 67.7396 40.8223 67.7184C40.8201 67.6923 40.8201 67.6656 40.8207 67.6394C40.8223 67.5954 40.8201 67.6166 40.8291 67.5737C40.8483 67.4802 40.898 67.3934 40.9522 67.3299C41.0318 67.2369 41.1023 67.1874 41.2068 67.1278C41.4156 67.0109 41.6612 66.9603 41.905 66.9681C42.141 66.9758 42.3837 67.0582 42.5587 67.2208C42.7602 67.4078 42.8472 67.6823 42.8415 67.9539C42.8347 68.2729 42.6665 68.5323 42.4323 68.7383C42.2838 68.7544 42.132 68.7477 41.9784 68.7138Z" fill="#F59D0E"/>
<path d="M110.419 10.3533H110.335C110.335 10.8153 110.145 11.2328 109.838 11.5356C109.531 11.8385 109.107 12.0255 108.639 12.0255C108.17 12.0255 107.747 11.8385 107.44 11.5356C107.133 11.2328 106.943 10.8153 106.943 10.3533C106.943 9.89123 107.133 9.47373 107.44 9.1709C107.747 8.86807 108.17 8.68103 108.639 8.68103C109.107 8.68103 109.531 8.86807 109.838 9.1709C110.145 9.47373 110.335 9.89123 110.335 10.3533H110.419H110.504C110.504 9.33734 109.669 8.51459 108.639 8.51459C107.609 8.51459 106.775 9.3379 106.775 10.3533C106.775 11.3686 107.61 12.1919 108.639 12.1919C109.67 12.1919 110.504 11.3686 110.504 10.3533H110.419Z" fill="#F59D0E"/>
<path d="M125.901 55.5744H125.816C125.816 56.0281 125.63 56.4384 125.329 56.7357C125.027 57.0329 124.611 57.2166 124.151 57.2166C123.691 57.2166 123.275 57.0329 122.973 56.7357C122.672 56.4384 122.486 56.0281 122.486 55.5744C122.486 55.1208 122.672 54.7105 122.973 54.4132C123.275 54.116 123.691 53.9323 124.151 53.9323C124.611 53.9323 125.027 54.116 125.329 54.4132C125.63 54.7105 125.816 55.1208 125.816 55.5744H125.901H125.986C125.986 54.5752 125.164 53.7653 124.151 53.7653C123.138 53.7653 122.316 54.5752 122.316 55.5744C122.316 56.5737 123.138 57.3836 124.151 57.3836C125.164 57.3836 125.986 56.5737 125.986 55.5744H125.901Z" fill="#F59D0E"/>
<path d="M88.0983 3.79054H88.0137C88.0137 4.08669 87.8923 4.35445 87.6953 4.54872C87.4983 4.743 87.2273 4.86269 86.9265 4.86269C86.6262 4.86269 86.3546 4.743 86.1576 4.54872C85.9606 4.35445 85.8393 4.08669 85.8393 3.79054C85.8393 3.49439 85.9606 3.22663 86.1576 3.03235C86.3546 2.83808 86.6256 2.71839 86.9265 2.71839C87.2268 2.71839 87.4983 2.83808 87.6953 3.03235C87.8923 3.22663 88.0137 3.49439 88.0137 3.79054H88.0983H88.183C88.183 3.10639 87.6202 2.55139 86.9265 2.55139C86.2327 2.55139 85.6699 3.10639 85.6699 3.79054C85.6699 4.47469 86.2327 5.02969 86.9265 5.02969C87.6202 5.02969 88.183 4.47469 88.183 3.79054H88.0983Z" fill="#F59D0E"/>
<path d="M128.304 68.1419H128.219C128.219 68.7403 127.973 69.2814 127.575 69.6738C127.178 70.0663 126.629 70.3084 126.022 70.3084C125.415 70.3084 124.867 70.0663 124.469 69.6738C124.071 69.2814 123.825 68.7403 123.825 68.1419C123.825 67.5434 124.071 67.0018 124.469 66.6099C124.867 66.2174 125.415 65.9753 126.022 65.9753C126.629 65.9753 127.178 66.2174 127.575 66.6099C127.973 67.0023 128.219 67.5434 128.219 68.1419H128.304H128.388C128.388 66.8532 127.329 65.8083 126.022 65.8083C124.715 65.8083 123.656 66.8532 123.656 68.1419C123.656 69.4305 124.715 70.4754 126.022 70.4754C127.329 70.4754 128.388 69.4305 128.388 68.1419H128.304Z" fill="#F59D0E"/>
<path d="M113.485 109.571H113.4C113.4 110.24 113.125 110.845 112.681 111.283C112.236 111.722 111.622 111.992 110.944 111.992C110.266 111.992 109.652 111.721 109.208 111.283C108.763 110.845 108.489 110.24 108.489 109.571C108.489 108.902 108.764 108.297 109.208 107.859C109.653 107.42 110.266 107.149 110.944 107.149C111.623 107.149 112.237 107.421 112.681 107.859C113.126 108.297 113.4 108.902 113.4 109.571H113.485H113.569C113.569 108.141 112.394 106.982 110.944 106.982C109.494 106.982 108.318 108.141 108.318 109.571C108.318 111.001 109.494 112.16 110.944 112.16C112.394 112.16 113.569 111.001 113.569 109.571H113.485Z" fill="#F59D0E"/>
<path d="M85.3688 23.5394C85.3011 23.4816 85.2441 23.4331 85.2085 23.393C85.5207 22.9099 85.7222 22.3738 85.8447 21.8366C85.9745 21.2688 86.0186 20.7004 86.0186 20.1877C86.0186 19.0749 85.6483 18.285 85.6483 18.285L85.6488 18.2867C85.6595 18.3307 85.8492 19.144 85.8492 20.1877C85.8492 20.6837 85.8063 21.2315 85.6827 21.7737C85.5585 22.3159 85.3542 22.8514 85.0296 23.3285L84.9805 23.4008L85.029 23.4738C85.0335 23.4804 85.1176 23.6057 85.2847 23.7304C85.4512 23.8551 85.7007 23.9787 86.0304 23.9781C86.1388 23.9781 86.2562 23.9647 86.3815 23.9341C86.381 23.9341 85.8724 23.9686 85.3688 23.5394Z" fill="#333242"/>
<path d="M91.6903 23.3608C91.6903 23.9971 90.8639 24.5131 89.8444 24.5131C88.825 24.5131 87.9985 23.9971 87.9985 23.3608C87.9985 22.7245 88.825 22.2085 89.8444 22.2085C90.8639 22.2085 91.6903 22.724 91.6903 23.3608Z" fill="#F67E31"/>
<path d="M83.8778 23.3608C83.8778 23.9971 83.0514 24.5131 82.0319 24.5131C81.0124 24.5131 80.186 23.9971 80.186 23.3608C80.186 22.7245 81.0124 22.2085 82.0319 22.2085C83.0514 22.2085 83.8778 22.724 83.8778 23.3608Z" fill="#F67E31"/>
<path d="M147.931 39.3108H147.846C147.846 40.3935 147.402 41.3727 146.683 42.0824C145.963 42.7916 144.97 43.2303 143.872 43.2303C142.774 43.2303 141.781 42.7916 141.061 42.0824C140.342 41.3727 139.897 40.3935 139.897 39.3108C139.897 38.2281 140.342 37.2489 141.061 36.5391C141.781 35.8299 142.774 35.3913 143.872 35.3913C144.97 35.3913 145.963 35.8299 146.683 36.5391C147.402 37.2489 147.846 38.2281 147.846 39.3108H147.931H148.016C148.016 37.054 146.16 35.2243 143.872 35.2243C141.583 35.2243 139.728 37.054 139.728 39.3108C139.728 41.5675 141.583 43.3973 143.872 43.3973C146.16 43.3973 148.016 41.5675 148.016 39.3108H147.931Z" fill="#F59D0E"/>
<path d="M143.751 37.9904C143.751 38.6206 143.237 39.1315 142.604 39.1315C141.971 39.1315 141.458 38.6206 141.458 37.9904" stroke="#5B5C6C" stroke-width="0.2"/>
<path d="M146.308 37.9904C146.308 38.6206 145.795 39.1315 145.162 39.1315C144.529 39.1315 144.015 38.6206 144.015 37.9904" stroke="#5B5C6C" stroke-width="0.2"/>
<path d="M147.023 39.1319C146.466 40.2749 145.289 41.063 143.927 41.063C142.565 41.063 141.389 40.2749 140.832 39.1319" stroke="#5B5C6C" stroke-width="0.2"/>
<path d="M65.511 55.9475H65.4466C65.4466 56.77 65.1087 57.5138 64.5624 58.053C64.0156 58.5918 63.2613 58.925 62.4273 58.925C61.5932 58.925 60.8389 58.5918 60.2922 58.053C59.7459 57.5138 59.4079 56.77 59.4079 55.9475C59.4079 55.125 59.7459 54.3811 60.2922 53.8419C60.8389 53.3032 61.5932 52.9699 62.4273 52.9699C63.2613 52.9699 64.0156 53.3032 64.5624 53.8419C65.1087 54.3811 65.4466 55.125 65.4466 55.9475H65.511H65.5753C65.5753 54.2331 64.1657 52.8431 62.4273 52.8431C60.6888 52.8431 59.2793 54.2331 59.2793 55.9475C59.2793 57.6618 60.6888 59.0519 62.4273 59.0519C64.1657 59.0519 65.5753 57.6618 65.5753 55.9475H65.511Z" fill="#F59D0E"/>
<path d="M62.3351 54.9444C62.3351 55.4231 61.9453 55.8113 61.4644 55.8113C60.9835 55.8113 60.5936 55.4231 60.5936 54.9444" stroke="#5B5C6C" stroke-width="0.2"/>
<path d="M64.2773 54.9444C64.2773 55.4231 63.8875 55.8113 63.4066 55.8113C62.9257 55.8113 62.5358 55.4231 62.5358 54.9444" stroke="#5B5C6C" stroke-width="0.2"/>
<path d="M64.821 55.8113C64.3979 56.6797 63.5039 57.2784 62.4694 57.2784C61.4348 57.2784 60.5408 56.6797 60.1177 55.8113" stroke="#5B5C6C" stroke-width="0.2"/>
<path d="M65.5952 40.5682C66.1324 41.0984 66.4645 41.8296 66.4645 42.6381C66.4645 43.4466 66.1324 44.1778 65.5952 44.708C65.0575 45.2379 64.3156 45.5656 63.4952 45.5656C62.6747 45.5656 61.9329 45.2379 61.3951 44.708C60.8579 44.1778 60.5258 43.4466 60.5258 42.6381C60.5258 41.8296 60.8579 41.0984 61.3951 40.5682C61.9329 40.0383 62.6747 39.7106 63.4952 39.7106C64.3156 39.7106 65.0575 40.0383 65.5952 40.5682ZM66.6928 42.6881H66.6931V42.6381V42.5881H66.6928C66.6657 40.8685 65.2436 39.4837 63.4952 39.4837C61.7298 39.4837 60.2972 40.8954 60.2972 42.6381C60.2972 44.3807 61.7298 45.7925 63.4952 45.7925C65.2436 45.7925 66.6657 44.4077 66.6928 42.6881Z" fill="#9099B9" stroke="#9099B9" stroke-width="0.1"/>
<path d="M63.403 41.6357C63.403 42.1145 63.0131 42.5026 62.5322 42.5026C62.0513 42.5026 61.6615 42.1145 61.6615 41.6357" stroke="#5B5C6C" stroke-width="0.2"/>
<path d="M65.3457 41.6357C65.3457 42.1145 64.9558 42.5026 64.4749 42.5026C63.994 42.5026 63.6042 42.1145 63.6042 41.6357" stroke="#5B5C6C" stroke-width="0.2"/>
<path d="M65.8889 42.5023C65.4658 43.3707 64.5717 43.9694 63.5372 43.9694C62.5027 43.9694 61.6087 43.3707 61.1855 42.5023" stroke="#5B5C6C" stroke-width="0.2"/>
<path d="M74.8092 31.2925H74.7661C74.7661 31.8428 74.54 32.3405 74.1745 32.7013C73.8087 33.0618 73.304 33.2847 72.7459 33.2847C72.1879 33.2847 71.6832 33.0618 71.3174 32.7013C70.9518 32.3405 70.7257 31.8428 70.7257 31.2925C70.7257 30.7422 70.9518 30.2445 71.3174 29.8837C71.6832 29.5232 72.1879 29.3003 72.7459 29.3003C73.304 29.3003 73.8087 29.5232 74.1745 29.8837C74.54 30.2445 74.7661 30.7422 74.7661 31.2925H74.8092H74.8522C74.8522 30.1454 73.9091 29.2154 72.7459 29.2154C71.5828 29.2154 70.6396 30.1454 70.6396 31.2925C70.6396 32.4396 71.5828 33.3696 72.7459 33.3696C73.9091 33.3696 74.8522 32.4396 74.8522 31.2925H74.8092Z" fill="#F59D0E"/>
<path d="M72.6843 30.6213C72.6843 30.9416 72.4235 31.2013 72.1017 31.2013C71.7799 31.2013 71.5191 30.9416 71.5191 30.6213" stroke="#5B5C6C" stroke-width="0.1"/>
<path d="M73.9843 30.6213C73.9843 30.9416 73.7235 31.2013 73.4017 31.2013C73.0799 31.2013 72.8191 30.9416 72.8191 30.6213" stroke="#5B5C6C" stroke-width="0.1"/>
<path d="M74.3476 31.2014C74.0645 31.7824 73.4663 32.1829 72.7742 32.1829C72.082 32.1829 71.4838 31.7824 71.2007 31.2014" stroke="#5B5C6C" stroke-width="0.1"/>
</g>
</svg>
