<svg width="415" height="515" viewBox="0 0 415 515" fill="none" xmlns="http://www.w3.org/2000/svg">
<circle cx="207.5" cy="269" r="246" fill="#9AA2FD"/>
<circle cx="207.5" cy="269" r="246" fill="#949DFF"/>
<circle cx="207.5" cy="269" r="211" fill="#9AA2FD"/>
<circle cx="207.5" cy="269" r="211" fill="#99A1FF"/>
<circle cx="207.5" cy="269" r="177" fill="#9AA2FD"/>
<circle cx="207.5" cy="269" r="177" fill="#9EA6FF"/>
<circle cx="207.5" cy="269" r="142" fill="#A3ABFF"/>
<path d="M345.748 115.025C297.749 101.525 304.748 142.025 314.748 142.025C318.857 142.025 327.373 143.025 337.749 143.025H369.249C409.248 143.025 420.749 140.358 421.249 139.525C424.749 113.025 403.582 115.525 392.249 118.525C394.082 108.692 392.149 88.8252 369.748 88.0252C347.348 87.2252 344.415 105.692 345.748 115.025Z" fill="#B4BAFF"/>
<path d="M8.25573 39.7874C-12.7717 33.8992 -9.70541 51.5638 -5.3247 51.5638C-3.5249 51.5638 0.205866 52 4.75144 52H18.5509C36.0738 52 41.1117 50.8369 41.331 50.4734C42.8643 38.9151 33.5916 40.0055 28.6267 41.314C29.4299 37.025 28.5828 28.3599 18.7696 28.011C8.95638 27.662 7.67151 35.7165 8.25573 39.7874Z" fill="#A6ADFB"/>
<circle cx="39.5" cy="17" r="6" fill="#A6ADFB"/>
<circle r="3" transform="matrix(1 0 0 -1 30.5 3)" fill="#A6ADFB"/>
<path d="M296.9 78C295.329 69.7727 286.645 65.5733 282.5 64.5021C292.449 61.931 297.118 69.8584 298.209 74.1434C309.205 67.973 316.318 72.0009 318.5 74.7862C310.122 72.2152 300.609 75.8575 296.9 78Z" fill="#B4BAFF"/>
<path d="M62.3 94C61.34 89.2987 56.0333 86.899 53.5 86.2869C59.58 84.8177 62.4333 89.3477 63.1 91.7963C69.82 88.2703 74.1667 90.572 75.5 92.1635C70.38 90.6944 64.5667 92.7757 62.3 94Z" fill="#B4BAFF"/>
</svg>
