<svg width="253" height="248" viewBox="0 0 253 248" fill="none" xmlns="http://www.w3.org/2000/svg">
<path d="M99.9799 163.64L85.7 186.84L113.09 219.37H140.71L166.46 186.29L150.52 163.64H99.9799Z" fill="#3F4553"/>
<path d="M85.6999 186.84C85.6999 186.84 24.2699 191.59 8.85993 207.68C-6.55007 223.77 0.699926 241.24 15.7099 241.24C43.3399 241.24 101.8 242.93 129.46 241.24L131.11 203.57L85.6999 186.84Z" fill="#3F4553"/>
<path d="M164.87 186.04C164.87 186.04 229.2 191.59 244.61 207.68C260.02 223.77 251.14 234.43 237.76 241.24C218.93 250.83 151.06 249.24 115.86 237.59L122.37 203.57L164.87 186.04Z" fill="#3F4553"/>
<path d="M167.7 217.64L163.35 206.4L168.77 203.99C168.77 203.99 168.02 197.34 174.65 196.06C181.28 194.78 189.18 199.06 196.88 195.61C203.98 192.43 212.67 189.5 220.78 193.9C221.98 194.55 222.54 195.98 222.13 197.28L222.1 197.38C221.69 198.69 220.41 199.5 219.04 199.36C216.18 199.07 211.08 199.13 206.04 202.18C197.35 207.46 167.7 217.64 167.7 217.64Z" fill="#FEBBA0"/>
<path d="M218.31 218.28C218.31 218.28 175.38 210.65 84.9499 209.47L76.2199 221.31C76.2199 221.31 98.7199 234.17 119.84 238.82C140.96 243.47 213.87 258.11 246.43 235.56L218.31 218.28Z" fill="#3F4553"/>
<path d="M119.84 238.83C98.1899 233.83 75.5399 221.01 75.5399 221.01L76.8899 218.72" stroke="#6E758F" stroke-width="1.5925" stroke-miterlimit="10" stroke-linecap="round"/>
<path d="M84.95 209.47C84.95 209.47 184.3 207.2 210.81 222.58" stroke="#6E758F" stroke-width="1.5925" stroke-miterlimit="10" stroke-linecap="round"/>
<path d="M36.1799 215.91C36.1799 215.91 54.3199 207.41 66.7199 212.98" stroke="#6E758F" stroke-width="1.5925" stroke-miterlimit="10" stroke-linecap="round"/>
<path d="M78.3099 219.35L84.9399 209.25L78.3099 205.66C78.3099 205.66 75.9899 199.85 69.4899 198.05C62.9799 196.26 58.3499 199.15 50.9399 195.11C44.1099 191.38 35.6699 187.79 27.2499 191.54C26.0099 192.09 25.3299 193.47 25.6399 194.8L25.6599 194.9C25.9699 196.24 27.1799 197.14 28.5499 197.11C31.4199 197.04 36.5099 197.5 41.2899 200.94C49.5399 206.88 78.3099 219.35 78.3099 219.35Z" fill="#FEBBA0"/>
<path d="M135.39 209.83L162.55 207.16" stroke="#6E758F" stroke-width="1.5925" stroke-miterlimit="10" stroke-linecap="round"/>
<path d="M100.85 198.06L116 209.03" stroke="#6E758F" stroke-width="1.5925" stroke-miterlimit="10" stroke-linecap="round"/>
<path d="M96.9399 48.7702C97.5799 55.0302 103.03 59.5902 109.11 58.9702C115.19 58.3502 119.6 52.7702 118.96 46.5202C118.32 40.2602 112.87 35.7002 106.79 36.3202C100.72 36.9302 96.3099 42.5102 96.9399 48.7702Z" fill="#3F4553"/>
<path d="M119.65 53.3202C119.65 53.3202 100.33 50.4002 97.2899 32.1702C94.6099 16.0602 105.42 3.15021 117.27 0.920206C117.28 0.920206 145.75 44.8002 119.65 53.3202Z" fill="#3F4553"/>
<path d="M120.09 2.65021C118.67 3.35021 117.32 4.27021 116.09 5.46021C105.08 16.0502 112.05 36.6102 121.91 45.8902C127.37 51.0202 135.35 53.4102 142.32 50.7902C152.51 46.9602 155.7 35.4202 153.63 25.1402C152.09 17.4802 147.84 10.2502 141.57 5.75021C135.3 1.26021 126.83 -0.639794 120.09 2.65021Z" fill="#FDBCA0"/>
<path d="M118.26 39.6902C116.33 41.6002 112.97 42.3802 110.39 41.4702C107.81 40.5602 105.69 38.1302 105.02 35.3102C104.42 32.7802 105.07 29.9002 106.93 28.3502C108.79 26.8002 112.14 26.9002 113.73 28.9102L118.26 39.6902Z" fill="#FDBCA0"/>
<path d="M115.44 32.9702L117.47 69.3102C117.74 76.0302 123.19 81.3702 129.91 81.5002C137.67 81.6602 143.76 74.8802 142.77 67.1802L138.67 33.4402L115.44 32.9702Z" fill="#FDBCA0"/>
<path d="M141.43 56.2202L140.92 51.2402C140.92 51.2402 130.92 54.3102 121.91 45.8802C121.91 45.8902 127.1 55.3602 141.43 56.2202Z" fill="#DF8370"/>
<path d="M111.47 27.4802C124.49 26.8102 136.37 18.0702 142.93 6.81021C142.93 6.81021 130.95 -4.55979 113.44 2.09021C98.9299 7.59021 111.47 27.4802 111.47 27.4802Z" fill="#3F4553"/>
<path d="M112.9 35.8402C111.4 35.9902 110.09 35.1802 109.97 34.0302C109.88 33.1602 110.49 32.3502 111.43 31.9302" stroke="#444359" stroke-width="1.1144" stroke-miterlimit="10" stroke-linecap="round"/>
<path d="M144.18 33.0002C144.48 32.0902 145 31.3702 145.58 30.6902L145.86 31.5702C145.2 31.3202 144.84 30.9402 144.47 30.5702C144.12 30.1802 143.81 29.7902 143.53 29.3702C142.97 28.5402 142.5 27.6602 142.16 26.7302C142.86 27.4402 143.5 28.1702 144.17 28.8702C144.51 29.2102 144.83 29.5602 145.18 29.8602C145.51 30.1502 145.9 30.4502 146.17 30.5202L146.98 30.7102L146.45 31.4002C145.91 32.1102 145.31 32.7702 144.48 33.2502C144.38 33.3102 144.26 33.2702 144.2 33.1802C144.17 33.1102 144.17 33.0502 144.18 33.0002Z" fill="#444359"/>
<path d="M147.11 36.1802C146.71 37.0002 146.03 37.7102 145.15 38.1402C144.28 38.5902 143.2 38.6802 142.24 38.4002C141.26 38.1302 140.5 37.4902 139.85 36.8302C139.56 36.4702 139.27 36.1002 139.03 35.7202C138.82 35.3102 138.6 34.9102 138.44 34.4902C138.81 34.7702 139.13 35.0702 139.45 35.3702L140.44 36.1902C141.14 36.6502 141.8 37.1502 142.56 37.3302C143.29 37.5602 144.07 37.5502 144.84 37.3402C145.6 37.1202 146.36 36.6902 147.11 36.1802Z" fill="#444359"/>
<path d="M136.64 23.1102C137.03 24.2702 137.25 25.4702 137.17 26.7602C137.12 27.3902 136.97 28.0802 136.5 28.6902C136.02 29.3102 135.21 29.5802 134.5 29.5602C133.77 29.5502 133.05 29.2302 132.56 28.7802C132.05 28.3302 131.65 27.8102 131.35 27.2602C130.75 26.1502 130.37 24.9902 130.18 23.7702C130.15 23.5802 130.28 23.4002 130.47 23.3602C130.65 23.3302 130.81 23.4402 130.86 23.6002L130.87 23.6202C131.21 24.7002 131.66 25.7902 132.24 26.7302C132.82 27.6402 133.61 28.4802 134.54 28.4502C135 28.4702 135.43 28.3502 135.69 28.0202C135.98 27.7002 136.12 27.1802 136.2 26.6502C136.35 25.5802 136.25 24.4002 136.07 23.2702V23.2502C136.04 23.0902 136.16 22.9302 136.32 22.9102C136.45 22.8902 136.59 22.9802 136.64 23.1102Z" fill="#444359"/>
<path d="M151.16 20.8402C151.49 21.8202 151.67 22.8202 151.65 23.8902C151.64 24.4202 151.54 25.0002 151.2 25.5502C150.87 26.1302 150.13 26.4902 149.49 26.4602C148.82 26.4502 148.21 26.1002 147.82 25.6902C147.42 25.2702 147.11 24.8202 146.88 24.3402C146.43 23.3802 146.15 22.4002 146.01 21.3702C145.98 21.1802 146.12 21.0002 146.32 20.9702C146.49 20.9502 146.65 21.0502 146.7 21.2102L146.71 21.2302C147 22.1302 147.35 23.0502 147.8 23.8502C148.25 24.6302 148.86 25.3802 149.53 25.3402C149.87 25.3502 150.14 25.2502 150.32 24.9702C150.52 24.6902 150.62 24.2602 150.68 23.8102C150.78 22.9102 150.7 21.9202 150.59 20.9802V20.9602C150.57 20.8002 150.69 20.6502 150.85 20.6202C150.98 20.6202 151.12 20.7102 151.16 20.8402Z" fill="#444359"/>
<path d="M161.96 72.6102C161.87 66.5102 142.09 61.6302 142.09 61.6302C140.85 63.0002 138.72 65.3102 129.75 65.3102C121.17 65.3102 117.74 63.0902 116.4 61.6302H107.91C106.02 61.6302 104.29 62.7102 103.5 64.4302C86.4899 101.64 96.0499 143.2 99.9699 163.63C100.33 165.51 135.83 164.24 151.84 165.51C155.3 165.8 162.3 94.7802 161.96 72.6102Z" fill="#FEE6C6"/>
<path d="M120.65 125.23C122.41 111.01 124.56 102.48 126.21 105.28C127.67 107.76 126.86 120.2 124.67 132.2C124.68 132.2 119.9 131.32 120.65 125.23Z" fill="#FEBBA0"/>
<path d="M132.27 125.23C130.51 111.01 128.36 102.48 126.71 105.28C125.25 107.76 126.06 120.2 128.25 132.2C128.24 132.2 133.02 131.32 132.27 125.23Z" fill="#FEBBA0"/>
<path d="M190.89 121.7H168.54L172.09 144.4L131.53 124.61C131.39 123.09 131.2 121.21 130.97 119.22C129.44 119.22 127.9 119.22 126.37 119.2C126.38 120.93 126.41 122.1 126.41 122.1C126.41 122.1 125.62 132.54 127.43 136.02C130.87 142.64 166.06 163.96 175.83 166.49C176.44 166.65 177.05 166.77 177.66 166.85C187.09 168.18 193.34 162.89 193.27 153.37L190.89 121.7Z" fill="#FEBBA0"/>
<path d="M121.55 119.12C121.2 121.36 120.89 123.52 120.65 125.23L81.2599 143.47L82.9199 121.71H60.5699L58.1999 153.4C58.1399 162.92 64.3899 168.2 73.8099 166.88C74.4199 166.79 75.0299 166.67 75.6399 166.52C85.4099 163.99 118.14 146.3 125.13 135.98C127.2 132.93 126.22 122.66 126.22 122.66C126.22 122.66 126.22 121.24 126.18 119.22C124.64 119.19 123.1 119.16 121.55 119.12Z" fill="#FEBBA0"/>
<path d="M88.6399 134.12C97.3799 108.27 97.3099 108.25 108.04 61.6402C100.86 62.1302 100.12 60.9602 94.4599 63.9002C77.4799 72.7202 61.4899 101.69 56.7799 134.12H88.6399Z" fill="#FEE6C6"/>
<path d="M166.46 131.57C161.32 113.26 142.09 61.6402 142.09 61.6402C161.32 60.9902 187.56 86.0602 193.84 128.22L166.46 131.57Z" fill="#FEE6C6"/>
<path d="M161.97 91.1402L157.92 124.42" stroke="#EED2AD" stroke-width="1.5925" stroke-miterlimit="10" stroke-linecap="round"/>
<path d="M92.3199 96.6002L95.5399 132.2" stroke="#EED2AD" stroke-width="1.5925" stroke-miterlimit="10" stroke-linecap="round"/>
</svg>
